<svg xmlns="http://www.w3.org/2000/svg" xmlns:xlink="http://www.w3.org/1999/xlink"><defs><font id="hackregular" horiz-adv-x="1233" ><font-face units-per-em="2048" ascent="1638" descent="-410" /><glyph unicode="&#xd;" /><glyph horiz-adv-x="0" /><glyph horiz-adv-x="0" /><glyph /><glyph unicode="!" d="M481 1053v445h265v-445l-67-567H558zM616-60q-70 0-116 48-46 47-46 125 0 77 46 124 47 47 116 47t116-47q46-46 46-124 0-42-11.5-72T732-12q-47-48-116-48z" /><glyph unicode='"' d="M338 1493h174V938H338v555zm383 0h174V938H721v555z" /><glyph unicode="#" d="M260 414H2v153h297l84 334H117v154h303l104 415h160l-104-415h245l105 415h160l-105-415h244V901H948l-84-334h250V414H825L721 0H561l105 414H420L315 0H156zM705 567l83 334H543l-84-334h246z" /><glyph unicode="$" d="M591 0q-51 2-101 9.5T389 28q-50 11-98 26.5T190 92v180q54-33 102-55.5T392 177q102-34 2e2-35v458q-1e2 16-174.5 45.5T291 722q-51 46-76 105.5T190 964q0 156 106 250t296 107v235h1e2v-235q41-2 82.5-7.5T853 1301q41-8 82-18t83-23v-173q-44 23-90 41t-75 26q-34 10-76.5 17.5T692 1181V750q207-32 314-128 108-98 108-249 0-76-28-140.5T998 114Q882 11 693 2v-303H591V0zm1 1183q-104-5-162-60-59-56-59-149 0-46 14-79t41-58q55-50 166-67v413zM692 146q111 3 172 61 62 59 62 156 0 46-13.5 83.5T870 510q-55 50-178 70V146z" /><glyph unicode="%" d="M351 793q-68 0-126 24.5T125 884q-45 45-68.5 103.5T33 1112q0 71 25 129t67 1e2 1e2 66.5 127 24.5q64 0 123-24 58-24 103-69 23-23 41-49.5t29-53.5q24-59 24-123 0-66-24-125t-68-103q-42-42-101-67t-128-25zm0 135q37 0 71 13.5t61 39.5q23 23 38.5 56.5T537 1113q0 76-54 130-55 53-130 53-77 0-131-52-25-24-39.5-58t-14.5-74q0-79 53-132 22-22 55-37t75-15zM42 560l1150 436V883L42 453v107zM879 0Q743 0 651 92q-45 46-67.5 103.5T561 318q0 71 25 129.5T653 548t1e2 66.5T879 639q65 0 122-24t103-70q26-26 43-53t28-52q25-57 25-121 0-63-22.5-121T1107 92q-47-46-104.5-69T879 0zm0 135q77 0 131 54 53 53 53 130t-54 131-130 54q-77 0-130-53t-53-132q0-78 53-131t130-53z" /><glyph unicode="&#x26;" d="M552-30Q445-30 354.5 6.5T198 106q-64 61-103 145.5T56 439q0 67 17.5 133.5T126 698q68 116 208 217-51 73-74 141-24 69-24 141 0 79 26 136.5t74 99.5q99 87 272 87 65 0 131-12 29-5 63-14t72-21v-183q-29 20-61 35t-61 23q-62 18-128 18-101 0-156-45-56-45-56-124 0-58 29-122 14-30 39-71t67-97l416-559q38 49 58 124 10 38 14.5 82.5t4.5 92.5q0 20-.5 45.5T1037 753l-1 7h164v-39q0-162-37-282-18-59-46-112t-66-98L1221 0h-213l-78 109q-40-34-83-60T753 5q-42-15-93-25T552-30zm33 155q25 0 46.5 3t44.5 9q49 13 90 35 24 13 45 27 11 7 16 10.5t7.5 6 4 3.5 5.5 4L416 803q-93-75-137-154-46-82-46-176 0-72 24.5-135T332 225q47-47 111.5-73.5T585 125z" /><glyph unicode="'" d="M528 1493h174V938H528v555z" /><glyph unicode="(" d="M595-270Q517-146 462-32.5T370 194q-74 227-74 449 0 221 74 449 38 115 93 228.5T595 1554h160q-71-121-118.5-231.5T557 11e2q-34-118-50-230t-16-227q0-118 16.5-229.5T557 187t81-226 117-231H595v0z" /><glyph unicode=")" d="M478-270Q610-39 677 189q31 107 48 222t17 232q0 112-16.5 227.5T677 1098q-31 107-80.5 222T478 1554h160q153-237 225-462 74-228 74-449 0-223-74-451-74-227-225-462H478v0z" /><glyph unicode="*" d="M250 566l242 371-364 158 36 103 376-123 20 425h108l20-425 376 123 36-103-364-158 242-371-94-67-270 357-270-357z" /><glyph unicode="+" d="M532 557H88v170h444v444h168V727h445V557H7e2V113H532v444z" /><glyph unicode="," d="M4e2-283Q644-174 652 51q-12-2-21.5-3T612 47q-32 0-60 9.5T502 86q-44 39-44 110 0 33 11 62.5t35 50.5q20 17 50 28.5t66 11.5q85 0 132-68 46-67 46-188 0-171-92-295-92-123-260-185z" /><glyph unicode="-" d="M206 683h821V519H206v164z" /><glyph unicode="." d="M613-27q-68 0-115 47t-47 122 47 122 115 47 115-47 47-122-47-122-115-47z" /><glyph unicode="/" d="M889 1493h190L293-190H102z" /><glyph unicode="0" d="M616-29q-240 0-361 196-122 197-122 578 0 382 122 579 121 196 361 196 118 0 209-48t153-148q60-96 91-239.5t31-339.5-31-339-91-239Q855-29 616-29zm0 160q73 0 125.5 39T828 283q69 151 69 462 0 312-69 462-34 75-86 114t-126 39q-141 0-210-152-35-75-52.5-188.5T336 745q0-312 70-462 36-78 88.5-115T616 131zm2 265q-15 0-27.5 11.5t-22 31-16.5 46-13 55.5q-5 24-9 53t-7 58.5-5 55.5-2 43q0 12 1 35t3.5 51 6 58.5T536 953q28 143 78 143 28 0 47.5-38T695 950q5-25 9-54t7-57.5 4.5-54T717 742q0-10-.5-31t-2.5-48.5-5.5-58.5-8.5-62q-13-74-34.5-110T618 396z" /><glyph unicode="1" d="M270 170h314v1141l-338-76v184l336 74h202V170h310V0H270v170z" /><glyph unicode="2" d="M152 134q0 19 5.5 33.5T177 196q57 60 135 142.5T479 518q51 55 82 89t51 56 32.5 36.5T671 731q27 32 47.5 58.5t37 50 29 45.5 22.5 44q17 38 26 76t9 80q0 60-18 109.5t-55 84.5q-74 71-203 71-90 0-190-33t-212-1e2v204q52 25 103.5 43.5T367 1495q50 13 99 19t97 6q104 0 195-28t159-88q60-53 96-129.5t36-172.5q0-51-11-99.5t-33-97.5q-11-25-25-49t-31.5-49-39.5-52.5-49-59.5q-29-34-69-79t-93-102q-38-41-70-73.5t-68.5-69-83-83.5T363 170h696V0H152v134z" /><glyph unicode="3" d="M566-29q-48 0-100.5 4.5T359-10q-46 8-101 22T149 45v204q51-26 1e2-47t101-35q50-13 98.5-19.5T547 141q166 0 255 75 45 38 67 92t22 121q0 134-88 210-43 37-104 56.5T561 715H407v166h154q140 0 218 61 77 60 77 173 0 54-18 98.5t-54 75.5q-71 61-210 61-41 0-87-5t-94-15q-97-20-199-60v186q121 31 216 48 92 16 169 16 105 0 193.5-27t154.5-82q62-52 95.5-125t33.5-164q0-65-17.5-116T988 915q-68-81-2e2-116 147-39 225-138 41-52 59.5-115t18.5-135q0-1e2-34-181.5T954 89Q886 31 789.5 1T566-29z" /><glyph unicode="4" d="M735 356H102v191l6e2 946h234V520h199V356H936V0H735v356zm0 164v789L264 520h471z" /><glyph unicode="5" d="M525-29q-45 0-100.5 4T320-13q-51 8-94 20t-83 28v205q93-50 185-74 94-25 185-25 174 0 263 88 90 88 90 248 0 87-25 149t-68 103q-42 40-108 64t-157 24q-37 0-76.5-4.5T354 799q-37-9-76-24t-71-32v750h756v-170H391V956q43 16 87 24 41 7 88 7 121 0 213-37t155-1e2q68-69 101.5-162.5T1069 481q0-118-36-213T928 106Q859 40 759.5 5.5T525-29z" /><glyph unicode="6" d="M633-29q-137 0-228 48.5T255 159q-63 98-92.5 240T133 724q0 206 36.5 353T278 1322t177.5 148 242.5 50q41 0 79.5-4t70.5-11q40-8 75.5-20t67.5-25v-186q-30 18-65 33t-69 24q-35 10-73 14.5t-73 4.5q-195 0-293-144-99-146-99-426 48 1e2 133 154 45 28 94 40.5T655 987q1e2.0 183.5-33T982 855t89-161 29-213q0-122-30.5-216.5T979 104 832.5 4.5 633-29zm0 158q65 0 115.5 22t84.5 67q68 89 68 261 0 173-68 262-35 46-86 67t-113 21q-70 0-121-24.5T428 737q-35-44-54.5-108.5T354 479t19.5-149.5T428 221q34-43 85-67.5T633 129z" /><glyph unicode="7" d="M854 1323H139v170h940v-86L545 0H334z" /><glyph unicode="8" d="M615-29Q499-29 410.5.5T260 84t-95.5 132.5T131 4e2q0 159 80 260 79 1e2 229 133-61 15-113 46t-88 76q-38 47-55.5 103T166 1137q0 85 30 155.5t91 123.5q59 51 140.5 77.5T616 1520t189-26.5 141-77.5q60-51 90.5-121.5T1067 1136q0-68-18.5-122T995 916t-85.5-75T793 793q151-33 230-133t79-258q0-105-33.5-184.5T973 84Q910 29 820 0T615-29zm1 897q121 0 186 63 64 63 64 183 0 121-63 186-64 64-187 64-121 0-185-64t-64-186q0-120 64-183t185-63zm3-739q66 0 118 19t89 57 55 91.5T899 418q0 74-19.5 127T825 633q-75 76-209 76-135 0-208-75-35-36-54.5-89.5T334 421q0-68 18.5-122.5T408 206q38-39 91.5-58T619 129z" /><glyph unicode="9" d="M528-29q-37 0-75.5 3.5T379-14q-32 7-70 19t-73 26v186q32-19 66.5-33t67.5-23q72-20 147-20 193 0 292 145 98 145 98 425-23-51-58-90t-74-64q-83-53-206-53-1e2.0-182 33.5T246 637q-119 134-119 373 0 118 29.5 214.5T249 1389q60 66 147 98.5t198 32.5q137 0 228-48.5T972 1332q64-1e2 93-243t29-323q0-198-34.5-347T950 169Q876 69 769 20T528-29zm65 691q70 0 121 24.5t85 67.5q35 44 54 108.5t19 149.5-19 149.5-54 108.5q-34 43-85 67.5T593 1362q-62 0-113-21t-86-67q-68-89-68-262t68-262q34-45 84.5-66.5T593 662z" /><glyph unicode=":" d="M620 716q-68 0-115 47t-47 122 47 122 115 47 115-47 47-122-47-122-115-47zM620 0q-68 0-115 47t-47 122 47 122 115 47 115-47 47-122-47-122T620 0z" /><glyph unicode=";" d="M610 703q-72 0-120 50-50 48-50 128 0 78 50 128 48 49 120 49 73 0 121-49 49-49 49-128 0-80-49-128-48-50-121-50zM394-361Q650-247 659-10q-13-3-23-4t-19-1q-33 0-63 10.5T501 26q-46 43-46 116 0 35 11.5 65.5T503 260q21 19 52.5 30.5T625 302q89 0 139-71 48-71 48-197 0-180-97-310T442-470z" /><glyph unicode="&#x3c;" d="M88 559v166l1057 418V961L295 641l850-317V141z" /><glyph unicode="=" d="M88 930h1057V760H88v170zm0-406h1057V352H88v172z" /><glyph unicode="&#x3e;" d="M88 324l850 317L88 961v182l1057-418V559L88 141v183z" /><glyph unicode="?" d="M494 583q0 78 30 146 17 36 44.5 72t70.5 79l90 89q29 29 51.5 55.5T814 1072q24 43 24 94 0 47-18 82.5t-47 60.5q-33 28-76.5 41.5T6e2 1364q-82 0-169-34-45-17-91.5-43t-95.5-60v188q48 29 96.5 50.5T434 15e2q46 14 94.5 21t100.5 7q1e2.0 175.5-25.5T931 1432q54-48 81.5-113.5T1040 1178q0-80-34-145-36-67-127-157l-88-86q-70-68-88-108-19-40-19-83V472H494v111zM593-40q-62 0-104 42-22 22-32.5 50.5T446 113t10.5 60 31.5 49q17 17 43.5 29.5T592 264q32 0 58-11t46-31q42-42 42-109 0-68-42-110-43-43-103-43z" /><glyph unicode="@" d="M796-319q-164 0-308.5 57T236-87Q135 25 81 184T27 547q0 188 46.5 345T214 1164q96 118 224 174.5t271 56.5q114 0 199.5-34t145.5-98 92-155.5 32-202.5V135h-144v111q-37-62-102-97-65-34-147-34-80 0-148.5 31T517 235q-48 54-76.5 133T412 546q0 91 26 169t79 139q55 63 123.5 92T782 975q42 0 78.5-9t70.5-26q67-35 103-96v63q0 78-22.5 142.5T947 1159q-42 46-103.5 70T702 1253q-112 0-209.5-47.5T322 1062q-71-93-108.5-222.5T176 549q0-170 42-303.5T340 18q78-93 189.5-143.5T778-176q29 0 56 2.5t54 7.5 54.5 12.5T999-135l48-135q-34-14-64-22.5T923-307q-31-6-60-9t-67-3zm7 579q52 0 96 20t76 58 47.5 91 15.5 116-16 116.5-48 91.5q-31 37-75 56.5T802 829q-105 0-170-77-32-38-48.5-89.5T567 546q0-66 16.5-118.5T632 337q65-77 171-77z" /><glyph unicode="A" d="M494 1493h245L1196 0H987L877 389H354L246 0H37zM829 551l-213 764-213-764h426z" /><glyph unicode="B" d="M166 1493h442q228 0 353-99 124-99 124-281 0-70-17-123.5t-48-91.5q-32-38-81-63.5T823 799q148-23 231-125 41-51 62-117t21-148q0-202-133-305Q870 0 608 0H166v1493zM604 877q76 0 127.5 14t84.5 43q65 56 65 177 0 60-16 100.5t-48 65.5q-65 50-213 50H369V877h235zm4-711q175 0 251 62 75 61 75 202 0 146-79 215-80 68-247 68H369V166h239z" /><glyph unicode="C" d="M742-29q-140 0-252.5 50T297 174q-79 102-118.5 245.5T139 744t39.5 325T298 1316t192 153.5 252 50.5q48 0 92.5-5.5T915 15e2t79-25.5 79-36.5v-207q-73 61-159 93-43 16-85.5 24t-87.5 8q-97 0-170.5-38T448 1204q-98-152-98-459 0-306 98-458t295-152q45 0 87.5 8t85.5 24q83 31 157 93V53Q995 12 915-9q-39-10-83.5-15T742-29z" /><glyph unicode="D" d="M137 1493h303q342 0 504-182t162-566q0-382-162-563Q782 0 440 0H137v1493zM436 166q255 0 356 126 51 63 76 175t25 280q0 165-24.5 278.5T793 1202q-51 64-141.5 94.5T436 1327h-96V166h96z" /><glyph unicode="E" d="M197 1493h886v-170H399V881h654V711H399V170h703V0H197v1493z" /><glyph unicode="F" d="M233 1493h879v-170H436V863h613V693H436V0H233v1493z" /><glyph unicode="G" d="M7e2-29q-143 0-253.5 52T259 175q-78 102-117.5 245T102 744q0 186 41 329.5T262 1317t189.5 151.5T703 1520q1e2.0 184-26 44-14 85.5-34.5t80.5-46.5v-207q-43 41-85.5 69t-80.5 45q-44 19-90 27.5t-91 8.5q-97 0-170-37t-124-115q-50-77-74.5-190.5T313 743q0-158 24-270.5T409 285q94-150 294-150 32 0 61.5 4t55.5 12q24 8 47 19.5t44 28.5v401H694v166h410V123q-81-75-182-113-102-39-222-39z" /><glyph unicode="H" d="M137 1493h203V881h553v612h203V0H893v711H340V0H137v1493z" /><glyph unicode="I" d="M201 170h313v1153H201v170h829v-170H717V170h313V0H201v170z" /><glyph unicode="J" d="M502-29Q399-29 307-7q-97 23-198 68v236q91-81 188-121 99-41 202-41 67 0 118.5 18t80.5 57q56 74 56 277v836H373v170h583V487q0-144-25.5-240.5T850 89 709.5-.5 502-29z" /><glyph unicode="K" d="M137 1493h203V829l631 664h237L627 883 1225 0H981L494 748 340 584V0H137v1493z" /><glyph unicode="L" d="M215 1493h203V170h721V0H215v1493z" /><glyph unicode="M" d="M86 1493h270l258-760 260 760h271V0H958v1319L692 532H539l-267 787V0H86v1493z" /><glyph unicode="N" d="M139 1493h256L899 264v1229h195V0H838L334 1229V0H139v1493z" /><glyph unicode="O" d="M616-29q-253 0-376 191-123 190-123 583 0 392 124 583 62 96 154.5 144t220.5 48q123 0 218-46t159-146q123-192 123-583 0-390-123-582Q929 63 834 17T616-29zm0 164q154 0 222 141 67 138 67 469 0 330-67 470-68 141-222 141-153 0-220-141-68-142-68-470 0-327 68-469 67-141 220-141z" /><glyph unicode="P" d="M172 1493h436q249 0 379-113 67-59 98-143.5t31-190.5q0-220-128-333-63-56-158-84.5T608 6e2H374V0H172v1493zM608 766q75 0 129 20t90 54q78 73 78 207 0 133-78 207-77 73-219 73H374V766h234z" /><glyph unicode="Q" d="M655-27h-8.5T635-28t-11.5-1H617q-125 0-218.5 46T241 163t-94 245-30 337q0 392 124 583 62 96 154.5 144t220.5 48q123 0 218-46t159-146q123-192 123-583 0-293-68-473-33-88-85-152T840 20l285-290H889zM616 135q154 0 222 141 67 138 67 469 0 330-67 470-68 141-222 141-153 0-220-141-68-142-68-470 0-327 68-469 67-141 220-141z" /><glyph unicode="R" d="M143 1493h416q246 0 377-111 66-56 98.5-136t32.5-181q0-79-20-138.5T987 820q-80-94-227-115 40-10 74-29.5t59-45.5q28-29 60.5-81.5T1030 408L1233 0h-217L838 377q-39 83-73.5 134T7e2 585q-31 24-72.5 35T539 631H346V0H143v1493zM567 797q145 0 216 65 35 32 53 82t18 115-18.5 115-56.5 85q-36 32-90.5 50T559 1327H346V797h221z" /><glyph unicode="S" d="M584-29q-53 0-107 5.5T371-7 264 22 158 61v215q58-37 112-63.5T376 169q102-34 205-34 75 0 135.5 17T820 203q44 35 64.5 84T905 4e2q0 56-14.5 96T847 565q-32 33-80.5 54T643 657l-108 25q-101 23-176.5 57T233 824q-94 94-94 255 0 102 35 183t1e2 139q64 57 153.5 88t203.5 31q43 0 88-4.5t93-14.5q93-19 2e2-59v-205q-48 31-93.5 52.5T828 1326q-93 30-186 30-68 0-127-16t-101-50-62-81-20-104q0-51 14.5-85.5T387 960q31-29 79.5-50T590 872l106-24q106-24 181-62.5t124-91.5q97-104 97-284 0-114-35-194.5T967 83Q901 27 804.5-1T584-29z" /><glyph unicode="T" d="M516 1323H47v170h1139v-170H719V0H516v1323z" /><glyph unicode="U" d="M616-29q-54 0-100.5 7.5T427 0q-39 14-80.5 36.5T273 88q-31 28-55 66t-41 95q-8 25-13.5 56t-9 70-5.5 87.5-2 110.5v920h203V481q0-109 6-155 6-47 21-72 32-59 93-89 60-30 146-30 87 0 147 30 62 31 93 89 8 15 13 31t8 40q6 46 6 154v1014h202V573q0-66-2-116.5t-5.5-89-9-67.5-11.5-51q-14-50-39-90t-59-71q-33-30-73.5-52T806 0q-37-13-84-21t-106-8z" /><glyph unicode="V" d="M57 1493h209L616 170l351 1323h209L739 0H494z" /><glyph unicode="W" d="M0 1493h197L340 281l170 802h211l172-804 143 1214h197L1010 0H819L616 887 414 0H223z" /><glyph unicode="X" d="M518 791 86 1493h217l328-563 334 563h217L735 791 1214 0H997L631 643 236 0H18z" /><glyph unicode="Y" d="M514 670 37 1493h215l364-659 363 659h217L717 670V0H514v670z" /><glyph unicode="Z" d="M110 154l759 1169H132v170h969v-154L321 170h802V0H110v154z" /><glyph unicode="[" d="M423 1636h424v-143H607V-127h240v-143H423v1906z" /><glyph unicode="\" d="M102 1493h191l786-1683H889z" /><glyph unicode="]" d="M386-127h240v1619H386v143h424V-270H386v143z" /><glyph unicode="^" d="M528 1493h177l456-557H983l-367 395-366-395H72z" /><glyph unicode="_" d="M0-403h1024v-80H0v80z" /><glyph unicode="`" d="M604 1262l-325 376h198l281-376H604z" /><glyph unicode="a" d="M513-29q-174 0-275 97-48 46-75 108.5T136 327q0 185 126 283 124 97 368 97h247v29q0 64-17 114t-51 81q-33 30-87 45t-126 15q-95 0-191-27-97-27-187-79v184q42 16 93 32t103 27q91 19 183 19 71 0 129-10.5t108-31.5q46-20 87.5-50.5T992 984q21-29 34-61t20-63q16-73 16-221V410q2-58 3-102t6-82q5-42 11.5-79t11.5-56q7-31 16-58.5T1121 0H936q-5 12-12.5 35.5T909 87q-5 22-9.5 44.5T893 170q-29-50-74.5-89T729 19Q681-6 627.5-17.5T513-29zm38 154q151 0 238 106 88 108 88 291v41H644q-160 0-242-56-43-29-62.5-71.5T320 337q0-52 16-90.5t45-65.5q29-26 70.5-41t99.5-15z" /><glyph unicode="b" d="M676-29q-51 0-93 10.5T5e2 15q-77 44-123 126L359 0H193v1556h184V977q43 82 122 126 77 44 181 44 96 0 176.5-38T996 993q58-78 87-187t29-245q0-274-116-432-57-78-137-118T676-29zM650 127q133 0 2e2 109 68 110 68 323t-68 323q-67 109-201 109T446 882q-69-110-69-323t69-322q69-110 204-110z" /><glyph unicode="c" d="M712-29q-125 0-227.5 39.5T310 127q-73 78-109.5 186.5T164 559q0 143 38.5 251T311 992q74 78 175.5 116.5T713 1147q46 0 85-5t77-16q76-21 155-65V868q-37 32-73 56t-73 38q-75 29-166 29-174 0-267-112-93-113-93-319 0-96 21.5-178T451 240q94-113 270-113 50 0 91.5 8t76.5 22q45 17 77.5 39.5T1030 248V57q-34-20-74-37T878-8q-35-10-76.5-15.5T712-29z" /><glyph unicode="d" d="M559-29q-106 0-186 42T239 129q-58 79-87 188.5T123 562q0 133 28.5 242.5T239 992t141 116.5 179 38.5q102 0 178-43 77-44 121-127v579h184V0H876l-18 141q-23-40-52-71.5T736 15q-76-44-177-44zm26 156q135 0 204 110 69 109 69 322t-69 323q-32 51-82 80t-121 29q-134 0-201-109-68-110-68-323t68-323q35-57 86-83t114-26z" /><glyph unicode="e" d="M677-29q-129 0-231.5 39.5T271 127 161.5 312.5 124 558q0 141 38 247.5T267 987q73 81 171 120.5t211 39.5q112 0 196.5-37T990 1003t91.5-169.5T1113 606v-90H316v-6q0-183 96-283 46-48 111.5-74T680 127t185 28q97 29 205 85V57q-53-22-103-38T868-8q-48-11-96-16t-95-5zM929 660q-2 86-22.5 147.5T853 907q-36 42-89 63t-119 21q-135 0-220-88-86-89-102-244z" /><glyph unicode="f" d="M466 977H167v143h299v78q0 185 85 271 84 87 263 87h221v-153H826q-54 0-86.5-10.5T689 1363q-39-41-39-144v-99h385V977H650V0H466v977z" /><glyph unicode="g" d="M601-440q-39 0-78 3.5T442-426q-41 7-81.5 17T276-385v182q49-23 94.5-40t83.5-28q78-22 151-22 74 0 126 20t87 62q68 80 68 256v133Q843 85 766 38 690-8 582-8 385-8 268 149T151 569t117 421q59 79 136.5 118t178.5 39q52 0 97.5-10.5T764 1104q76-44 122-133l18 145h166V72q0-251-119-382-118-130-350-130zm21 585q130 0 197 109t67 315q0 208-67 315-35 57-85.5 82T621 991q-134 0-205-107t-71-316q0-205 72-314t205-109z" /><glyph unicode="h" d="M195 1556h184V952q50 97 133 146t198 49q90 0 153-29t104-83q84-113 84-341V0H866v694q0 151-53 222t-167 71q-66 0-114.5-23T449 896q-70-91-70-263V0H195v1556z" /><glyph unicode="i" d="M523 1323q-30 0-30 30v173q0 30 30 30h144q30 0 30-30v-173q0-30-30-30H523zM859-8q-80 0-143.5 25T604 98q-91 106-91 3e2v578H268v144h429V398q0-125 46-187 24-33 57.5-48t76.5-15h215V-8H859z" /><glyph unicode="j" d="M652 1323q-30 0-30 30v173q0 30 30 30h144q30 0 30-30v-173q0-30-30-30H652zM238-270h234q90 0 135 62 45 63 45 188v997H335v143h501V-20q0-95-22-171t-67-130-109.5-79.5T492-426H238v156z" /><glyph unicode="k" d="M226 1556h190V655l483 465h224L682 698 1192 0H967L553 578 416 449V0H226v1556z" /><glyph unicode="l" d="M821-8q-80 0-143.5 25T566 98q-91 106-91 3e2v1014H180v144h479V398q0-125 46-187 24-33 57.5-48t76.5-15h215V-8H821v0z" /><glyph unicode="m" d="M109 1120h151l16-96q33 60 83 92 49 31 113 31 74 0 126-35 49-34 78-106 35 73 87 107t126 34q69 0 117-26.5t74-77.5q55-104 55-394V0H967v641q0 64-1.5 112t-5 83.5-8.5 60-12 39.5q-11 26-34 41.5T841 993q-38 0-64-14.5T736 932q-17-35-24-103.5T705 641V0H537v641q0 73-2 123.5t-6 84.5-9.5 54.5T508 937q-13 26-37.5 41T407 993q-42 0-65.5-16.5T306 933q-7-15-12.5-38t-9.5-57.5-6-82.5-2-114V0H109v1120z" /><glyph unicode="n" d="M195 1120h166l18-168q50 97 133 146t198 49q90 0 153-29t104-83q84-113 84-341V0H866v694q0 151-53 222t-167 71q-66 0-114.5-23T449 896q-70-91-70-263V0H195v1120z" /><glyph unicode="o" d="M616-29Q501-29 411.5 8.5T260 121q-63 78-93 188.5T137 560q0 284 123 436 123 151 356 151 120 0 208.5-38.5T973 996q123-152 123-435 0-143-30.5-254T973 121Q913 47 823.5 9T616-29zm0 156q141 0 213 110 72 109 72 322t-72 323q-72 109-213 109-140 0-212-109-72-110-72-323t72-322q72-110 212-110z" /><glyph unicode="p" d="M190 1120h167l18-143q47 84 123 127t177 43q1e2.0 180-39t138-118 86.5-187.5T1108 557q0-275-116-430Q876-29 674-29q-57 0-99 11.5T496 15q-78 45-121 126v-567H190v1546zM647 127q134 0 201 109t67 323-67 323-201 109-203-109q-69-110-69-323t69-322q69-110 203-110z" /><glyph unicode="q" d="M870 139q-22-40-51-72t-70-55q-77-45-180-45-95 0-175.5 38T253 123q-53 71-84.5 176T137 551q0 134 28.5 245T253 987q58 78 138 117t179 39q102 0 178-43 38-22 68.5-53.5T870 973l18 143h167V-430H870v569zM599 123q66 0 117 27t86 83q68 110 68 322 0 213-68 323-35 56-85.5 82.5T6e2 987q-133 0-2e2-109-68-110-68-323t68-323q67-109 199-109z" /><glyph unicode="r" d="M302 1120h167l18-219q47 119 142 183 94 63 225 63 68 0 128-17 29-8 58-21.5t55-31.5V889q-57 46-120 67-62 21-135 21-171 0-262-108-91-107-91-312V0H302v1120z" /><glyph unicode="s" d="M590-29q-44 0-90.5 4.5T410-12q-39 8-91.5 22T213 41v190q64-32 109-49.5t88-29.5q46-13 89-20t89-7q121 0 189 50 35 26 51 61t16 71q0 70-59 113.5T599 490l-8 2-69 14q-75 15-133.5 40T290 611q-73 73-73 201 0 81 27.5 143t81.5 105q57 46 136 66.5t177 20.5q43 0 86-4t85-12q38-8 79.5-20.5T973 1081V901q-80 46-159 69-40 11-80.5 17t-86.5 6q-58 0-104.5-10T465 953q-62-41-62-125 0-35 11.5-64t34.5-47 76.5-35.5T678 645l74-14q72-14 123-40t85-64q70-77 70-204 0-86-30.5-149.5T912 65Q851 17 769.5-6T590-29z" /><glyph unicode="t" d="M807-4Q601-4 515 79q-85 82-85 286v612H131v143h299v293l184 80v-373h418V977H614V365q0-123 47-173 46-49 164-49h207V-4H807v0z" /><glyph unicode="u" d="M534-29Q363-29 279 84q-84 112-84 340v694h184V424q0-152 54-222 26-34 65.5-52.5T598 131q130 0 199 92 69 91 69 262v633h185V0H884l-18 168Q816 70 733 21q-85-50-199-50z" /><glyph unicode="v" d="M1e2 1120h191l325-940 326 940h191L735 0H498z" /><glyph unicode="w" d="M0 1120h182l195-905 160 578h157l162-578 195 905h182L971 0H795L616 614 438 0H262z" /><glyph unicode="x" d="M516 584l-401 536h204l297-405 295 405h207L717 584 1157 0H944L616 449 289 0H76z" /><glyph unicode="y" d="M184-272h109q45 0 76 13.5t51 33.5q22 23 50 79t67 164L104 1120h195l332-876 327 876h195L858 360q-24-62-37.5-96t-21-53.5-11.5-30-9-24.5-13.5-37T741 52q-30-81-51.5-136T652-175.5t-26.5-58T608-268q-22-38-49-67.5T493-387q-69-39-161-39H184v154z" /><glyph unicode="z" d="M203 170l643 805H227v147h813V954L397 150h643V0H203v170z" /><glyph unicode="{" d="M908-253q-248 0-333 74-85 73-85 295v239q0 150-53 209-54 58-194 58H127v143h116q141 0 194 57 53 58 53 207v240q0 222 85 295 83 73 333 73h64v-143h-70q-140 0-182-43-43-43-43-186v-248q0-158-45-228-22-34-61-58.5T476 693q111-27 156-98t45-227V120q0-143 43-186 42-43 182-43h70v-144h-64v0z" /><glyph unicode="|" d="M530 1565h172V-483H530v2048z" /><glyph unicode="}" d="M261-118h68q140 0 184 44 43 43 43 185v248q0 156 45 227t156 98q-110 26-155 96-22 34-34 88.5T556 1008v248q0 142-43 185-44 44-184 44h-68v143h62q250 0 333-73 84-74 84-295v-240q0-78 21-127.5t63-79.5q40-29 97.5-43t126.5-14h64V613h-64q-71 0-128-14.5T824 555q-42-31-63-81t-21-128V107q0-222-84-295-85-74-333-74h-62v144z" /><glyph unicode="~" d="M88 666q78 60 151 87t156 27q28 0 53-3t49-8q15-3 29-7t28-9 31-11 38-15q8-3 15-6.5l17-8.5q114-55 210-55 69 0 138 31 32 14 66.5 36t75.5 56V606q-75-58-146-86-33-13-69.5-20.5T849 492q-29 0-54 3.5T746 506t-48.5 16-52.5 21q-3 1-8 3t-10 4.5-9.5 4-5.5 2.5q-76 33-128 45-53 12-102 12-41 0-79.5-7.5T232 585q-31-13-68.5-36.5T88 492v174z" /><glyph unicode="&#xa0;" /><glyph unicode="&#xa1;" d="M626 1498q69 0 116-48 23-23 34.5-53t11.5-72q0-78-46-124-47-47-116-47t-116 47q-46 47-46 124 0 78 46 125 46 48 116 48zm63-546 67-567V-60H491v445l77 567h121z" /><glyph unicode="&#xa2;" d="M698-27Q586-16 498 27.5T344 152q-63 77-98.5 181.5T210 558q0 122 36.5 227.5T345 967q61 75 148 121t205 57v287h103v-287q29-2 61-7t61-13 65.5-20 72.5-28V905q-30 18-65 34.5T929 967q-35 12-66 18t-62 8V123q32 2 64 9.5t65 18.5q31 11 65 26.5t66 35.5V41q-46-20-76.5-30T923-7q-65-17-122-20v-286H698v286zm0 1018q-133-12-212-130-80-119-80-302t80-301q41-60 93.5-92T698 127v864z" /><glyph unicode="&#xa3;" d="M139 170h236v465H176v143h199v238q0 254 110 379 55 63 137.5 94t187.5 31q36 0 72.5-3.5T951 1506q24-5 62.5-16.5t78.5-27.5v-184q-34 24-66.5 40.5T967 1344q-63 22-130 22-135 0-198-89-64-89-64-282V778h371V635H575V170h537V0H139v170z" /><glyph unicode="&#xa4;" d="M205 285l166 166q-19 31-28 52.5T326 549t-11.5 45.5T311 642q0 28 4 50.5t12 45.5q16 48 46 91L205 995l94 95 166-168q46 31 92 46 45 15 94 15 23 0 48-3.5t47-10.5 48-19 50-26l166 166 90-93-166-166q15-25 27.5-51t17.5-44q7-22 10.5-47.5T993 640q0-49-15-94-15-47-46-91l168-166-94-94-166 167q-46-31-91-46-47-15-97-15-26 0-47.5 3.5T557 316t-46.5 16.5T461 358L297 195zM653 426q44 0 83 15.5t70 46.5q30 31 46 70.5t16 84.5-16 84-45 68q-30 30-69.5 45.5T653 856q-43 0-82-15t-70-45q-29-28-46-67t-17-87q0-89 62-153 30-30 68.5-46.5T653 426z" /><glyph unicode="&#xa5;" d="M514 524H115v111h399v35l-90 151H115v111h243L37 1493h215l364-659 363 659h217L866 932h252V821H803l-86-151v-35h401V524H717V0H514v524z" /><glyph unicode="&#xa6;" d="M530 1432h172V674H530v758zm0-1024h172v-758H530v758z" /><glyph unicode="&#xa7;" d="M595-195q-39 0-79 4t-72 10q-36 7-78.5 18.5T279-137V27q89-40 161-59t133-19q101 0 157 42 28 21 42 50.5t14 61.5q0 30-13 57.5t-40 55-69 56.5-99 62l-24 14q-1e2 58-168 103t-110 94q-64 76-64 179 0 89 47 162 46 71 137 120-60 43-89 1e2-30 57-30 124 0 66 25.5 120t74.5 92q52 41 121 59.5t144 18.5q38 0 78.5-4t72.5-10q35-7 75.5-18.5T936 1462v-164q-84 40-154 59t-131 19q-51 0-87-10.5t-61-29.5q-27-20-40.5-48.5T449 1232q0-49 47.5-99.5T653 1020l41-23q60-33 104.5-61t77-51.5 55.5-44 39-39.5q33-38 49.5-81.5T1036 622q0-89-45-159-46-70-139-123 62-53 90-106 14-26 21.5-55.5T971 111q0-67-25.5-123.5T869-111q-102-84-274-84zM750 410q62 46 92 90 30 45 30 92 0 41-19.5 78T801 736q-74 69-316 2e2-32-24-54-45.5T393 846q-14-21-22.5-43t-8.5-50q0-39 18-73.5t54-68.5q19-18 46-38.5t64.5-44.5 88-53T750 410z" /><glyph unicode="&#xa8;" d="M492 1552q30 0 30-30v-142q0-30-30-30H349q-30 0-30 30v142q0 30 30 30h143zm391 0q30 0 30-30v-142q0-30-30-30H741q-30 0-30 30v142q0 30 30 30h142z" /><glyph unicode="&#xa9;" d="M616 125q-66 0-123 11.5T382 171t-105 57-96 79q-44 44-78 94.5T46 507q-23 54-34.5 111T0 741q0 128 46 236 23 54 57 104.5t79 96.5q43 44 92.5 78t106.5 57q109 45 235 45t236-45q57-23 107-57.5t92-77.5q49-50 82.5-101.5T1187 977q46-108 46-235 0-128-45-234-22-52-56.5-104t-79.5-97q-42-42-93-77t-108-59q-108-46-235-46zm1 102q104 0 195 38 47 20 89.5 49t77.5 64q34 34 64.5 78t49.5 90q37 89 37 195 0 54-9.5 103t-28.5 95q-38 92-113 167-74 74-165 112-90 37-198 37-107 0-196-37-92-38-166-112-76-76-113-167-39-93-39-197 0-54 9.5-101.5T141 546q24-57 54-97.5t59-69.5q38-38 78.5-66t88.5-48q45-19 93.5-28.5T617 227zm21 142q-92 0-163.5 26T353 469t-76.5 117T250 741q0 85 26.5 155t77.5 120q50 48 122 74t162 26q30 0 59-3t58-8q28-5 53.5-13t55.5-21V963q-59 29-113 42-28 7-56.5 10t-53.5 3q-57 0-105-17.5T453 945q-32-35-50-87.5T385 739q0-63 17.5-114.5T455 538t84.5-53T657 467q31 0 56 3.5t50 9.5 51 15.5 50 22.5V414q-26-11-53-20t-56-14-57.5-8-59.5-3z" /><glyph unicode="&#xaa;" d="M547 698q-126 0-202 68-75 67-75 183 0 129 93 2e2 94 70 266 70h182v4q0 44-14 78t-46 58q-35 26-79 36t-89 10q-33 0-62.5-4.5T462 1388q-62-18-130-51v127q34 14 69.5 25t66.5 17q34 7 65.5 10.5t69.5 3.5q177 0 264-86 44-43 65.5-109t21.5-160V717H825l-14 112q-50-65-114-98-33-17-69.5-25t-80.5-8zm29 119q54 0 96 18.5t74 53.5q65 71 65 186v29H684q-145 0-206-34-62-35-62-112 0-36 12-60.5t32-41.5q43-39 116-39zM293 592h668V469H293v123z" /><glyph unicode="&#xab;" d="M79 559v82l469 418V868L247 6e2l301-268V141zm454 0v82l469 418V868L701 6e2l301-268V141z" /><glyph unicode="&#xac;" d="M977 690H88v172h1057V371H977v319z" /><glyph unicode="&#xad;" d="M356 643h521V479H356v164z" /><glyph unicode="&#xae;" d="M616 125q-66 0-123 11.5T382 171t-105 57-96 79q-44 44-78 94.5T46 507q-23 54-34.5 111T0 741q0 128 46 236 23 54 57 104.5t79 96.5q43 44 92.5 78t106.5 57q109 45 235 45t236-45q57-23 107-57.5t92-77.5q49-50 82.5-101.5T1187 977q46-108 46-235 0-128-45-234-22-52-56.5-104t-79.5-97q-42-42-93-77t-108-59q-108-46-235-46zm1 102q104 0 195 38 47 20 89.5 49t77.5 64q34 34 64.5 78t49.5 90q37 89 37 195 0 54-9.5 103t-28.5 95q-38 92-113 167-74 74-165 112-90 37-198 37-107 0-196-37-92-38-166-112-76-76-113-167-39-93-39-197 0-54 9.5-101.5T141 546q24-57 54-97.5t59-69.5q38-38 78.5-66t88.5-48q45-19 93.5-28.5T617 227zM362 11e2h238q148 0 219-49 72-50 72-148 0-38-11-67t-33-52q-44-47-124-61 10-2 22-12t26-26q6-8 15-19t18-24l18-26t16-24l114-186H809L702 580q-24 39-44.5 65T623 681q-29 21-76 21h-55V406H362v694zM594 784q89 0 127 27 37 27 37 89 0 29-8.5 52.5T721 990q-38 26-127 26H492V784h102z" /><glyph unicode="&#xaf;" d="M915 1378H317v148h598v-148z" /><glyph unicode="&#xb0;" d="M612 885q-63 0-121 22.5T388 975q-40 40-64.5 97T299 1199q0 67 23.5 125t67.5 103q43 44 100.5 68.5T615 1520q30 0 62.5-5.5T740 1496q29-12 56-31.5t47-39.5q24-25 41.5-53t26.5-50q23-55 23-120 0-66-24-124.5T842 976q-43-42-102.5-66.5T612 885zm2 127q41 0 77 15t61 40q29 29 42 64t13 70q0 38-14.5 73t-41.5 62q-23 23-58 39t-77 16q-40 0-74.5-14.5T482 1337q-27-27-41.5-63t-14.5-75q0-41 14.5-74.5T481 1065q27-26 61-39.5t72-13.5z" /><glyph unicode="&#xb1;" d="M532 672H88v170h444v329h168V842h445V672H7e2V340H532v332zM88 170h1057V0H88v170z" /><glyph unicode="&#xb2;" d="M322 1230l231 226q31 30 53.5 53t38.5 41.5 28 33.5 22 30q40 61 40 113 0 60-50 98t-130 38q-52 0-107-18-57-18-120-54v125q67 29 126 42 30 7 60 10.5t62 3.5q139 0 225-66 44-34 65-78t21-94q0-35-10-62.5t-27-54.5q-23-35-61-78.5t-95-99.5l-211-205h410v-114H322v110z" /><glyph unicode="&#xb3;" d="M562 1109q-35 0-63 3t-57 8q-32 6-59 13t-57 17v121q35-14 66-23.5t60-16.5q53-13 104-13 47 0 87.5 10.5T714 1259q26 18 42 46t16 66q0 35-14.5 62.5T717 1479q-56 38-164 38h-66v108h74q92 0 142 32 49 31 49 90 0 58-48 89-24 16-58 23.5t-74 7.5q-26 0-50.5-3t-52.5-9q-55-12-115-35v121q35 8 67 14.5t61 11.5q58 9 110 9 142 0 227-59 84-59 84-157 0-71-44-118-43-46-128-66 94-21 144-75 49-53 49-136 0-121-95-189-48-34-116-50.5T562 1109z" /><glyph unicode="&#xb4;" d="M629 1262H475l281 376h198z" /><glyph unicode="&#xb5;" d="M165 1120h184V424q0-78 16-130t44-87q60-76 173-76 62 0 110 21t80 64q64 85 64 251v653h185V256q0-59 16-87 8-14 20-21t26-7q12 0 27 5 13 4 42 18V16q-19-11-37.5-20T1080-18q-36-11-68-11-62 0-99 40-38 40-50 118-47-81-112-119-66-39-157-39-90 0-154 38T332 127v-555H165v1548z" /><glyph unicode="&#xb6;" d="M557 649q-214 16-333 128-57 54-87.5 125.5T106 1070q0 191 131 307t345 116h448V-197H889v1567H698V-197H557v846z" /><glyph unicode="&#xb7;" horiz-adv-x="1707" /><glyph unicode="&#xb8;" d="M7e2.0q55-61 83-115 11-23 18.5-48.5T809-219q0-40-15-74t-45-57q-29-22-73-33.5T570-395q-44 0-87 6-46 6-88 18v131q17-8 35-14.5t37-10.5 40.5-5.5T546-272q64 0 94 24t30 68q0 32-22 75-23 43-66 105h118v0z" /><glyph unicode="&#xb9;" d="M362 1230h205v611l-223-41v116l229 39h138v-725h204v-110H362v110z" /><glyph unicode="&#xba;" d="M616 698q-94 0-160 31t-111 80q-47 51-74 126t-27 173q0 92 25 167.5t76 132.5q47 52 114 82t158 30q90 0 157.5-30t114.5-83q1e2-112 1e2-299 0-186-1e2-298-47-52-114.5-82T616 698zm0 117q49 0 90 19.5t70 58.5q27 36 42.5 90t15.5 127q0 137-57 215-27 37-66.5 57.5T617 1403q-103 0-160-77-58-79-58-218 0-69 14.5-123.5T457 891q58-76 159-76zM276 592h676V469H276v123z" /><glyph unicode="&#xbb;" d="M231 332l301 268-301 268v191l469-418v-82L231 141v191zm454 0 301 268-301 268v191l469-418v-82L685 141v191z" /><glyph unicode="&#xbc;" d="M104 934h205v611l-223-41v116l229 39h138V934h204V824H104v110zM27 612l1060 262 27-108L51 504zM839-84H452V37l363 528h162V27h116V-84H977v-186H839v186zm0 111v413L565 27h274z" /><glyph unicode="&#xbd;" d="M104 934h205v611l-223-41v116l229 39h138V934h204V824H104v110zM27 612l1060 262 27-108L51 504zM523-160 754 66q31 30 53.5 53t38.5 41.5 28 33.5 22 30q40 61 40 113 0 60-50 98t-130 38q-52 0-107-18-57-18-120-54v125q67 29 126 42 30 7 60 10.5t62 3.5q139 0 225-66 44-34 65-78t21-94q0-35-10-62.5t-27-54.5q-23-35-61-78.5T895 49L684-156h410v-114H523v110z" /><glyph unicode="&#xbe;" d="M335 809q-35 0-63 3t-57 8q-32 6-59 13t-57 17v121q35-14 66-23.5t60-16.5q53-13 104-13 47 0 87.5 10.5T487 959q26 18 42 46t16 66q0 35-14.5 62.5T490 1179q-56 38-164 38h-66v108h74q92 0 142 32 49 31 49 90 0 58-48 89-24 16-58 23.5t-74 7.5q-26 0-50.5-3t-52.5-9q-55-12-115-35v121q35 8 67 14.5t61 11.5q58 9 110 9 142 0 227-59 84-59 84-157 0-71-44-118-43-46-128-66 94-21 144-75 49-53 49-136 0-121-95-189-48-34-116-50.5T335 809zM27 612l1060 262 27-108L51 504zM839-84H452V37l363 528h162V27h116V-84H977v-186H839v186zm0 111v413L565 27h274z" /><glyph unicode="&#xbf;" d="M656 1252q-62 0-104 42-22 22-32.5 50.5T509 1405t10.5 60 31.5 49q17 17 43.5 29.5T655 1556q32 0 58-11t46-31q42-42 42-109 0-68-42-110-43-43-103-43zM602-27q-188 0-298 95-54 47-82.5 112T193 324q0 42 8.5 76.5T227 468t47.5 71 79.5 86l88 86q30 29 52.5 55t33.5 51q19 41 19 105v5q1 11 1.5 21.5t.5 20.5v123h190V938q0-99-30-166-30-68-115-151l-90-89q-20-20-46-48t-40-55q-13-24-18-50.5t-5-46.5q0-43 18-79.5t47-60.5q33-28 77.5-41.5T633 137q42 0 83 9t86 26q91 35 187 102V86q-50-30-98-51T8e2 1q-48-14-98.5-21T602-27z" /><glyph unicode="&#xc0;" d="M358 1849h184l197-264H585zm136-356h245L1196 0H987L877 389H354L246 0H37zM829 551l-213 764-213-764h426z" /><glyph unicode="&#xc1;" d="M691 1856h186l-229-264H494zM494 1493h245L1196 0H987L877 389H354L246 0H37zM829 551l-213 764-213-764h426z" /><glyph unicode="&#xc2;" d="M522 1852h189l211-266H782l-166 178-165-178H311zm-28-359h245L1196 0H987L877 389H354L246 0H37zM829 551l-213 764-213-764h426z" /><glyph unicode="&#xc3;" d="M287 1587q0 48 12 88t40 72q51 59 137 59 32 0 66-8 15-4 34-12.5t45-22.5l57-30q21-13 40-19 16-6 32-6 31 0 51 26t20 66v6h125q-1-99-53-159-51-60-136-60-31 0-63 8-14 4-32.5 11.5T612 1630l-57 33q-23 13-41 20-8 3-16 4t-13 1q-15 0-29-6t-24-19q-20-26-20-70v-6H287zm207-94h245L1196 0H987L877 389H354L246 0H37zM829 551l-213 764-213-764h426z" /><glyph unicode="&#xc4;" d="M349 1647q-30 0-30 30v143q0 30 30 30h143q30 0 30-30v-143q0-30-30-30H349zm392 0q-30 0-30 30v143q0 30 30 30h142q30 0 30-30v-143q0-30-30-30H741zM494 1493h245L1196 0H987L877 389H354L246 0H37zM829 551l-213 764-213-764h426z" /><glyph unicode="&#xc5;" d="M465 1399q-30 17-52.5 41t-37.5 52q-17 31-25 64.5t-8 68.5q0 59 21.5 109.5T422 1822t87 58 107 21q58 0 108.5-21.5T812 1821q35-35 57-85t22-111q0-72-32-131-31-58-91-95L1196 0H987L877 389H354L246 0H37zm151 76q34 0 61 12t47 32q44 44 44 107 0 34-12 61t-32 47q-23 23-51.5 33.5T615 1778q-63 0-106-43-44-44-44-109 0-63 44-107t107-44zM829 551l-213 760-213-760h426z" /><glyph unicode="&#xc6;" d="M410 1493h751v-170H823V881h307V711H823V170h357V0H637v383H285L184 0H0zM637 551v772H530L328 551h309z" /><glyph unicode="&#xc7;" d="M741 1356q-97 0-170.5-38T448 1204q-98-152-98-459 0-306 98-458 47-72 119.5-112T742 135q89 0 174 32 83 31 157 93V53Q995 12 915-9q-22-5-45.5-9.5T822-25q41-50 61-90 11-23 18.5-48.5T909-219q0-40-15-74t-45-57q-29-22-73-33.5T670-395q-44 0-87 6-46 6-88 18v131q17-8 35-14.5t37-10.5 40.5-5.5T646-272q64 0 94 24t30 68q0 32-22 75-16 32-47 77-129 8-230.5 59T297 174q-79 102-118.5 245.5T139 744t39.5 325T298 1316q78 1e2 189.5 152t254.5 52q45 0 89.5-5t83.5-15q38-10 79-26t79-36v-207q-73 61-159 93-43 16-85.5 24t-87.5 8z" /><glyph unicode="&#xc8;" d="M395 1856h184l197-264H622zM197 1493h886v-170H399V881h654V711H399V170h703V0H197v1493z" /><glyph unicode="&#xc9;" d="M690 1856h186l-229-264H493zM197 1493h886v-170H399V881h654V711H399V170h703V0H197v1493z" /><glyph unicode="&#xca;" d="M540 1852h189l211-266H8e2l-166 178-165-178H329zM197 1493h886v-170H399V881h654V711H399V170h703V0H197v1493z" /><glyph unicode="&#xcb;" d="M367 1647q-30 0-30 30v143q0 30 30 30h143q30 0 30-30v-143q0-30-30-30H367zm392 0q-30 0-30 30v143q0 30 30 30h142q30 0 30-30v-143q0-30-30-30H759zM197 1493h886v-170H399V881h654V711H399V170h703V0H197v1493z" /><glyph unicode="&#xcc;" d="M372 1856h184l197-264H599zM201 170h313v1153H201v170h829v-170H717V170h313V0H201v170z" /><glyph unicode="&#xcd;" d="M691 1856h186l-229-264H494zM201 170h313v1153H201v170h829v-170H717V170h313V0H201v170z" /><glyph unicode="&#xce;" d="M521 1852h189l211-266H781l-166 178-165-178H310zM201 170h313v1153H201v170h829v-170H717V170h313V0H201v170z" /><glyph unicode="&#xcf;" d="M349 1647q-30 0-30 30v143q0 30 30 30h143q30 0 30-30v-143q0-30-30-30H349zm392 0q-30 0-30 30v143q0 30 30 30h142q30 0 30-30v-143q0-30-30-30H741zM201 170h313v1153H201v170h829v-170H717V170h313V0H201v170z" /><glyph unicode="&#xd0;" d="M133 709H8v149h125v635h303q342 0 504-182t162-565-162-564Q857 89 730.5 44.5T436 0H133v709zM436 166q69 0 124 8.5t98 24.5 75.5 39.5T791 293q52 65 77 175t25 280q0 87-6.5 157t-19 125-31.5 96.5-44 73.5q-53 67-139.5 97T436 1327h-96V858h264V709H340V166h96z" /><glyph unicode="&#xd1;" d="M287 1633q0 48 12 88t40 72q51 59 137 59 32 0 66-8 15-4 34-12.5t45-22.5l57-30q21-13 40-19 16-6 32-6 31 0 51 26t20 66v6h125q-1-99-53-159-51-60-136-60-31 0-63 8-14 4-32.5 11.5T612 1676l-57 33q-23 13-41 20-8 3-16 4t-13 1q-15 0-29-6t-24-19q-20-26-20-70v-6H287zM139 1493h256L899 264v1229h195V0H838L334 1229V0H139v1493z" /><glyph unicode="&#xd2;" d="M382 1856h184l197-264H609zM616-29q-253 0-376 191-123 190-123 583 0 392 124 583 62 96 154.5 144t220.5 48q123 0 218-46t159-146q123-192 123-583 0-390-123-582Q929 63 834 17T616-29zm0 164q154 0 222 141 67 138 67 469 0 330-67 470-68 141-222 141-153 0-220-141-68-142-68-470 0-327 68-469 67-141 220-141z" /><glyph unicode="&#xd3;" d="M701 1856h186l-229-264H504zM616-29q-253 0-376 191-123 190-123 583 0 392 124 583 62 96 154.5 144t220.5 48q123 0 218-46t159-146q123-192 123-583 0-390-123-582Q929 63 834 17T616-29zm0 164q154 0 222 141 67 138 67 469 0 330-67 470-68 141-222 141-153 0-220-141-68-142-68-470 0-327 68-469 67-141 220-141z" /><glyph unicode="&#xd4;" d="M540 1852h189l211-266H8e2l-166 178-165-178H329zM616-29q-253 0-376 191-123 190-123 583 0 392 124 583 62 96 154.5 144t220.5 48q123 0 218-46t159-146q123-192 123-583 0-390-123-582Q929 63 834 17T616-29zm0 164q154 0 222 141 67 138 67 469 0 330-67 470-68 141-222 141-153 0-220-141-68-142-68-470 0-327 68-469 67-141 220-141z" /><glyph unicode="&#xd5;" d="M287 1633q0 48 12 88t40 72q51 59 137 59 32 0 66-8 15-4 34-12.5t45-22.5l57-30q21-13 40-19 16-6 32-6 31 0 51 26t20 66v6h125q-1-99-53-159-51-60-136-60-31 0-63 8-14 4-32.5 11.5T612 1676l-57 33q-23 13-41 20-8 3-16 4t-13 1q-15 0-29-6t-24-19q-20-26-20-70v-6H287zM616-29q-253 0-376 191-123 190-123 583 0 392 124 583 62 96 154.5 144t220.5 48q123 0 218-46t159-146q123-192 123-583 0-390-123-582Q929 63 834 17T616-29zm0 164q154 0 222 141 67 138 67 469 0 330-67 470-68 141-222 141-153 0-220-141-68-142-68-470 0-327 68-469 67-141 220-141z" /><glyph unicode="&#xd6;" d="M349 1647q-30 0-30 30v143q0 30 30 30h143q30 0 30-30v-143q0-30-30-30H349zm392 0q-30 0-30 30v143q0 30 30 30h142q30 0 30-30v-143q0-30-30-30H741zM616-29q-253 0-376 191-123 190-123 583 0 392 124 583 62 96 154.5 144t220.5 48q123 0 218-46t159-146q123-192 123-583 0-390-123-582Q929 63 834 17T616-29zm0 164q154 0 222 141 67 138 67 469 0 330-67 470-68 141-222 141-153 0-220-141-68-142-68-470 0-327 68-469 67-141 220-141z" /><glyph unicode="&#xd7;" d="M150 293l350 348-350 350 116 117 350-350 351 350 116-117-350-350 348-348-116-119-349 350-348-350z" /><glyph unicode="&#xd8;" d="M8 0l178 252q-17 39-28.5 87T136 456q-9 63-14 131.5T117 740q0 203 30.5 347t93.5 241q64 99 157 145.5t217 46.5q60 0 109.5-10.5T818 1479q85-40 143-121l139 201 1e2-74-168-238q21-41 36.5-95t26.5-115q10-58 15.5-132.5T1116 744q0-389-123-581-60-94-153.5-143T612-29q-57 0-108 9.5T405 12q-90 40-151 121L111-70zM842 1190q-13 42-34.5 73t-47.5 51q-29 22-66 32t-79 10q-84 0-136.5-38T394 1208q-17-38-29.5-87T344 1008.5 332 865t-4-179v-39t.5-32 1-29 1.5-30q1-14 1.5-32t5.5-53zM617 135q82 0 135.5 37T838 277q16 33 28.5 76.5t21 101 13 130T905 748q0 52-1.5 96.5T9e2 923q-2 33-5.5 60t-9.5 53L371 303q30-78 96-123 34-23 71-34t79-11z" /><glyph unicode="&#xd9;" d="M377 1852h184l197-264H604zM616-29q-54 0-100.5 7.5T427 0q-39 14-80.5 36.5T273 88q-31 28-55 66t-41 95q-8 25-13.5 56t-9 70-5.5 87.5-2 110.5v920h203V481q0-109 6-155 6-47 21-72 32-59 93-89 60-30 146-30 87 0 147 30 62 31 93 89 8 15 13 31t8 40q6 46 6 154v1014h202V573q0-66-2-116.5t-5.5-89-9-67.5-11.5-51q-14-50-39-90t-59-71q-33-30-73.5-52T806 0q-37-13-84-21t-106-8z" /><glyph unicode="&#xda;" d="M672 1856h186l-229-264H475zM616-29q-54 0-100.5 7.5T427 0q-39 14-80.5 36.5T273 88q-31 28-55 66t-41 95q-8 25-13.5 56t-9 70-5.5 87.5-2 110.5v920h203V481q0-109 6-155 6-47 21-72 32-59 93-89 60-30 146-30 87 0 147 30 62 31 93 89 8 15 13 31t8 40q6 46 6 154v1014h202V573q0-66-2-116.5t-5.5-89-9-67.5-11.5-51q-14-50-39-90t-59-71q-33-30-73.5-52T806 0q-37-13-84-21t-106-8z" /><glyph unicode="&#xdb;" d="M522 1852h189l211-266H782l-166 178-165-178H311zM616-29q-54 0-100.5 7.5T427 0q-39 14-80.5 36.5T273 88q-31 28-55 66t-41 95q-8 25-13.5 56t-9 70-5.5 87.5-2 110.5v920h203V481q0-109 6-155 6-47 21-72 32-59 93-89 60-30 146-30 87 0 147 30 62 31 93 89 8 15 13 31t8 40q6 46 6 154v1014h202V573q0-66-2-116.5t-5.5-89-9-67.5-11.5-51q-14-50-39-90t-59-71q-33-30-73.5-52T806 0q-37-13-84-21t-106-8z" /><glyph unicode="&#xdc;" d="M349 1647q-30 0-30 30v143q0 30 30 30h143q30 0 30-30v-143q0-30-30-30H349zm392 0q-30 0-30 30v143q0 30 30 30h142q30 0 30-30v-143q0-30-30-30H741zM616-29q-54 0-100.5 7.5T427 0q-39 14-80.5 36.5T273 88q-31 28-55 66t-41 95q-8 25-13.5 56t-9 70-5.5 87.5-2 110.5v920h203V481q0-109 6-155 6-47 21-72 32-59 93-89 60-30 146-30 87 0 147 30 62 31 93 89 8 15 13 31t8 40q6 46 6 154v1014h202V573q0-66-2-116.5t-5.5-89-9-67.5-11.5-51q-14-50-39-90t-59-71q-33-30-73.5-52T806 0q-37-13-84-21t-106-8z" /><glyph unicode="&#xdd;" d="M672 1852h186l-229-264H475zM514 670 37 1493h215l364-659 363 659h217L717 670V0H514v670z" /><glyph unicode="&#xde;" d="M201 1493h202v-270h254q259 0 384-105 124-105 124-324 0-112-31.5-191.5T1041 472Q916 367 657 367H403V0H201v1493zM637 532q157 0 237 66 78 66 78 197 0 63-19 113.5T874 992q-36 30-95 47.5T637 1057H403V532h234z" /><glyph unicode="&#xdf;" d="M731-29q-34 0-70 3t-68 9q-23 5-60 14t-74 23v164q75-31 143-46 66-15 126-15 55 0 97.5 12.5T899 171q35 26 49.5 60t14.5 79q0 32-7.5 57.5T929 419q-25 35-63.5 64T778 541l-67 39q-47 27-81 59t-56 64q-23 34-34.5 68.5T528 851q0 60 20 114t61 97q39 42 97.5 72t139.5 48q-2 107-62 164-62 57-174 57-121 0-178-65-57-66-57-205V0H188v1137q0 212 105 316 53 52 133.5 77.5T610 1556q209 0 313-110 106-112 107-327-154-13-239-76-84-62-84-160 0-28 7-48.5t21-40.5q17-24 40-42.5t54-38.5l58-37q79-50 128.5-90.5T1094 501q28-42 41.5-91.5T1149 306q0-74-26-137t-86-110Q982 16 904-6.5T731-29z" /><glyph unicode="&#xe0;" d="M282 1673h198l281-376H607zM513-29q-174 0-275 97-48 46-75 108.5T136 327q0 185 126 283 124 97 368 97h247v29q0 64-17 114t-51 81q-33 30-87 45t-126 15q-95 0-191-27-97-27-187-79v184q42 16 93 32t103 27q91 19 183 19 71 0 129-10.5t108-31.5q46-20 87.5-50.5T992 984q21-29 34-61t20-63q16-73 16-221V410q2-58 3-102t6-82q5-42 11.5-79t11.5-56q7-31 16-58.5T1121 0H936q-5 12-12.5 35.5T909 87q-5 22-9.5 44.5T893 170q-29-50-74.5-89T729 19Q681-6 627.5-17.5T513-29zm38 154q151 0 238 106 88 108 88 291v41H644q-160 0-242-56-43-29-62.5-71.5T320 337q0-52 16-90.5t45-65.5q29-26 70.5-41t99.5-15z" /><glyph unicode="&#xe1;" d="M759 1673h198l-325-376H478zM513-29q-174 0-275 97-48 46-75 108.5T136 327q0 185 126 283 124 97 368 97h247v29q0 64-17 114t-51 81q-33 30-87 45t-126 15q-95 0-191-27-97-27-187-79v184q42 16 93 32t103 27q91 19 183 19 71 0 129-10.5t108-31.5q46-20 87.5-50.5T992 984q21-29 34-61t20-63q16-73 16-221V410q2-58 3-102t6-82q5-42 11.5-79t11.5-56q7-31 16-58.5T1121 0H936q-5 12-12.5 35.5T909 87q-5 22-9.5 44.5T893 170q-29-50-74.5-89T729 19Q681-6 627.5-17.5T513-29zm38 154q151 0 238 106 88 108 88 291v41H644q-160 0-242-56-43-29-62.5-71.5T320 337q0-52 16-90.5t45-65.5q29-26 70.5-41t99.5-15z" /><glyph unicode="&#xe2;" d="M546 1673h147l246-376H8e2l-181 245-180-245H3e2zM513-29q-174 0-275 97-48 46-75 108.5T136 327q0 185 126 283 124 97 368 97h247v29q0 64-17 114t-51 81q-33 30-87 45t-126 15q-95 0-191-27-97-27-187-79v184q42 16 93 32t103 27q91 19 183 19 71 0 129-10.5t108-31.5q46-20 87.5-50.5T992 984q21-29 34-61t20-63q16-73 16-221V410q2-58 3-102t6-82q5-42 11.5-79t11.5-56q7-31 16-58.5T1121 0H936q-5 12-12.5 35.5T909 87q-5 22-9.5 44.5T893 170q-29-50-74.5-89T729 19Q681-6 627.5-17.5T513-29zm38 154q151 0 238 106 88 108 88 291v41H644q-160 0-242-56-43-29-62.5-71.5T320 337q0-52 16-90.5t45-65.5q29-26 70.5-41t99.5-15z" /><glyph unicode="&#xe3;" d="M290 1339q2 135 52 208 51 74 141 74 39 0 72-14 30-13 69-47l57-55q11-10 21.5-17.5T719 1476q10-6 16-8t14-2q38 0 56 37 17 36 19 118h125q-2-135-52-208-51-74-141-74-39 0-72 14-30 13-69 47l-57 55q-13 12-22.5 19t-15.5 11q-9 5-15.5 7t-14.5 2q-38 0-56-37-19-39-20-118H290zM513-29q-174 0-275 97-48 46-75 108.5T136 327q0 185 126 283 124 97 368 97h247v29q0 64-17 114t-51 81q-33 30-87 45t-126 15q-95 0-191-27-97-27-187-79v184q42 16 93 32t103 27q91 19 183 19 71 0 129-10.5t108-31.5q46-20 87.5-50.5T992 984q21-29 34-61t20-63q16-73 16-221V410q2-58 3-102t6-82q5-42 11.5-79t11.5-56q7-31 16-58.5T1121 0H936q-5 12-12.5 35.5T909 87q-5 22-9.5 44.5T893 170q-29-50-74.5-89T729 19Q681-6 627.5-17.5T513-29zm38 154q151 0 238 106 88 108 88 291v41H644q-160 0-242-56-43-29-62.5-71.5T320 337q0-52 16-90.5t45-65.5q29-26 70.5-41t99.5-15z" /><glyph unicode="&#xe4;" d="M352 1350q-30 0-30 30v142q0 30 30 30h143q30 0 30-30v-142q0-30-30-30H352zm392 0q-30 0-30 30v142q0 30 30 30h142q30 0 30-30v-142q0-30-30-30H744zM513-29q-174 0-275 97-48 46-75 108.5T136 327q0 185 126 283 124 97 368 97h247v29q0 64-17 114t-51 81q-33 30-87 45t-126 15q-95 0-191-27-97-27-187-79v184q42 16 93 32t103 27q91 19 183 19 71 0 129-10.5t108-31.5q46-20 87.5-50.5T992 984q21-29 34-61t20-63q16-73 16-221V410q2-58 3-102t6-82q5-42 11.5-79t11.5-56q7-31 16-58.5T1121 0H936q-5 12-12.5 35.5T909 87q-5 22-9.5 44.5T893 170q-29-50-74.5-89T729 19Q681-6 627.5-17.5T513-29zm38 154q151 0 238 106 88 108 88 291v41H644q-160 0-242-56-43-29-62.5-71.5T320 337q0-52 16-90.5t45-65.5q29-26 70.5-41t99.5-15z" /><glyph unicode="&#xe5;" d="M619 1249q-114 0-194 80t-80 195 80 195q79 79 194 79 117 0 196-79t79-195-79-195q-80-80-196-80zm0 123q64 0 108 44t44 108q0 63-44 107t-109 44q-63 0-106-43-44-44-44-108t44-108 107-44zM513-29q-174 0-275 97-48 46-75 108.5T136 327q0 185 126 283 124 97 368 97h247v29q0 64-17 114t-51 81q-33 30-87 45t-126 15q-95 0-191-27-97-27-187-79v184q42 16 93 32t103 27q91 19 183 19 71 0 129-10.5t108-31.5q46-20 87.5-50.5T992 984q21-29 34-61t20-63q16-73 16-221V410q2-58 3-102t6-82q5-42 11.5-79t11.5-56q7-31 16-58.5T1121 0H936q-5 12-12.5 35.5T909 87q-5 22-9.5 44.5T893 170q-29-50-74.5-89T729 19Q681-6 627.5-17.5T513-29zm38 154q151 0 238 106 88 108 88 291v41H644q-160 0-242-56-43-29-62.5-71.5T320 337q0-52 16-90.5t45-65.5q29-26 70.5-41t99.5-15z" /><glyph unicode="&#xe6;" d="M358-29q-154 0-235 86-43 45-62.5 107.5T41 304q0 85 23.5 151T141 568q101 89 291 89h117v88q0 120-49 184t-143 64q-29 0-61.5-5.5T234 972q-30-10-63.5-25.5T106 911v168q38 17 74 30.5t69 21.5q64 16 127 16 91 0 152-31 61-32 99-96 33 61 99 94t156 33q85 0 147.5-29t98.5-89q72-119 72-425v-90H709q-1-8-1-16v-16q0-3-.5-9.5T707 443q0-98 13.5-155.5T758 196q27-38 68-54.5t97-16.5q75 0 141 26 65 26 114 76V55q-29-21-60.5-37T1057-8t-65-15.5-75-5.5q-51 0-97.5 10.5T736 12q-75 41-107 119-39-80-105-120-34-20-74.5-30T358-29zm678 686v52q0 78-10 132t-28 86q-17 30-48 48t-78 18q-87 0-125-68t-38-225v-43h327zM375 125q94 0 131 67 17 32 27 90t10 160v72h-49q-169 0-229-45-30-23-45-62.5T205 313q0-91 45-139 45-49 125-49z" /><glyph unicode="&#xe7;" d="M718 991q-174 0-267-112-93-113-93-319 0-96 21.5-178T451 240q94-113 270-113 50 0 91.5 8t76.5 22q45 17 77.5 39.5T1030 248V57q-34-20-74-37T878-8q-20-5-40.5-9.5T794-24q40-48 62-91 11-23 18.5-48.5T882-219q0-40-15-74t-45-57q-29-22-73-33.5T643-395q-44 0-87 6-46 6-88 18v131q17-8 35-14.5t37-10.5 40.5-5.5T619-272q64 0 94 24t30 68q0 32-22 75-16 32-47 77-112 6-204.5 45T310 127q-72 77-109 186t-37 246q0 143 38.5 251T311 992q74 78 175.5 116.5T713 1147q46 0 85-5t77-16q76-21 155-65V868q-37 32-73 56t-73 38q-75 29-166 29z" /><glyph unicode="&#xe8;" d="M294 1673h198l281-376H619zM677-29q-129 0-231.5 39.5T271 127 161.5 312.5 124 558q0 141 38 247.5T267 987q73 81 171 120.5t211 39.5q112 0 196.5-37T990 1003t91.5-169.5T1113 606v-90H316v-6q0-183 96-283 46-48 111.5-74T680 127t185 28q97 29 205 85V57q-53-22-107-39T868-8q-48-11-96-16t-95-5zM929 660q-2 86-22.5 147.5T853 907q-36 42-89 63t-119 21q-135 0-220-88-86-89-102-244z" /><glyph unicode="&#xe9;" d="M771 1673h198l-325-376H490zM677-29q-129 0-231.5 39.5T271 127 161.5 312.5 124 558q0 141 38 247.5T267 987q73 81 171 120.5t211 39.5q112 0 196.5-37T990 1003t91.5-169.5T1113 606v-90H316v-6q0-183 96-283 46-48 111.5-74T680 127t185 28q97 29 205 85V57q-53-22-107-39T868-8q-48-11-96-16t-95-5zM929 660q-2 86-22.5 147.5T853 907q-36 42-89 63t-119 21q-135 0-220-88-86-89-102-244z" /><glyph unicode="&#xea;" d="M558 1673h147l246-376H812l-181 245-180-245H312zM677-29q-129 0-231.5 39.5T271 127 161.5 312.5 124 558q0 141 38 247.5T267 987q73 81 171 120.5t211 39.5q112 0 196.5-37T990 1003t91.5-169.5T1113 606v-90H316v-6q0-183 96-283 46-48 111.5-74T680 127t185 28q97 29 205 85V57q-53-22-107-39T868-8q-48-11-96-16t-95-5zM929 660q-2 86-22.5 147.5T853 907q-36 42-89 63t-119 21q-135 0-220-88-86-89-102-244z" /><glyph unicode="&#xeb;" d="M364 1348q-30 0-30 30v142q0 30 30 30h143q30 0 30-30v-142q0-30-30-30H364zm392 0q-30 0-30 30v142q0 30 30 30h142q30 0 30-30v-142q0-30-30-30H756zM677-29q-129 0-231.5 39.5T271 127 161.5 312.5 124 558q0 141 38 247.5T267 987q73 81 171 120.5t211 39.5q112 0 196.5-37T990 1003t91.5-169.5T1113 606v-90H316v-6q0-183 96-283 46-48 111.5-74T680 127t185 28q97 29 205 85V57q-53-22-107-39T868-8q-48-11-96-16t-95-5zM929 660q-2 86-22.5 147.5T853 907q-36 42-89 63t-119 21q-135 0-220-88-86-89-102-244z" /><glyph unicode="&#xec;" d="M218 1647h198l281-376H543zM859-8q-80 0-143.5 25T604 98q-91 106-91 3e2v578H268v144h429V398q0-125 46-187 24-33 57.5-48t76.5-15h215V-8H859z" /><glyph unicode="&#xed;" d="M794 1647h198l-325-376H513zM859-8q-80 0-143.5 25T604 98q-91 106-91 3e2v578H268v144h429V398q0-125 46-187 24-33 57.5-48t76.5-15h215V-8H859z" /><glyph unicode="&#xee;" d="M514 1648h147l246-376H768l-181 245-180-245H268zM859-8q-80 0-143.5 25T604 98q-91 106-91 3e2v578H268v144h429V398q0-125 46-187 24-33 57.5-48t76.5-15h215V-8H859z" /><glyph unicode="&#xef;" d="M328 1320q-30 0-30 30v142q0 30 30 30h143q30 0 30-30v-142q0-30-30-30H328zm392 0q-30 0-30 30v142q0 30 30 30h142q30 0 30-30v-142q0-30-30-30H720zM859-8q-80 0-143.5 25T604 98q-91 106-91 3e2v578H268v144h429V398q0-125 46-187 24-33 57.5-48t76.5-15h215V-8H859z" /><glyph unicode="&#xf0;" d="M617-29Q501-29 412.5 8.5T262 119q-63 75-94 179t-31 235q0 132 31.5 237T262 949t152.5 110.5T631 1096q18 0 23.5-.5t8.5-.5q11-1 14.5-1t5-.5 3.5-.5 10-1l-10.5 14t-17.5 23-20.5 27-20.5 26q-18 23-36.5 44.5T553 1270l-279-92-30 98 237 80-182 2e2h219l127-145 289 94 33-98-250-80q196-212 288-402 46-96 68.5-192.5T1096 528q0-128-31-231t-94-178Q907 43 818 7T617-29zm-1 156q138 0 211 106 37 54 55.5 129T901 531q0 60-7.5 112.5T872 747t-34 93.5-45 77.5q-17 7-39.5 12.5T717 938q-41 6-79 6-73 0-131.5-25T409 840t-58-131.5T332 534q0-194 74-301 73-106 210-106z" /><glyph unicode="&#xf1;" d="M287 1286q2 135 52 208 51 74 141 74 39 0 72-14 30-13 69-47l57-55q11-10 21.5-17.5T716 1423q10-6 16-8t14-2q38 0 56 37 17 36 19 118h125q-2-135-52-208-51-74-141-74-39 0-72 14-30 13-69 47l-57 55q-13 12-22.5 19t-15.5 11q-9 5-15.5 7t-14.5 2q-38 0-56-37-19-39-20-118H287zm-92-166h166l18-168q50 97 133 146t198 49q90 0 153-29t104-83q84-113 84-341V0H866v694q0 151-53 222t-167 71q-66 0-114.5-23T449 896q-70-91-70-263V0H195v1120z" /><glyph unicode="&#xf2;" d="M279 1673h198l281-376H604zM616-29Q501-29 411.5 8.5T260 121q-63 78-93 188.5T137 560q0 284 123 436 123 151 356 151 120 0 208.5-38.5T973 996q123-152 123-435 0-143-30.5-254T973 121Q913 47 823.5 9T616-29zm0 156q141 0 213 110 72 109 72 322t-72 323q-72 109-213 109-140 0-212-109-72-110-72-323t72-322q72-110 212-110z" /><glyph unicode="&#xf3;" d="M756 1673h198l-325-376H475zM616-29Q501-29 411.5 8.5T260 121q-63 78-93 188.5T137 560q0 284 123 436 123 151 356 151 120 0 208.5-38.5T973 996q123-152 123-435 0-143-30.5-254T973 121Q913 47 823.5 9T616-29zm0 156q141 0 213 110 72 109 72 322t-72 323q-72 109-213 109-140 0-212-109-72-110-72-323t72-322q72-110 212-110z" /><glyph unicode="&#xf4;" d="M543 1673h147l246-376H797l-181 245-180-245H297zM616-29Q501-29 411.5 8.5T260 121q-63 78-93 188.5T137 560q0 284 123 436 123 151 356 151 120 0 208.5-38.5T973 996q123-152 123-435 0-143-30.5-254T973 121Q913 47 823.5 9T616-29zm0 156q141 0 213 110 72 109 72 322t-72 323q-72 109-213 109-140 0-212-109-72-110-72-323t72-322q72-110 212-110z" /><glyph unicode="&#xf5;" d="M287 1286q2 135 52 208 51 74 141 74 39 0 72-14 30-13 69-47l57-55q11-10 21.5-17.5T716 1423q10-6 16-8t14-2q38 0 56 37 17 36 19 118h125q-2-135-52-208-51-74-141-74-39 0-72 14-30 13-69 47l-57 55q-13 12-22.5 19t-15.5 11q-9 5-15.5 7t-14.5 2q-38 0-56-37-19-39-20-118H287zM616-29Q501-29 411.5 8.5T260 121q-63 78-93 188.5T137 560q0 284 123 436 123 151 356 151 120 0 208.5-38.5T973 996q123-152 123-435 0-143-30.5-254T973 121Q913 47 823.5 9T616-29zm0 156q141 0 213 110 72 109 72 322t-72 323q-72 109-213 109-140 0-212-109-72-110-72-323t72-322q72-110 212-110z" /><glyph unicode="&#xf6;" d="M349 1350q-30 0-30 30v142q0 30 30 30h143q30 0 30-30v-142q0-30-30-30H349zm392 0q-30 0-30 30v142q0 30 30 30h142q30 0 30-30v-142q0-30-30-30H741zM616-29Q501-29 411.5 8.5T260 121q-63 78-93 188.5T137 560q0 284 123 436 123 151 356 151 120 0 208.5-38.5T973 996q123-152 123-435 0-143-30.5-254T973 121Q913 47 823.5 9T616-29zm0 156q141 0 213 110 72 109 72 322t-72 323q-72 109-213 109-140 0-212-109-72-110-72-323t72-322q72-110 212-110z" /><glyph unicode="&#xf7;" d="M524 889q-30 0-30 30v186q0 30 30 30h185q30 0 30-30V919q0-30-30-30H524zM88 727h1057V557H88v170zM524 150q-30 0-30 30v185q0 30 30 30h185q30 0 30-30V180q0-30-30-30H524z" /><glyph unicode="&#xf8;" d="M47-20l170 2e2q-23 42-36 82t-23 87q-11 51-16 101t-5 109q0 285 123 437 123 151 355 151 49 0 95.5-6.5T795 1120q37-13 72.5-34t66.5-50l147 176 93-77-164-195q41-65 64-162 11-49 16.5-103.5T1096 561q0-143-30.5-254T973 121Q850-29 615-29q-55 0-98.5 8T435 1q-41 15-73.5 36T299 90L139-96zM817 897q-35 49-84 71-51 23-117 23-139 0-213-107-36-52-55.5-127T328 579q0-28 1.5-54.5T335 469q7-59 21-129zM615 127q142 0 214 110 36 55 54 135.5T901 556q0 30-1.5 56.5T895 667q-2 21-6 49t-12 64L414 221q22-28 42.5-43.5T501 151q25-11 52-17.5t62-6.5z" /><glyph unicode="&#xf9;" d="M279 1644h198l281-376H604zM534-29Q363-29 279 84q-84 112-84 340v694h184V424q0-152 54-222 26-34 65.5-52.5T598 131q130 0 199 92 69 91 69 262v633h185V0H884l-18 168Q816 70 733 21q-85-50-199-50z" /><glyph unicode="&#xfa;" d="M756 1644h198l-325-376H475zM534-29Q363-29 279 84q-84 112-84 340v694h184V424q0-152 54-222 26-34 65.5-52.5T598 131q130 0 199 92 69 91 69 262v633h185V0H884l-18 168Q816 70 733 21q-85-50-199-50z" /><glyph unicode="&#xfb;" d="M543 1644h147l246-376H797l-181 245-180-245H297zM534-29Q363-29 279 84q-84 112-84 340v694h184V424q0-152 54-222 26-34 65.5-52.5T598 131q130 0 199 92 69 91 69 262v633h185V0H884l-18 168Q816 70 733 21q-85-50-199-50z" /><glyph unicode="&#xfc;" d="M349 1320q-30 0-30 30v142q0 30 30 30h143q30 0 30-30v-142q0-30-30-30H349zm392 0q-30 0-30 30v142q0 30 30 30h142q30 0 30-30v-142q0-30-30-30H741zM534-29Q363-29 279 84q-84 112-84 340v694h184V424q0-152 54-222 26-34 65.5-52.5T598 131q130 0 199 92 69 91 69 262v633h185V0H884l-18 168Q816 70 733 21q-85-50-199-50z" /><glyph unicode="&#xfd;" d="M756 1646h198l-325-376H475zM184-272h109q45 0 76 13.5t51 33.5q22 23 50 79t67 164L104 1120h195l332-876 327 876h195L858 360q-33-84-52.5-135T774 142.5 755 92t-14-40q-25-70-45-121.5t-36.5-89-30-63.5-23.5-45q-31-54-57-79.5T494-388q-35-19-78-28.5t-84-9.5H184v154z" /><glyph unicode="&#xfe;" d="M190 1567h185V977q47 84 123 127t177 43q1e2.0 180-39t138-118 86.5-187.5T1108 557q0-275-116-430Q876-29 674-29q-57 0-99 11.5T496 15q-78 45-121 126v-567H190v1993zM647 127q134 0 201 109t67 323-67 323-201 109-203-109q-69-110-69-323t69-322q69-110 203-110z" /><glyph unicode="&#xff;" d="M349 1320q-30 0-30 30v142q0 30 30 30h143q30 0 30-30v-142q0-30-30-30H349zm392 0q-30 0-30 30v142q0 30 30 30h142q30 0 30-30v-142q0-30-30-30H741zM184-272h109q45 0 76 13.5t51 33.5q22 23 50 79t67 164L104 1120h195l332-876 327 876h195L858 360q-24-62-37.5-96t-21-53.5-11.5-30-9-24.5-13.5-37T741 52q-30-81-51.5-136T652-175.5t-26.5-58T608-268q-22-38-49-67.5T493-387q-69-39-161-39H184v154z" /><glyph unicode="&#x100;" d="M317 18e2h598v-148H317v148zm177-307h245L1196 0H987L877 389H354L246 0H37zM829 551l-213 764-213-764h426z" /><glyph unicode="&#x101;" d="M320 1496h598v-148H320v148zM513-29q-174 0-275 97-48 46-75 108.5T136 327q0 185 126 283 124 97 368 97h247v29q0 64-17 114t-51 81q-33 30-87 45t-126 15q-95 0-191-27-97-27-187-79v184q42 16 93 32t103 27q91 19 183 19 71 0 129-10.5t108-31.5q46-20 87.5-50.5T992 984q21-29 34-61t20-63q16-73 16-221V410q2-58 3-102t6-82q5-42 11.5-79t11.5-56q7-31 16-58.5T1121 0H936q-5 12-12.5 35.5T909 87q-5 22-9.5 44.5T893 170q-29-50-74.5-89T729 19Q681-6 627.5-17.5T513-29zm38 154q151 0 238 106 88 108 88 291v41H644q-160 0-242-56-43-29-62.5-71.5T320 337q0-52 16-90.5t45-65.5q29-26 70.5-41t99.5-15z" /><glyph unicode="&#x102;" d="M616 1589q-290 0-313 242h119q12-54 61.5-82.5T618 1720q163 0 193 111h119q-11-120-90-181t-224-61zm-122-96h245L1196 0H987L877 389H354L246 0H37zM829 551l-213 764-213-764h426z" /><glyph unicode="&#x103;" d="M619 1296q-290 0-313 287h119q11-72 56.5-111t136.5-39q86 0 134 37t62 113h119q-23-287-314-287zM513-29q-174 0-275 97-48 46-75 108.5T136 327q0 185 126 283 124 97 368 97h247v29q0 64-17 114t-51 81q-33 30-87 45t-126 15q-95 0-191-27-97-27-187-79v184q42 16 93 32t103 27q91 19 183 19 71 0 129-10.5t108-31.5q46-20 87.5-50.5T992 984q21-29 34-61t20-63q16-73 16-221V410q2-58 3-102t6-82q5-42 11.5-79t11.5-56q7-31 16-58.5T1121 0H936q-5 12-12.5 35.5T909 87q-5 22-9.5 44.5T893 170q-29-50-74.5-89T729 19Q681-6 627.5-17.5T513-29zm38 154q151 0 238 106 88 108 88 291v41H644q-160 0-242-56-43-29-62.5-71.5T320 337q0-52 16-90.5t45-65.5q29-26 70.5-41t99.5-15z" /><glyph unicode="&#x104;" d="M1124-272q31 0 54.5 7.5T1233-242v-133q-22-6-38.5-9.5t-30.5-6-27.5-3.5-30.5-1q-113 0-172 42.5T875-222q0 25 5.5 49.5t18 51 33 56.5T983 0h4L877 389H354L246 0H37l457 1493h245L1196 0h-94q-48-65-68-107.5t-20-76.5q0-42 28-65t82-23zM829 551l-213 764-213-764h426z" /><glyph unicode="&#x105;" d="M1078-269q62 0 124 30v-133q-42-11-74-15.5t-69-4.5q-112 0-171 42.5T829-218q0 25 5.5 49t17.5 50.5T884.5-63 935 1q-5 13-12 36t-14 50q-5 22-9.5 44.5T893 170q-29-50-74.5-89T729 19Q681-6 627.5-17.5T513-29q-174 0-275 97-48 46-75 108.5T136 327q0 185 126 283 124 97 368 97h247v29q0 64-17 114t-51 81q-33 30-87 45t-126 15q-95 0-191-27-97-27-187-79v184q42 16 93 32t103 27q91 19 183 19 71 0 129-10.5t108-31.5q46-20 87.5-50.5T992 984q21-29 34-61t20-63q16-73 16-221V410q2-58 3-102t6-82q5-42 11.5-79t11.5-56q7-31 16-58.5T1121 0h-67q-47-64-66.5-106T968-181q0-42 28-65t82-23zM877 563H644q-160 0-242-56-43-29-62.5-71.5T320 337q0-52 16-90.5t45-65.5q29-26 70.5-41t99.5-15q151 0 238 106 88 108 88 291v41z" /><glyph unicode="&#x106;" d="M762 1852h186l-229-264H565zM742-29q-143 0-255 51.5T297 174q-79 102-118.5 245.5T139 744t39.5 325T298 1316q78 1e2 189.5 152t254.5 52q45 0 89.5-5t83.5-15q38-10 79-26t79-36v-207q-73 61-159 93-43 16-85.5 24t-87.5 8q-97 0-170.5-38T448 1204q-98-152-98-459 0-306 98-458 47-72 119.5-112T742 135q89 0 174 32 83 31 157 93V53Q995 12 915-9q-39-10-83.5-15T742-29z" /><glyph unicode="&#x107;" d="M815 1673h198l-325-376H534zM712-29q-125 0-227.5 39.5T310 127 201 313t-37 246q0 143 38.5 251T311 992q74 78 175.5 116.5T713 1147q46 0 85-5t77-16q76-21 155-65V868q-37 32-73 56t-73 38q-75 29-166 29-174 0-267-112-93-113-93-319 0-96 21.5-178T451 240q94-113 270-113 50 0 91.5 8t76.5 22q45 17 77.5 39.5T1030 248V57q-34-20-74-37T878-8q-35-10-76.5-15.5T712-29z" /><glyph unicode="&#x10a;" d="M618 1647q-30 0-30 30v145q0 30 30 30h145q30 0 30-30v-145q0-30-30-30H618zM744-29q-144 0-256.5 52t-190 151-118 242.5T139 743q0 184 40.5 328T298 1315t190.5 152.5T745 1520q89 0 169.5-20t158.5-62v-207q-73 60-156.5 92.5T740 1356q-194 0-292-152t-98-459q0-610 390-610 91 0 175.5 32t157.5 93V53Q995 11 914.5-9T744-29z" /><glyph unicode="&#x10b;" d="M587 1348q-30 0-30 30v144q0 30 30 30h145q30 0 30-30v-144q0-30-30-30H587zM717-29q-130 0-232.5 40t-174 116-109 185T164 559t37.5 247 109 185 174 116 232.5 40q81 0 158-20.5t155-65.5V868q-73 65-146.5 94T717 991q-174 0-266.5-111.5T358 559q0-208 93-320t266-112q97 0 172 29t141 92V57Q881-29 717-29z" /><glyph unicode="&#x10c;" d="M401 1852h140l165-178 166 178h140l-211-266H612zM742-29q-143 0-255 51.5T297 174q-79 102-118.5 245.5T139 744t39.5 325T298 1316q78 1e2 189.5 152t254.5 52q45 0 89.5-5t83.5-15q38-10 79-26t79-36v-207q-73 61-159 93-43 16-85.5 24t-87.5 8q-97 0-170.5-38T448 1204q-98-152-98-459 0-306 98-458 47-72 119.5-112T742 135q89 0 174 32 83 31 157 93V53Q995 12 915-9q-39-10-83.5-15T742-29z" /><glyph unicode="&#x10d;" d="M356 1673h139l180-245 181 245h139l-246-376H602zM712-29q-125 0-227.5 39.5T310 127 201 313t-37 246q0 143 38.5 251T311 992q74 78 175.5 116.5T713 1147q46 0 85-5t77-16q76-21 155-65V868q-37 32-73 56t-73 38q-75 29-166 29-174 0-267-112-93-113-93-319 0-96 21.5-178T451 240q94-113 270-113 50 0 91.5 8t76.5 22q45 17 77.5 39.5T1030 248V57q-34-20-74-37T878-8q-35-10-76.5-15.5T712-29z" /><glyph unicode="&#x10e;" d="M233 1852h140l165-178 166 178h140l-211-266H444zm-96-359h303q171 0 296.5-45T944 1311t122-232.5 40-331.5q0-192-40-332.5T944 182 736.5 45 440 0H137v1493zM436 166q128 0 215.5 29t141 96.5 77 179T893 746q0 165-23.5 276.5t-77.5 179-141.5 96.5-214.5 29h-96V166h96z" /><glyph unicode="&#x10f;" d="M1114 1557h198l-113-376h-154zM526-29q-1e2.0-180 40.5t-136.5 117T123 314 93 561q0 137 30.5 246T210 991.5 346.5 1107t180.5 40q104 0 180-43t121-127v579h184V0H846l-18 141Q782 57 705.5 14T526-29zm30 156q134 0 203 109t69 323-69 323-203 109-201.5-108.5T287 559t67.5-323.5T556 127z" /><glyph unicode="&#x110;" d="M133 709H8v149h125v635h303q171 0 296-45t207.5-137 122.5-232.5 40-332.5q0-191-40-331.5T940 182 732.5 45 436 0H133v709zM436 166q128 0 215.5 29t141 96.5 77 179T893 746q0 165-23.5 276.5t-77.5 179-141.5 96.5-214.5 29h-96V858h264V709H340V166h96z" /><glyph unicode="&#x111;" d="M559-29q-106 0-186 42T239 129q-58 79-87 188.5T123 562q0 133 28.5 242.5T239 992t141 116.5 179 38.5q102 0 178-43 77-44 121-127v309H553v121h305v149h184v-149h191v-121h-191V0H876l-18 141q-23-40-52-71.5T736 15q-76-44-177-44zm26 156q135 0 204 110 69 109 69 322t-69 323q-32 51-82 80t-121 29q-134 0-201-109-68-110-68-323t68-323q35-57 86-83t114-26z" /><glyph unicode="&#x112;" d="M335 18e2h598v-148H335v148zM197 1493h886v-170H399V881h654V711H399V170h703V0H197v1493z" /><glyph unicode="&#x113;" d="M353 1496h598v-148H353v148zM677-29q-130 0-232.5 40.5T270.5 128t-109 184T124 555t37.5 244.5 106 187 164.5 119 213 41.5q111 0 198-37.5T990 1002t91.5-170 31.5-226v-90H316v-6q0-92 24.5-163t71-120T526 152.5 680 127q90 0 185.5 28t204.5 85V57Q964 14 867.5-7.5T677-29zM929 660q-3 157-74.5 244T647 991t-221.5-86.5T323 659z" /><glyph unicode="&#x116;" d="M561 1647q-30 0-30 30v145q0 30 30 30h145q30 0 30-30v-145q0-30-30-30H561zM197 1493h886v-170H399V881h654V711H399V170h703V0H197v1493z" /><glyph unicode="&#x117;" d="M558 1348q-30 0-30 30v144q0 30 30 30h145q30 0 30-30v-144q0-30-30-30H558zM677-29q-130 0-232.5 40.5T270.5 128t-109 184T124 555t37.5 244.5 106 187 164.5 119 213 41.5q111 0 198-37.5T990 1002t91.5-170 31.5-226v-90H316v-6q0-92 24.5-163t71-120T526 152.5 680 127q90 0 185.5 28t204.5 85V57Q964 14 867.5-7.5T677-29zM929 660q-3 157-74.5 244T647 991t-221.5-86.5T323 659z" /><glyph unicode="&#x118;" d="M952 0q-48-65-68-107.5T864-184q0-42 28-65t82-23q62 0 124 30v-133q-42-11-74-15.5t-69-4.5q-112 0-171 42.5T725-221q0 25 5.5 49.5t18 50.5 33 56T833 0H197v1493h886v-170H399V881h654V711H399V170h703V0H952z" /><glyph unicode="&#x119;" d="M316 516v-6q0-92 24.5-163t71-120T526 152.5 680 127q90 0 185.5 28t204.5 85V57q-46-19-90-33T893-1q-47-65-67-107t-20-76q0-42 28-65t82-23q62 0 124 30v-133q-42-11-74-15.5t-69-4.5q-112 0-171 42.5T667-221q0 22 4.5 44.5t14.5 46T712.5-81 754-25q-20-2-39-3t-38-1q-130 0-232.5 40.5T270.5 128t-109 184T124 555t37.5 244.5 106 187 164.5 119 213 41.5q111 0 198-37.5T990 1002t91.5-170 31.5-226v-90H316zM647 991q-136 0-221.5-86.5T323 659l606 1q-3 157-74.5 244T647 991z" /><glyph unicode="&#x11a;" d="M347 1852h140l165-178 166 178h140l-211-266H558zM197 1493h886v-170H399V881h654V711H399V170h703V0H197v1493z" /><glyph unicode="&#x11b;" d="M333 1673h139l180-245 181 245h139l-246-376H579zM677-29q-130 0-232.5 40.5T270.5 128t-109 184T124 555t37.5 244.5 106 187 164.5 119 213 41.5q111 0 198-37.5T990 1002t91.5-170 31.5-226v-90H316v-6q0-92 24.5-163t71-120T526 152.5 680 127q90 0 185.5 28t204.5 85V57Q964 14 867.5-7.5T677-29zM929 660q-3 157-74.5 244T647 991t-221.5-86.5T323 659z" /><glyph unicode="&#x11e;" d="M656 1589q-290 0-313 242h119q12-54 61.5-82.5T658 1720q163 0 193 111h119q-11-120-90-181t-224-61zM7e2-29q-143 0-253.5 52T259 175q-78 102-117.5 245T102 744t39.5 325T261 1316q76 97 187 150.5t254 53.5q47 0 94-6t91-20 87-35 79-46v-207q-43 41-85.5 69t-80.5 45q-44 19-90 27.5t-91 8.5q-97 0-170-37t-124-115q-50-77-74.5-190.5T313 743q0-158 24-270.5T409 285q50-78 122.5-114T703 135q35 0 64 4t53 12 47 19.5 44 28.5v401H694v166h410V123q-81-75-182-113-102-39-222-39z" /><glyph unicode="&#x11f;" d="M644 1298q-144 0-223 72t-90 215h119q10-75 59-113 47-37 135-37 86 0 133 37 49 38 62 113h119q-11-143-90-215-80-72-224-72zM601-440q-39 0-78 3.5T442-426q-41 7-81.5 17T276-385v182q49-23 94.5-40t83.5-28q78-22 151-22 74 0 126 20t87 62q33 40 50.5 101.5T886 45v133Q843 85 766 38 690-8 582-8 385-8 268 149T151 569t117 421q59 79 136.5 118t178.5 39q52 0 97.5-10.5T764 1104q76-44 122-133l18 145h166V72q0-251-119-382-118-130-350-130zm21 585q130 0 197 109t67 315q0 208-67 315-35 57-85.5 82T621 991q-134 0-205-107t-71-316q0-205 72-314t205-109z" /><glyph unicode="&#x120;" d="M618 1647q-30 0-30 30v145q0 30 30 30h145q30 0 30-30v-145q0-30-30-30H618zM7e2-29q-141 0-252 52T260 174 142.5 416.5 102 743q0 184 41 328t118.5 244 189 152.5T703 1520q99 0 184-26.5t166-80.5v-207q-81 78-165.5 114T707 1356q-2e2.0-297-152.5T313 739q0-307 96-455.5T705 135q64 0 114 15.5t92 48.5v401H694v166h410V123Q1023 48 922 9.5T7e2-29z" /><glyph unicode="&#x121;" d="M571 1348q-30 0-30 30v144q0 30 30 30h145q30 0 30-30v-144q0-30-30-30H571zM601-440q-76 0-158.5 14T276-385v182q50-23 94.5-40t84.5-28 77.5-16.5T607-293q145 0 212 82.5T886 45v133Q844 87 769 39.5T585-8Q485-8 404.5 33T268 149t-86.5 182T151 570t30 238.5T267.5 990t137 116 181.5 41q103 0 178.5-43.5T886 971l18 145h166V72q0-254-118.5-383T601-440zm19 585q132 0 199 108t67 316-67 315-2e2 107q-132 0-203-106.5T345 570q0-209 71.5-317T620 145z" /><glyph unicode="&#x122;" d="M7e2-29q-141 0-252 52T260 174 142.5 416.5 102 743q0 184 41 328t118.5 244 189 152.5T703 1520q99 0 184-26.5t166-80.5v-207q-81 78-165.5 114T707 1356q-2e2.0-297-152.5T313 739q0-307 96-455.5T705 135q64 0 114 15.5t92 48.5v401H694v166h410V123Q1023 48 922 9.5T7e2-29zM630-228h239L682-573H536z" /><glyph unicode="&#x123;" d="M701 1642h146l-94-345H514zM601-440q-76 0-158.5 14T276-385v182q50-23 94.5-40t84.5-28 77.5-16.5T607-293q145 0 212 82.5T886 45v133Q844 87 769 39.5T585-8Q485-8 404.5 33T268 149t-86.5 182T151 570t30 238.5T267.5 990t137 116 181.5 41q103 0 178.5-43.5T886 971l18 145h166V72q0-254-118.5-383T601-440zm19 585q132 0 199 108t67 316-67 315-2e2 107q-132 0-203-106.5T345 570q0-209 71.5-317T620 145z" /><glyph unicode="&#x126;" d="M137 1105H3v164h134v224h202v-224h554v224h202v-224h135v-164h-135V0H893v711H339V0H137v1105zM893 881v224H339V881h554z" /><glyph unicode="&#x127;" d="M195 1270H70v164h125v122h184v-122h353v-164H379V952q49 97 133 146t199 49q172 0 256-112t84-341V0H866v694q0 151-52.5 222T648 987q-131 0-2e2-91t-69-263V0H195v1270z" /><glyph unicode="&#x128;" d="M287 1633q0 48 12 88t40 72q51 59 137 59 32 0 66-8 15-4 34-12.5t45-22.5l57-30q21-13 40-19 16-6 32-6 31 0 51 26t20 66v6h125q-1-99-53-159-51-60-136-60-31 0-63 8-14 4-32.5 11.5T612 1676l-57 33q-23 13-41 20-8 3-16 4t-13 1q-15 0-29-6t-24-19q-20-26-20-70v-6H287zM201 170h313v1153H201v170h829v-170H717V170h313V0H201v170z" /><glyph unicode="&#x129;" d="M268 1259q0 65 13 117.5t37.5 89 61 56T463 1541q38 0 70-14t69-47l57-55q24-23 40-31t30-8q17 0 31 9t23 28q17 36 19 118h125q0-65-13-117.5t-37.5-89-61-56T732 1259q-38 0-70 14t-69 47l-57 55q-21 20-37 29.5t-33 9.5-31-9-23-28q-19-39-20-118H268zM859-8q-80 0-143.5 25T604 98q-91 106-91 3e2v578H268v144h429V398q0-125 46-187 24-33 57.5-48t76.5-15h215V-8H859z" /><glyph unicode="&#x12a;" d="M335 18e2h598v-148H335v148zM201 170h313v1153H201v170h829v-170H717V170h313V0H201v170z" /><glyph unicode="&#x12b;" d="M268 1468h598v-148H268v148zM859-8q-80 0-143.5 25T604 98q-91 106-91 3e2v578H268v144h429V398q0-125 46-187 24-33 57.5-48t76.5-15h215V-8H859z" /><glyph unicode="&#x12e;" d="M717 1323V170h313V0H717q-48-65-68-107.5T629-184q0-42 28-65t82-23q62 0 124 30v-133q-42-11-74-15.5t-69-4.5q-112 0-171 42.5T490-221q0 25 5.5 49.5t18 50.5 33 56T598 0H201v170h313v1153H201v170h829v-170H717z" /><glyph unicode="&#x12f;" d="M526 1323q-33 0-33 30v173q0 30 33 30h138q33 0 33-30v-173q0-30-33-30H526zM972-261q62 0 124 30v-133q-42-11-74-15.5t-69-4.5q-112 0-171 42.5T723-210q0 23 4.5 46t15.5 47.5T772-65t44 59q-65 6-118 31t-94 73q-91 106-91 3e2v578H268v144h429V398q0-125 46-187 24-33 57.5-48t76.5-15h215V-8H936q-40-57-57-95t-17-70q0-42 28-65t82-23z" /><glyph unicode="&#x130;" d="M543 1647q-30 0-30 30v145q0 30 30 30h145q30 0 30-30v-145q0-30-30-30H543zM201 170h313v1153H201v170h829v-170H717V170h313V0H201v170z" /><glyph unicode="&#x131;" d="M859-8q-80 0-143.5 25T604 98q-91 106-91 3e2v578H268v144h429V398q0-125 46-187 24-33 57.5-48t76.5-15h215V-8H859v0z" /><glyph unicode="&#x136;" d="M137 1493h203V829l631 664h237L627 883 1225 0H981L494 748 340 584V0H137v1493zM608-199h239L660-544H514z" /><glyph unicode="&#x137;" d="M226 1556h190V655l483 465h224L682 698 1192 0H967L553 578 416 449V0H226v1556zM626-199h239L678-544H532z" /><glyph unicode="&#x139;" d="M412 1856h186l-229-264H215zM215 1493h203V170h721V0H215v1493z" /><glyph unicode="&#x13a;" d="M577 1880h186l-229-264H380zM801-8Q635-8 545 97.5T455 398v1014H160v144h479V398q0-250 180-250h215V-8H801z" /><glyph unicode="&#x13b;" d="M215 1493h203V170h721V0H215v1493zM604-199h239L656-544H510z" /><glyph unicode="&#x13c;" d="M801-8Q635-8 545 97.5T455 398v1014H160v144h479V398q0-250 180-250h215V-8H801zM497-199h239L549-544H403z" /><glyph unicode="&#x13d;" d="M215 1493h203V170h721V0H215v1493zm503-2h198l-113-376H649z" /><glyph unicode="&#x13e;" d="M801-8Q635-8 545 97.5T455 398v1014H160v144h479V398q0-250 180-250h215V-8H801zM959 1556h198l-113-376H890z" /><glyph unicode="&#x141;" d="M215 571 70 465-10 575l225 158v760h203V877l315 219 78-111-393-274V170h721V0H215v571z" /><glyph unicode="&#x142;" d="M801-8q-80 0-143.5 25T546 98q-91 106-91 3e2v292L156 481 76 592l379 264v556H160v144h479V981l315 219 80-110-395-275V398q0-125 46-187 24-33 57.5-48t76.5-15h215V-8H801v0z" /><glyph unicode="&#x143;" d="M731 1856h186l-229-264H534zM139 1493h256L899 264v1229h195V0H838L334 1229V0H139v1493z" /><glyph unicode="&#x144;" d="M776 1673h198l-325-376H495zM195 1120h166l18-168q49 97 133 146t199 49q172 0 256-112t84-341V0H866v694q0 151-52.5 222T648 987q-131 0-2e2-91t-69-263V0H195v1120z" /><glyph unicode="&#x145;" d="M139 1493h256L899 264v1229h195V0H838L334 1229V0H139v1493zM544-199h239L596-544H450z" /><glyph unicode="&#x146;" d="M195 1120h166l18-168q49 97 133 146t199 49q172 0 256-112t84-341V0H866v694q0 151-52.5 222T648 987q-131 0-2e2-91t-69-263V0H195v1120zM550-199h239L602-544H456z" /><glyph unicode="&#x147;" d="M347 1852h140l165-178 166 178h140l-211-266H558zM139 1493h256L899 264v1229h195V0H838L334 1229V0H139v1493z" /><glyph unicode="&#x148;" d="M285 1673h139l180-245 181 245h139l-246-376H531zm-90-553h166l18-168q49 97 133 146t199 49q172 0 256-112t84-341V0H866v694q0 151-52.5 222T648 987q-131 0-2e2-91t-69-263V0H195v1120z" /><glyph unicode="&#x14a;" d="M536-270h167q45 0 78.5 15t56 47 33.5 83.5T882 0v1009q0 180-58 264.5T642 1358q-142 0-217.5-108.5T349 937V0H147v1493h184l18-198q54 112 145.5 169.5T713 1522q372 0 372-523V-20q0-196-89-301T741-426H536v156z" /><glyph unicode="&#x14b;" d="M502-270h185q179 0 179 250v714q0 151-52.5 222T648 987q-131 0-2e2-91t-69-263V0H195v1120h166l18-168q49 97 133 146t199 49q172 0 256-112t84-341V-20q0-196-89-301T707-426H502v156z" /><glyph unicode="&#x14c;" d="M317 18e2h598v-148H317v148zM615-29q-251 0-374.5 190.5T117 744t123.5 584T616 1520q253 0 376.5-192T1116 745q0-390-124-582T615-29zm1 164q154 0 222 141 67 138 67 469 0 330-67 470-68 141-222 141-153 0-220-141-68-142-68-470 0-327 68-469 67-141 220-141z" /><glyph unicode="&#x14d;" d="M317 1495h598v-148H317v148zM616-29q-235 0-357 149.5T137 558q0 143 31 253t92 184.5 150 113 206 38.5 206.5-38.5 150-113 92-184.5 31.5-253q0-286-123-436.5T616-29zm0 156q142 0 213.5 109T901 559q0 215-71.5 323.5T616 991q-141 0-212.5-108.5T332 559q0-214 71.5-323T616 127z" /><glyph unicode="&#x150;" d="M541 1859h186l-229-264H344zm319 0h186l-229-264H663zM615-29q-251 0-374.5 190.5T117 744t123.5 584T616 1520q253 0 376.5-192T1116 745q0-390-124-582T615-29zm1 164q154 0 222 141 67 138 67 469 0 330-67 470-68 141-222 141-153 0-220-141-68-142-68-470 0-327 68-469 67-141 220-141z" /><glyph unicode="&#x151;" d="M535 1673h170l-224-376H344zm333 0h179l-248-376H664zM616-29q-235 0-357 149.5T137 558q0 143 31 253t92 184.5 150 113 206 38.5 206.5-38.5 150-113 92-184.5 31.5-253q0-286-123-436.5T616-29zm0 156q142 0 213.5 109T901 559q0 215-71.5 323.5T616 991q-141 0-212.5-108.5T332 559q0-214 71.5-323T616 127z" /><glyph unicode="&#x152;" d="M612 0Q454 0 354.5 43.5T196 167q-64 87-94 229T72 747q0 111 8 2e2t24 160 38.5 125 52.5 95q60 82 161 124t256 42h594v-170H848V881h328V711H848V170h369V0H612zm39 170v1153h-61q-177 0-246-115-34-57-52-168t-18-295q0-180 17.5-291T344 285q69-115 246-115h61z" /><glyph unicode="&#x153;" d="M369-29q-99 0-163.5 36T1e2 109q-45 72-65.5 181.5T14 558q0 84 5.5 152.5T36 834t27 98 36 76q43 70 110 104.5t164 34.5q90 0 153-31 64-32 111-96 17 29 43 53.5t59 41.5 72 24.5 82 7.5q173 0 245-118 72-119 72-425v-90H719v-84q0-162 50-235 25-36 64-54t99-18q37 0 74 6.5t70 20.5q66 26 112 77V55q-30-23-62.5-39.5T1067-9q-27-9-63.5-14.5T927-29q-51 0-92 9T759 5t-65.5 39.5T637 104q-30-38-58-61.5T521 4q-32-17-69-25t-83-8zm3 152q103 0 144 84 10 21 17.5 50.5t13 71 8 96T557 550q0 138-10 223.5T516 907t-56.5 68-86.5 20q-55 0-89-21.5T231 912q-10-21-17.5-50t-13-71-8-99.5T190 558q0-74 2.5-130t8-98 13-72 17.5-51q22-46 57.5-65t83.5-19zm675 534v12.5t1 17.5 1 15v7q0 152-40 219t-126 67q-87 0-125-68-39-69-39-227v-43h328z" /><glyph unicode="&#x154;" d="M631 1856h186l-229-264H434zM143 1493h416q123 0 217.5-28.5t159-83 98-133.5 33.5-179q0-160-81-251T760 705q40-11 72.5-28t62.5-49.5 62-85.5 73-134L1233 0h-217L838 377q-39 82-72.5 132t-68 77-72.5 36-86 9H346V0H143v1493zM567 797q287 0 287 259 0 136-75.5 203.5T559 1327H346V797h221z" /><glyph unicode="&#x155;" d="M822 1674h198l-325-376H541zM302 1120h167l18-219q45 116 138.5 181t230.5 65q67 0 126-17t113-53V889q-60 46-120.5 67T841 977q-173 0-263.5-107.5T487 557V0H302v1120z" /><glyph unicode="&#x156;" d="M143 1493h416q123 0 217.5-28.5t159-83 98-133.5 33.5-179q0-160-81-251T760 705q40-11 72.5-28t62.5-49.5 62-85.5 73-134L1233 0h-217L838 377q-39 82-72.5 132t-68 77-72.5 36-86 9H346V0H143v1493zM567 797q287 0 287 259 0 136-75.5 203.5T559 1327H346V797h221zm49-996h239L668-544H522z" /><glyph unicode="&#x157;" d="M302 1120h167l18-219q45 116 138.5 181t230.5 65q67 0 126-17t113-53V889q-60 46-120.5 67T841 977q-173 0-263.5-107.5T487 557V0H302v1120zM322-199h239L374-544H228z" /><glyph unicode="&#x158;" d="M257 1852h140l165-178 166 178h140l-211-266H468zM143 1493h416q123 0 217.5-28.5t159-83 98-133.5 33.5-179q0-160-81-251T760 705q40-11 72.5-28t62.5-49.5 62-85.5 73-134L1233 0h-217L838 377q-39 82-72.5 132t-68 77-72.5 36-86 9H346V0H143v1493zM567 797q287 0 287 259 0 136-75.5 203.5T559 1327H346V797h221z" /><glyph unicode="&#x159;" d="M337 1673h139l180-245 181 245h139l-246-376H583zm-35-553h167l18-219q45 116 138.5 181t230.5 65q67 0 126-17t113-53V889q-60 46-120.5 67T841 977q-173 0-263.5-107.5T487 557V0H302v1120z" /><glyph unicode="&#x15a;" d="M701 1856h186l-229-264H504zM586-29Q476-29 371-6.5T158 61v215q115-73 217-107t208-34q153 0 237.5 67.5T905 405q0 50-13.5 89.5t-44 70-81 53T643 657l-108 25q-105 24-180 59.5t-123 84-70.5 111T139 1077q0 101 35 183t99.5 139.5 155.5 89 202 31.5q171 0 381-78v-205q-185 119-372 119-71 0-128-17t-97-49-61.5-80-21.5-109q0-45 13-80t43-63 79.5-49T590 872l106-24q106-24 182-62.5t125-92.5 72-124.5 23-157.5q0-215-132-327.5T586-29z" /><glyph unicode="&#x15b;" d="M782 1673h198l-325-376H501zM587-29q-87 0-177.5 17.5T213 41v190q205-106 375-106 61 0 108.5 13t80.5 37 50 57 17 73q0 34-13.5 62T788 417.5 712 458t-113 32l-8 2-69 14q-82 16-140 42.5t-94.5 64T234 699t-17 111q0 163 108 250t314 87q173 0 334-66V901q-81 46-159.5 69T645 993q-242 0-242-165 0-35 11.5-64t34.5-47q26-20 83.5-37.5T678 645l74-14q138-26 208-103.5t70-203.5q0-83-30.5-148.5T912 64.5 772.5-5 587-29z" /><glyph unicode="&#x15e;" d="M1001 694q97-104 97-284 0-114-35-194.5T967 83q-47-40-110-65.5T717-20q22-26 39-50.5t27-44.5q11-23 18.5-48.5T809-219q0-40-15-74t-45-57q-29-22-73-33.5T570-395q-44 0-87 6-46 6-88 18v131q17-8 35-14.5t37-10.5 40.5-5.5T546-272q64 0 94 24t30 68q0 32-22 75-8 17-20 35.5T602-29h-18q-57 0-111 5.5T371-7Q318 4 263.5 22T158 61v215q58-37 112-63.5T376 169q54-18 105-26t101-8q75 0 135 17t103 51q40 32 62.5 79.5T905 399q0 57-15.5 98T847 566q-31 32-82.5 53.5T643 657l-108 25q-101 23-176.5 57T233 824q-46 47-70 109t-24 146q0 103 35.5 184t99.5 138 153.5 88 203.5 31q43 0 88-4.5t93-14.5q93-19 2e2-59v-205q-50 32-96 53.5t-88 35.5q-93 30-186 30-75 0-132.5-17.5T414 1290q-40-32-61-78.5T332 1105q0-41 11.5-78t43.5-67q29-28 78-49.5T590 872l106-24q97-22 174.5-59.5T1001 694z" /><glyph unicode="&#x15f;" d="M960 527q70-77 70-204 0-86-30.5-149.5T912 65Q832 2 716-18q23-26 39.5-51.5T783-115q11-23 18.5-48.5T809-219q0-40-15-74t-45-57q-29-22-73-33.5T570-395q-44 0-87 6-46 6-88 18v131q17-8 35-14.5t37-10.5 40.5-5.5T546-272q64 0 94 24t30 68q0 32-22 75-8 17-20 35.5T602-29h-12q-44 0-90.5 4.5T410-12q-39 8-91.5 22T213 41v190q64-32 109-49.5t88-29.5q46-13 89-20t89-7q121 0 189 50 35 26 51 61t16 71q0 70-59 113.5T599 490l-8 2-69 14q-75 15-133.5 40T290 611q-73 73-73 201 0 81 27.5 143t81.5 105q57 46 136 66.5t177 20.5q43 0 86-4t85-12q38-8 79.5-20.5T973 1081V901q-80 46-159 69-40 11-80.5 17t-86.5 6q-58 0-104.5-10T465 953q-62-41-62-125 0-35 11.5-64t34.5-47 76.5-35.5T678 645l74-14q72-14 123-40t85-64z" /><glyph unicode="&#x160;" d="M327 1852h140l165-178 166 178h140l-211-266H538zM584-29q-57 0-111 5.5T371-7Q318 4 263.5 22T158 61v215q58-37 112-63.5T376 169q54-18 105-26t101-8q75 0 135 17t103 51q40 32 62.5 79.5T905 399q0 57-15.5 98T847 566q-31 32-82.5 53.5T643 657l-108 25q-101 23-176.5 57T233 824q-46 47-70 109t-24 146q0 103 35.5 184t99.5 138 153.5 88 203.5 31q43 0 88-4.5t93-14.5q93-19 2e2-59v-205q-50 32-96 53.5t-88 35.5q-93 30-186 30-75 0-132.5-17.5T414 1290q-40-32-61-78.5T332 1105q0-41 11.5-78t43.5-67q29-28 78-49.5T590 872l106-24q97-22 174.5-59.5T1001 694q97-104 97-284 0-114-35-194.5T967 83Q901 26 803.5-1.5T584-29z" /><glyph unicode="&#x161;" d="M297 1673h139l180-245 181 245h139l-246-376H543zM590-29q-44 0-90.5 4.5T410-12q-39 8-91.5 22T213 41v190q64-32 109-49.5t88-29.5q46-13 89-20t89-7q121 0 189 50 35 26 51 61t16 71q0 70-59 113.5T599 490l-8 2-69 14q-75 15-133.5 40T290 611q-73 73-73 201 0 81 27.5 143t81.5 105q57 46 136 66.5t177 20.5q43 0 86-4t85-12q38-8 79.5-20.5T973 1081V901q-80 46-159 69-40 11-80.5 17t-86.5 6q-58 0-104.5-10T465 953q-62-41-62-125 0-35 11.5-64t34.5-47 76.5-35.5T678 645l74-14q72-14 123-40t85-64q70-77 70-204 0-86-30.5-149.5T912 65Q851 17 769.5-6T590-29z" /><glyph unicode="&#x164;" d="M317 1852h140l165-178 166 178h140l-211-266H528zm199-529H47v170h1139v-170H719V0H516v1323z" /><glyph unicode="&#x165;" d="M820 1682h198l-113-376H751zM807-4Q601-4 515 79q-85 82-85 286v612H131v143h299v293l184 80v-373h418V977H614V365q0-123 47-173 46-49 164-49h207V-4H807z" /><glyph unicode="&#x166;" d="M516 577H251v170h265v576H47v170h1139v-170H719V747h265V577H719V0H516v577z" /><glyph unicode="&#x167;" d="M807-4Q703-4 631.5 15.5T515 79t-65 114-20 172v237H201v142h229v233H131v143h299v303l184 70v-373h418V977H614V744h229V602H614V365q0-62 11-104.5t36-68.5 65-37.5 99-11.5h207V-4H807v0z" /><glyph unicode="&#x168;" d="M287 1633q0 102 50.5 160.5T482 1852q40 0 70.5-11.5T621 1809l57-30q43-25 72-25 31 0 51 25t20 67v6h125q-2-49-15-89.5t-37-69-59.5-44.5-81.5-16q-32 0-63.5 9.5T612 1676l-57 33q-25 14-40 19.5t-29 5.5q-34 0-54-25t-20-70v-6H287zM618-29Q509-29 421.5 2T274 87q-36 33-60 74t-38 89q-14 47-21.5 123.5T147 573v920h203V481q0-109 6-155 3-21 10-44t20.5-44.5T420 197t50-33q29-14 66.5-21.5T616 135q85 0 149 31t92 88q6 12 11.5 30t8.5 41q6 46 6 154v1014h202V573q0-63-1.5-112t-5.5-88-9.5-69.5T1056 248q-16-53-42-93t-59-70-71-51-77-34q-87-29-189-29z" /><glyph unicode="&#x169;" d="M287 1257q0 65 13 117.5t37.5 89 61 56T482 1539q38 0 70-14t69-47l57-55q24-23 40-31t30-8q17 0 31 9t23 28q17 36 19 118h125q0-65-13-117.5t-37.5-89-61-56T751 1257q-38 0-70 14t-69 47l-57 55q-21 20-37 29.5t-33 9.5-31-9-23-28q-19-39-20-118H287zM534-29Q362-29 278.5 83T195 424v694h184V424q0-151 53.5-222T598 131q131 0 199.5 91T866 485v633h185V0H884l-18 168Q817 71 733 21T534-29z" /><glyph unicode="&#x16a;" d="M317 18e2h598v-148H317v148zM618-29Q509-29 421.5 2T274 87q-36 33-60 74t-38 89q-14 47-21.5 123.5T147 573v920h203V481q0-109 6-155 3-21 10-44t20.5-44.5T420 197t50-33q29-14 66.5-21.5T616 135q85 0 149 31t92 88q6 12 11.5 30t8.5 41q6 46 6 154v1014h202V573q0-63-1.5-112t-5.5-88-9.5-69.5T1056 248q-16-53-42-93t-59-70-71-51-77-34q-87-29-189-29z" /><glyph unicode="&#x16b;" d="M317 1466h598v-148H317v148zM534-29Q362-29 278.5 83T195 424v694h184V424q0-151 53.5-222T598 131q131 0 199.5 91T866 485v633h185V0H884l-18 168Q817 71 733 21T534-29z" /><glyph unicode="&#x16e;" d="M627 1352q-58 0-108 21.5t-87 58.5-58.5 87.5T352 1627t21.5 107 58.5 87 87 58.5 108 21.5 108-21.5 87-58.5 58-87 21-107-21-107.5-58-87.5-87-58.5-108-21.5zm-1 123q32 0 59.5 12t48 32.5 32.5 48 12 59.5q0 31-12 59t-32.5 48-48 32-59.5 12-59.5-11.5-48-32-32-48T475 1627t11.5-60 32-48.5 48-32T626 1475zM618-29Q509-29 421.5 2T274 87q-36 33-60 74t-38 89q-14 47-21.5 123.5T147 573v920h203V481q0-109 6-155 3-21 10-44t20.5-44.5T420 197t50-33q29-14 66.5-21.5T616 135q85 0 149 31t92 88q6 12 11.5 30t8.5 41q6 46 6 154v1014h202V573q0-63-1.5-112t-5.5-88-9.5-69.5T1056 248q-16-53-42-93t-59-70-71-51-77-34q-87-29-189-29z" /><glyph unicode="&#x16f;" d="M632 1204q-58 0-108 21.5t-87 58.5-58.5 87.5T357 1479t21.5 107 58.5 87 87 58.5 108 21.5 108-21.5 87-58.5 58-87 21-107-21-107.5-58-87.5-87-58.5-108-21.5zm-1 123q32 0 59.5 12t48 32.5 32.5 48 12 59.5q0 31-12 59t-32.5 48-48 32-59.5 12-59.5-11.5-48-32-32-48T480 1479t11.5-60 32-48.5 48-32T631 1327zM534-29Q362-29 278.5 83T195 424v694h184V424q0-151 53.5-222T598 131q131 0 199.5 91T866 485v633h185V0H884l-18 168Q817 71 733 21T534-29z" /><glyph unicode="&#x170;" d="M541 1852h186l-229-264H344zm319 0h186l-229-264H663zM618-29Q509-29 421.5 2T274 87q-36 33-60 74t-38 89q-14 47-21.5 123.5T147 573v920h203V481q0-109 6-155 3-21 10-44t20.5-44.5T420 197t50-33q29-14 66.5-21.5T616 135q85 0 149 31t92 88q6 12 11.5 30t8.5 41q6 46 6 154v1014h202V573q0-63-1.5-112t-5.5-88-9.5-69.5T1056 248q-16-53-42-93t-59-70-71-51-77-34q-87-29-189-29z" /><glyph unicode="&#x171;" d="M535 1644h170l-224-376H344zm333 0h179l-248-376H664zM534-29Q362-29 278.5 83T195 424v694h184V424q0-151 53.5-222T598 131q131 0 199.5 91T866 485v633h185V0H884l-18 168Q817 71 733 21T534-29z" /><glyph unicode="&#x172;" d="M1085 1493V573q0-63-1.5-112t-5.5-88-9.5-69.5T1056 248q-16-53-42-93t-59-70-71-51-77-34q-32-11-67-18t-73-9q-44-61-62-101t-18-72q0-42 28-65t82-23q62 0 124 30v-133q-42-11-74-15.5t-69-4.5q-112 0-171 42.5T448-237q0 24 5 47.5t16.5 49 30.5 54T548-25q-86 8-155 37.5T274 87q-36 33-60 74t-38 89q-14 47-21.5 123.5T147 573v920h203V481q0-109 6-155 3-21 10-44t20.5-44.5T420 197t50-33q29-14 66.5-21.5T616 135q85 0 149 31t92 88q6 12 11.5 30t8.5 41q6 46 6 154v1014h202z" /><glyph unicode="&#x173;" d="M1076-272q62 0 124 30v-133q-42-11-74-15.5t-69-4.5q-112 0-171 42.5T827-221q0 25 5.5 49.5t18 50.5 33 56T935 0h-69v168Q817 71 733 21T534-29Q362-29 278.5 83T195 424v694h184V424q0-151 53.5-222T598 131q131 0 199.5 91T866 485v633h185V0h3q-48-65-68-107.5T966-184q0-42 28-65t82-23z" /><glyph unicode="&#x174;" d="M522 1852h189l211-266H782l-166 178-165-178H311zM0 1493h197L340 281l170 802h211l172-804 143 1214h197L1010 0H819L616 887 414 0H223z" /><glyph unicode="&#x175;" d="M543 1647h147l246-376H797l-181 245-180-245H297zM0 1120h182l195-905 160 578h157l162-578 195 905h182L971 0H795L616 614 438 0H262z" /><glyph unicode="&#x176;" d="M522 1852h189l211-266H782l-166 178-165-178H311zM514 670 37 1493h215l364-659 363 659h217L717 670V0H514v670z" /><glyph unicode="&#x177;" d="M555 1647h147l246-376H809l-181 245-180-245H309zM184-272h109q45 0 76 13.5t51 33.5q11 11 23.5 30t26.5 48.5 30.5 70T537 18L104 1120h195l332-876 327 876h195L858 360q-19-48-30.5-78.5t-20-51.5-14-37-12.5-34-16-43-24-64q-26-69-46-120.5T659.5-158t-28-65-24.5-47q-44-75-109.5-115.5T332-426H184v154z" /><glyph unicode="&#x178;" d="M349 1649q-30 0-30 30v143q0 30 30 30h143q30 0 30-30v-143q0-30-30-30H349zm392 0q-30 0-30 30v143q0 30 30 30h142q30 0 30-30v-143q0-30-30-30H741zM514 670 37 1493h215l364-659 363 659h217L717 670V0H514v670z" /><glyph unicode="&#x179;" d="M653 1852h186l-229-264H456zM110 154l759 1169H132v170h969v-154L321 170h802V0H110v154z" /><glyph unicode="&#x17a;" d="M842 1649h198l-325-376H561zM203 170l643 805H227v147h813V954L397 150h643V0H203v170z" /><glyph unicode="&#x17b;" d="M547 1647q-30 0-30 30v145q0 30 30 30h145q30 0 30-30v-145q0-30-30-30H547zM110 154l759 1169H132v170h969v-154L321 170h802V0H110v154z" /><glyph unicode="&#x17c;" d="M543 1322q-30 0-30 30v144q0 30 30 30h145q30 0 30-30v-144q0-30-30-30H543zM203 170l643 805H227v147h813V954L397 150h643V0H203v170z" /><glyph unicode="&#x17d;" d="M265 1852h140l165-178 166 178h140l-211-266H476zM110 154l759 1169H132v170h969v-154L321 170h802V0H110v154z" /><glyph unicode="&#x17e;" d="M297 1649h139l180-245 181 245h139l-246-376H543zM203 170l643 805H227v147h813V954L397 150h643V0H203v170z" /><glyph unicode="&#x192;" d="M203-426q-26 0-53 2.5T97-416q-50 10-97 33v164q27-17 51-28.5T99-267q25-8 49.5-12t46.5-4q53 0 91.5 20t67.5 55 50.5 90.5T440 18l117 687H305v143h275l49 330q14 92 45 160t80 118q99 1e2 248 1e2 48 0 98-9 48-9 1e2-27v-164q-15 12-36 24t-41 19q-17 6-39.5 10t-48.5 4q-51 0-89.5-16.5T879 1351q-30-32-48-78t-28-114l-45-311h303V705H733L633 70q-20-125-55.5-223T491-311q-98-115-288-115z" /><glyph unicode="&#x1a0;" d="M1171 1557q11-42 15.5-74t4.5-69q0-112-42.5-171t-131.5-59q-36 0-73 12 61-176 61-451 0-390-124-582T504-29q-251 0-374.5 190.5T6 744t123.5 584T505 1520q220 0 340-144 45-29 76.5-41t58.5-12q42 0 65 28t23 82q0 62-30 124h133zM727 276q67 138 67 469 0 330-67 470-68 141-222 141-153 0-220-141-68-142-68-470 0-327 68-469 67-141 220-141 154 0 222 141z" /><glyph unicode="&#x1a1;" d="M1182 1137q11-42 15.5-74t4.5-69q0-112-42.5-171T1028 764q-15 0-29.5 1.5T970 772q21-96 21-214 0-286-123-436.5T511-29q-235 0-357 149.5T32 558q0 143 31 253t92 184.5 150 113 206 38.5q143 0 244.5-56.5T916 922q42-19 75-19 42 0 65 28t23 82q0 62-30 124h133zM511 127q142 0 213.5 109T796 559q0 215-71.5 323.5T511 991q-141 0-212.5-108.5T227 559q0-214 71.5-323T511 127z" /><glyph unicode="&#x1af;" d="M1204 1561q11-42 15.5-74t4.5-69q0-112-42.5-171t-131.5-59q-26 0-51 5.5t-52 19.5V573q0-63-1.5-112t-5.5-88-9.5-69.5T918 248q-16-53-42-93t-59-70-71-51-77-34q-87-29-189-29-109 0-196.5 31T136 87q-36 33-60 74t-38 89q-14 47-21.5 123.5T9 573v920h203V481q0-109 6-155 3-21 10-44t20.5-44.5T282 197t50-33q29-14 66.5-21.5T478 135q85 0 149 31t92 88q6 12 11.5 30t8.5 41q6 46 6 154v1014h202v-151q37-15 66-15 42 0 65 28t23 82q0 62-30 124h133v0z" /><glyph unicode="&#x1b0;" d="M1174 1137q11-42 15.5-74t4.5-69q0-112-42.5-171T1020 764q-31 0-60.5 8.5T895 801V0H728l-18 168Q661 71 577 21T378-29Q206-29 122.5 83T39 424v694h184V424q0-151 53.5-222T442 131q131 0 199.5 91T710 485v633h185V929q51-26 88-26 42 0 65 28t23 82q0 62-30 124h133v0z" /><glyph unicode="&#x1e6;" d="M401 1852h140l165-178 166 178h140l-211-266H612zM7e2-29q-141 0-252 52T260 174 142.5 416.5 102 743q0 184 41 328t118.5 244 189 152.5T703 1520q99 0 184-26.5t166-80.5v-207q-81 78-165.5 114T707 1356q-2e2.0-297-152.5T313 739q0-307 96-455.5T705 135q64 0 114 15.5t92 48.5v401H694v166h410V123Q1023 48 922 9.5T7e2-29z" /><glyph unicode="&#x1e7;" d="M325 1673h139l180-245 181 245h139l-246-376H571zM601-440q-76 0-158.5 14T276-385v182q50-23 94.5-40t84.5-28 77.5-16.5T607-293q145 0 212 82.5T886 45v133Q844 87 769 39.5T585-8Q485-8 404.5 33T268 149t-86.5 182T151 570t30 238.5T267.5 990t137 116 181.5 41q103 0 178.5-43.5T886 971l18 145h166V72q0-254-118.5-383T601-440zm19 585q132 0 199 108t67 316-67 315-2e2 107q-132 0-203-106.5T345 570q0-209 71.5-317T620 145z" /><glyph unicode="&#x1fe;" d="M691 1856h186l-229-264H494zM8 0l178 252q-16 36-29 88t-22 116-13.5 137-4.5 151q0 391 123 583.5T614 1520q232 0 347-162l139 201 1e2-74-168-238q42-81 63-209.5t21-293.5q0-390-124-581.5T613-29q-238 0-359 162L111-70zM842 1190q-24 78-80 122t-147 44q-85 0-136.5-38T395 1210q-37-82-52-212t-15-316q0-76 2.5-126.5T338 471zM619 135q151 0 219 142 16 33 28.5 76.5t21 101 13 131.5 4.5 169q0 1e2-5 168t-15 113L371 303q32-81 96.5-124.5T619 135z" /><glyph unicode="&#x1ff;" d="M756 1673h198l-325-376H475zM47-20l170 2e2q-39 72-59.5 168.5T137 562q0 142 31 251t92 183 151 112.5 207 38.5q98 0 177-27t139-84l147 176 93-77-164-195q42-66 64-162t22-218q0-290-122.5-439.5T616-29Q412-29 299 90L139-96zM817 897q-36 50-86.5 72T619 991q-71 0-125-27.5T403 884t-56-127.5T328 584q0-57 7-114.5T356 340zM615 127q142 0 214 109.5T901 552q0 60-6 115t-18 113L414 221q72-94 201-94z" /><glyph unicode="&#x218;" d="M586-29Q476-29 371-6.5T158 61v215q115-73 217-107t208-34q153 0 237.5 67.5T905 405q0 50-13.5 89.5t-44 70-81 53T643 657l-108 25q-105 24-180 59.5t-123 84-70.5 111T139 1077q0 101 35 183t99.5 139.5 155.5 89 202 31.5q171 0 381-78v-205q-185 119-372 119-71 0-128-17t-97-49-61.5-80-21.5-109q0-45 13-80t43-63 79.5-49T590 872l106-24q106-24 182-62.5t125-92.5 72-124.5 23-157.5q0-215-132-327.5T586-29zM502-197h239L554-542H408z" /><glyph unicode="&#x219;" d="M587-29q-87 0-177.5 17.5T213 41v190q205-106 375-106 61 0 108.5 13t80.5 37 50 57 17 73q0 34-13.5 62T788 417.5 712 458t-113 32l-8 2-69 14q-82 16-140 42.5t-94.5 64T234 699t-17 111q0 163 108 250t314 87q173 0 334-66V901q-81 46-159.5 69T645 993q-242 0-242-165 0-35 11.5-64t34.5-47q26-20 83.5-37.5T678 645l74-14q138-26 208-103.5t70-203.5q0-83-30.5-148.5T912 64.5 772.5-5 587-29zM502-197h239L554-542H408z" /><glyph unicode="&#x21a;" d="M719 0h-19q57-63 83-114t26-106q0-85-60-130t-180-45q-86 0-174 24v131q31-17 70.5-24.5T542-272q66 0 97 23.5t31 66.5q0 31-19.5 72.5T582 0h-66v1323H47v170h1139v-170H719V0z" /><glyph unicode="&#x21b;" d="M614 977V365q0-123 47-173 46-49 164-49h207V-4H838q48-56 70-102.5t22-97.5q0-85-60-130t-180-45q-86 0-174 24v131q31-17 70.5-24.5T663-256q66 0 97 23.5t31 66.5q0 15-4 31.5T774-98t-24 44-36 55Q580 16 515 79q-85 82-85 286v612H131v143h299v293l184 80v-373h418V977H614z" /><glyph unicode="&#x2c6;" d="M936 1262H797l-181 245-180-245H297l246 376h147z" /><glyph unicode="&#x2c7;" d="M436 1638l180-245 181 245h139l-246-376H543l-246 376h139z" /><glyph unicode="&#x2d8;" d="M422 1608q10-75 59-113 47-37 135-37 86 0 133 37 49 38 62 113h119q-11-143-90-215-80-72-224-72t-223 72-90 215h119v0z" /><glyph unicode="&#x2d9;" d="M689 1552q30 0 30-30v-144q0-30-30-30H544q-30 0-30 30v144q0 30 30 30h145v0z" /><glyph unicode="&#x2da;" d="M891 1524q0-116-79-195-80-80-196-80-114 0-194 80t-80 195 80 195q79 79 194 79 117 0 196-79t79-195zm-123 0q0 63-44 107t-109 44q-63 0-106-43-44-44-44-108t44-108 107-44q64 0 108 44t44 108z" /><glyph unicode="&#x2db;" d="M647 0q-45-62-66-105-22-43-22-75 0-47 28-69 28-23 81-23 34 0 63 7 16 4 31 9.5t31 13.5v-133q-38-11-72-15-17-2-33-3.5t-31-1.5q-123 0-179 43-58 43-58 137 0 47 27 1e2 13 26 33 55t48 60h119v0z" /><glyph unicode="&#x2dc;" d="M555 1425q-22 21-37 30-17 9-31 9-38 0-56-37-19-39-20-118H287q2 135 52 208 51 74 142 74 38 0 71-14 30-13 69-47l57-55q22-20 38-29 16-10 29-10 39 0 57 37 17 36 19 118h125q-2-135-52-208-51-74-142-74-38 0-71 14-30 13-69 47l-57 55v0z" /><glyph unicode="&#x2dd;" d="M481 1262H344l191 376h170zm318 0H664l204 376h179z" /><glyph unicode="&#x300;" horiz-adv-x="0" d="M-954 1638h198l281-376h-154z" /><glyph unicode="&#x301;" horiz-adv-x="0" d="M-758 1262l281 376h198l-325-376h-154z" /><glyph unicode="&#x303;" horiz-adv-x="0" d="M-621 1370l-57 55q-40 39-68 39-38 0-56-37-19-39-20-118h-124q1 135 52 208.5t142 73.5q39 0 71-14t69-47l57-55q40-39 67-39 39 0 57 37 17 36 19 118h125q-1-135-52-208.5t-142-73.5q-39 0-71 14t-69 47z" /><glyph unicode="&#x309;" horiz-adv-x="0" d="M-647 1734q229 0 237-170 1-3 1-10 0-32-10.5-61t-28.5-54.5-41.5-47-49.5-37.5v-88h-148v108q67 22 116 70 22 19 22 73 0 94-120 94-88 0-154-32v131q85 24 176 24z" /><glyph unicode="&#x323;" horiz-adv-x="0" d="M-720-413v204h205v-204h-205z" /><glyph unicode="&#x384;" d="M756 1638h198l-325-376H475z" /><glyph unicode="&#x385;" d="M766 1894h198l-325-376H485zM272 1326q-30 0-30 30v142q0 30 30 30h143q30 0 30-30v-142q0-30-30-30H272zm477 0q-30 0-30 30v142q0 30 30 30h142q30 0 30-30v-142q0-30-30-30H749z" /><glyph unicode="&#x386;" d="M-60 1117l281 376h198L94 1117H-60zM37 0l457 1493h245L1196 0H987L877 389H354L246 0H37zM829 551l-213 764-213-764h426z" /><glyph unicode="&#x388;" d="M55 1493h198l-325-376h-154zm273 0h886v-170H530V881h654V711H530V170h703V0H328v1493z" /><glyph unicode="&#x389;" d="M-16 1493h198l-325-376h-154zm273 0h203V881h553v612h203V0h-203v711H460V0H257v1493z" /><glyph unicode="&#x38a;" d="M58 1493h198l-325-376h-154zM331 170h313v1153H331v170h829v-170H847V170h313V0H331v170z" /><glyph unicode="&#x38c;" d="M676-29q-253 0-376 191T177 745q0 391 123.5 583T676 1520q253 0 376.5-192T1176 745q0-390-123.5-582T676-29zM103 1493h198l-325-376h-154zM676 135q154 0 222 141 67 138 67 469 0 330-67 470-68 141-222 141-153 0-220-141-68-142-68-470 0-327 68-469 67-141 220-141z" /><glyph unicode="&#x38e;" d="M519 650q0 60-8.5 126.5t-24 133T450 1038t-47 114-56 90-62 55q-13 7-32 13.5t-40 11-43.5 7.5-42.5 3q-17 0-37.5-2t-40.5-7v170q18 6 40 8.5t46 2.5q31 0 69.5-3.5T276 1490q68-14 123-46.5t97.5-86.5 73.5-131.5 51-181.5q60 204 146.5 312T964 1490q20 5 34.5 6t24.5 1q39 0 75.5-12t64.5-35 44.5-56.5 16.5-75.5q0-17-3.5-43t-14.5-51q-17-38-44.5-52.5T1105 1157q-26 0-50.5 9t-45 27-35 44-18.5 60q-38-26-70-69t-58-96.5-45.5-115-33-124.5T729 767t-7-117V0H519v650zm-707 843H10l-325-376h-154z" /><glyph unicode="&#x38f;" d="M90 1460h198l-325-376h-154zM119 172h245q-60 65-104 133t-72.5 141.5T145 602t-14 176q0 158 37.5 284.5t106.5 215T442 1413t218 47q121 0 219-47.5t167-136 106.5-214.5 37.5-284q0-92-13.5-173t-42-155.5-73-143T956 172h248V0H741v172q58 36 105 97t80 141 51 176 18 202q0 121-23.5 215.5t-67 159-105 98T661 1294t-138.5-33.5-105-98T351 1004t-23-215q0-102 16.5-196.5t49-175.5T473 273t109-101V0H119v172z" /><glyph unicode="&#x390;" d="M766 1892h198l-325-376H485zM272 1321q-30 0-30 30v142q0 30 30 30h143q30 0 30-30v-142q0-30-30-30H272zm477 0q-30 0-30 30v142q0 30 30 30h142q30 0 30-30v-142q0-30-30-30H749zM864-8Q684-8 602 88q-82 99-82 310v579H310v143h398V387q0-72 7.5-118.5T743 195t54.5-37 88.5-10h89V-8H864z" /><glyph unicode="&#x391;" d="M494 1493h245L1196 0H987L877 389H354L246 0H37zM829 551l-213 764-213-764h426z" /><glyph unicode="&#x392;" d="M166 1493h442q114 0 203-25t150-74 92.5-120 31.5-164q0-134-65.5-212.5T823 799q73-11 131-42.5t98.5-82 62.5-118 22-149.5q0-201-132-304T608 0H166v1493zM604 877q144 0 210.5 55.5T881 1110q0 58-15 99t-48.5 67.5-86 38.5-127.5 12H369V877h235zm4-711q88 0 150 15t101 46.5 57 81.5 18 120q0 147-78.5 215.5T608 713H369V166h239z" /><glyph unicode="&#x393;" d="M215 1493h924v-170H418V0H215v1493z" /><glyph unicode="&#x394;" d="M494 1493h245L1196 0H37zM938 170 616 1315 294 170h644z" /><glyph unicode="&#x395;" d="M197 1493h886v-170H399V881h654V711H399V170h703V0H197v1493z" /><glyph unicode="&#x396;" d="M110 154l759 1169H132v170h969v-154L321 170h802V0H110v154z" /><glyph unicode="&#x397;" d="M137 1493h203V881h553v612h203V0H893v711H340V0H137v1493z" /><glyph unicode="&#x398;" d="M615-29q-251 0-374.5 190.5T117 744t123.5 584T616 1520q253 0 376.5-192T1116 745q0-390-124-582T615-29zm1 164q83 0 136.5 37T838 277q16 33 28.5 76.5t21 101 13 130T905 747t-4.5 161.5T887 1037t-21.5 100.5T837 1215q-35 72-88.5 106.5T617 1356q-79 0-133-35t-88-107q-68-143-68-469 0-165 16.5-280T396 277q33-70 86.5-106T616 135zM417 881h399V711H417v170z" /><glyph unicode="&#x399;" d="M201 170h313v1153H201v170h829v-170H717V170h313V0H201v170z" /><glyph unicode="&#x39a;" d="M137 1493h203V829l631 664h237L627 883 1225 0H981L494 748 340 584V0H137v1493z" /><glyph unicode="&#x39b;" d="M494 1493h245L1196 0H987L616 1315 246 0H37z" /><glyph unicode="&#x39c;" d="M87 1493h270l258-760 260 760h271V0H959v1319L693 532H540l-267 787V0H87v1493z" /><glyph unicode="&#x39d;" d="M139 1493h256L899 264v1229h195V0H838L334 1229V0H139v1493z" /><glyph unicode="&#x39e;" d="M137 1493h959v-170H137v170zM340 881h553V711H340v170zM137 170h959V0H137v170z" /><glyph unicode="&#x39f;" d="M615-29q-251 0-374.5 190.5T117 744t123.5 584T616 1520q253 0 376.5-192T1116 745q0-390-124-582T615-29zm1 164q83 0 136.5 37T838 277q16 33 28.5 76.5t21 101 13 130T905 747t-4.5 161.5T887 1037t-21.5 100.5T837 1215q-35 72-88.5 106.5T617 1356q-79 0-133-35t-88-107q-68-143-68-469 0-165 16.5-280T396 277q33-70 86.5-106T616 135z" /><glyph unicode="&#x3a0;" d="M137 1493h959V0H893v1323H340V0H137v1493z" /><glyph unicode="&#x3a1;" d="M172 1493h436q251 0 379.5-112.5T1116 1046q0-221-127.5-333.5T608 6e2H374V0H172v1493zM608 766q141 0 219 73.5t78 207.5-77.5 207-219.5 73H374V766h234z" /><glyph unicode="&#x3a3;" d="M120 170l454 577-454 576v170h1013v-170H331l455-576-455-577h802V0H120v170z" /><glyph unicode="&#x3a4;" d="M516 1323H47v170h1139v-170H719V0H516v1323z" /><glyph unicode="&#x3a5;" d="M504 650q0 60-8.5 126.5t-24 133T435 1038t-47 114-56 90-62 55q-13 7-32 13.5t-40 11-43.5 7.5-42.5 3q-17 0-37.5-2t-40.5-7v170q18 6 40 8.5t46 2.5q31 0 69.5-3.5T261 1490q68-14 123-46.5t97.5-86.5 73.5-131.5 51-181.5q60 204 146.5 312T949 1490q20 5 34.5 6t24.5 1q39 0 75.5-12t64.5-35 44.5-56.5 16.5-75.5q0-17-3.5-43t-14.5-51q-17-38-44.5-52.5T1090 1157q-26 0-50.5 9t-45 27-35 44-18.5 60q-38-26-70-69t-58-96.5-45.5-115-33-124.5T714 767t-7-117V0H504v650z" /><glyph unicode="&#x3a6;" d="M368 170h147v116q-89 9-162 38t-125 83.5T147 545t-29 2e2 29 2e2 81.5 138 125.5 84 161 38v118H368v170h497v-170H718v-118q88-9 161-38t125.5-84 81.5-138 29-2e2-29-2e2-81-137.5T879.5 324 718 286V170h147V0H368v170zm147 859q-77-17-118-58-68-68-68-226 0-157 68-225 41-42 118-58v567zM718 462q42 9 72 25t47 33q67 67 67 225 0 159-67 226-41 41-119 58V462z" /><glyph unicode="&#x3a7;" d="M518 791 86 1493h217l328-563 334 563h217L735 791 1214 0H997L631 643 236 0H18z" /><glyph unicode="&#x3a8;" d="M367 170h147v214q-177 32-274 183-123 190-123 583v343h203v-343q0-173 20-286t56-183q45-87 118-121v933h203V560q73 33 119 121 75 145 75 469v343h203v-343q0-393-123-583-97-151-274-183V170h147V0H367v170z" /><glyph unicode="&#x3a9;" d="M74 172h245Q197 304 141 450 86 593 86 783q0 309 144 494 71 91 166.5 137t217.5 46q125 0 221-47t166-136q144-183 144-494 0-190-55-333-29-75-73.5-143.5T911 172h248V0H696v172q120 76 187 241 33 81 50 176t17 201q0 116-21.5 210T861 1162q-43 63-105 97.5T616 1294q-82 0-142.5-36T372 1162q-44-65-66.5-157T283 790q0-106 17-201t50-176q35-85 82-144.5T537 172V0H74v172z" /><glyph unicode="&#x3aa;" d="M349 1649q-30 0-30 30v143q0 30 30 30h143q30 0 30-30v-143q0-30-30-30H349zm392 0q-30 0-30 30v143q0 30 30 30h142q30 0 30-30v-143q0-30-30-30H741zM202 170h313v1153H202v170h829v-170H718V170h313V0H202v170z" /><glyph unicode="&#x3ab;" d="M349 1649q-30 0-30 30v143q0 30 30 30h143q30 0 30-30v-143q0-30-30-30H349zm392 0q-30 0-30 30v143q0 30 30 30h142q30 0 30-30v-143q0-30-30-30H741zM504 650q0 60-8.5 126.5t-24 133T435 1038t-47 114-56 90-62 55q-13 7-32 13.5t-40 11-43.5 7.5-42.5 3q-17 0-37.5-2t-40.5-7v170q18 6 40 8.5t46 2.5q31 0 69.5-3.5T261 1490q68-14 123-46.5t97.5-86.5 73.5-131.5 51-181.5q60 204 146.5 312T949 1490q20 5 34.5 6t24.5 1q39 0 75.5-12t64.5-35 44.5-56.5 16.5-75.5q0-17-3.5-43t-14.5-51q-17-38-44.5-52.5T1090 1157q-26 0-50.5 9t-45 27-35 44-18.5 60q-38-26-70-69t-58-96.5-45.5-115-33-124.5T714 767t-7-117V0H504v650z" /><glyph unicode="&#x3ac;" d="M756 1673h198l-325-376H475zM508-25q-101 0-182 39T188 127t-87.5 181T70 552q0 153 36.5 265t98.5 184.5 143.5 108T520 1145q68 0 126-20t103-59.5 75.5-99.5T869 827l99 293h164L927 513l40-219q4-24 17-49t30-44.5 35.5-32T1084 156h88V0h-110q-47 0-86.5 17t-70 46-50.5 68-29 83q-23-54-50-98t-64-75.5T625-8 508-25zm-4 152q63 0 114 53t87 160l61 181-44 231q-12 65-33.5 110.5t-49 74T580 978t-65 13q-49 0-94-27.5T341 879q-38-63-57.5-149T264 547q0-104 21-183t55-131.5 77-79 87-26.5z" /><glyph unicode="&#x3ad;" d="M756 1675h198l-325-376H475zM693-22Q568-22 471 2T306.5 70.5 204 178.5 169 321q0 59 19.5 107t56 84 88 59.5T449 607q-120 25-184 89t-64 160q0 67 31.5 120.5T323 1068t143 58.5 189 20.5q158 0 368-48V932q-105 27-191 39.5T674 984q-142 0-216-42.5T384 830q0-68 71.5-111T663 676h166V532H670q-75 0-134-14t-1e2-40-62.5-62.5T352 334q0-91 90-143.5T707 138q99 0 189 17.5t168 51.5V34Q967 6 877-8T693-22z" /><glyph unicode="&#x3ae;" d="M756 1675h198l-325-376H475zM866 694q0 151-52.5 222T648 987q-131 0-2e2-91t-69-263V0H195v1120h166l18-168q49 97 133 146t199 49q172 0 256-112t84-341V-426H866V694z" /><glyph unicode="&#x3af;" d="M756 1648h198l-325-376H475zM864-8q-94 0-159 25.5T602 88q-41 49-61.5 128T520 398v579H310v143h398V387q0-72 7.5-118.5T743 195t54.5-37 88.5-10h89V-8H864z" /><glyph unicode="&#x3b0;" d="M766 1894h198l-325-376H485zM272 1326q-30 0-30 30v142q0 30 30 30h143q30 0 30-30v-142q0-30-30-30H272zm477 0q-30 0-30 30v142q0 30 30 30h142q30 0 30-30v-142q0-30-30-30H749zM608-6q-90 0-155.5 23.5T345 90.5t-62.5 126T262 4e2l-1 571H51v143h399V389q0-72 7.5-118.5T485 197t54.5-37 88.5-10q75 0 130.5 40.5t94 108 60 155T942 634q1 14 1.5 27.5t.5 27.5q0 47-7.5 98T911 891.5 862.5 1001 786 1114h186q70-90 113.5-209t43.5-273q0-75-14.5-151.5T1071 333t-72-132.5T898 93 767.5 20.5 608-6z" /><glyph unicode="&#x3b1;" d="M508-25q-101 0-182 39T188 127t-87.5 181T70 552q0 153 36.5 265t98.5 184.5 143.5 108T520 1145q68 0 126-20t103-59.5 75.5-99.5T869 827l99 293h164L927 513l40-219q4-24 17-49t30-44.5 35.5-32T1084 156h88V0h-110q-47 0-86.5 17t-70 46-50.5 68-29 83q-23-54-50-98t-64-75.5T625-8 508-25zm-4 152q63 0 114 53t87 160l61 181-44 231q-12 65-33.5 110.5t-49 74T580 978t-65 13q-49 0-94-27.5T341 879q-38-63-57.5-149T264 547q0-104 21-183t55-131.5 77-79 87-26.5z" /><glyph unicode="&#x3b2;" d="M152 1113q0 120 36 206.5t95 142.5 135 82.5 156 26.5q50 0 102-10t100.5-31.5T868 1475t75-78.5 50.5-103.5 18.5-130q0-53-10.5-106t-32-100.5-54-85.5-75.5-61q65-13 117.5-50.5t89-90.5 56.5-118.5 20-133.5q0-94-36.5-174t-101-138.5T832 13 638-21q-37 0-71.5 4.5t-70 15T422 26t-85 43v-495H152v1539zM337 342q20-35 56-65t81-52 95.5-34.5T670 178q52 0 99.5 15t84 47 58 81.5T933 440q0 138-96.5 205T541 712q-21 0-38-.5t-34-1.5v170q88-3 156 16t114 55.5 69.5 88.5 23.5 114q0 65-23.5 108.5t-59 70T671 1370t-82 11q-48 0-93-15.5t-80.5-48.5-57-85-21.5-125V342z" /><glyph unicode="&#x3b3;" d="M556 0 254 836q-45 126-139 126H66v158h70q194 0 259-176l255-685 326 861h191L746 0v-426H556V0z" /><glyph unicode="&#x3b4;" d="M617-29q-235 0-357.5 149.5T137 559q0 151 32.5 259T260 996q14 17 33 35.5t41 35.5q-8 3-25 17.5t-34 31.5q-34 35-48 72t-14 81q0 68 30 123.5t87.5 94.5 140 60.5T658 1569q38 0 77-3t64-9l151-36v-173q-66 24-144 40t-159 14l-32-1q-35-1-67.5-11t-65.5-34l-39-28q-27-24-27-71 0-32 15-53.5t56-42.5q18-8 46-10.5t83-3.5q241-7 360.5-154T1096 561q0-291-122-440.5T617-29zm-1 156q142 0 213.5 109T901 559q0 215-71.5 323.5T616 991q-141 0-212.5-108.5T332 559q0-214 71.5-323T616 127z" /><glyph unicode="&#x3b5;" d="M693-22Q568-22 471 2T306.5 70.5 204 178.5 169 321q0 59 19.5 107t56 84 88 59.5T449 607q-120 25-184 89t-64 160q0 67 31.5 120.5T323 1068t143 58.5 189 20.5q158 0 368-48V932q-105 27-191 39.5T674 984q-142 0-216-42.5T384 830q0-68 71.5-111T663 676h166V532H670q-75 0-134-14t-1e2-40-62.5-62.5T352 334q0-91 90-143.5T707 138q99 0 189 17.5t168 51.5V34Q967 6 877-8T693-22z" /><glyph unicode="&#x3b6;" d="M738-279q26-2 51.5 4.5t46 22 33 40T881-154q0 48-29 81t-92 44q-30 6-86.5 12t-124 23T412 54.5 284.5 143t-94 143T154 498q0 117 35 234.5t106 230T473 1179t251 192H192v185h870v-185q-362-195-544.5-390T335 585q0-27 3-51 10-94 35-160t58.5-110 74.5-70 84.5-40 87-19 82.5-8q141-11 218-79t77-192q0-59-19-111t-58-91-99-61.5T738-430v151z" /><glyph unicode="&#x3b7;" d="M866 694q0 151-52.5 222T648 987q-131 0-2e2-91t-69-263V0H195v1120h166l18-168q49 97 133 146t199 49q172 0 256-112t84-341V-426H866V694z" /><glyph unicode="&#x3b8;" d="M616-29q-117 0-206 49.5t-150 146-92 239T137 735q0 186 31 329t92 240 150 146.5 206 49.5 206.5-49.5 150-146.5 92-240 31.5-330q0-372-123-567.5T616-29zM899 828q-3 113-21.5 207.5t-53 162.5-86.5 106-122 38-121.5-38-86-106-53-162.5T334 828h565zM616 129q70 0 122 38.5t87 107 53 163T899 644H334q3-112 21-206.5t52.5-163 86.5-107T616 129z" /><glyph unicode="&#x3b9;" d="M864-8q-94 0-159 25.5T602 88q-41 49-61.5 128T520 398v579H310v143h398V387q0-72 7.5-118.5T743 195t54.5-37 88.5-10h89V-8H864v0z" /><glyph unicode="&#x3ba;" d="M186 1120h190V655l483 465h224L642 698 1152 0H927L513 578 376 449V0H186v1120z" /><glyph unicode="&#x3bb;" d="M559 1074l-74 198q-25 67-75 96.5T284 1398h-49v158l70-2q133-4 219-45t118-128L1158 0H963L649 828 263 0H68z" /><glyph unicode="&#x3bc;" d="M195 1120h184V424q0-143 59.5-218T610 131q128 0 192 84.5T866 467v653h185V256q0-60 16-87.5t49-27.5q7 0 24 5 13 4 42 18V16q-38-23-72-34t-68-11q-125 0-149 158Q847 48 781 9.5T625-29q-93 0-155.5 37.5T362 127v-555H195v1548z" /><glyph unicode="&#x3bd;" d="M116 1120h198l289-940q63 64 117.5 137t95 145.5 64 139T903 721q0 24-5.5 64T881 870q-8 29-18.5 57.5t-26 59T799 1050t-52 70h186q33-44 62-96.5t50-107.5 33-109 12-1e2q0-61-21-126.5T1013.5 449 934 319t-93.5-122-97-108.5T654 0H458z" /><glyph unicode="&#x3be;" d="M763-279q31-2 57.5 6t45.5 24.5 29.5 40T906-156q0 46-29 82t-92 45q-28 4-85 8T573.5-5.5 430.5 29 297 94.5t-98.5 107T160 362q0 71 23 137.5T249.5 623 355 724.5 495 796q-141 17-210.5 93T215 1085q0 106 53.5 174.5T435 1371H227v185h789v-185q-158 0-275.5-19T544 1297.5 426 1211t-39-115q0-56 30.5-95t95-65 164-39.5T915 880V710q-147-11-254-41t-176.5-75T381 493t-34-117q0-53 22.5-90.5t59-63 83-41.5 95-26.5 95-16.5 83.5-11q82-12 138.5-34t91-54.5 50-76T1080-137q0-64-19-117.5t-58-92.5-99-61-141-22v151z" /><glyph unicode="&#x3bf;" d="M616-29q-235 0-357 149.5T137 558q0 143 31 253t92 184.5 150 113 206 38.5 206.5-38.5 150-113 92-184.5 31.5-253q0-286-123-436.5T616-29zm0 156q142 0 213.5 109T901 559q0 215-71.5 323.5T616 991q-141 0-212.5-108.5T332 559q0-214 71.5-323T616 127z" /><glyph unicode="&#x3c0;" d="M1037-39q-114 0-160 66-23 32-34.5 90T831 268v684H403V0H223v952H80v148h1073V952h-141V248q0-35 5.5-60.5T1037 145q12-16 30-24t45-8q18 0 41 3 10 1 14.5 1.5t6.5.5h3.5t4.5 1V-14q-32-13-72-19-38-6-73-6z" /><glyph unicode="&#x3c1;" d="M180 540q0 158 31 272.5t89.5 189 142.5 110 190 35.5q116 0 203.5-40.5T982 990t87-184 29-244q0-140-30-250t-86-185.5T846 11 666-29q-105 0-180.5 43T365 141v-567H180v966zM637 127q134 0 201 108.5T905 559t-67 323.5T637 991q-135 0-203.5-109T365 559t68.5-323T637 127z" /><glyph unicode="&#x3c2;" d="M696-279q31-2 57 6t45 24 30 40 11 54q0 44-27 79.5T718-29q-27 4-78.5 9.5T526.5 3 401 55t-116.5 97.5-86 158.5T165 547q0 143 37.5 255t108 188.5T482 1107t229 40q88 0 164-20.5t156-65.5V868q-69 62-142 92.5T723 991q-179 0-271.5-112.5T359 557q0-101 20-172t52-118.5 72-74.5 80-41 75.5-18.5T718 127q148-10 221.5-84t73.5-189q0-59-19-110.5t-58-90-99-61T696-430v151z" /><glyph unicode="&#x3c3;" d="M589-29Q478-29 391 9T243.5 121 151 303.5 119 554q0 135 29.5 240.5T238 972t150 110 210 38h515V936H872q206-162 206-443 0-114-34-210t-97-165.5-153.5-108T589-29zm5 156q72 0 126 29t90.5 79T865 352.5 883 498q0 123-43.5 215.5T711 870q-28 21-59 38t-61 27q-68 0-119.5-19T385 853.5 332 738t-18-178q0-216 71.5-324.5T594 127z" /><glyph unicode="&#x3c4;" d="M864 0q-90 0-155 23.5t-107 73T540 223t-20 183v530H160v182h914V936H708V395q0-145 34-191 36-48 144-48h89V0H864v0z" /><glyph unicode="&#x3c5;" d="M595 0q-83 0-145.5 23.5t-104 73-62.5 126T262 406l-1 571H51v143h399V395q0-63 6.5-108t23.5-74.5 47-43 77-13.5q85 0 146.5 39.5t102 106.5 62 154.5T942 640q1 12 1.5 27t.5 31q0 45-7.5 95.5t-25.5 104-48.5 109.5-76.5 113h186q73-94 115-214.5t42-260.5q0-77-14-154.5t-42-149-71.5-134T898.5 99t-135-72.5T595 0z" /><glyph unicode="&#x3c6;" d="M525-25q-99 0-182 39T201 128.5 109 315 76 570q0 142 31 242.5t84 166 122.5 101T460 1128V965q-64-25-114-101-38-58-57-133.5T270 557q0-107 21-185.5T347 241t81-77 97-25v687q0 152 62.5 227t175.5 75q74 0 144.5-33.5t126-102.5 89.5-175.5 34-251.5q0-144-34-254t-94-184.5T886.5 14 708-24v-402H525v401zM708 140q46 0 91.5 23.5t82 74.5 59 133T963 570q0 112-21 186.5T886 881q-31 44-64 67t-55 23q-26 0-42.5-36.5T708 826V140z" /><glyph unicode="&#x3c7;" d="M524 351 341 836q-47 126-203 126H89v158h70q126 0 207.5-43T482 944l143-380 266 556h191L709 340l182-482q46-126 204-126h49v-158h-70q-126 0-208 43T750-250L608 128 343-426H152z" /><glyph unicode="&#x3c8;" d="M525-25q-72 0-142.5 37.5T256 116t-90.5 157T131 472v648h185V479q0-89 21.5-149T4e2 226q27-29 59.5-51.5T525 140v980h183V140q29 10 62.5 32t62.5 54q41 44 62.5 104T917 479v641h185V472q0-108-34.5-199T977 116 850.5 12.5 708-25v-401H525v401z" /><glyph unicode="&#x3c9;" d="M369-29q-83 0-140.5 38.5t-92.5 111-50.5 176T70 531q0 87 7 161.5t22.5 144T140 975t61 145h190q-34-77-58-147.5T294 830t-22-149.5-7-168.5q0-193 30-289t95-96q37 0 69.5 29.5T507 240q6 22 10.5 57.5t8 90.5 5 131.5T532 699h170q0-106 1.5-181.5t4.5-129 8-88.5 12-59q14-53 42-83.5t62-30.5q22 0 41 12.5t34 32.5 26.5 45.5T952 270q3 14 6.5 33t5.5 48 3.5 71.5T969 526v32q0 287-126 562h190q36-76 61-145t40.5-138.5 22.5-144 7-161.5q0-131-15.5-234.5t-51-176-92.5-111T865-29q-51 0-92.5 14t-72 38.5-51.5 57-32 69.5q-11-37-32-69.5t-52-57T461-15t-92-14z" /><glyph unicode="&#x3ca;" d="M349 1321q-30 0-30 30v142q0 30 30 30h143q30 0 30-30v-142q0-30-30-30H349zm392 0q-30 0-30 30v142q0 30 30 30h142q30 0 30-30v-142q0-30-30-30H741zM864-8q-94 0-159 25.5T602 88q-41 49-61.5 128T520 398v579H310v143h398V387q0-72 7.5-118.5T743 195t54.5-37 88.5-10h89V-8H864z" /><glyph unicode="&#x3cb;" d="M349 1322q-30 0-30 30v142q0 30 30 30h143q30 0 30-30v-142q0-30-30-30H349zm392 0q-30 0-30 30v142q0 30 30 30h142q30 0 30-30v-142q0-30-30-30H741zM595 0q-83 0-145.5 23.5t-104 73-62.5 126T262 406l-1 571H51v143h399V395q0-63 6.5-108t23.5-74.5 47-43 77-13.5q85 0 146.5 39.5t102 106.5 62 154.5T942 640q1 12 1.5 27t.5 31q0 45-7.5 95.5t-25.5 104-48.5 109.5-76.5 113h186q73-94 115-214.5t42-260.5q0-77-14-154.5t-42-149-71.5-134T898.5 99t-135-72.5T595 0z" /><glyph unicode="&#x3cc;" d="M756 1675h198l-325-376H475zM616-29q-235 0-357 149.5T137 558q0 143 31 253t92 184.5 150 113 206 38.5 206.5-38.5 150-113 92-184.5 31.5-253q0-286-123-436.5T616-29zm0 156q142 0 213.5 109T901 559q0 215-71.5 323.5T616 991q-141 0-212.5-108.5T332 559q0-214 71.5-323T616 127z" /><glyph unicode="&#x3cd;" d="M756 1648h198l-325-376H475zM595 0q-83 0-145.5 23.5t-104 73-62.5 126T262 406l-1 571H51v143h399V395q0-63 6.5-108t23.5-74.5 47-43 77-13.5q85 0 146.5 39.5t102 106.5 62 154.5T942 640q1 12 1.5 27t.5 31q0 45-7.5 95.5t-25.5 104-48.5 109.5-76.5 113h186q73-94 115-214.5t42-260.5q0-77-14-154.5t-42-149-71.5-134T898.5 99t-135-72.5T595 0z" /><glyph unicode="&#x3ce;" d="M756 1648h198l-325-376H475zM369-29q-83 0-140.5 38.5t-92.5 111-50.5 176T70 531q0 87 7 161.5t22.5 144T140 975t61 145h190q-34-77-58-147.5T294 830t-22-149.5-7-168.5q0-193 30-289t95-96q37 0 69.5 29.5T507 240q6 22 10.5 57.5t8 90.5 5 131.5T532 699h170q0-106 1.5-181.5t4.5-129 8-88.5 12-59q14-53 42-83.5t62-30.5q22 0 41 12.5t34 32.5 26.5 45.5T952 270q3 14 6.5 33t5.5 48 3.5 71.5T969 526v32q0 287-126 562h190q36-76 61-145t40.5-138.5 22.5-144 7-161.5q0-131-15.5-234.5t-51-176-92.5-111T865-29q-51 0-92.5 14t-72 38.5-51.5 57-32 69.5q-11-37-32-69.5t-52-57T461-15t-92-14z" /><glyph unicode="&#x3f4;" d="M615-29q-251 0-374.5 190.5T117 744t123.5 584T616 1520q253 0 376.5-192T1116 745q0-390-124-582T615-29zM902 881q-6 111-22.5 199.5T830 1230t-85 93.5-129 32.5q-78 0-130-33.5t-84.5-95T353 1078t-22-197h571zM617 135q76 0 130 33.5t88.5 104 51 179.5T905 711H328q1-150 17.5-258.5t51-179 89-104.5T617 135z" /><glyph unicode="&#x3f6;" d="M450-29q-52 0-107 5.5T241-7l-79 18v167l74-25q38-13 90-19.5t103-6.5q98 0 171 24.5T722.5 222t78 113T839 487H162v144h677q-9 84-37.5 150.5t-78 113-121 71.5T437 991q-54 0-106-7.5T236 965q-15-4-35-10t-39-13v163q13 4 23 7t18.5 5 17.5 4 20 4q57 11 108 16.5t1e2 5.5q136 0 244.5-40t184-116T993 806.5t40-246.5-40.5-247.5-116-185.5T693 11 450-29z" /><glyph unicode="&#x400;" d="M377 1852h184l197-264H604zM197 1493h886v-170H399V881h654V711H399V170h703V0H197v1493z" /><glyph unicode="&#x401;" d="M405 1649q-30 0-30 30v143q0 30 30 30h143q30 0 30-30v-143q0-30-30-30H405zm392 0q-30 0-30 30v143q0 30 30 30h142q30 0 30-30v-143q0-30-30-30H797zM197 1493h886v-170H399V881h654V711H399V170h703V0H197v1493z" /><glyph unicode="&#x402;" d="M658-470h-24t-24.5.5-20.5 1-13 .5l-3 181 78-17q7-1 14-1.5t22-.5q67 0 114 17t76 57.5T919-123t13 169v416q0 154-54 223.5T706 755q-50 0-96-11t-90-31q-23-11-38.5-21.5T452 664q-33-40-51-109.5T383 401V0H180v1325H-46v170h874v-170H383V8e2q22 25 40.5 38.5T468 866q7 4 11.5 6t9 4.5T499 882t17 10q62 36 213 47 13 1 23.5 1.5t24.5.5q78 0 141.5-21t106.5-63q9-8 16-16.5t9-12.5q85-112 85-340V46q0-143-25.5-241T1027-354.5 879-443t-221-27z" /><glyph unicode="&#x403;" d="M744 1852h186l-229-264H547zM215 1493h924v-170H418V0H215v1493z" /><glyph unicode="&#x404;" d="M733-29q-144 0-256 52T287.5 174t-118 242.5T129 743q0 184 41 328.5t118.5 244 189.5 152 255 52.5q176 0 330-82v-207q-152 125-339 125-96 0-163-34t-111-1e2-68.5-164T345 831h627V661H340q2-113 26.5-209.5t72.5-167 120.5-110T731 135q88 0 173 31.5t159 93.5V53Q909-29 733-29z" /><glyph unicode="&#x405;" d="M586-29Q476-29 371-6.5T158 61v215q115-73 217-107t208-34q153 0 237.5 67.5T905 405q0 50-13.5 89.5t-44 70-81 53T643 657l-108 25q-105 24-180 59.5t-123 84-70.5 111T139 1077q0 101 35 183t99.5 139.5 155.5 89 202 31.5q171 0 381-78v-205q-185 119-372 119-71 0-128-17t-97-49-61.5-80-21.5-109q0-45 13-80t43-63 79.5-49T590 872l106-24q106-24 182-62.5t125-92.5 72-124.5 23-157.5q0-215-132-327.5T586-29z" /><glyph unicode="&#x406;" d="M201 170h313v1153H201v170h829v-170H717V170h313V0H201v170z" /><glyph unicode="&#x407;" d="M349 1649q-30 0-30 30v143q0 30 30 30h143q30 0 30-30v-143q0-30-30-30H349zm392 0q-30 0-30 30v143q0 30 30 30h142q30 0 30-30v-143q0-30-30-30H741zM201 170h313v1153H201v170h829v-170H717V170h313V0H201v170z" /><glyph unicode="&#x408;" d="M506-29q-50 0-97.5 5T313-8.5t-98.5 28T109 61v236q92-81 187.5-121.5T504 135q69 0 117 17.5t77.5 58 42.5 108T754 487v836H373v170h583V487q0-139-25-237T851.5 90 711.5-.5 506-29z" /><glyph unicode="&#x409;" d="M0 164q71 0 117.5 16t75.5 56 43.5 108T257 516q3 46 4.5 109t3 136 2 151 .5 155v426h544V893h21q72 0 143.5-28.5t129-84.5 93-139.5T1233 447t-36-193.5-93-140-128.5-85T832 0H625v1323H453v-250-160q0-140-3-261.5T434 429t-38-179.5T328 119q-49-59-129.5-89T0 0v164zm832 2q45 0 84 18t68.5 53 46 87 16.5 120q0 67-16 119.5t-44.5 89-68 55.5-86.5 19h-21V166h21z" /><glyph unicode="&#x40a;" d="M44 1493h186V881h395v612h186V893h21q90 0 163.5-27t126.5-80.5 82-133.5 29-186q0-121-36-209t-93-145-128.5-84.5T832 0H625v711H230V0H44v1493zM832 166q45 0 84 17.5t68.5 52.5 46 87 16.5 121q0 66-15.5 118.5t-44 89-68 56T832 727h-21V166h21z" /><glyph unicode="&#x40b;" d="M180 1325H-36v170h864v-170H383V8e2q22 25 40.5 38.5T468 866q7 4 11.5 6t9 4.5T499 882t17 10q62 36 213 47 13 1 23.5 1.5t24.5.5q78 0 141.5-21t106.5-63q9-8 16-16.5t9-12.5q85-112 85-340V0H932v462q0 154-54 223.5T706 755q-50 0-96-11t-90-31q-23-11-38.5-21.5T452 664q-33-40-51-109.5T383 401V0H180v1325z" /><glyph unicode="&#x40c;" d="M699 1851h186l-229-264H502zM137 1493h203V829l631 664h237L627 883 1225 0H981L494 748 340 584V0H137v1493z" /><glyph unicode="&#x40d;" d="M377 1851h184l197-264H604zM139 1493h195V264l504 1229h256V0H899v1229L395 0H139v1493z" /><glyph unicode="&#x40e;" d="M636 1609q-290 0-313 242h119q12-54 61.5-82.5T638 1740q163 0 193 111h119q-11-120-90-181t-224-61zM204 172h109q40 0 71.5 12t55.5 34.5 43 54 36 69.5q7 16 12.5 30.5L548 416 124 1493h217l311-830 308 830h213L761 425q-30-78-62.5-148T633 156q-23-35-50.5-63.5t-61.5-49-75.5-32T352 0H204v172z" /><glyph unicode="&#x40f;" d="M531 0H137v1493h203V170h553v1323h203V0H702v-322H531V0z" /><glyph unicode="&#x410;" d="M494 1493h245L1196 0H987L877 389H354L246 0H37zM829 551l-213 764-213-764h426z" /><glyph unicode="&#x411;" d="M166 1493h902v-166H369V877h235q379-15 480-206 28-53 40.5-120t12.5-132q0-211-130-315T608 0H166v1493zM608 166q88 0 150 15t101 46.5 57 81.5 18 120q0 147-78.5 215.5T608 713H369V166h239z" /><glyph unicode="&#x412;" d="M166 1493h442q114 0 203-25t150-74 92.5-120 31.5-164q0-134-65.5-212.5T823 799q73-11 131-42.5t98.5-82 62.5-118 22-149.5q0-201-132-304T608 0H166v1493zM604 877q144 0 210.5 55.5T881 1110q0 58-15 99t-48.5 67.5-86 38.5-127.5 12H369V877h235zm4-711q88 0 150 15t101 46.5 57 81.5 18 120q0 147-78.5 215.5T608 713H369V166h239z" /><glyph unicode="&#x413;" d="M215 1493h924v-170H418V0H215v1493z" /><glyph unicode="&#x414;" d="M33 170h77q16 0 31 38.5t28 104T192.5 464 211 645t12 193.5 4 188.5v466h852V170h121v-492h-170V0H203v-322H33v492zm843 0v1153H430v-297q0-75-4-163t-10-176.5T402.5 515t-14-148.5T377 260t-7-46q-6-14-6-22 0-22 47-22h465z" /><glyph unicode="&#x415;" d="M197 1493h886v-170H399V881h654V711H399V170h703V0H197v1493z" /><glyph unicode="&#x416;" d="M319 891 32 1493h207l284-595v595h187V898l284 595h207L914 891 1218 0h-197L799 650l-89-186V0H523v464l-89 186L212 0H15z" /><glyph unicode="&#x417;" d="M553-29q-99 0-206 19T137 45v201q103-54 201-79.5T532 141q169 0 258 74.5T879 426q0 68-23 122t-66 91-104 56.5T549 715H395v166h154q140 0 217.5 60.5T844 1118q0 111-73 171.5T557 1350q-76 0-171.5-19T182 1270v186q121 32 215 48t172 16q106 0 194-28.5t150-81 96.5-125.5 34.5-163q0-126-68-207.5T776 799q148-39 225.5-138t77.5-251q0-102-35.5-183.5T940.5 88 775 1 553-29z" /><glyph unicode="&#x418;" d="M139 1493h195V264l504 1229h256V0H899v1229L395 0H139v1493z" /><glyph unicode="&#x419;" d="M616 1609q-290 0-313 242h119q12-54 62-82.5t132-28.5q165 0 195 111h119q-11-120-90-181t-224-61zM139 1493h195V264l504 1229h256V0H899v1229L395 0H139v1493z" /><glyph unicode="&#x41a;" d="M137 1493h203V829l631 664h237L627 883 1225 0H981L494 748 340 584V0H137v1493z" /><glyph unicode="&#x41b;" d="M14 164q71 0 119 16t79 56 46.5 108T280 516q3 46 4.5 109t3 136 2 151 .5 155v426h814V0H901v1323H493v-250-185q0-128-3-245t-15.5-217T437 247.5 369 119Q267 0 14 0v164z" /><glyph unicode="&#x41c;" d="M86 1493h270l258-760 260 760h271V0H958v1319L692 532H539l-267 787V0H86v1493z" /><glyph unicode="&#x41d;" d="M137 1493h203V881h553v612h203V0H893v711H340V0H137v1493z" /><glyph unicode="&#x41e;" d="M615-29q-251 0-374.5 190.5T117 744t123.5 584T616 1520q253 0 376.5-192T1116 745q0-390-124-582T615-29zm1 164q154 0 222 141 67 138 67 469 0 330-67 470-68 141-222 141-153 0-220-141-68-142-68-470 0-327 68-469 67-141 220-141z" /><glyph unicode="&#x41f;" d="M137 1493h959V0H893v1323H340V0H137v1493z" /><glyph unicode="&#x420;" d="M197 1493h436q251 0 379.5-112.5T1141 1046q0-221-127.5-333.5T633 6e2H399V0H197v1493zM633 766q141 0 219 73.5t78 207.5-77.5 207-219.5 73H399V766h234z" /><glyph unicode="&#x421;" d="M744-29q-144 0-256.5 52t-190 151-118 242.5T139 743q0 184 40.5 328T298 1315t190.5 152.5T745 1520q89 0 169.5-20t158.5-62v-207q-73 60-156.5 92.5T740 1356q-194 0-292-152t-98-459q0-610 390-610 91 0 175.5 32t157.5 93V53Q995 11 914.5-9T744-29z" /><glyph unicode="&#x422;" d="M516 1323H47v170h1139v-170H719V0H516v1323z" /><glyph unicode="&#x423;" d="M204 172h109q40 0 71.5 12t55.5 34.5 43 54 36 69.5q7 16 12.5 30.5L548 416 124 1493h217l311-830 308 830h213L761 425q-30-78-62.5-148T633 156q-23-35-50.5-63.5t-61.5-49-75.5-32T352 0H204v172z" /><glyph unicode="&#x424;" d="M515 152q-129 6-215.5 55.5T161 339.5 87.5 533 66 772q0 127 21.5 235t73 187.5 138 126T515 1371v122h203v-122q135-5 222-53.5t137.5-129.5 70-190.5T1167 762q0-134-21-244t-72.5-189.5-138-125.5T718 152V0H515v152zm0 1055q-83-13-130.5-47t-71.5-89.5T283 938t-6-177 6-177 30-132 71.5-89T515 316v891zM718 316q82 13 129.5 47t71.5 89 30.5 132 6.5 177-6.5 177-30.5 132.5-71.5 89.5-129.5 47V316z" /><glyph unicode="&#x425;" d="M518 791 86 1493h217l328-563 334 563h217L735 791 1214 0H997L631 643 236 0H18z" /><glyph unicode="&#x426;" d="M1023 0H1e2v1493h203V170h553v1323h203V170h134v-492h-170V0z" /><glyph unicode="&#x427;" d="M889 658q-52-26-95.5-42t-84-24.5T629 580t-85-3q-55 0-107 4.5T340 601t-82.5 42-64 71.5T152 824t-15 156v513h203v-487q0-84 14.5-132.5t44.5-73 76.5-31T587 763q46 0 82.5 3t71 13 70 29.5T889 861v632h203V0H889v658z" /><glyph unicode="&#x428;" d="M114 1493h186V170h224v1323h186V170h224v1323h186V0H114v1493z" /><glyph unicode="&#x429;" d="M1063 0H93v1493h186V170h224v1323h186V170h224v1323h186V170h134v-492h-170V0z" /><glyph unicode="&#x42a;" d="M313 1323H52v170h463V893h138q253 0 380.5-112.5T1161 447q0-222-128.5-334.5T653 0H313v1323zM653 166q142 0 219.5 73T950 446t-78 207.5T653 727H515V166h138z" /><glyph unicode="&#x42b;" d="M65 1493h202V893h91q97 0 179.5-28.5t143-84.5T775 640.5 809 447t-34.5-194-95-140-143-84.5T358 0H65v1493zm866 0h203V0H931v1493zM358 166q51 0 95 15.5t76 49.5 50.5 87T598 446q0 134-60 207.5T358 727h-91V166h91z" /><glyph unicode="&#x42c;" d="M197 1493h202V893h234q253 0 380.5-112.5T1141 447q0-222-128.5-334.5T633 0H197v1493zM633 166q142 0 219.5 73T930 446t-78 207.5T633 727H399V166h234z" /><glyph unicode="&#x42d;" d="M499-29q-176 0-330 82v207q75-63 161-94t171-31q98 0 170 38.5t120 108T864 448t28 213H260v170h627q-15 138-41 237.5t-69.5 163-108.5 94-158 30.5q-97 0-181-31t-160-94v207q154 82 330 82 142 0 254.5-52.5t190-152 118.5-244 41-328.5q0-183-40.5-326.5T944.5 174 755 23 499-29z" /><glyph unicode="&#x42e;" d="M792-29q-1e2.0-172.5 45.5T498.5 150t-74 217.5T394 666H283V0H80v1493h203V836h111q5 162 30 289t73.5 214.5 121.5 134 174 46.5q202 0 301-192t99-583-99.5-582.5T792-29zm2 164q55 0 92 35t61 106q24 70 36 184t12 285-12 285-36 185q-23 69-60 105t-94 36q-107 0-154-141-48-141-48-470 0-328 48-469 47-141 155-141z" /><glyph unicode="&#x42f;" d="M415 666q-54 20-105.5 50.5T218 794t-64.5 113.5T129 1065q0 103 33 182.5t97.5 134 159.5 83 218 28.5h466V0H9e2v631H610L260 0H46zM9e2 797v530H637q-144 0-219.5-67.5T342 1056q0-259 287-259h271z" /><glyph unicode="&#x430;" d="M513-29q-174 0-275 97-48 46-75 108.5T136 327q0 185 126 283 124 97 368 97h247v29q0 64-17 114t-51 81q-33 30-87 45t-126 15q-95 0-191-27-97-27-187-79v184q42 16 93 32t103 27q91 19 183 19 71 0 129-10.5t108-31.5q46-20 87.5-50.5T992 984q21-29 34-61t20-63q16-73 16-221V410q2-58 3-102t6-82q5-42 11.5-79t11.5-56q7-31 16-58.5T1121 0H936q-5 12-12.5 35.5T909 87q-5 22-9.5 44.5T893 170q-29-50-74.5-89T729 19Q681-6 627.5-17.5T513-29zm38 154q151 0 238 106 88 108 88 291v41H644q-160 0-242-56-43-29-62.5-71.5T320 337q0-52 16-90.5t45-65.5q29-26 70.5-41t99.5-15z" /><glyph unicode="&#x431;" d="M617-29Q501-29 411.5 8.5T261 118t-92.5 176.5T137 532q0 28 .5 39.5t.5 22.5v11.5t-1 15.5l-7 167q-2 56-3.5 100.5T125 954q0 14 .5 28t1.5 22q8 71 29 143.5t58 137.5 92.5 120 133.5 92q86 41 189 54.5t224 21.5q26 2 44 4.5t42 13.5l70-142q-19-8-40.5-12t-45.5-6l-240-24q-44-5-86-17t-86-35q-45-24-83-56t-66.5-68-46-73.5T293 1084l-8-60q63 65 150.5 94t184.5 29q115 0 203.5-38t149-112.5 92-184.5 31.5-254q0-143-31.5-252.5t-92-184T822.5 9 617-29zm1 156q283 0 283 432T617 991q-285 0-285-430 0-215 71-324.5T618 127z" /><glyph unicode="&#x432;" d="M239 1120h397q76 0 143.5-17t118-52.5T977 962t29-125q0-44-12-84.5T958 680t-60.5-53-85.5-27q67-12 113-35.5t74.5-58 41.5-79 13-98.5q0-162-103.5-245.5T652 0H239v1120zM651 665q85 0 127 42.5T820 817t-42 110-128 43H423V665h228zm11-515q48 0 84.5 14.5t61 41T845 268t13 79q0 37-10.5 68t-33 53.5T755 503t-89 12H423V150h239z" /><glyph unicode="&#x433;" d="M307 1120h752V970H491V0H307v1120z" /><glyph unicode="&#x434;" d="M105 150h67q18 0 31.5 32t23.5 82.5 16 113 9.5 124 5 115.5 1.5 87v416h748V150h121v-436H978V0H255v-286H105v436zm717 0v820H442V7e2q0-30-4.5-119.5T423 353q-5-73-8.5-111.5T407 193q-7-18-7-27 0-8 6-12t28-4h388z" /><glyph unicode="&#x435;" d="M677-29q-130 0-232.5 40.5T270.5 128t-109 184T124 555t37.5 244.5 106 187 164.5 119 213 41.5q111 0 198-37.5T990 1002t91.5-170 31.5-226v-90H316v-6q0-92 24.5-163t71-120T526 152.5 680 127q90 0 185.5 28t204.5 85V57Q964 14 867.5-7.5T677-29zM929 660q-3 157-74.5 244T647 991t-221.5-86.5T323 659z" /><glyph unicode="&#x436;" d="M318 716 79 1120h199l255-432v432h168V688l255 432h199L916 716 1175 0H996L805 528 701 351V0H533v351L429 528 238 0H59z" /><glyph unicode="&#x437;" d="M539-22q-90 0-178.5 13.5T169 34v173q76-34 167-51.5T526 138q175 0 265 52.5T881 334q0 45-22 81.5T796 478t-1e2 40-134 14H404v144h165q137 0 208.5 43T849 830q0 69-74.5 111.5T558 984q-71 0-157-12.5T210 932v167q210 48 367 48 105 0 189-20.5t143.5-58.5 91-91.5T1032 856q0-96-64.5-160T783 607q64-12 116-35.5t89-59.5 56.5-84 19.5-107q0-79-35.5-142.5T926 70.5 761 2 539-22z" /><glyph unicode="&#x438;" d="M195 1120h184V311l487 809h184V0H866v809L379 0H195v1120z" /><glyph unicode="&#x439;" d="M616 1272q-290 0-313 287h119q11-72 56.5-111t136.5-39q86 0 134 37t62 113h119q-23-287-314-287zM195 1120h184V311l487 809h184V0H866v809L379 0H195v1120z" /><glyph unicode="&#x43a;" d="M236 1120h190V655l483 465h224L692 698 1202 0H977L563 578 426 449V0H236v1120z" /><glyph unicode="&#x43b;" d="M50 150h35q45 0 78 14.5t56 46 36.5 80.5T275 408q2 26 4 61.5t3.5 77 2 86.5.5 89v398h785V0H886v970H469V725q0-80-1.5-164.5t-11-165T426 243t-59-126q-41-58-102.5-87.5T105 0H50v150z" /><glyph unicode="&#x43c;" d="M61 1120h184l375-691 375 691h184V0H995v741L712 260H528L245 741V0H61v1120z" /><glyph unicode="&#x43d;" d="M189 1120h184V665h487v455h184V0H860v515H373V0H189v1120z" /><glyph unicode="&#x43e;" d="M616-29q-235 0-357 149.5T137 558q0 143 31 253t92 184.5 150 113 206 38.5 206.5-38.5 150-113 92-184.5 31.5-253q0-286-123-436.5T616-29zm0 156q142 0 213.5 109T901 559q0 215-71.5 323.5T616 991q-141 0-212.5-108.5T332 559q0-214 71.5-323T616 127z" /><glyph unicode="&#x43f;" d="M189 1120h855V0H860v970H373V0H189v1120z" /><glyph unicode="&#x440;" d="M190 1120h167l18-143q48 86 124.5 128t177.5 42q1e2.0 179.5-40.5T992 990t86-185 30-247-30-246.5T992 127 856 11 676-29q-105 0-180.5 43T375 141v-567H190v1546zM647 127q134 0 201 108.5T915 559t-67 323.5T647 991q-135 0-203.5-109T375 559t68.5-323T647 127z" /><glyph unicode="&#x441;" d="M701-29q-126 0-227 40T302 127 193 312t-38 247 38 247 109 185 172 116 228 40q84 0 160-20t159-66V868q-71 64-145 93.5T713 991q-179 0-271.5-112T349 560q0-209 93-321t272-112q88 0 164.5 29t142.5 92V57Q940 11 863-9T701-29z" /><glyph unicode="&#x442;" d="M525 970H214v150h806V970H709V0H525v970z" /><glyph unicode="&#x443;" d="M194-272h109q45 0 76 13.5t51 33.5q11 11 23.5 30t26.5 48.5 30.5 70T547 18L114 1120h195l332-876 327 876h195L868 360q-19-48-30.5-78.5t-20-51.5-14-37-12.5-34-16-43-24-64q-26-69-46-120.5T669.5-158t-28-65-24.5-47q-44-75-109.5-115.5T342-426H194v154z" /><glyph unicode="&#x444;" d="M525-29Q415-18 335.5 19t-131 107-76 177T104 560q0 149 24 255t75.5 176.5 131 107.5 190.5 48v409h184v-409q111-11 190.5-48t131-107.5T1106 815t24-255q0-150-24.5-257t-76-177-131-107T709-29v-397H525v397zm0 1011q-60-12-103-34t-70-67.5-40-122T299 559t13-201 40-125.5 70-70.5 103-35v855zM709 127q60 12 103 35t70 70.5T922 358t13 201-13 199.5-40 122-70 67.5-103 34V127z" /><glyph unicode="&#x445;" d="M516 584l-401 536h204l297-405 295 405h207L717 584 1157 0H944L616 449 289 0H76z" /><glyph unicode="&#x446;" d="M1028 0H184v1120h184V150h486v970h184V150h140v-436h-150V0z" /><glyph unicode="&#x447;" d="M837 466q-8-3-33-13.5T739.5 431 647 411t-116-9q-84 0-152 19.5t-115.5 62-73 109.5T165 755v367h184V755q0-65 19.5-103t53-58 77-26 91.5-6q69 0 127 11.5T837 621v501h184V0H837v466z" /><glyph unicode="&#x448;" d="M125 1120h168V150h240v970h168V150h240v970h168V0H125v1120z" /><glyph unicode="&#x449;" d="M1083 0H105v1120h168V150h240v970h168V150h240v970h168V150h144v-436h-150V0z" /><glyph unicode="&#x44a;" d="M308 970H60v150h432V667h256q105 0 187.5-20.5t140-62.5 88-105 30.5-148q0-167-116-249T748 0H308v970zM740 156q124 0 191 43.5T998 333q0 91-68 136t-190 45H492V156h248z" /><glyph unicode="&#x44b;" d="M104 1120h182V667h91q105 0 187.5-20.5t140-62.5 88-105T823 331q0-167-116-249T377 0H104v1120zm841 0h184V0H945v1120zM369 154q124 0 191 44t67 135q0 92-68 137.5T369 516h-83V154h83z" /><glyph unicode="&#x44c;" d="M225 1120h184V667h256q104 0 186.5-20.5t140-62.5 88-105.5T1110 330q0-166-115.5-248T665 0H225v1120zM657 153q257 0 257 180 0 94-64.5 137.5T657 514H409V153h248z" /><glyph unicode="&#x44d;" d="M545-29q-85 0-162 20T225 57v191q62-60 138-90.5T533 127q90 0 156 28t110.5 79 68 123T896 516H354v144h537q-9 66-32 126t-65 105.5T688 964t-154 27q-91 0-165-30t-144-93v193q82 46 158.5 66t160.5 20q127 0 228-40t172-116 109-185 38-247-38-247-109-185T772 11 545-29z" /><glyph unicode="&#x44e;" d="M828-29q-78 0-145 35.5T566 108t-82 161-40 215H302V0H118v1120h184V634h142q8 127 40 223t82 160.5 115.5 97T824 1147q80 0 150-36t122-109 82-184 30-260q0-153-31-263.5T1093.5 112 972 5.5 828-29zM689 243q27-59 62.5-88t73.5-29q39 0 75.5 31.5T963 252q23 57 36.5 139t13.5 183q0 198-56 308-26 53-60 80.5T827 990q-38 0-72.5-30.5T692 868q-27-60-41.5-139.5T636 551t14-176 39-132z" /><glyph unicode="&#x44f;" d="M450 479q-25 10-63 30t-73.5 56-61 91.5T227 795q0 86 29.5 147.5t80.5 101 118 58 142 18.5h397V0H810v455H617L359 0H178zM810 605v365H583q-28 0-58-10.5T470 927t-41-57-16-83 16-82.5 41-56.5 55-32.5 57-10.5h228z" /><glyph unicode="&#x450;" d="M250 1673h198l281-376H575zM677-29q-130 0-232.5 40.5T270.5 128t-109 184T124 555t37.5 244.5 106 187 164.5 119 213 41.5q111 0 198-37.5T990 1002t91.5-170 31.5-226v-90H316v-6q0-92 24.5-163t71-120T526 152.5 680 127q90 0 185.5 28t204.5 85V57Q964 14 867.5-7.5T677-29zM929 660q-3 157-74.5 244T647 991t-221.5-86.5T323 659z" /><glyph unicode="&#x451;" d="M385 1347q-30 0-30 30v142q0 30 30 30h143q30 0 30-30v-142q0-30-30-30H385zm392 0q-30 0-30 30v142q0 30 30 30h142q30 0 30-30v-142q0-30-30-30H777zM677-29q-130 0-232.5 40.5T270.5 128t-109 184T124 555t37.5 244.5 106 187 164.5 119 213 41.5q111 0 198-37.5T990 1002t91.5-170 31.5-226v-90H316v-6q0-92 24.5-163t71-120T526 152.5 680 127q90 0 185.5 28t204.5 85V57Q964 14 867.5-7.5T677-29zM929 660q-3 157-74.5 244T647 991t-221.5-86.5T323 659z" /><glyph unicode="&#x452;" d="M661-261q60 11 113.5 53T868-94.5 931.5 77 955 304q0 76-10.5 134t-36 97.5T840 595t-109 20q-144 0-213-91t-69-263V0H265v977H75v143h190v436h184v-436h448V977H449V580q49 97 133 146t206 49q186 0 273-119t87-360q0-146-31-269t-92-216.5-152-154T661-426v165z" /><glyph unicode="&#x453;" d="M887 1645h198l-325-376H606zM307 1120h752V970H491V0H307v1120z" /><glyph unicode="&#x454;" d="M711-29q-126 0-227 40T312 127 203 312t-38 247 38 247 109 185 172 116 228 40q84 0 160-20t159-66V868q-68 61-141 92t-168 31q-91 0-154.5-27T462 891.5 397 786t-32-127l537 1V516H360q5-87 28.5-159t68-123T567 155t156-28q94 0 170 30.5t138 90.5V57Q950 11 873-9T711-29z" /><glyph unicode="&#x455;" d="M587-29q-87 0-177.5 17.5T213 41v190q205-106 375-106 61 0 108.5 13t80.5 37 50 57 17 73q0 34-13.5 62T788 417.5 712 458t-113 32l-8 2-69 14q-82 16-140 42.5t-94.5 64T234 699t-17 111q0 163 108 250t314 87q173 0 334-66V901q-81 46-159.5 69T645 993q-242 0-242-165 0-35 11.5-64t34.5-47q26-20 83.5-37.5T678 645l74-14q138-26 208-103.5t70-203.5q0-83-30.5-148.5T912 64.5 772.5-5 587-29z" /><glyph unicode="&#x456;" d="M495 1323q-32 0-32 30v173q0 30 32 30h130q32 0 32-30v-173q0-30-32-30H495zM657 398q0-125 46-187 24-33 57.5-48t76.5-15h215V-8H819q-80 0-143.5 25T564 98q-91 106-91 3e2v578H228v144h429V398z" /><glyph unicode="&#x457;" d="M258 1321q-30 0-30 30v142q0 30 30 30h143q30 0 30-30v-142q0-30-30-30H258zm392 0q-30 0-30 30v142q0 30 30 30h142q30 0 30-30v-142q0-30-30-30H650zm7-923q0-125 46-187 24-33 57.5-48t76.5-15h215V-8H819q-80 0-143.5 25T564 98q-91 106-91 3e2v578H228v144h429V398z" /><glyph unicode="&#x458;" d="M674 1323q-32 0-32 30v173q0 30 32 30h130q32 0 32-30v-173q0-30-32-30H674zM238-270h234q180 0 180 250v997H335v143h501V-20q0-196-89-301T492-426H238v156z" /><glyph unicode="&#x459;" d="M16 150h35q45 0 78 14.5t56 46 36.5 80.5T241 408q2 26 4 61.5t3.5 77 2 86.5.5 89v398h565V667h21q79 0 151-20.5t126.5-62.5 86.5-105 32-148q0-83-31-145.5T1117 82 991 20.5 837 0H648v970H419V725v-69q0-59-2.5-132.5t-13.5-149T370 228t-60-123q-17-23-38-42t-51-33-70.5-22T55 0H16v150zm813 3q208 0 208 181 0 180-208 180h-13V153h13z" /><glyph unicode="&#x45a;" d="M106 1120h168V665h364v455h168V667h21q79 0 151-20.5t126.5-62.5 86.5-105 32-148q0-83-31-145.5T1107 82 981 20.5 827 0H638v515H274V0H106v1120zM819 153q208 0 208 181 0 180-208 180h-13V153h13z" /><glyph unicode="&#x45b;" d="M255 977H65v143h190v436h184v-436h448V977H439V580q49 97 133 146t199 49q172 0 256-112t84-341V0H926v322q0 151-52.5 222T708 615q-131 0-2e2-91t-69-263V0H255v977z" /><glyph unicode="&#x45c;" d="M804 1647h198l-325-376H523zM236 1120h190V655l483 465h224L692 698 1202 0H977L563 578 426 449V0H236v1120z" /><glyph unicode="&#x45d;" d="M343 1647h198l281-376H668zM195 1120h184V311l487 809h184V0H866v809L379 0H195v1120z" /><glyph unicode="&#x45e;" d="M626 1270q-290 0-313 287h119q11-72 56.5-111t136.5-39q86 0 134 37t62 113h119q-23-287-314-287zM194-272h109q45 0 76 13.5t51 33.5q11 11 23.5 30t26.5 48.5 30.5 70T547 18L114 1120h195l332-876 327 876h195L868 360q-19-48-30.5-78.5t-20-51.5-14-37-12.5-34-16-43-24-64q-26-69-46-120.5T669.5-158t-28-65-24.5-47q-44-75-109.5-115.5T342-426H194v154z" /><glyph unicode="&#x45f;" d="M541 0H189v1120h184V150h487v970h184V0H692v-286H541V0z" /><glyph unicode="&#x462;" d="M293 1105H32v164h261v224h202v-224h369v-164H495V893h138q253 0 380.5-112.5T1141 447q0-222-128.5-334.5T633 0H293v1105zM633 166q142 0 219.5 73T930 446t-78 207.5T633 727H495V166h138z" /><glyph unicode="&#x463;" d="M298 973H50v147h248v436h184v-436h425V973H482V667h256q105 0 187.5-20.5t140-62.5 88-105 30.5-148q0-167-116-249T738 0H298v973zM730 156q124 0 191 43.5T988 333q0 91-68 136t-190 45H482V156h248z" /><glyph unicode="&#x472;" d="M615-29q-251 0-374.5 190.5T117 744t123.5 584T616 1520q253 0 376.5-192T1116 745q0-390-124-582T615-29zM904 828q-4 132-21 231t-50.5 165-86.5 99-130 33-129.5-33-86.5-99-50.5-165T329 828h575zM617 135q75 0 127.5 31.5T831 262t50.5 159T903 644H330q4-122 20.5-217T4e2 267t86-98.5T617 135z" /><glyph unicode="&#x473;" d="M616-29q-233 0-356 150.5T137 560q0 284 123 436 60 73 147 112t208 39q235 0 358-151t123-437q0-288-122.5-438T616-29zM9e2 611q-4 88-22.5 158.5t-53 119.5-86.5 75.5T616 991t-121.5-26.5-86-75.5-53-119.5T333 611h567zM616 127q70 0 120 25t83 68.5 51 102T895 447H338q7-66 25-124.5t51-102 82.5-68.5T616 127z" /><glyph unicode="&#x490;" d="M215 1493h754l3 306h167v-476H418V0H215v1493z" /><glyph unicode="&#x491;" d="M317 1120h568v314h185l-1-498H501V0H317v1120z" /><glyph unicode="&#x492;" d="M225 830H95v170h130v493h924v-170H428V1e3h547V830H428V0H225v830z" /><glyph unicode="&#x493;" d="M317 5e2H187v170h130v450h752V936H501V670h416V5e2H501V0H317v5e2z" /><glyph unicode="&#x494;" d="M589-240h62q67 0 113.5 17.5t76 57.5T883-59t13 163v290q0 317-248 317H378V0H175v1493h924v-170H378V881h311q188 0 299-119 57-61 84-146.5t27-205.5V104q0-134-25-231t-78-160-135-93-196-30h-76v170z" /><glyph unicode="&#x495;" d="M539-270h172q55 0 90 11.5t55.5 40 28 76.5T892-20v264q0 85-9.5 133.5t-34 73T781 481t-110 6H411V0H227v1120h752V936H411V631h250q130 0 211.5-16.5T999 555t61-117 16-188V-20q0-107-20-183.5t-62-126-107-73T732-426H539v156z" /><glyph unicode="&#x496;" d="M1048 0h-27L799 650l-89-186V0H523v464l-89 186L212 0H15l304 891-287 602h207l284-595v595h187V898l284 595h207L914 891l246-721h58v-492h-170V0z" /><glyph unicode="&#x497;" d="M1048 0h-52L805 528 701 351V0H533v351L429 528 238 0H59l259 716-239 404h199l255-432v432h168V688l255 432h199L916 716l205-566h77v-436h-150V0z" /><glyph unicode="&#x498;" d="M1079 410q0-92-29-167.5t-84-131-135-90T648-24q45-54 66.5-1e2t21.5-96q0-85-60-130t-180-45q-86 0-174 24v131q31-17 70.5-24.5T469-272q66 0 97 23.5t31 66.5q0 28-15 63t-53 90q-94 2-194.5 21T137 45v201q103-54 201-79.5T532 141q169 0 258 74.5T879 426q0 68-23 122t-66 91-104 56.5T549 715H395v166h154q140 0 217.5 60.5T844 1118q0 111-73 171.5T557 1350q-76 0-171.5-19T182 1270v186q121 32 215 48t172 16q106 0 194-28.5t150-81 96.5-125.5 34.5-163q0-126-68-207.5T776 799q148-39 225.5-138t77.5-251z" /><glyph unicode="&#x499;" d="M1064 321q0-70-27.5-127.5t-81-101-131-71.5T648-17q48-57 71-104.5t23-98.5q0-85-60-130t-180-45q-86 0-174 24v131q31-17 70.5-24.5T475-272q66 0 97 23.5t31 66.5q0 29-15.5 65.5T531-22q-87 1-174.5 14T169 34v173q76-34 167-51.5T526 138q175 0 265 52.5T881 334q0 45-22 81.5T796 478t-1e2 40-134 14H404v144h165q137 0 208.5 43T849 830q0 69-74.5 111.5T558 984q-71 0-157-12.5T210 932v167q210 48 367 48 105 0 189-20.5t143.5-58.5 91-91.5T1032 856q0-96-64.5-160T783 607q64-12 116-35.5t89-59.5 56.5-84 19.5-107z" /><glyph unicode="&#x49a;" d="M1012 0h-31L494 748 340 584V0H137v1493h203V829l631 664h237L627 883l483-713h114v-492h-212V0z" /><glyph unicode="&#x49b;" d="M986 0h-29L543 578 406 449V0H216v1120h190V655l483 465h224L672 698l376-514h134v-470H986V0z" /><glyph unicode="&#x4a2;" d="M1020 0H817v711H264V0H61v1493h203V881h553v612h203V170h213v-492h-213V0z" /><glyph unicode="&#x4a3;" d="M1038 0H854v505H367V0H183v1120h184V675h487v445h184V184h195v-470h-195V0z" /><glyph unicode="&#x4a4;" d="M213 1493h186V881h364v612h470v-170H949V0H763v711H399V0H213v1493z" /><glyph unicode="&#x4a5;" d="M185 1120h168V665h410v455h470V970H931V0H763v515H353V0H185v1120z" /><glyph unicode="&#x4aa;" d="M740 1356q-194 0-292-152t-98-459q0-610 390-610 91 0 175.5 32t157.5 93V53Q953-12 822-25q45-54 66-99.5t21-95.5q0-85-60-130t-180-45q-86 0-174 24v131q31-17 70.5-24.5T642-272q66 0 97 23.5t31 66.5q0 29-15 64t-53 90q-134 7-239 62.5t-177 154-109.5 238T139 743q0 184 40.5 328T298 1315t190.5 152.5T745 1520q89 0 169.5-20t158.5-62v-207q-73 60-156.5 92.5T740 1356z" /><glyph unicode="&#x4ab;" d="M723 991q-179 0-271.5-112T359 560q0-209 93-321t272-112q88 0 164.5 29t142.5 92V57Q971 22 913 3T795-24q45-54 66.5-1e2t21.5-96q0-85-60-130t-180-45q-86 0-174 24v131q31-17 70.5-24.5T616-272q66 0 97 23.5t31 66.5q0 28-15 63t-53 91q-119 6-213.5 48.5T302 138 200.5 319.5 165 559q0 138 38 247t109 185 172 116 228 40q84 0 160-20t159-66V868q-71 64-145 93.5T723 991z" /><glyph unicode="&#x4ac;" d="M719 0H516v1323H47v170h1139v-170H719V170h213v-492H719V0z" /><glyph unicode="&#x4ad;" d="M709 0H525v942H214v178h806V942H709V184h195v-470H709V0z" /><glyph unicode="&#x4ae;" d="M514 670 37 1493h215l364-659 363 659h217L717 670V0H514v670z" /><glyph unicode="&#x4af;" d="M520 18 92 1120h195l329-876 329 876h195L712 18v-444H520V18z" /><glyph unicode="&#x4b0;" d="M514 420H250v170h264v80L37 1493h215l364-659 363 659h217L717 670v-80h266V420H717V0H514v420z" /><glyph unicode="&#x4b1;" d="M520-185H320v150h2e2v53L92 1120h195l329-876 329 876h195L712 18v-53h2e2v-150H712v-241H520v241z" /><glyph unicode="&#x4b2;" d="M1002 0h-5L631 643 236 0H18l5e2 791-432 702h217l328-563 334 563h217L735 791l377-621h102v-492h-212V0z" /><glyph unicode="&#x4b3;" d="M982 0h-18L636 449 309 0H96l440 584-401 536h204l297-405 295 405h207L737 584l301-4e2h140v-470H982V0z" /><glyph unicode="&#x4ba;" d="M160 1495h203V812q34 38 85 66l48 26q19 10 44.5 18.5t54 14.5 58 9.5T709 951l48 2q85 0 146-22.5t102-61.5q9-8 16-16.5t9-12.5q85-112 85-340V0H912v474q0 154-54 223.5T686 767q-50 0-96-11t-90-31q-23-11-38.5-21.5T432 676q-33-40-51-109.5T363 413V0H160v1495z" /><glyph unicode="&#x4bb;" d="M195 1556h184V952q49 97 133 146t199 49q172 0 256-112t84-341V0H866v694q0 151-52.5 222T648 987q-131 0-2e2-91t-69-263V0H195v1556z" /><glyph unicode="&#x4c0;" d="M201 170h313v1153H201v170h829v-170H717V170h313V0H201v170z" /><glyph unicode="&#x4c1;" d="M616 1609q-290 0-313 242h119q12-54 62-82.5t132-28.5q165 0 195 111h119q-11-120-90-181t-224-61zM319 891 32 1493h207l284-595v595h187V898l284 595h207L914 891 1218 0h-197L799 650l-89-186V0H523v464l-89 186L212 0H15z" /><glyph unicode="&#x4c2;" d="M616 1321q-290 0-313 287h119q22-150 194-150 167 0 195 150h119q-23-287-314-287zM318 716 79 1120h199l255-432v432h168V688l255 432h199L916 716 1175 0H996L805 528 701 351V0H533v351L429 528 238 0H59z" /><glyph unicode="&#x4c3;" d="M551-240h62q67 0 113.5 17.5t76 57.5T845-59t13 163v290q0 317-248 317H459L340 584V0H137v1493h203V829l631 664h237L627 881h24q91 0 166.5-29T947 764.5t84-147 30-207.5V104q0-134-25-231t-78-160-135-93-196-30h-76v170z" /><glyph unicode="&#x4c4;" d="M534-270h172q55 0 90 11.5t55.5 40 28 76.5T887-20v264q0 85-9.5 133.5t-34 73T776 481t-110 6H445l-39-38V0H216v1120h190V655l483 465h224L598 631h58q130 0 211.5-16.5T994 555t61-117 16-188V-20q0-107-20-183.5t-62-126-107-73T727-426H534v156z" /><glyph unicode="&#x4c7;" d="M586-240h62q67 0 113.5 17.5t76 57.5T880-59t13 163v607H340V0H137v1493h203V881h553v612h203V104q0-135-25-232t-78-160-135-92.5T662-410h-76v170z" /><glyph unicode="&#x4c8;" d="M523-270h172q55 0 90 11.5t55.5 40 28 76.5T876-20v525H389V0H205v1120h184V675h487v445h184V-20q0-107-20-183.5t-62-126-107-73T716-426H523v156z" /><glyph unicode="&#x4cb;" d="M669 170h213v548q-17-20-37-35t-49-31l-47-26q-18-10-43.5-18.5t-54-14.5-58.5-9.5-57-4.5l-48-2q-160 0-248 84-8 8-15 16t-11 13q-40 54-62 136.5T130 1030v465h203v-439q0-153 53-223t168-70q44 0 95 10t96 31q25 12 40.5 24t26.5 26q31 37 50.5 104t19.5 159v378h203V0H882v-322H669v492z" /><glyph unicode="&#x4cc;" d="M652 184h195v382q-27-51-87-87 1 1-7-4t-39-23q-43-25-91.5-37.5T516 402q-173 0-257 112t-84 341v267h185V855q0-151 52.5-222T578 562q131 0 2e2 91t69 263v206h184V0H847v-286H652v470z" /><glyph unicode="&#x4cf;" d="M455 1567h184V0H455v1567z" /><glyph unicode="&#x4d0;" d="M616 1609q-290 0-313 242h119q12-54 61.5-82.5T618 1740q163 0 193 111h119q-11-120-90-181t-224-61zM494 1493h245L1196 0H987L877 389H354L246 0H37zM829 551l-213 764-213-764h426z" /><glyph unicode="&#x4d1;" d="M616 1298q-290 0-313 287h119q11-72 56.5-111t136.5-39q86 0 134 37t62 113h119q-23-287-314-287zM520-29q-174 0-275 97-48 46-75 108.5T143 327q0 185 126 283 124 97 368 97h247v29q0 64-17 114t-51 81q-33 30-87 45t-126 15q-95 0-191-27-97-27-187-79v184q42 16 93 32t103 27q91 19 183 19 71 0 129-10.5t108-31.5q46-20 87.5-50.5T999 984q21-29 34-61t20-63q16-73 16-221V410q2-58 3-102t6-82q5-42 11.5-79t11.5-56q7-31 16-58.5T1128 0H943q-5 12-12.5 35.5T916 87q-5 22-9.5 44.5T9e2 170q-29-50-74.5-89T736 19Q688-6 634.5-17.5T520-29zm38 154q151 0 238 106 88 108 88 291v41H651q-160 0-242-56-43-29-62.5-71.5T327 337q0-52 16-90.5t45-65.5q29-26 70.5-41t99.5-15z" /><glyph unicode="&#x4d2;" d="M349 1649q-30 0-30 30v143q0 30 30 30h143q30 0 30-30v-143q0-30-30-30H349zm392 0q-30 0-30 30v143q0 30 30 30h142q30 0 30-30v-143q0-30-30-30H741zM494 1493h245L1196 0H987L877 389H354L246 0H37zM829 551l-213 764-213-764h426z" /><glyph unicode="&#x4d3;" d="M349 1350q-30 0-30 30v142q0 30 30 30h143q30 0 30-30v-142q0-30-30-30H349zm392 0q-30 0-30 30v142q0 30 30 30h142q30 0 30-30v-142q0-30-30-30H741zM520-29q-174 0-275 97-48 46-75 108.5T143 327q0 185 126 283 124 97 368 97h247v29q0 64-17 114t-51 81q-33 30-87 45t-126 15q-95 0-191-27-97-27-187-79v184q42 16 93 32t103 27q91 19 183 19 71 0 129-10.5t108-31.5q46-20 87.5-50.5T999 984q21-29 34-61t20-63q16-73 16-221V410q2-58 3-102t6-82q5-42 11.5-79t11.5-56q7-31 16-58.5T1128 0H943q-5 12-12.5 35.5T916 87q-5 22-9.5 44.5T9e2 170q-29-50-74.5-89T736 19Q688-6 634.5-17.5T520-29zm38 154q151 0 238 106 88 108 88 291v41H651q-160 0-242-56-43-29-62.5-71.5T327 337q0-52 16-90.5t45-65.5q29-26 70.5-41t99.5-15z" /><glyph unicode="&#x4d4;" d="M410 1493h751v-170H823V881h307V711H823V170h357V0H637v383H285L184 0H0zM637 551v772H530L328 551h309z" /><glyph unicode="&#x4d5;" d="M357-29q-155 0-235.5 86.5T41 303q0 177 99.5 265.5T432 657h117v88q0 121-49.5 184.5T355 993q-56 0-121-21.5T106 911v168q78 35 143 51.5t128 16.5q177 0 250-127 32 57 94.5 92t165.5 35q85 0 144.5-28t97-92 54.5-168 17-255v-90H709q-1-15-1.5-33t-.5-40q0-85 11.5-145t37.5-98 67.5-55.5T924 125q75 0 140 25.5t114 76.5V55q-113-84-262-84-109 0-182.5 42T629 131Q588 48 522 9.5T357-29zm679 686v52q0 75-9.5 129t-29 88.5-51 50.5-74.5 16q-44 0-74.5-16.5T747 925t-29-91-9-134v-43h327zM375 125q94 0 131 67 17 32 27 90t10 160v72h-49q-82 0-137.5-10.5t-89-33.5-48-60-14.5-90q0-1e2 44-147.5T375 125z" /><glyph unicode="&#x4d6;" d="M634 1609q-290 0-313 242h119q12-54 61.5-82.5T636 1740q163 0 193 111h119q-11-120-90-181t-224-61zM197 1493h886v-170H399V881h654V711H399V170h703V0H197v1493z" /><glyph unicode="&#x4d7;" d="M631 1298q-290 0-313 287h119q11-72 56.5-111t136.5-39q86 0 134 37t62 113h119q-23-287-314-287zM677-29q-130 0-232.5 40.5T270.5 128t-109 184T124 555t37.5 244.5 106 187 164.5 119 213 41.5q111 0 198-37.5T990 1002t91.5-170 31.5-226v-90H316v-6q0-92 24.5-163t71-120T526 152.5 680 127q90 0 185.5 28t204.5 85V57Q964 14 867.5-7.5T677-29zM929 660q-3 157-74.5 244T647 991t-221.5-86.5T323 659z" /><glyph unicode="&#x4d8;" d="M615-29q-252 0-375 191T117 745v83h787v8q0 121-16.5 217t-52 163.5-92 103.5-136.5 36q-38 0-79.5-8.5T444 1323t-82-39-76-53v207q78 42 160 62t165 20q256 0 380.5-191T1116 746q0-391-123.5-583T615-29zm6 164q73 0 124.5 32t85 95.5 50.5 159T903 644H332q0-249 70-379t219-130z" /><glyph unicode="&#x4d9;" d="M610-29Q499-29 412 8.5T265 116t-91.5 170T142 512v90h797v6q0 91-24.5 162.5t-71 120.5T729 965.5 575 991q-90 0-185.5-28T185 878v183q106 43 202.5 64.5T578 1147q130 0 232.5-40.5T984 990t109-184 38-243-37.5-244.5-106-187T823 12.5 610-29zm-2 156q136 0 221.5 86.5T932 459H326q0-163 75-247.5T608 127z" /><glyph unicode="&#x4da;" d="M349 1649q-30 0-30 30v143q0 30 30 30h143q30 0 30-30v-143q0-30-30-30H349zm392 0q-30 0-30 30v143q0 30 30 30h142q30 0 30-30v-143q0-30-30-30H741zM615-29q-252 0-375 191T117 745v83h787v8q0 121-16.5 217t-52 163.5-92 103.5-136.5 36q-38 0-79.5-8.5T444 1323t-82-39-76-53v207q78 42 160 62t165 20q256 0 380.5-191T1116 746q0-391-123.5-583T615-29zm6 164q73 0 124.5 32t85 95.5 50.5 159T903 644H332q0-249 70-379t219-130z" /><glyph unicode="&#x4db;" d="M369 1350q-30 0-30 30v142q0 30 30 30h143q30 0 30-30v-142q0-30-30-30H369zm392 0q-30 0-30 30v142q0 30 30 30h142q30 0 30-30v-142q0-30-30-30H761zM610-29Q499-29 412 8.5T265 116t-91.5 170T142 512v90h797v6q0 91-24.5 162.5t-71 120.5T729 965.5 575 991q-90 0-185.5-28T185 878v183q106 43 202.5 64.5T578 1147q130 0 232.5-40.5T984 990t109-184 38-243-37.5-244.5-106-187T823 12.5 610-29zm-2 156q136 0 221.5 86.5T932 459H326q0-163 75-247.5T608 127z" /><glyph unicode="&#x4dc;" d="M349 1649q-30 0-30 30v143q0 30 30 30h143q30 0 30-30v-143q0-30-30-30H349zm392 0q-30 0-30 30v143q0 30 30 30h142q30 0 30-30v-143q0-30-30-30H741zM319 891 32 1493h207l284-595v595h187V898l284 595h207L914 891 1218 0h-197L799 650l-89-186V0H523v464l-89 186L212 0H15z" /><glyph unicode="&#x4dd;" d="M349 1321q-30 0-30 30v142q0 30 30 30h143q30 0 30-30v-142q0-30-30-30H349zm392 0q-30 0-30 30v142q0 30 30 30h142q30 0 30-30v-142q0-30-30-30H741zM318 716 79 1120h199l255-432v432h168V688l255 432h199L916 716 1175 0H996L805 528 701 351V0H533v351L429 528 238 0H59z" /><glyph unicode="&#x4de;" d="M332 1649q-30 0-30 30v143q0 30 30 30h143q30 0 30-30v-143q0-30-30-30H332zm392 0q-30 0-30 30v143q0 30 30 30h142q30 0 30-30v-143q0-30-30-30H724zM553-29q-99 0-206 19T137 45v201q103-54 201-79.5T532 141q169 0 258 74.5T879 426q0 68-23 122t-66 91-104 56.5T549 715H395v166h154q140 0 217.5 60.5T844 1118q0 111-73 171.5T557 1350q-76 0-171.5-19T182 1270v186q121 32 215 48t172 16q106 0 194-28.5t150-81 96.5-125.5 34.5-163q0-126-68-207.5T776 799q148-39 225.5-138t77.5-251q0-102-35.5-183.5T940.5 88 775 1 553-29z" /><glyph unicode="&#x4df;" d="M334 1350q-30 0-30 30v142q0 30 30 30h143q30 0 30-30v-142q0-30-30-30H334zm392 0q-30 0-30 30v142q0 30 30 30h142q30 0 30-30v-142q0-30-30-30H726zM539-22q-90 0-178.5 13.5T169 34v173q76-34 167-51.5T526 138q175 0 265 52.5T881 334q0 45-22 81.5T796 478t-1e2 40-134 14H404v144h165q137 0 208.5 43T849 830q0 69-74.5 111.5T558 984q-71 0-157-12.5T210 932v167q210 48 367 48 105 0 189-20.5t143.5-58.5 91-91.5T1032 856q0-96-64.5-160T783 607q64-12 116-35.5t89-59.5 56.5-84 19.5-107q0-79-35.5-142.5T926 70.5 761 2 539-22z" /><glyph unicode="&#x4e0;" d="M615-28Q473-28 363 3T178 93 64.5 238 26 435h202q0-144 99-218.5T616 142q191 0 290.5 74.5T1006 432q0 69-24 122t-69 89-110 54.5T656 716H482v166l370 441H114v170h970v-168L708 884q52 0 109.5-13t113-39 106-65 89.5-90q43-57 61.5-116.5T1206 429q0-108-39-193T1053 92.5 868 3 615-28z" /><glyph unicode="&#x4e1;" d="M551-436q-49 0-97 4t-98 13-102 23-109 34v195q85-49 184.5-74T538-266q191 0 290 75t99 215q0 68-24 121t-69 89-110 55-147 19H403v166l430 499H166v147h874V952L629 476q48 0 103.5-11.5t111-36 108-64T1047 269q42-55 61.5-114T1128 22q0-109-39.5-194t-114-143.5T793-405t-242-31z" /><glyph unicode="&#x4e2;" d="M317 1852h598v-148H317v148zM139 1493h195V264l504 1229h256V0H899v1229L395 0H139v1493z" /><glyph unicode="&#x4e3;" d="M317 1468h598v-148H317v148zM195 1120h184V311l487 809h184V0H866v809L379 0H195v1120z" /><glyph unicode="&#x4e4;" d="M349 1649q-30 0-30 30v143q0 30 30 30h143q30 0 30-30v-143q0-30-30-30H349zm392 0q-30 0-30 30v143q0 30 30 30h142q30 0 30-30v-143q0-30-30-30H741zM139 1493h195V264l504 1229h256V0H899v1229L395 0H139v1493z" /><glyph unicode="&#x4e5;" d="M349 1322q-30 0-30 30v142q0 30 30 30h143q30 0 30-30v-142q0-30-30-30H349zm392 0q-30 0-30 30v142q0 30 30 30h142q30 0 30-30v-142q0-30-30-30H741zM195 1120h184V311l487 809h184V0H866v809L379 0H195v1120z" /><glyph unicode="&#x4e6;" d="M349 1649q-30 0-30 30v143q0 30 30 30h143q30 0 30-30v-143q0-30-30-30H349zm392 0q-30 0-30 30v143q0 30 30 30h142q30 0 30-30v-143q0-30-30-30H741zM615-29q-251 0-374.5 190.5T117 744t123.5 584T616 1520q253 0 376.5-192T1116 745q0-390-124-582T615-29zm1 164q154 0 222 141 67 138 67 469 0 330-67 470-68 141-222 141-153 0-220-141-68-142-68-470 0-327 68-469 67-141 220-141z" /><glyph unicode="&#x4e7;" d="M349 1350q-30 0-30 30v142q0 30 30 30h143q30 0 30-30v-142q0-30-30-30H349zm392 0q-30 0-30 30v142q0 30 30 30h142q30 0 30-30v-142q0-30-30-30H741zM616-29q-235 0-357 149.5T137 558q0 143 31 253t92 184.5 150 113 206 38.5 206.5-38.5 150-113 92-184.5 31.5-253q0-286-123-436.5T616-29zm0 156q142 0 213.5 109T901 559q0 215-71.5 323.5T616 991q-141 0-212.5-108.5T332 559q0-214 71.5-323T616 127z" /><glyph unicode="&#x4e8;" d="M615-29q-251 0-374.5 190.5T117 744t123.5 584T616 1520q253 0 376.5-192T1116 745q0-390-124-582T615-29zM902 881q-6 111-22.5 199.5T830 1230t-85 93.5-129 32.5q-78 0-130-33.5t-84.5-95T353 1078t-22-197h571zM617 135q76 0 130 33.5t88.5 104 51 179.5T905 711H328q1-150 17.5-258.5t51-179 89-104.5T617 135z" /><glyph unicode="&#x4e9;" d="M616-29q-233 0-356 150.5T137 560q0 284 123 436 60 73 147 112t208 39q235 0 358-151t123-437q0-288-122.5-438T616-29zM9e2 611q-4 88-22.5 158.5t-53 119.5-86.5 75.5T616 991t-121.5-26.5-86-75.5-53-119.5T333 611h567zM616 127q70 0 120 25t83 68.5 51 102T895 447H338q7-66 25-124.5t51-102 82.5-68.5T616 127z" /><glyph unicode="&#x4ea;" d="M349 1649q-30 0-30 30v143q0 30 30 30h143q30 0 30-30v-143q0-30-30-30H349zm392 0q-30 0-30 30v143q0 30 30 30h142q30 0 30-30v-143q0-30-30-30H741zM615-29q-251 0-374.5 190.5T117 744t123.5 584T616 1520q253 0 376.5-192T1116 745q0-390-124-582T615-29zM902 881q-6 111-22.5 199.5T830 1230t-85 93.5-129 32.5q-78 0-130-33.5t-84.5-95T353 1078t-22-197h571zM617 135q76 0 130 33.5t88.5 104 51 179.5T905 711H328q1-150 17.5-258.5t51-179 89-104.5T617 135z" /><glyph unicode="&#x4eb;" d="M349 1350q-30 0-30 30v142q0 30 30 30h143q30 0 30-30v-142q0-30-30-30H349zm392 0q-30 0-30 30v142q0 30 30 30h142q30 0 30-30v-142q0-30-30-30H741zM616-29q-233 0-356 150.5T137 560q0 284 123 436 60 73 147 112t208 39q235 0 358-151t123-437q0-288-122.5-438T616-29zM9e2 611q-4 88-22.5 158.5t-53 119.5-86.5 75.5T616 991t-121.5-26.5-86-75.5-53-119.5T333 611h567zM616 127q70 0 120 25t83 68.5 51 102T895 447H338q7-66 25-124.5t51-102 82.5-68.5T616 127z" /><glyph unicode="&#x4ec;" d="M336 1649q-30 0-30 30v143q0 30 30 30h143q30 0 30-30v-143q0-30-30-30H336zm392 0q-30 0-30 30v143q0 30 30 30h142q30 0 30-30v-143q0-30-30-30H728zM509-29q-176 0-330 82v207q75-63 161-94t171-31q98 0 170 38.5t120 108T874 448t28 213H270v170h627q-15 138-41 237.5t-69.5 163-108.5 94-158 30.5q-97 0-181-31t-160-94v207q154 82 330 82 142 0 254.5-52.5t190-152 118.5-244 41-328.5q0-183-40.5-326.5T954.5 174 765 23 509-29z" /><glyph unicode="&#x4ed;" d="M329 1350q-30 0-30 30v142q0 30 30 30h143q30 0 30-30v-142q0-30-30-30H329zm392 0q-30 0-30 30v142q0 30 30 30h142q30 0 30-30v-142q0-30-30-30H721zM535-29q-85 0-162 20T215 57v191q62-60 138-90.5T523 127q90 0 156 28t110.5 79 68 123T886 516H344v144h537q-9 66-32 126t-65 105.5T678 964t-154 27q-91 0-165-30t-144-93v193q82 46 158.5 66t160.5 20q127 0 228-40t172-116 109-185 38-247-38-247-109-185T762 11 535-29z" /><glyph unicode="&#x4ee;" d="M337 1852h598v-148H337v148zM204 172h109q40 0 71.5 12t55.5 34.5 43 54 36 69.5q7 16 12.5 30.5L548 416 124 1493h217l311-830 308 830h213L761 425q-30-78-62.5-148T633 156q-23-35-50.5-63.5t-61.5-49-75.5-32T352 0H204v172z" /><glyph unicode="&#x4ef;" d="M317 1468h598v-148H317v148zM184-272h109q45 0 76 13.5t51 33.5q11 11 23.5 30t26.5 48.5 30.5 70T537 18L104 1120h195l332-876 327 876h195L858 360q-19-48-30.5-78.5t-20-51.5-14-37-12.5-34-16-43-24-64q-26-69-46-120.5T659.5-158t-28-65-24.5-47q-44-75-109.5-115.5T332-426H184v154z" /><glyph unicode="&#x4f0;" d="M369 1649q-30 0-30 30v143q0 30 30 30h143q30 0 30-30v-143q0-30-30-30H369zm392 0q-30 0-30 30v143q0 30 30 30h142q30 0 30-30v-143q0-30-30-30H761zM204 172h109q40 0 71.5 12t55.5 34.5 43 54 36 69.5q7 16 12.5 30.5L548 416 124 1493h217l311-830 308 830h213L761 425q-30-78-62.5-148T633 156q-23-35-50.5-63.5t-61.5-49-75.5-32T352 0H204v172z" /><glyph unicode="&#x4f1;" d="M349 1312q-30 0-30 30v142q0 30 30 30h143q30 0 30-30v-142q0-30-30-30H349zm392 0q-30 0-30 30v142q0 30 30 30h142q30 0 30-30v-142q0-30-30-30H741zM184-272h109q45 0 76 13.5t51 33.5q11 11 23.5 30t26.5 48.5 30.5 70T537 18L104 1120h195l332-876 327 876h195L858 360q-19-48-30.5-78.5t-20-51.5-14-37-12.5-34-16-43-24-64q-26-69-46-120.5T659.5-158t-28-65-24.5-47q-44-75-109.5-115.5T332-426H184v154z" /><glyph unicode="&#x4f2;" d="M561 1852h186l-229-264H364zm319 0h186l-229-264H683zM204 172h109q40 0 71.5 12t55.5 34.5 43 54 36 69.5q7 16 12.5 30.5L548 416 124 1493h217l311-830 308 830h213L761 425q-30-78-62.5-148T633 156q-23-35-50.5-63.5t-61.5-49-75.5-32T352 0H204v172z" /><glyph unicode="&#x4f3;" d="M535 1648h170l-224-376H344zm333 0h179l-248-376H664zM184-272h109q45 0 76 13.5t51 33.5q11 11 23.5 30t26.5 48.5 30.5 70T537 18L104 1120h195l332-876 327 876h195L858 360q-19-48-30.5-78.5t-20-51.5-14-37-12.5-34-16-43-24-64q-26-69-46-120.5T659.5-158t-28-65-24.5-47q-44-75-109.5-115.5T332-426H184v154z" /><glyph unicode="&#x4f4;" d="M339 1649q-30 0-30 30v143q0 30 30 30h143q30 0 30-30v-143q0-30-30-30H339zm392 0q-30 0-30 30v143q0 30 30 30h142q30 0 30-30v-143q0-30-30-30H731zM879 658q-52-26-95.5-42t-84-24.5T619 580t-85-3q-55 0-107 4.5T330 601t-82.5 42-64 71.5T142 824t-15 156v513h203v-487q0-84 14.5-132.5t44.5-73 76.5-31T577 763q46 0 82.5 3t71 13 70 29.5T879 861v632h203V0H879v658z" /><glyph unicode="&#x4f5;" d="M359 1323q-30 0-30 30v142q0 30 30 30h143q30 0 30-30v-142q0-30-30-30H359zm392 0q-30 0-30 30v142q0 30 30 30h142q30 0 30-30v-142q0-30-30-30H751zm86-857q-8-3-33-13.5T739.5 431 647 411t-116-9q-84 0-152 19.5t-115.5 62-73 109.5T165 755v367h184V755q0-64 19-102t52-58.5 77-26.5 93-6q37 0 69 2.5t61.5 9.5 58 18.5T837 621v501h184V0H837v466z" /><glyph unicode="&#x4f6;" d="M418 0H215v1493h924v-170H418V170h213v-492H418V0z" /><glyph unicode="&#x4f7;" d="M476 0H292v1120h752V936H476V184h195v-470H476V0z" /><glyph unicode="&#x4f8;" d="M366 1649q-30 0-30 30v143q0 30 30 30h143q30 0 30-30v-143q0-30-30-30H366zm392 0q-30 0-30 30v143q0 30 30 30h142q30 0 30-30v-143q0-30-30-30H758zM82 1493h202V893h91q97 0 179.5-28.5t143-84.5T792 640.5 826 447t-34.5-194-95-140-143-84.5T375 0H82v1493zm866 0h203V0H948v1493zM375 166q51 0 95 15.5t76 49.5 50.5 87T615 446q0 134-60 207.5T375 727h-91V166h91z" /><glyph unicode="&#x4f9;" d="M349 1321q-30 0-30 30v142q0 30 30 30h143q30 0 30-30v-142q0-30-30-30H349zm392 0q-30 0-30 30v142q0 30 30 30h142q30 0 30-30v-142q0-30-30-30H741zM104 1120h182V667h91q105 0 187.5-20.5t140-62.5 88-105T823 331q0-167-116-249T377 0H104v1120zm841 0h184V0H945v1120zM369 154q124 0 191 44t67 135q0 92-68 137.5T369 516h-83V154h83z" /><glyph unicode="&#x510;" d="M663-29Q538-29 440.5 1t-165 87-103 138.5T137 410q0 152 77.5 251T440 799q-132 34-2e2 114.5T172 1120q0 90 34.5 163.5t96.5 126 149.5 81.5 194.5 29q78 0 172-16t215-48v-186q-108 42-203.5 61T659 1350q-141 0-214-60.5T372 1118q0-116 77.5-176.5T667 881h154V715H667q-76 0-137-19.5T426 639t-66-91-23-122q0-136 89-210.5T684 141q96 0 194 25.5t201 79.5V45Q976 9 869-10T663-29z" /><glyph unicode="&#x511;" d="M693-22Q568-22 471 2T306.5 70.5 204 178.5 169 321q0 59 19.5 107t56 84 88 59.5T449 607q-120 25-184 89t-64 160q0 67 31.5 120.5T323 1068t143 58.5 189 20.5q158 0 368-48V932q-105 27-191 39.5T674 984q-142 0-216-42.5T384 830q0-68 71.5-111T663 676h166V532H670q-75 0-134-14t-1e2-40-62.5-62.5T352 334q0-91 90-143.5T707 138q99 0 189 17.5t168 51.5V34Q967 6 877-8T693-22z" /><glyph unicode="&#x51a;" d="M655-27h-8.5T635-28t-10-1h-5q-254 0-378.5 193T117 747q0 388 123.5 580.5T617 1520q252 0 375.5-192.5T1116 744q0-293-68.5-472.5T840 20l2e2-190-151-1e2zM616 135q83 0 136.5 37T838 277q16 33 28.5 76.5t21 101 13 130T905 747t-4.5 161.5T887 1037t-21.5 100.5T837 1215q-35 72-88.5 106.5T617 1356q-79 0-133-35t-88-107q-68-143-68-469 0-165 16.5-280T396 277q33-70 86.5-106T616 135z" /><glyph unicode="&#x51b;" d="M865 139Q819 54 743.5 10.5T563-33q-99 0-179 40T248 123t-86 184.5T132 554q0 137 30 246.5T248 986t136 116.5 179 40.5q103 0 179.5-43T865 973l18 143h167V-430H865v569zM595 123q134 0 202 109t68 323-68 323-202 109-201-108.5T327 555t67-323.5T595 123z" /><glyph unicode="&#x51c;" d="M0 1493h197L340 281l170 802h211l172-804 143 1214h197L1010 0H819L616 887 414 0H223z" /><glyph unicode="&#x51d;" d="M0 1120h182l195-905 160 578h157l162-578 195 905h182L971 0H795L616 614 438 0H262z" /><glyph unicode="&#x531;" d="M1044-60q-45 20-88 45t-88 54Q755-29 587-29 477-29 390.5.5T244 90q-61 60-93 151t-32 216v1036h202V395q0-45 9.5-90.5T369 221t81-62 138-24q74 0 128 20-61 54-108.5 107T532 366l137 92q28-51 69-98t95-92q13 31 17.5 63t4.5 64v1098h202V457q0-93-17.5-165.5T988 162q31-18 62.5-34t63.5-30l-70-158v0z" /><glyph unicode="&#x532;" d="M128 1036q0 125 32 215.5t93 150.5q60 59 144.5 88.5T596 1520q112 0 198.5-29t147.5-89q60-60 92-150.5t32-215.5V875H864v223q0 45-9.5 90t-38.5 83-81.5 61.5T596 1356t-137.5-23.5T378 1271t-38.5-83-9.5-90V621h774V451H330V0H128v1036z" /><glyph unicode="&#x533;" d="M821 451H552q-221 0-340 128-61 66-94 166T85 991q0 140 31.5 241t91.5 165 146 93.5 198 29.5q111 0 198-29.5t148-93.5q60-64 92.5-164.5T1023 988V621h125V451h-125V0H821v451zm0 170v437q0 55-10 108.5t-39 95.5-82 68-139 26-137.5-27-79.5-76-37.5-116.5T287 988t9.5-148.5T334 724q28-49 79.5-76T552 621h269z" /><glyph unicode="&#x534;" d="M790 1098q0 45-9.5 90t-38.5 83-81.5 61.5T522 1356t-137.5-23.5T304 1271t-38.5-83-9.5-90V875H54v161q0 125 32 215.5t93 150.5q60 59 144.5 88.5T522 1520q112 0 198.5-29t147.5-89q60-60 92-150.5t32-215.5V621h187V451H992V0H790v1098z" /><glyph unicode="&#x535;" d="M596-29Q486-29 399.5.5T253 90q-61 60-93 151t-32 216v1036h202v-373h774V950H330V395q0-45 9.5-90.5T378 221t80.5-62T596 135t138.5 24 81.5 62 38.5 83.5T864 395v223h202V457q0-125-32-216T942 90Q881 29 793 0T596-29z" /><glyph unicode="&#x536;" d="M140 331h203V170h51q52 0 109.5 24.5T620 265q61 48 116.5 112.5T834 522q48 90 70 187t22 213q0 96-17 182.5T850 1252q-38 54-94 79t-142 25q-83 0-141.5-24t-97.5-79-57.5-142.5T299 895v-20H96v20q0 173 40 291.5T245 1380t162.5 107.5T612 1520q114 0 206-33.5T981 1379q78-81 117-199.5t39-268.5q0-105-18.5-193T1066 551q-31-72-72.5-137T906 298q-45-51-88.5-83T738 170h359V0H140v331z" /><glyph unicode="&#x537;" d="M120 1493h203v-373h790V950H323V170h651V0H120v1493z" /><glyph unicode="&#x538;" d="M128 1036q0 125 32 216t93 151q60 60 146.5 89.5T596 1522q109 0 197-29t149-90q60-60 92-151t32-216V875H864v223q0 45-9.5 90.5T816 1272t-81.5 62-138.5 24-137.5-24-80.5-62-38.5-83.5-9.5-90.5V170h774V0H128v1036z" /><glyph unicode="&#x539;" d="M750-29q-70 0-129.5 25.5T516 76t-70 137.5T421 415t25 204 70 143 105.5 85T754 875h138v24q0 128-14 212t-48 139q-35 56-95 81-59 25-153 25-92 0-152-24t-96-78-50.5-139T269 909V0H73v934q0 290 135 440 66 73 160 109.5t213 36.5q122 0 216-38t158-111q65-74 99.5-184.5T1089 927v-52h131V7e2h-131V415q0-108-24.5-189.5T995 87Q948 27 886-1T750-29zm2 164q35 0 61.5 13.5T858 196q17 32 25.5 85t8.5 134v285H754q-36 0-61-13t-42-45-24-87q-4-28-6-62.5t-2-79.5q0-82 8-136t25-86q18-34 44.5-45t55.5-11z" /><glyph unicode="&#x53a;" d="M542-29Q424-29 338.5 7T193 115t-91.5 176.5T70 539q0 147 33.5 254.5T197 973q61 72 147.5 109.5T537 1120h269v373h202v-373h125V950h-125V504q0-140-31.5-241.5T883 95Q822 30 734.5.5T542-29zm-1 164q81 0 134 26t82 68 39 95.5T806 433v517H537q-87 0-138.5-32.5T319 828q-26-54-36.5-126T272 542q0-81 9.5-154T319 258t79.5-90T541 135z" /><glyph unicode="&#x53b;" d="M187 1493h202v-432q60 42 126.5 61t147.5 19q103 0 190-29.5t148-89.5q60-60 92-151t32-216V494H923v223q0 45-9.5 90.5T875 891t-81.5 62T655 977t-137.5-24-80.5-62-38.5-83.5T389 717V0H187v1493z" /><glyph unicode="&#x53c;" d="M184 1493h203V170h721V0H184v1493z" /><glyph unicode="&#x53d;" d="M806-29Q695-29 631-1T530 80q-39 56-53.5 140.5T462 425v520H279V0H93v1493h186v-373h369V401q0-75 6.5-126t24.5-82 48.5-44.5T806 135q49 0 78 14t44 44q15 31 20.5 82t5.5 126v719h186V425q0-120-13-204.5T1078 80q-37-56-101.5-82.5T806-29z" /><glyph unicode="&#x53e;" d="M626-29q-79 0-143 13T367 21.5t-91.5 59T206 159q-60 88-83 204.5T1e2 611q0 139 23 252.5t69 217.5H54v412h183v-245h52q96 128 229 2e2 66 35 141 53.5t170 18.5q47 0 94-4.5t88-13.5q42-9 81.5-23t81.5-31v-215q-108 70-2e2 97t-174 27q-94 0-167.5-29T502 1247q168-4 292-47.5t207-120.5q85-79 131-198t46-288q0-82-11.5-158.5T1130 291q-26-72-68.5-130.5T960 61Q897 17 814.5-6T626-29zm6 164q83 0 140 17.5t95 49.5 58.5 75 30.5 95q5 25 7.5 53.5t4 56.5 2 53.5.5 45.5q0 70-5 136.5T940 840q-20 54-56.5 97.5T784 1013q-64 32-157.5 50T399 1081h-12q-43-97-61.5-214T307 621v-36q0-54 1.5-104.5T318 383q9-57 27.5-101.5T399 205q36-33 92-51.5T632 135z" /><glyph unicode="&#x53f;" d="M883 431q-54-36-119-57.5T607 352q-106 0-191 30.5T272 471q-61 60-93 151t-32 216v655h202V776q0-45 9.5-90.5T397 602t80.5-62T615 516t138.5 24 81.5 62 38.5 83.5T883 776v344h202V0H883v431z" /><glyph unicode="&#x540;" d="M320 266q-60 24-102 47t-74 49q-34 28-53.5 59.5T71 494q0 61 52.5 140.5T297 816q52 44 115 90.5t133.5 93 146 91.5 153.5 87l-181 315h238l217-375q-111-53-212-109.5T719 898q-89-56-166.5-111T421 684q-29-26-49.5-46.5T335 598q-31-38-31-64 0-14 7.5-25t20.5-22q15-12 39-25t48-23l703-289V-54z" /><glyph unicode="&#x541;" d="M982-48Q947 6 911 54.5T839 148Q751 64 649 17.5T433-29q-69 0-128.5 18.5T2e2 46q-43 37-66.5 92T110 265t23.5 128.5T2e2 490q42 39 102 59.5T435 570q103 0 198.5-38.5T817 427q55 107 81.5 221.5T925 901q0 115-18.5 205.5T850 1252q-40 58-102 81t-137 23q-80 0-139-24t-98-79-57.5-142.5T298 895v-22H95v22q0 173 40 291.5T244 1380q69 74 163 107t202 33q110 0 206-33t166-105q72-74 113.5-193.5T1136 901q0-180-47.5-331.5T961 295q51-55 95-115t82-126zM438 133q68 0 140 37t137 109q-69 62-139.5 95.5T440 408q-68 0-104-36.5T3e2 269q0-65 35-100.5T438 133z" /><glyph unicode="&#x542;" d="M790 1098q0 45-9.5 90t-38.5 83-81.5 61.5T522 1356t-137.5-23.5T304 1271t-38.5-83-9.5-90V875H54v161q0 125 32 215.5t93 150.5q60 59 144.5 88.5T522 1520q112 0 198.5-29t147.5-89q60-60 92-150.5t32-215.5V170h187V0H790v1098z" /><glyph unicode="&#x543;" d="M363 0q-56 0-107 12t-91 42q-37 28-58 72T86 238q0 43 9.5 89.5t30 100.5T178 546t77 141q46 79 95 156t93 140l-293 510h228l194-338q141 175 281 270t293 95v-175q-109 0-228-91T668 988l473-824V0H363zM909 175 544 808q-29-45-57.5-92T429 618q-66-115-96.5-192.5T302 295q0-69 49-94.5T491 175h418z" /><glyph unicode="&#x544;" d="M554-29Q444-29 357.5.5T211 90q-61 60-93 151T86 457v1036h202V395q0-45 9.5-90.5T336 221t80.5-62T554 135t138.5 24 81.5 62 38.5 83.5T822 395v1098h389v-170h-187V457q0-125-32-216T9e2 90Q839 29 751 0T554-29z" /><glyph unicode="&#x545;" d="M656-29Q521-29 426 9.5T268 114t-92 151-29 182h210q0-66 16.5-122t52.5-98q35-41 90.5-66.5T657 135q80 0 137 23t94 64q35 38 53 91.5T959 430q0 130-78 202-39 35-95.5 54T656 705H64v170h592q66 0 112.5 21t76.5 57q29 35 42 79.5t13 95.5q0 116-62.5 172T655 1356q-117 0-177.5-56.5T417 1120H207q0 91 32 165t92 127 142 80.5 182 27.5q102 0 185-28t143-79q57-49 92-121t35-166q0-60-14.5-111t-40.5-93q-55-86-148-117 69-17 118-52.5t81-83.5 47.5-105 15.5-123q0-88-28.5-174T1047 113Q984 47 887.5 9T656-29z" /><glyph unicode="&#x546;" d="M709-29Q599-29 512.5.5T366 90q-61 60-93 151t-32 216v866H54v170h389V395q0-45 9.5-90.5T491 221t80.5-62T709 135t138.5 24 81.5 62 38.5 83.5T977 395v223h202V457q0-125-32-216t-92-151Q994 29 906 0T709-29z" /><glyph unicode="&#x547;" d="M625-29Q514-29 419 5.5T252 115 138 308.5 96 597q0 165 37.5 285.5T230 1082q57 76 126 116t136 42l-90 40q-57 25-111.5 34t-91.5 9h-45v170h123q51 0 114-13t135-43l507-213v-212l-244 103q-13 6-32.5 11.5T714 1137t-46.5 7.5-43.5 2.5q-145 0-231-150-23-39-38-82t-26-91q-22-1e2-22-230 0-246 77-354 39-55 98.5-80T624 135t140 24.5 96 78.5q38 55 56 142t18 216v22h203v-22q0-174-40-292T988 111Q919 37 825 4T625-29z" /><glyph unicode="&#x548;" d="M147 1036q0 125 32 216t93 151q60 60 146.5 89.5T615 1522q109 0 197-29t149-90q60-60 92-151t32-216V0H883v1098q0 45-9.5 90.5T835 1272t-81.5 62-138.5 24-137.5-24-80.5-62-38.5-83.5-9.5-90.5V0H147v1036z" /><glyph unicode="&#x549;" d="M2e2 267v212l238-101q16-7 36-13t42-10.5 44.5-7.5 43.5-3q78 0 137.5 39.5T841 494q20 35 36 79.5t27 94.5q22 98 22 229 0 246-77 354-39 55-98 80t-142 25q-80 0-138.5-24t-96.5-79q-39-55-57-142.5T299 895v-22H96v22q0 173 40 291.5T245 1380q69 74 163 107t2e2 33q111 0 206.5-34.5T982 1376q71-75 113-193.5t42-288.5q0-112-18-203t-49-163-70.5-124-84.5-86-89.5-50.5T741 251l232-99V-58z" /><glyph unicode="&#x54a;" d="M958 917q0 79-8.5 153T912 1204q-29 59-81.5 98.5T691 1351V475H501v876q-87-12-138.5-48t-80.5-93-38-131-9-162v-42H45v57q0 131 31 238.5t98 185.5 170.5 121 256.5 43q152 0 257.5-43t170.5-121 92-185.5 27-238.5V0H958v917z" /><glyph unicode="&#x54b;" d="M139 332h203V170h40q60 0 120.5 23T620 259q12 52 19 99t7 89q0 51-11 91.5T6e2 608q-17 20-37.5 31.5T521 657t-41.5 7.5T442 667q-61 2-124 10.5T2e2 721q-38 24-59 56t-32 70q-9 32-11 62t-2 51q0 75 10.5 139.5T141 1224q25 62 64 115t95 93q57 41 132.5 64.5T611 1520q150 0 249-51t160-136q31-44 53.5-94.5t36-105 20-110.5 6.5-111q0-140-34.5-255.5T1013 448q-56-95-128.5-168.5T737 170h359V0H139v332zm637 91q35 52 63 106.5T886 644t29 127 10 145q0 40-3 82.5t-10 83-18.5 77.5-28.5 67q-35 63-97.5 96.5T614 1356q-66 0-112.5-16t-79.5-42q-37-29-59.5-65t-35.5-72q-26-73-26-164 0-34 5.5-64.5T331 882q24-27 63.5-33t88.5-7q23-1 51.5-4t58-13 59.5-29 56-51q37-46 55.5-107T782 505q0-40-6-82z" /><glyph unicode="&#x54c;" d="M98 1036q0 125 32 215.5t93 150.5q60 59 144.5 88.5T566 1520q112 0 198.5-29t147.5-89q60-60 92-150.5t32-215.5V621h187V451h-187V0H834v1098q0 45-9.5 90t-38.5 83-81.5 61.5T566 1356t-137.5-23.5T348 1271t-38.5-83-9.5-90V0H98v1036z" /><glyph unicode="&#x54d;" d="M615-29Q505-29 418.5.5T272 90q-61 60-93 151t-32 216v1036h202V395q0-45 9.5-90.5T397 221t80.5-62T615 135t138.5 24 81.5 62 38.5 83.5T883 395v1098h202V457q0-125-32-216T961 90Q9e2 29 812 0T615-29z" /><glyph unicode="&#x54e;" d="M769 431q-54-36-119-57.5T493 352q-106 0-191 30.5T158 471q-61 60-93 151T33 838v282h202V776q0-45 9.5-90.5T283 602t80.5-62T501 516t138.5 24 81.5 62 38.5 83.5T769 776v717h202V170h228V0H769v431z" /><glyph unicode="&#x54f;" d="M631-29Q509-29 411.5 5.5T245 103 140.5 252.5 105 447h210q0-146 91-231 87-81 225-81 134 0 214 75 38 35 60.5 87T928 415q0 74-30.5 123T809 622q-54 33-122.5 56T546 725q-78 26-142.5 54T284 852q-54 45-87 108t-33 160q0 81 26.5 153.5T273 1401t139 87 199 32 202-32 143-87 84.5-127.5T1068 1120H858q0 52-14 95.5t-44 74.5-76 48-112 17q-64 0-110.5-16.5T425 1293q-32-32-46.5-74t-14.5-85q0-58 22-96t57-64q38-29 87.5-49T633 887q37-13 54-18.5t25-8.5 13.5-4.5T746 849q53-17 110.5-42.5T961 749q48-33 86-77.5t59-107.5q21-62 21-141 0-99-32.5-181T999 1e2Q936 39 844 5T631-29z" /><glyph unicode="&#x550;" d="M147 1036q0 125 32 216t93 151q60 60 146.5 89.5T615 1522q109 0 197-29t149-90q60-60 92-151t32-216V875H883v223q0 45-9.5 90.5T835 1272t-81.5 62-138.5 24-137.5-24-80.5-62-38.5-83.5-9.5-90.5V0H147v1036z" /><glyph unicode="&#x551;" d="M656-29Q525-29 430 8T269 114t-94 154-28 179h210q0-65 15.5-120.5T425 227t93.5-68T656 135q86 0 143.5 26t92.5 68q35 43 51 99.5T959 441q0 65-20 112t-58 81-94 52.5T658 705H64v170h273q-32 17-56 45.5T240 983t-25.5 69.5-8.5 77.5q0 78 30.5 151.5T326 1409q55 51 137 81t194 30q107 0 191-28.5t143-81.5 89-127 30-162q0-61-14.5-111t-40.5-91q-55-83-148-114 69-17 118-53.5t81-85.5 47.5-105 15.5-121q0-89-29-174t-92-151Q984 47 887 9T656-29zm0 904q69 0 115 20.5t75 54.5 41.5 77 12.5 94q0 44-10.5 88.5T851 1286q-14 16-33.5 29.5T777 1337q-23 9-51 14t-66 5q-75 0-121.5-19t-73.5-51q-26-32-37.5-74t-11.5-93q0-47 10.5-91.5T464 950q27-34 74.5-54.5T656 875z" /><glyph unicode="&#x552;" d="M155 1493h203v-373h760V945H358V0H155v1493z" /><glyph unicode="&#x553;" d="M518 158q-132 6-219 48T159 329q-48 74-68.5 179T70 763q0 142 19.5 251.5T160 1202q51 79 137 121.5t221 47.5v122h193v-122q135-5 222-48t138-121 71-187.5 20-249.5-20-250-71-188-138-121.5T711 157V0H518v158zm0 1045q-73-3-121.5-26.5T319 1102q-30-52-42-134.5T265 766q0-120 12-203.5T320 423q29-54 76.5-79T518 316v887zM711 316q73 3 122 28.5t78 79.5 41 137 12 204-12 203-41 134q-29 51-78 74.5T711 1203V316z" /><glyph unicode="&#x554;" d="M227 244H36v175h191v661q0 96 27.5 175.5T340 1395q60 61 148 93t208 32q126 0 214-33.5t145-93.5 84-140 27-177-27-176-85-139q-56-57-140.5-92T716 634q-45 0-84.5 6.5T554 661q-84 32-125 84V419h724V244H429V0H227v244zM706 798q78 0 127 20.5t77 54.5q29 36 41 88t12 116-12 114.5-42 87.5q-30 38-81 57-54 20-130 20-78 0-129.5-20t-82.5-56-43.5-86.5T430 1083q0-66 14.5-116.5T491 878t84.5-59T706 798z" /><glyph unicode="&#x555;" d="M615-29q-251 0-374.5 190.5T117 744t123.5 584T616 1520q253 0 376.5-192T1116 745q0-390-124-582T615-29zm1 164q83 0 136.5 37T838 277q16 33 28.5 76.5t21 101 13 130T905 747t-4.5 161.5T887 1037t-21.5 100.5T837 1215q-35 72-88.5 106.5T617 1356q-79 0-133-35t-88-107q-68-143-68-469 0-165 16.5-280T396 277q33-70 86.5-106T616 135z" /><glyph unicode="&#x556;" d="M628-29q-122 0-205.5 12T279 24q-67 32-108 84.5T108 229 78.5 374.5 71 537v19h194v-19q0-54 2-97.5t6.5-79.5 12.5-65 21-54q26-51 75.5-79.5T518 133v819q-197 0-287 66t-90 205q0 69 21.5 120t69.5 85q93 65 297 65h182v-373q69-3 123-13.5t96.5-28.5 74.5-42.5 57-56.5q57-74 78.5-184.5T1162 540q0-88-8.5-166T1122 229q-23-65-63.5-118.5T955 24Q896-7 814-19q-42-6-91-8t-95-2zM518 1329q-48 0-81-3.5t-54-14.5-31-32-10-56 10-55 31-31 54-14 81-3v209zM711 133q82 0 132 26.5t77 77.5 35.5 125.5T964 542q0 104-8.5 181.5T920 852t-77 74-132 23V133z" /><glyph unicode="&#x559;" d="M754 1007q-58 0-108 21.5t-87 58.5-58 87.5-21 107.5 21 107 58 87 87 58.5 108 21.5v-123q-32 0-59.5-12t-48-32-32.5-48-12-59q0-32 12-59.5t32.5-48 48-32.5 59.5-12v-123z" /><glyph unicode="&#x55a;" d="M552 1341v152h211v-152l-164-319H470z" /><glyph unicode="&#x55b;" d="M659 1645h198l-325-376H378z" /><glyph unicode="&#x55c;" d="M225 1265q0 60 20.5 114t57.5 98q42 49 93.5 77.5T504 1597q6 2 30.5 7.5T615 1623q28 6 56.5 15.5t55 22.5 49.5 29 41 36q17 19 27 42.5t11 60.5h152q0-57-19-110.5t-55-98.5q-38-48-86.5-75.5T747 1501q-29-9-66.5-17.5T614 1469t-59-14-57-19.5-49.5-26T410 1375q-14-18-23.5-44.5T377 1265H225v0z" /><glyph unicode="&#x55d;" d="M377 1638h198l281-376H702z" /><glyph unicode="&#x55e;" d="M792 1256q-42 0-82 10t-77 35q-34 23-61 59.5t-41 93.5h165q5-29 30.5-45t60.5-16q26 0 45.5 8.5T864 1424q21 25 21 73 0 40-15 71.5t-41 52.5q-53 42-139 42-23 0-48-3t-49-10l-2-1q-130-32-192.5-129.5T336 1265H178q0 120 27.5 207t78.5 153q54 69 124.5 111t151.5 62q61 15 127 15 69 0 133-17.5t117-56.5q52-38 84.5-97t32.5-138q0-59-18-103t-49-74q-34-33-83-52t-112-19z" /><glyph unicode="&#x55f;" d="M188 1556h140v-169h716v-122H188v291z" /><glyph unicode="&#x561;" d="M344-27q-62 0-108 22t-77 81q-14 27-24.5 63T117 222.5t-10.5 109T103 471v649h168V479q0-119 6-192 3-37 8-66.5t17.5-50.5 34-32 57.5-11q45 0 69.5 16t38.5 45q16 32 23.5 1e2t7.5 191v641h168V479q0-74 2-124.5t6-84.5 9.5-54 11.5-33q13-26 37.5-41t64.5-15q43 0 65.5 17t34.5 44q17 37 23.5 108t6.5 183v641h167V0H962v96Q894-27 764-27q-68 0-120.5 33.5T562 114Q527 42 476.5 7.5T344-27z" /><glyph unicode="&#x562;" d="M193 1120h184V952q49 97 133 146t199 49q173 0 256.5-111.5T1049 694V450H864v244q0 151-52.5 222T646 987q-131 0-2e2-90t-69-264V143h682V0H377v-426H193v1546z" /><glyph unicode="&#x563;" d="M806 139Q761 54 685.5 10.5T506-33Q406-33 326 7.5T189 124q-57 77-86.5 184T73 552q0 138 29.5 247T189 985t137 117.5 180 40.5q102 0 178-42.5T806 973l18 147h167V143h168V0H991v-426H806v565zM536 123q135 0 202.5 108.5T806 555t-67.5 323.5T536 987q-134 0-201-108-67-109-67-324 0-432 268-432z" /><glyph unicode="&#x564;" d="M855 694q0 151-52.5 222T637 987q-131 0-2e2-90t-69-264V0H184v1120h166l18-168q49 97 133 146t199 49q173 0 256.5-111.5T1040 694V143h148V0h-148v-426H855V694z" /><glyph unicode="&#x565;" d="M522-29Q349-29 266.5 83T184 424v1132h184v-436h721V977H368V424q0-151 53.5-222T587 131q132 0 2e2 90.5T855 485v235h185V0H855v168Q806 71 722.5 21T522-29z" /><glyph unicode="&#x566;" d="M836 139Q791 54 715.5 10.5T536-33Q436-33 356 7.5T219 124q-57 77-86.5 184T103 552q0 138 29.5 247T219 985t137 117.5 180 40.5q102 0 178-42.5T836 973l18 147h167V-281h168v-145H836v565zM566 123q135 0 202.5 108.5T836 555t-67.5 323.5T566 987q-134 0-201-108-67-109-67-324 0-432 268-432z" /><glyph unicode="&#x567;" d="M227 1556h184v-436h634V977H411V148h549V0H227v1556z" /><glyph unicode="&#x568;" d="M183 1120h166l18-168q49 97 133 146t199 49q173 0 256.5-111.5T1039 694V0H854v694q0 151-52.5 222T636 987q-131 0-2e2-90t-69-264v-916h682v-143H183v1546z" /><glyph unicode="&#x569;" d="M106 1120h166l18-170q34 58 70.5 96t79.5 61q77 40 190 40 117 0 2e2-41.5T972 988q61-79 94.5-187.5T1105 559h101V416h-104q-11-131-46.5-216.5T969 63 857.5-8.5 731-29q-69 0-126 19.5T506 47t-63.5 89T421 255q0 77 26.5 134.5T518 485t1e2 56 116 18h201q-2 109-25.5 188T847 879q-86 116-256 116-71 0-128.5-21T367 908t-57.5-116T290 619V-426H106v1546zM731 107q40 0 72.5 16t58.5 53q26 38 43.5 96T930 416H734q-26 0-51-10t-45-30q-20-21-32.5-51.5T593 254q0-30 8-56.5t25-46.5q16-19 41-31.5t64-12.5z" /><glyph unicode="&#x56a;" d="M551-29q-123 0-208.5 44T201 138q-57 81-82.5 188T93 554q0 120 25 220t80 178q55 77 141.5 122.5T549 1120h277v436h185v-436h168V977h-168V505q0-115-26.5-212T901 124 756.5 11.5 551-29zm4 156q67 0 119 29t87 87q33 56 49 135t16 181v418H551q-60 0-107.5-29T361 865t-54-131-19-182q0-94 16-173.5T353 242q67-115 202-115z" /><glyph unicode="&#x56b;" d="M188 1556h184V952q49 97 133 146t199 49q173 0 256.5-111.5T1044 694V0H859v694q0 151-52.5 222T641 987q-131 0-2e2-90t-69-264V-426H188v1982z" /><glyph unicode="&#x56c;" d="M407 1120h184V-283h395v-143H407v1546z" /><glyph unicode="&#x56d;" d="M104 1556h167v-532q35 62 83.5 92.5T472 1147q67 0 112.5-28t71.5-81q26-54 35-130.5t9-176.5V479q0-74 2-124.5t6-84.5 9.5-54 11.5-33q13-26 37.5-41t64.5-15q43 0 65.5 17t34.5 44q17 37 23.5 108t6.5 183v641h167V0H961v96q-35-62-83.5-92.5T760-27q-67 0-112 28t-71 81q-26 54-35.5 130.5T532 389v252q0 73-2 124t-6 85-9.5 54-11.5 33q-13 26-37.5 41T401 993q-43 0-65.5-17T301 932q-17-37-23.5-108T271 641V-426H104v1982z" /><glyph unicode="&#x56e;" d="M615-29q-126 0-215 43.5T253 132q-60 75-88 177.5T137 536q0 135 30.5 236T251 944t122 111.5 150 55.5l-271 179 207 289 148-98-106-151 321-210h271V950h-90q32-48 51.5-105t28.5-111q4-27 7-54t4-51 1.5-43 .5-30q0-138-27.5-243.5T981 132Q924 60 833 15.5T615-29zm-1 156q78 0 134 32t91 89q31 52 46.5 127T901 561q0 12-.5 33.5t-2.5 47-5.5 54.5-10.5 56q-13 53-40 104.5T769 950H616q-78 0-132.5-32.5T395 828t-49.5-132.5T330 535q0-83 15-157t49-130q35-59 89.5-90T614 127z" /><glyph unicode="&#x56f;" d="M859 168Q810 71 726.5 21T526-29Q353-29 270.5 83T188 424v1132h184V424q0-151 53.5-222T591 131q132 0 2e2 90.5T859 485v635h185V-426H859v594z" /><glyph unicode="&#x570;" d="M189 1556h184V952q49 97 133 146t199 49q172 0 256-112t84-341V0H860v694q0 151-52.5 222T642 987q-131 0-2e2-91t-69-263V0H189v1556z" /><glyph unicode="&#x571;" d="M540-30q-89 0-158 32.5T265 95t-73.5 142T166 419q0 196 97.5 371T544 1121q-57 7-99 29.5t-70 54.5-41.5 70.5T320 1355q0 32 8.5 63t26.5 59l51 79h199l-57-85q-32-49-32-97 0-55 38-93 18-18 43-28.5t57-10.5 65 11q27 18 55 36t57 35v-177q-21-13-41.5-26.5T748 1093q90-53 150-116.5T993 841q35-73 49-155t14-173V0H872v172q-20-45-51.5-81.5T747 27q-40-26-92-41.5T540-30zm54 161q72 0 126 27.5t88 74.5q32 44 48 105t16 132v86q0 51-10 111.5T825 788t-74.5 113.5T628 994q-61-57-108.5-116.5T436 750q-37-69-58-143t-21-159q0-65 13.5-123T413 223q30-46 74-69t107-23z" /><glyph unicode="&#x572;" d="M865 694q0 151-52.5 222T647 987q-131 0-2e2-90t-69-264V0H194v1120h166l18-168q49 97 133 146t199 49q173 0 256.5-111.5T1050 694v-977h149v-143H865V694z" /><glyph unicode="&#x573;" d="M553-29q-96 0-162 32.5T280 92q-46 57-68.5 132.5T189 410q0 61 7 131.5T217 686t34.5 148T299 977H154v143h210q51 94 113 174t137 139 161.5 91 180.5 32q27 0 51-3 11-2 20-3.5t17-4.5v-151q-20 9-48 14t-54 5q-57 0-110.5-22.5T732 1333q-49-38-96.5-93.5T549 1116q121-10 216.5-49.5T929 960t104-158 36-206V0H903l-18 168q-24-45-55-80.5T758 26t-91.5-40.5T553-29zm61 160q78 0 129 30t83 79q32 48 45.5 108.5T885 470v139q0 76-22.5 140.5T791 862t-126 77-186 36q-26-61-45.5-127.5T401 713t-20-134.5-7-127.5q0-53 5-93t14.5-70.5 23-52.5 30.5-40q63-64 167-64z" /><glyph unicode="&#x574;" d="M482-29Q309-29 226.5 83T144 424v696h184V424q0-151 53.5-222T547 131q132 0 2e2 90.5T815 485v1071h353v-143H1e3V0H833l-18 168Q766 71 682.5 21T482-29z" /><glyph unicode="&#x575;" d="M217-270h234q180 0 180 250v1140h184V-20q0-197-88.5-301.5T471-426H217v156z" /><glyph unicode="&#x576;" d="M530-29Q357-29 274.5 83T192 424v989H24v143h352V424q0-151 53.5-222T595 131q132 0 2e2 90.5T863 485v635h185V0H881l-18 168Q814 71 730.5 21T530-29z" /><glyph unicode="&#x577;" d="M352-426q-42 0-76 13.5T218-375q-24 23-37 54.5T168-255q0 54 31 109t79 110T389.5 81 519 206q69 66 130.5 130T761 467q51 68 80 134t29 139q0 51-17 99t-59 85q-38 34-92 52t-117 18q-47 0-83-10t-68-27q-35-19-65.5-46T316 850L180 951q72 92 172.5 144.5T594 1148q97 0 183-27t149-81q64-55 96-130.5t32-163.5q0-85-28-158.5T949 440q-51-76-111-143T717 168l-24.5-24.5t-31.5-31-34.5-33T594 49L540-3t-51.5-50.5-45-47T409-142q-29-39-29-65 0-8 3.5-21t13.5-25 26-21 42-9h539v-143H352v0z" /><glyph unicode="&#x578;" d="M189 1120h166l18-168q49 97 133 146t199 49q172 0 256-112t84-341V0H860v694q0 151-52.5 222T642 987q-131 0-2e2-91t-69-263V0H189v1120z" /><glyph unicode="&#x579;" d="M412-426q-34 0-63.5 10T293-383q-24 22-37.5 53T242-250q0 55 17 123t47 140 72 147.5T466 302q48 69 102 133.5T675 551q-45 0-99.5 16T473 618t-80.5 88.5T360 836q0 60 24.5 121.5T464 1074l95 96 123-113-31-30q-47-45-76.5-93T545 839q0-41 21.5-68t52.5-44q33-19 73.5-27.5T773 691q35 0 65.5 5.5T892 711l63-113q-112-91-206.5-197.5T585 187q-35-53-62-104t-45.5-97.5-28.5-87-10-71.5q0-46 24-77 11-15 27-24t37-9h463v-143H412v0z" /><glyph unicode="&#x57a;" d="M957 96Q889-27 759-27q-68 0-120.5 33.5T557 114Q522 42 471.5 7.5T339-27q-62 0-108 22t-77 81q-14 27-24.5 63T112 222.5t-10.5 109T98 471v649h168V479q0-119 6-192 3-37 8-66.5t17.5-50.5 34-32 57.5-11q45 0 69.5 16t38.5 45q16 32 23.5 1e2t7.5 191v641h168V479q0-74 2-124.5t6-84.5 9.5-54 11.5-33q13-26 37.5-41t64.5-15q43 0 65.5 17t34.5 44q17 37 23.5 108t6.5 183v641h167V-426H957V96z" /><glyph unicode="&#x57b;" d="M363-426q-38 0-71.5 13T234-380t-39 49.5-15 69.5q0 39 14.5 76t37 71.5T281-47t53 61q21 23 39.5 49t29.5 70q8 29 9.5 55.5T414 233q0 33-3 60t-10 52-19 49.5-31 51.5q-14 21-30 41.5T291 525q-38 47-63 84t-42 79q-8 20-13 43t-5 53q0 76 35 143.5t97 118.5q57 47 135.5 74.5T610 1148q41 0 83.5-6t84-18.5T858 1091t74-48q66-54 99.5-126.5T1065 753q0-88-29-163.5T960 442q-48-74-108-141T728 170q-27-27-59-58t-64-61l-66.5-63t-50-49-38-40.5T420-139q-14-20-21.5-36.5T391-209q0-20 9.5-34.5T423-267t27.5-12.5T476-283h539v-143H363zM512 188q63 61 128.5 126T760 448t87.5 140T881 740q0 60-20.5 107.5T802 928q-39 34-90 50t-108 16q-54 0-97-13.5T432 941q-36-29-56-68t-20-81q0-29 12-61.5t42-77.5q16-23 30.5-43t18.5-25q26-35 50-74.5t38-77.5q15-41 15-85 0-80-50-160z" /><glyph unicode="&#x57c;" d="M182 1120h166l18-172q49 1e2 130 149.5t199 49.5q103 0 173.5-34.5T984 1015t66.5-150 21.5-188q0-79-13-152.5T1017 383q-27-64-68-123t-95-117h297V0H636v132q63 52 109 106.5T821 354q29 58 44 125t15 154q0 68-12 133t-45 117q-32 50-80.5 77T625 987q-68 0-115-26t-79-71-48.5-106T366 653V0H182v1120z" /><glyph unicode="&#x57d;" d="M528-29Q356-29 272.5 83T189 424v694h184V424q0-151 53.5-222T592 131q131 0 199.5 91T860 485v633h185V0H878l-18 168Q811 71 727 21T528-29z" /><glyph unicode="&#x57e;" d="M853 168Q804 71 720.5 21T520-29Q347-29 264.5 83T182 424v696h184V424q0-151 53.5-222T585 131q132 0 2e2 90.5T853 485v1071h185V-281h172v-145H853v594z" /><glyph unicode="&#x57f;" d="M333-27Q203-27 150 80q-26 54-36 132t-10 181v727h168V479q0-74 2-124.5t6-84.5 9.5-54 11.5-33q13-26 37.5-41t64.5-15q43 0 65.5 17t34.5 44q17 37 23.5 108t6.5 183v641h167v-96q37 66 86 94.5t115 28.5q129 0 182-107 26-54 36-132t10-181V0H961v641q0 71-2 121.5t-6 85-9 55.5-11 34q-14 29-41.5 42.5T828 993q-34 0-55.5-11.5T738 949t-19.5-49-10.5-61q-4-32-6-73t-2-92V0H533v96q-37-66-86-94.5T333-27z" /><glyph unicode="&#x580;" d="M188 1120h166l18-168q49 97 133 146t199 49q173 0 256.5-111.5T1044 694V0H859v694q0 151-52.5 222T641 987q-131 0-2e2-90t-69-264V-426H188v1546z" /><glyph unicode="&#x581;" d="M597-440q-76 0-158.5 14T272-385v182q50-23 94.5-40t84.5-28 77.5-16.5T603-293q145 0 212 82.5T882 45v133Q840 87 765 39.5T581-8Q481-8 400.5 33T264 149t-86.5 182T147 570t30 238.5T263.5 990t137 116 181.5 41q103 0 178.5-43.5T882 971l18 145h166V72q0-254-118.5-383T597-440zm19 585q132 0 199 108t67 316-67 315-2e2 107q-132 0-203-106.5T341 570q0-209 71.5-317T616 145z" /><glyph unicode="&#x582;" d="M309 1120h184V143h550V0H309v1120z" /><glyph unicode="&#x583;" d="M533 96q-37-66-86-94.5T333-27Q203-27 150 80q-26 54-36 132t-10 181v727h168V479q0-74 2-124.5t6-84.5 9.5-54 11.5-33q13-26 37.5-41t64.5-15q43 0 65.5 17t34.5 44q17 37 23.5 108t6.5 183v1077h167v-532q37 66 86 94.5t115 28.5q129 0 182-107 26-54 36-132t10-181V0H961v641q0 71-2 121.5t-6 85-9 55.5-11 34q-14 29-41.5 42.5T828 993q-34 0-55.5-11.5T738 949t-19.5-49-10.5-61q-4-32-6-73t-2-92V-426H533V96z" /><glyph unicode="&#x584;" d="M199-327H79v143h120v1304h167l18-143q46 85 122 127.5t178 42.5q1e2.0 180-40.5T1001 989t86.5-186 29.5-248q0-134-28.5-241.5T1002 128Q945 52 865.5 11.5T683-29q-208 0-299 170v-325h754v-143H384v-99H199v99zM656 127q134 0 201 109 67 107 67 323 0 432-268 432-136 0-204-108.5T384 559t68-323.5T656 127z" /><glyph unicode="&#x585;" d="M616-29q-235 0-357 149.5T137 558q0 143 31 253t92 184.5 150 113 206 38.5 206.5-38.5 150-113 92-184.5 31.5-253q0-286-123-436.5T616-29zm0 156q142 0 213.5 109T901 559q0 215-71.5 323.5T616 991q-141 0-212.5-108.5T332 559q0-214 71.5-323T616 127z" /><glyph unicode="&#x586;" d="M481-5q-80 0-142.5 16T223 53q-56 28-103.5 66.5T25 210l123 128q33-45 68.5-81.5T292 194q43-29 88.5-42.5T481 138v814q-99 0-176 22.5T173 1037t-84 96-29 125q0 68 28.5 124.5T174 1479q112 77 316 77h175v-441q139 0 235.5-35.5T1059 975t90-168.5 28-228.5-28-236-89-185T902 37 665-5v-421H481V-5zm0 1419q-125 0-183-39.5T240 1268q0-72 61-112.5t180-40.5v299zM665 138q94 0 157.5 33T925 263q38 59 54.5 138.5T996 578q0 88-14 158t-52 118-101.5 73T665 952V138z" /><glyph unicode="&#x587;" d="M450-29Q277-29 194.5 83T112 424v1132h184V424q0-151 53.5-222T515 131q132 0 2e2 90.5T783 485v635h185V143h232V0H783v168Q734 71 650.5 21T450-29z" /><glyph unicode="&#x589;" d="M541 596q-30 0-30 30v194q0 30 30 30h151q30 0 30-30V626q0-30-30-30H541zM541 0q-30 0-30 30v194q0 30 30 30h151q30 0 30-30V30q0-30-30-30H541z" /><glyph unicode="&#x58a;" d="M356 643q64-31 127-45.5T610 583q66 0 132.5 15.5T877 643V479q-68-29-134.5-44T609 420q-63 0-126.5 14.5T356 479v164z" /><glyph unicode="&#xe3f;" d="M560 0H184v1306h376v250h1e2v-251q90-5 165-26.5t129-62 84.5-101.5 30.5-144q0-121-64.5-188T817 699q145-20 224-110t79-233q0-173-120-260T660 1v-302H560V0zm0 767v394H380V767h180zm1e2 2q46 4 85.5 15.5T813 819t44 60 16 92q0 51-14 85.5t-41.5 56-67 32.5-90.5 14V769zM560 145v479H380V145h180zm1e2 1q66 3 115.5 16.5T858 203t49.5 69T924 375q0 65-18.5 110.5T853 560t-83 43.5T660 622V146z" /><glyph unicode="&#x10d0;" d="M609 0Q497 0 413 30t-140.5 86.5T188 254t-28 184q0 31 3 58t12 53 24.5 52.5T240 660h190q-26-31-42-55.5t-26-48-13.5-48.5-3.5-55q0-71 17-127.5t51-97 85-62T617 145q136 0 204 84.5T889 466q0 116-43.5 188.5T7e2 768q-293 102-294 378h181q2-161 127-212 97-37 166-81t112-100.5 63-126 20-157.5q0-109-29-196t-87.5-147.5-145.5-93T609 0z" /><glyph unicode="&#x10d1;" d="M621 0Q391 0 275 138T159 531q0 117 24.5 205t73 152T378 993t170 63v138q0 41-14.5 66.5t-38 41.5-52.5 24.5-57 15.5q-71 17-106 67t-35 149h181q0-89 126-116 161-57 161-242v-144q92-32 160.5-77.5t113.5-110 67-149.5 22-195q0-126-28.5-223.5t-85-164T820.5 35 621 0zm-1 145q136 0 202 101t66 292q0 193-66.5 285.5T617 916q-272 0-272-374 0-193 69-295t206-102z" /><glyph unicode="&#x10d2;" d="M638-425q-137 0-236.5 39t-164 103.5-95.5 146T111 31q0 88 32.5 173T243 356t168.5 109T651 509q25 19 45 44.5t34.5 54T753 667t8 61q0 35-11.5 66.5T712 850t-67 38.5T544 903q-88 0-133-34.5T366 762q0-42 15-87l-137-82q-23 38-34.5 84.5T198 775q0 137 86 203.5t270 66.5q193 0 291-72.5T943 752q0-81-30-143.5T821 504v-20q151-56 225.5-164T1121 40q0-116-33-203t-95-145.5T841.5-396 638-425zM616-276q163 0 245 80t82 225q0 89-28 152.5T841 286t-104.5 60.5T617 366t-120-19.5T392 286t-74.5-105T289 28q0-144 81.5-224T616-276z" /><glyph unicode="&#x10d3;" d="M780-425q-51 94-125 135t-155 41q-63 0-123.5-21.5T265-330l-44 105q41 44 124 62v11Q199-13 127 172T55 571q0 235 85 349.5T381 1035q28 0 52-4.5t46-15.5 44-30 47-48h20q60 98 229 98 359 0 359-469v-20q0-506-343-506-345 0-345 527v234q0 93-73 93h-43q-129 0-129-316V469q0-127 23-219t65-157.5 100.5-110T562-95q80-38 141-68.5t110-66 89.5-81.5T982-424zm51 610q81 0 119.5 61.5T989 441v212q0 241-149 241h-71q-119 0-119-182V465q0-141 46.5-210.5T831 185z" /><glyph unicode="&#x10d4;" d="M631-425q-117 0-205.5 26.5t-147.5 76-88.5 121T160-40q0 41 7 76t23 66.5 43 61.5 68 62h188q-36-30-63-59t-45-60-27-65.5-9-75.5q0-117 72-183t218-66q264 0 264 241v676q0 137-59.5 203T657 903q-113 0-172.5-55T425 681q0-111 62-212l-176-1q-30 40-43 94t-13 108q0 94 34 164.5T379.5 952t128 70 146.5 23q79 0 154.5-25.5T943 943t95.5-128.5T1075 633V-32q0-198-109.5-295.5T631-425z" /><glyph unicode="&#x10d5;" d="M624-425q-117 0-204.5 26.5t-145.5 76-87 120T158-43q0 32 4.5 58.5T179 68t32.5 54 53.5 63h192q-34-38-56-66.5T366.5 65t-17-49-4.5-52q0-115 68.5-181T625-283q127 0 196 55.5T890-60v98q0 243-237 243h-73v140h73q57 0 99 20.5t70.5 54.5 42.5 78 14 92q0 44-12.5 86.5t-42 76-76.5 54T632 903q-51 0-95-12.5T461.5 853 412 790t-18-88q0-39 11.5-93T440 493H279q-60 82-60 208 0 172 109 258t311 86q217 0 322-96t105-273q0-62-13-110.5t-41-86.5-71-68.5T837 355v-20q237-44 237-301v-79q0-191-115-285.5T624-425z" /><glyph unicode="&#x10d6;" d="M640 0Q183 0 183 503q0 331 2e2 405v20q-107 32-153 105t-46 191q0 165 84 248.5t257 83.5q171 0 256-81t85-236q0-82-23.5-142.5T773 993v-20q326-45 326-468Q1099 0 640 0zM533 983q90 0 133 55t43 151q0 61-15.5 104t-40.5 70-57.5 39.5T530 1415q-34 0-66.5-13t-57.5-40.5-40-69.5-15-1e2q0-98 45.5-153.5T533 983zM641 145q136 0 204.5 91.5T914 493q0 1e2-23 172.5t-61.5 119-87 68.5-99.5 22-1e2-22-87-68.5T394.5 665 371 491q0-165 67.5-255.5T641 145z" /><glyph unicode="&#x10d7;" d="M409 0Q235 0 140 130T45 519v30q0 242 94 364t280 122q74 0 129-22t95-77h14q43 56 90.5 77.5T855 1035q151 0 232-112.5t81-338.5v-67q0-350-239-517H767q212 174 212 496v117q0 281-132 281h-33q-83 0-83-182V492q0-254-79-373T409 0zm-4 145q165 0 165 243v361q0 75-16.5 110T502 894l-87-1q-91-1-135.5-66.5T235 621V432q0-148 41.5-217.5T405 145z" /><glyph unicode="&#x10d8;" d="M396 0Q272 108 216 244.5T160 551q0 494 459 494 455 0 455-491 0-174-58-312.5T834 0H688q49 63 86.5 133.5t63 143.5T876 423.5 889 565q0 71-15 132.5t-47.5 107-84 71.5T618 902q-129 0-200.5-87.5T346 552q0-284 198-552H396v0z" /><glyph unicode="&#x10d9;" d="M630-423q-236 0-354 106.5T158-16q0 39 5.5 73t18.5 65 34.5 60 53.5 59h173q-25-29-43.5-58T369 124t-18-63-6-71q0-130 71-201t213-71q259 0 259 252v50q0 272-238 272h-65v152h65q115 0 171.5 50T878 635q0 121-102.5 179T456 872v154q301 0 451.5-96.5T1058 652q0-54-14-97t-45.5-76-82.5-56.5T792 385v-20q139-24 211.5-109.5T1076 20v-50q0-393-446-393z" /><glyph unicode="&#x10da;" d="M762-425q-12 56-40 98.5t-66.5 71T572-213t-91 14q-53 0-100.5-18.5T299-274l-77 95q61 90 174 104l13 14Q284 69 222 232.5T160 574q0 238 113 354.5T612 1045q233 0 347.5-117.5T1074 593q0-42-4-70.5t-11.5-51.5-18.5-43.5-25-44.5q-16-28-30-66.5T971 212q0-20 1.5-38t3.5-38l-159-1q-6 48-6 90 0 30 2.5 52t7 39.5 10 31.5 12.5 28q10 21 18.5 41t14.5 43.5 9.5 51.5 3.5 66q0 166-67.5 246T615 904t-204.5-84T345 558q0-127 29-226t73.5-175.5 98-133T649-73q57-47 111.5-92.5t97-90 68.5-87 26-82.5H762v0z" /><glyph unicode="&#x10db;" d="M616 0Q382 0 264 130.5T146 525q0 260 115.5 390.5T598 1046q105 0 170-30t101-95h20v258q0 62-24.5 107t-64 74-89.5 42.5-101 13.5q-45 0-88-10.5t-76-30-53-48-20-64.5v-62H186v62q0 294 415 294 463 0 463-378V495q0-249-111.5-372T616 0zm12 145q121 0 184.5 88.5T876 506q0 196-69 296T613 902q-72 0-125-32t-87-85-50.5-120.5T334 527q0-72 17-140.5t53-122 91.5-86.5T628 145z" /><glyph unicode="&#x10dc;" d="M607 0Q386 0 272.5 122.5T159 490v694q-2 347 332 347h462v-143H471q-141 0-141-176V918h35q35 66 95 97t167 31q219 0 333-127t114-388q0-259-116-395T607 0zm2 146q141 0 210.5 98.5T889 534q0 187-68.5 278.5T615 904q-140 0-208.5-93T338 526q0-380 271-380z" /><glyph unicode="&#x10dd;" d="M254 0Q55 224 55 461v102q0 118 24.5 206.5t71 147.5 113 88.5T414 1035q36 0 63-5.5t49.5-18 43-32.5 41.5-48h17q22 31 42.5 51.5t42 32 46 16 54.5 4.5q85 0 152.5-29.5t115-88.5 72.5-148 25-208V454q0-236-188-454H811q179 193 179 399v281q0 215-153 214h-75q-64 0-64-207V410H538v277q0 207-66 207h-77q-148 0-148-228V406q0-110 49.5-209.5T448 0H254v0z" /><glyph unicode="&#x10de;" d="M619 0Q399 0 279.5 107.5T160 429q0 189 101 278h175q-91-125-91-276 0-143 72.5-214.5T621 145q137 0 202 79.5T888 469q0 170-68 252.5T612 804h-63v135h82q52 0 92.5 13.5t68 36.5 41.5 53 14 63q0 34-16.5 69t-51 65-87 51.5T568 1321q-292 54-292 230h172q0-71 239-112 171-20 257-94t86-210q0-96-44.5-163T844 873v-20q61-29 104.5-65.5t72-84.5 42-109 13.5-137q0-223-112.5-340T619 0z" /><glyph unicode="&#x10df;" d="M607-423q-223 0-335 91T159-56h187q-2-227 263-227 145 0 218 66.5T9e2-16v936l-435-52v-60q110-43 165.5-126T686 490q0-159-127.5-237T159 174v167q1e2.0 169 9t111 29 60.5 51 18.5 75q0 51-23 99.5t-68.5 90T314 767t-155 48v130l916 129V-18q0-405-468-405z" /><glyph unicode="&#x10e0;" d="M265 0Q55 210 55 490v103q0 84 18 176.5t56 186 99 183.5 146 169.5T571 1452t253 105l25-148q-363-83-580-435h24l86 61q165 0 237-98h15q35 48 93 73t137 25q159 0 238-109t79-330V454q0-245-208-454H773q216 184 216 403v193q0 298-132 298h-88q-65 0-65-167V410H544l1 317q2 167-73 167H348q-103 0-103-293V436q0-251 230-436H265v0z" /><glyph unicode="&#x10e1;" d="M618 0Q392 0 275.5 129T159 515v1006h182V515q0-186 70.5-278T618 145q137 0 204 92t67 259q0 51-6.5 90.5T860 659t-41.5 60-64.5 52q-24 16-48.5 33t-44 39-31.5 49.5-12 63.5q0 73 53 142t153 129l87-124q-77-30-109.5-59T769 986q0-22 14.5-43.5t37-41.5 49.5-39 52-35q43-28 72-60.5t47-72.5 26-88.5 8-109.5q0-239-113.5-367.5T618 0z" /><glyph unicode="&#x10e2;" d="M598-423q-131 0-233.5 44.5T191-245.5 82.5-24 45 285q0 319 126 496.5T551 1001l-15 257h166l-15-261q123-20 216.5-89T1060 738t95-224.5 32-252.5-33.5-252T1049-210 866-364.5 598-423zm20 140q193 0 290.5 144t97.5 423q0 246-77 396T687 888l15-539H537l14 538q-163-57-240.5-207T233 282q0-281 95.5-423T618-283z" /><glyph unicode="&#x10e3;" d="M658-423q-119 0-208.5 27.5T3e2-316t-90 127-30 170q0 44 7 81t24 69 44.5 60 69.5 55h179q-39-36-65.5-67.5t-42.5-63-23-64-7-68.5q0-124 73.5-195T660-283q260 0 260 240v746q0 46-10.5 81.5t-27.5 60-39 37-45 12.5q-26 0-51-16t-44.5-49-32-84.5T658 623l-10-193H515l-9 193q0 269-110 271-37-2-55.5-18T303 826q-6-11-13.5-23t-18-22-25.5-16-35-6q-73 0-156 95l50 181q34-53 58.5-75.5T216 937t44.5 16 30.5 34q18 24 40 36.5t57 12.5q28 0 52-9t46-30.5 42.5-57T569 852h20q22 54 45.5 89.5T685 998t59 29 70 8q65 0 117.5-20.5t89.5-62 57-104 20-145.5V-43q0-380-440-380z" /><glyph unicode="&#x10e4;" d="M655-425q-430 0-430 389h183q0-247 249-247h47q278 0 278 222V40q0 166-57 168h-80v151h80q54 1 54 149v182q0 204-1e2 204h-83q-59 0-59-123V569q0-123-31-213.5t-81-150T510.5 117 380 88q-63 0-123.5 26.5t-107.5 78-75.5 128T45 497v128q0 205 94.5 307.5T409 1035q75 0 126-21.5t90-77.5h17q96 99 236 99 145 0 217.5-101.5T1168 643q0-137-39-219.5T1010 297v-20q161-92 161-233V-61q0-364-460-364h-56zM409 215q159 0 159 261v251q0 167-94 167h-77q-162 0-162-262V512q0-149 44-223t130-74z" /><glyph unicode="&#x10e5;" d="M598-425q-115 0-202.5 29T249-314t-89 127.5T130-20q0 41 6.5 74t22 62.5T2e2 174t64 58l176-1q-35-35-59-65.5T342.5 106t-21-59-6.5-64q0-60 18.5-109t54-84 88.5-54 122-19q143 0 206.5 86.5T869 67l1 296q1 274-72.5 407T564 903q-88 0-134-42.5T384 720q0-32 5-67.5t15.5-69.5 26-63.5T466 470H287q-37 57-53.5 126.5T217 734q0 84 23 143.5t61 97 88.5 54.5 106.5 17q52 0 103.5-13.5t98-38.5 86.5-60 68-78h17l1 665h173V67q0-253-109.5-372.5T598-425z" /><glyph unicode="&#x10e6;" d="M773-425q-8 46-33.5 85T677-272.5t-82.5 44T5e2-213q-51 0-102-19t-96-61l-65 92q58 84 122 85v22Q55 167 55 462v80q0 248 88 371t253 123q76 0 126.5-26t88.5-78h16q71 104 224 104 160 0 243.5-113t83.5-337v-70q0-245-169-421l-140-1q120 166 120 341v219q0 240-134 240H755q-58 0-58-175V410H537v309q0 175-65 175h-76q-151 0-151-262V494q0-125 31.5-213T357 131 464 28t112-71q78-44 139.5-81.5t110.5-80 85.5-95T976-426z" /><glyph unicode="&#x10e7;" d="M628-423q-234 0-352 99.5T158-23h188q0-131 71.5-196T629-284q266 0 266 241v244h-20q-46-50-110-74t-159-24q-111 0-195 32t-140.5 92T186 372t-28 190q0 77 15.5 140T223 819t86.5 102 127.5 94h216q-85-59-143.5-111.5t-95-106.5-53-112T345 558q0-72 17-128.5t52-96.5 89-61 128-21q60 0 109 14.5t83.5 44 53 73.5T895 486v521h179V-47q0-190-111-283t-335-93z" /><glyph unicode="&#x10e8;" d="M662 0Q532 0 437 46T280 166.5 188 336t-30 194q0 98 29 191t86 165 142 116 198 44q93 0 160-32t102-98h20v289q0 213-142 213-141 0-141-210v-33H455v35q0 52-11 91t-30 65-45 39-57 13q-28 0-47.5-11.5t-31.5-38-17.5-69.5-5.5-107H55q0 187 55.5 275.5T281 1556q85 0 148-47t95-146h20q16 50 37 86.5t50.5 60 67.5 35 89 11.5q142 0 214-82.5t72-237.5l2-759q1-233-104-355T662 0zM637 145q131 0 192 88t61 272q0 203-69.5 301T613 904q-136 0-201.5-93T346 538q0-2e2 76.5-296.5T637 145z" /><glyph unicode="&#x10e9;" d="M160 1214q0 172 91.5 257t283.5 85q181 0 286.5-78T941 1243q2-96-96-257 60-26 103.5-71.5t72-105 42-131T1076 529q0-177-69.5-305T796 0H618q68 50 118.5 114.5T821 251t50.5 146.5T888 543q0 70-16.5 132t-49 108-81.5 73-114 27q-8 1-16.5 1H594q-258 0-258-297V0H158zM366 917q51 104 253 104 47 0 103-6 56 135 56 209-14 93-75.5 142T537 1415q-103 0-152-51.5T336 1201V917h30z" /><glyph unicode="&#x10ea;" d="M636-423q-278 0-414 173.5T86 284v97q0 324 209 680l145-76q-82-126-123.5-262.5T275 442V284q0-289 89-428t272-139q76 0 137.5 24T878-188.5t66 116T967 88q0 120-42.5 176.5T785 321H601v136h176q83 0 123 47t40 127q0 39-10 66t-29.5 46.5-50 34.5-70.5 30q-22 8-46.5 20T688 863.5t-36 62-16 100.5h183q0-67 33-106.5t97-64.5q22-9 51-22.5t55-37 43.5-59.5 17.5-90q0-81-44-140T945 404v-20q55-35 93.5-70.5T1101 238t34.5-87T1146 45q0-107-32.5-193t-97-147.5-160-94.5T636-423z" /><glyph unicode="&#x10eb;" d="M593 0Q363 0 250.5 127.5T138 515q0 264 113 397.5T594 1046q106 0 172-28.5t91-86.5h20v590h178V517q0-260-114-388.5T593 0zm-1 145q277 0 277 376 0 192-70 287t-204 95q-137 0-203.5-97.5T325 516q0-189 65-280t202-91z" /><glyph unicode="&#x10ec;" d="M589 0Q384 0 272.5 132T161 527v709q0 161 75 240.5t213 79.5q98 0 154.5-45t89.5-148h20q30 95 92.5 144t149.5 49q115 0 170-88.5t55-275.5h-153q0 64-5.5 107t-17.5 69.5-31.5 38T925 1418q-62 0-102.5-52T782 1210v-35H625v33q0 210-141 210-142 0-142-213V916h20q35 66 103.5 98t159.5 32q112 0 196-44t140-117 84.5-166 28.5-192q0-98-28.5-193t-88-169-151-119.5T589 0zM889 522q0 97-24 169t-63 119.5-89.5 71T610 905q-48 0-95-20.5t-84.5-64T370 710t-23-161 23.5-169T433 253t89.5-79.5T627 146q49 0 96 23.5t84 70.5 59.5 117.5T889 522z" /><glyph unicode="&#x10ed;" d="M618-423q-230 0-344 101T160-38q0 36 4.5 64.5t14 54 25 50T241 181L384 76q-38-36-38-110 0-62 23-108.5t60.5-77.5 86-47 99.5-16 1e2 16 87.5 48.5 62 81T888-24q0 84-43 148T712 239Q599 351 596 452l-89-19q-309 0-309 328 0 333 321 333l77-9v436h157v-511q93-58 95-164h184V684H843q0-105-82-160l-1-72q2-66 173-170 71-49 107-124.5T1076-27q0-194-114-295T618-423zM540 562q85 0 125 51 20 26 30 63.5t10 79.5q0 52-14.5 90T653 909t-53.5 36.5T538 957t-61-11.5-53-36.5-37.5-63.5T372 752q0-90 41.5-140T540 562z" /><glyph unicode="&#x10ee;" d="M638 0Q179 0 179 525v996h171V914h41q42 73 104.5 102.5T654 1046q212 0 327-130.5T1096 522q0-260-114-391T638 0zm1 145q270 0 270 379 0 380-270 380-274 0-274-380 0-379 274-379z" /><glyph unicode="&#x10ef;" d="M613-423q-114 0-199 30t-142 86.5T187-169 159 14q0 43 5.5 79t18 69.5 33 67.5 50.5 75l144-89q-20-33-32.5-59T358 109.5 348.5 68 346 27q0-73 23.5-130.5t61.5-97 86.5-60.5 99.5-21 1e2 21 87 61.5 61 98T888 30q0 47-10.5 89.5t-34 83.5-60 82-88.5 84Q524 542 524 675v160L197 955v180l327-128v232h146V970l336-127V666L670 8e2V675q0-72 215-258 52-52 88.5-99t59.5-95 33-98.5T1076 16q0-101-29-182.5T960-305t-145-87.5T613-423z" /><glyph unicode="&#x10f0;" d="M604 0Q140 0 140 416v101h188V416q-2-276 267-276 77 0 130 20t86 52.5 47.5 72.5 14.5 80q0 32-8.5 61t-23 51.5-35 36T762 527H511v150h251q25 0 44 10.5t31.5 27 19 38T863 796t-6.5 43.5-19 38T806 904t-44 10H511v152h249q23 0 40 9.5t28.5 25.5 17.5 37 6 44q0 29-11 49t-39.5 34.5-78.5 26-127 24.5q-27 4-67 14t-77 35-63 70.5-26 120.5h166q0-38 23.5-63.5T615 1451t88.5-25.5T805 1409q26-3 66-11.5t77-30 63.5-62T1038 1198q0-145-144-191v-20q78-27 116-75t38-114q0-128-148-186v-20q43-27 73-53.5t49-56 27.5-64 8.5-76.5q0-80-28.5-143T944 91.5t-142-68T604 0z" /><glyph unicode="&#x10f1;" d="M660-423q-143 0-242.5 32T256-294t-90 163.5T138 102q0 48 3.5 108t10 127.5 17 139T193 617q8 40 13 75t5 85q0 91-17 185.5T143 1163h185q58-180 58-377 0-40-2.5-82.5T375 617q-14-58-23.5-131T336 339.5t-8.5-140T325 90q0-76 11.5-144t48-119T490-254t184-30q127 0 184 42t57 137q0 37-8.5 70t-25 58T840 62t-59 14H645v142h136q134 0 134 142 0 74-33 115.5T783 517H645v138h138q66 0 99 38.5T915 806q0 70-32 103t-102 33H645v145h136q65 0 99.5 31.5T915 1192q0 22-11 45.5t-33.5 44.5-58 37-83.5 25q-145 34-146 212h166q0-23 15-40.5t41-32.5 60.5-28 72.5-26q17-6 43.5-17t52-33.5 43.5-58.5 18-91q0-80-44-131t-135-68v-20q91-21 135-70.5t44-133.5q0-41-11-76.5t-33-63.5-55.5-46.5T916 594v-20q89-17 134-75t45-139q0-78-43-126.5T916 159v-20q88-28 133.5-94t45.5-167q0-153-107.5-227T660-423z" /><glyph unicode="&#x10f2;" d="M201-60q149 0 229 89-270 169-270 492 0 129 39.5 227.5T304 913t147.5 99.5T620 1046q85 0 167-33t146.5-99T1037 750.5t39-226.5q0-165-69-286.5T795 29q91-94 235-89v-209Q766-2e2 616-6 424-198 201-269v209zM616 118q72 23 123.5 59t84.5 86.5T873 380t16 150q0 180-68.5 276T615 902q-136 0-203-95.5T345 533q0-83 15-149.5T408 266t84.5-87.5T616 118z" /><glyph unicode="&#x10f3;" d="M618-283q268 0 268 263v32q0 299-318 298H454v160h114q148 0 218 93.5T854 827l-1 74-480-30V667H2e2v349l876 29q0-465-276-649 276-113 276-384v-32q0-101-40-176.5t-104.5-126-147-76T616-424t-168 25-146.5 75.5T198-197 159-20l31 111 180-20-21-91q2-263 269-263z" /><glyph unicode="&#x10f4;" d="M609-425q-458 0-458 405h190q0-264 267-264 269 0 269 264v55q0 236-275 236H446v157h156q276 10 276 425-64-20-133-28.5T605 816q-232 0-343 89t-111 270q0 184 113 283.5t346 98.5v-142q-156 0-234-61.5T298 1178q0-112 75.5-165.5T598 959q133 0 245 42t224 126V863q0-2e2-76-323T759 363v-20q309-62 309-308v-55q0-405-459-405z" /><glyph unicode="&#x10f5;" d="M565 0Q114 0 114 341q0 173 112.5 263.5T566 695h273v161H566q-227 0-339.5 92T114 1214t113 258.5 340 84.5q224 0 333-82.5t109-254.5v-216h114V856h-114V695h114V517h-114V335q0-170-109.5-252.5T565 0zM839 1004v216q0 195-267 195-137 0-202.5-49.5T304 1213t65.5-156 196.5-53h273zM571 140q268 0 268 211v196H566q-132 0-197-51.5T304 343q0-203 267-203z" /><glyph unicode="&#x10f6;" d="M360-282q183 0 174 231v777q0 178-77 178l-97-1q-60-1-87.5-47T245 715V396q0-217 128-217V31Q55 34 55 410v240q0 396 305 396 184 0 251-145h16q61 145 245 145 153 0 229.5-99t76.5-297V406q0-204-77-305T881 0q-70 0-108.5 26.5T719 116h-15V-36q-10-388-344-388v142zM864 145q65 0 95 39.5T989 312v417q0 175-136 175h-76q-73 0-73-167V356q0-106 42-158.5T864 145z" /><glyph unicode="&#x10f7;" d="M623-423q-143 0-242 36t-160 96.5T133-151 106 13q0 75 19.5 144t60 129.5 102.5 111T434 484q35 15 72.5 28t73.5 27.5 68 32 56.5 41.5 39 55.5T758 743q0 34-10 63.5t-30 51-51 33.5-74 12q-76 0-122.5-40T424 744l5-56-165-21-10 65q0 158 88 236t254 78q91 0 157.5-22.5T863 963t63.5-88T947 769q0-59-22-118t-64.5-113-106-100.5T609 359q-80-20-138.5-58.5t-97-88T316 107 297-4q0-54 18.5-104.5t58-89.5T474-260.5 621-284q73 0 131.5 18.5t99 55.5 62.5 93 22 130q0 123-64 177l154 92q49-54 74.5-125T1126-4q0-104-34.5-182.5t-99.5-131-158.5-79T623-423z" /><glyph unicode="&#x10f8;" d="M638-423q-459 0-459 396v1049h173V458q0-48 19.5-83.5T427 315t85.5-36T622 267q148 0 216.5 72T907 557q0 72-16 133t-49 115-82.5 102-115.5 94l171 63q66-53 118-119t88-138 55-147.5 19-147.5q0-81-26-153.5T988.5 232t-140-85.5T644 115h-2q-184 0-270 89h-20V-23q0-65 23.5-114t62-81.5 88.5-49T628-284t102 16.5 89.5 49T883-137t24 114h187q-1-4e2-456-4e2z" /><glyph unicode="&#x10f9;" d="M628-425q-181 0-267.5 76T274-121q0 125 59 202t180 121q-211 44-311.5 150T101 618q0 111 43.5 193.5t114.5 138 161.5 83T606 1060t186.5-28 163-82.5 115-136T1114 625q0-140-86.5-251.5T752 173q-84-34-140-67.5T521.5 37t-49-73.5T458-119q0-77 41.5-121T631-284q39 0 72 9t57 26.5 37.5 44T811-143v76h178v-76q0-141-94.5-211.5T628-425zM612 326q166 22 240.5 97T927 629q0 140-78.5 214T611 917q-160 0-239.5-74.5T292 629t80-211.5T612 326z" /><glyph unicode="&#x10fa;" d="M751-134q0 1-6 8.5T730-108t-19 21-18 19q-28 27-63.5 43.5T541-8q-69 0-117-29.5T343-124L213-50Q280 52 396 76v30q-119 87-177.5 213T160 603q0 225 121 333t363 110q431-35 431-355 0-184-143-464l-145 61q108 240 108 385 0 112-64 171t-196 59q-146 0-214.5-75.5T352 589q0-136 49.5-243T561 147q177-42 302-189l-112-93v1z" /><glyph unicode="&#x10fb;" d="M321 819q-30 0-30 30v116q0 30 30 30h132q30 0 30-30V849q0-30-30-30H321zM786 456q-30 0-30 30v114q0 30 30 30h126q30 0 30-30V486q0-30-30-30H786zM321 50q-30 0-30 30v114q0 30 30 30h129q30 0 30-30V80q0-30-30-30H321z" /><glyph unicode="&#x10fc;" d="M606 757q-96 0-148.5 71T405 1043v332q0 181 185 181h235v-82l-258 2q-70 0-70-81v-158l123 79q52 0 90.5-23.5T775 1230t39-89.5 13-103.5q0-52-13-102.5t-40-90-68.5-63.5-99.5-24zm12 79q57 0 86.5 53.5T734 1035q0 96-30 142t-84 46q-33 0-56.5-16.5t-38-43.5-21-61.5-6.5-70.5q0-37 7-72t21.5-62.5 37-44T618 836z" /><glyph unicode="&#x1e80;" d="M377 1852h184l197-264H604zM0 1493h197L340 281l170 802h211l172-804 143 1214h197L1010 0H819L616 887 414 0H223z" /></font>
</defs>
</svg>
