<svg xmlns="http://www.w3.org/2000/svg" xmlns:xlink="http://www.w3.org/1999/xlink"><defs><font id="hackregularoblique" horiz-adv-x="1233" ><font-face units-per-em="2048" ascent="1638" descent="-410" /><missing-glyph horiz-adv-x="500" /><glyph unicode="&#xd;" /><glyph horiz-adv-x="0" /><glyph horiz-adv-x="0" /><glyph /><glyph unicode="!" d="M647 1053l70 445h265l-70-445-157-567H634zM606-60q-33 0-58 9.5T505-19q-21 25-28 55t-7 53q0 41 16 76t45 64q29 28 63 41.5t70 13.5q31 0 58-10t46-30q22-24 28-52.5t6-43.5q0-43-18-85.5T731-12q-24-23-54.5-35.5T606-60z" /><glyph unicode='"' d="M338 1493h174V938H338v555zm383 0h174V938H721v555z" /><glyph unicode="#" d="M250 414H-6l39 153h256l84 334H115l39 154h258l104 415h160l-105-415h246l105 415h159l-104-415h256l-39-154H938l-84-334h258l-39-153H815L711 0H551l104 414H410L305 0H145zM694 567l84 334H532l-83-334h245z" /><glyph unicode="$" d="M413 0q-93 3-191 26-51 12-98 28.5T31 92l35 180q81-60 176-93 96-34 198-38l90 465q-85 17-148.5 43T275 714q-38 35-59 82.5T195 912q0 83 33 156.5T328 12e2t154.5 88 186.5 33l48 235h1e2l-47-235q45-3 89-9t74-12q15-3 34-7.5t39.5-10 40-11 36.5-11.5l-32-173q-32 20-71 37t-71 27-76 18.5-90 12.5l-81-426q175-35 263-117 45-42 67-94.5t22-123.5q0-88-34-163.5T877 122Q740 2 524 2h-10l-59-303H354zM643 1184q-118-7-194-76t-76-167q0-70 42-107 20-18 55.5-33t92.5-27zM543 145q130 0 209 73 38 35 58.5 81T831 402q0 44-12 74.5T784 527q-46 41-155 61z" /><glyph unicode="%" d="M351 793q-68 0-126 24.5T125 884q-45 45-68.5 103.5T33 1112q0 71 25 129t67 1e2 1e2 66.5 127 24.5q64 0 123-24 58-24 103-69 23-23 41-49.5t29-53.5q24-59 24-123 0-66-24-125t-68-103q-42-42-101-67t-128-25zm0 135q37 0 71 13.5t61 39.5q23 23 38.5 56.5T537 1113q0 76-54 130-55 53-130 53-77 0-131-52-25-24-39.5-58t-14.5-74q0-79 53-132 22-22 55-37t75-15zM42 560l1150 436V883L42 453v107zM879 0Q743 0 651 92q-45 46-67.5 103.5T561 318q0 71 25 129.5T653 548t99.5 66.5T879 639q33 0 63-6t59-18q57-24 103-70 25-25 42.5-52t28.5-53q25-57 25-121 0-63-22.5-121T1107 92q-47-46-104.5-69T879 0zm0 135q77 0 131 54 53 53 53 130t-54 131-130 54q-77 0-130-53t-53-132q0-78 53-131t130-53z" /><glyph unicode="&#x26;" d="M408-29q-94 0-174 27T96 78Q39 129 9.5 200.5T-20 362q0 81 25 160.5T79 673t121.5 133T367 920q-17 32-26 55t-17 51q-7 26-11 51.5t-4 57.5q0 84 30.5 156t92.5 125q60 51 144 77.5t185 26.5q66 0 128-12 60-12 119-35l-35-183q-42 38-103 57-31 10-65 14.5t-67 4.5q-120 0-187-57-34-29-51-68t-17-84q0-23 5-50t17-62q11-32 25-64.5t37-73.5l307-557q62 66 99 169 19 52 31 111t18 130h168q-8-85-27-159t-51-143q-62-135-168-237L1067 0H868l-59 113q-49-36-95-61.5T614 7Q513-29 408-29zm48 158q36 0 70 7.5t71 21.5q35 14 70.5 33.5T741 240L432 795q-135-74-204-171-35-50-52.5-104.5T158 411q0-65 23-115.5t62-86.5q41-38 95.5-59T456 129z" /><glyph unicode="'" d="M528 1493h174V938H528v555z" /><glyph unicode="(" d="M426-270q-40 95-68.5 181T310 76t-28 153-9 152q0 146 32 296t97 301q63 147 158 291t223 285h159q-118-152-206-301T587 948Q467 642 467 340q0-79 8-151t22-146q16-81 37.5-156.5T586-270H426v0z" /><glyph unicode=")" d="M320-270Q557 32 676 336q60 153 89.5 304.5T795 940q0 74-7.5 150.5T766 1241q-14 73-37 152.5T676 1554h160q79-190 116-345 19-79 28-153t9-152q0-146-32-296.5T860 307Q794 155 699.5 12T479-270H320v0z" /><glyph unicode="*" d="M250 566l242 371-364 158 36 103 376-123 20 425h108l20-425 376 123 36-103-364-158 242-371-94-67-270 357-270-357z" /><glyph unicode="+" d="M532 557H88v170h444v444h168V727h445V557H7e2V113H532v444z" /><glyph unicode="," d="M4e2-283Q644-174 652 51q-12-2-21.5-3T612 47q-32 0-60 9.5T502 86q-44 39-44 111 0 71 46 111 20 18 48.5 29.5T619 349q86 0 133-68 46-67 46-188 0-171-92-295-92-123-260-185z" /><glyph unicode="-" d="M226 673h822l-33-164H193z" /><glyph unicode="." d="M613-27q-68 0-115 47t-47 122 47 122 115 47 115-47 47-122-47-122-115-47z" /><glyph unicode="/" d="M868 1493h191L205-190H16z" /><glyph unicode="0" d="M480-29Q286-29 192 95T98 464q0 99 14.5 207T154 885t64 198 79 161q42 71 90 122.5t106 86.5q52 32 115 49.5t141 17.5q101 0 172-30.5t119-93.5q45-60 70-150t25-218q0-101-15-211t-41-209q-26-103-63-194.5T936 249q-42-72-90-124T741 39Q687 7 622.5-11T480-29zm22 164q85 0 153 51 39 29 67 69.5t48 78.5q33 66 63 156.5T886 681q23 103 34.5 199t11.5 177q0 84-12 139.5t-37 90.5-64 52-87 17q-42 0-81-12.5t-73-37.5q-36-26-65-64.5t-52-83.5q-34-66-63.5-153T345 812q-24-110-35-208t-11-175q0-87 13-140t39-86q24-31 62-49.5t89-18.5zm48 266q-8 0-12 2-23 8-32 41t-9 82q0 14 .5 25.5T499 578q2 38 5 69t6.5 57 8 48.5T528 798q3 11 7.5 30.5t12 44 17.5 52 22 54.5q26 57 51.5 83.5T686 1089h4t7-2q19-5 31.5-31t12.5-87q-1-6-1-13v-15q-2-38-4-67t-5-51.5-6-40-7-32.5q-5-21-12-46.5t-15.5-53-18.5-56-20-53.5q-26-67-51-103.5T550 401z" /><glyph unicode="1" d="M156 170h313l221 1141-352-76 35 184 352 74h203L670 170h309L946 0H123z" /><glyph unicode="2" d="M32 136q4 20 12 33t21 24l285 251 39 35q131 117 231 216t168 182.5 103 153 35 129.5q0 42-16.5 77.5T862 1299t-75.5 39.5T684 1352q-48 0-99-9t-99-24q-50-16-109.5-42T254 1217l41 204q60 26 115 44.5t102 29.5q57 14 105.5 19.5t91.5 5.5q97 0 173.5-25t130.5-71 83.5-111.5T1126 1163q0-42-8-84t-28-90q-40-97-117-190-9-11-19.5-22.5t-24.5-26-32-32-43-40.5q-99-92-169.5-152.5T588 444L258 170h694L920 0H6z" /><glyph unicode="3" d="M383-29q-57 0-105 5t-99 14Q125 0 79.5 12.5T-18 45l38 201q49-28 93-46t93-32 95.5-20.5T398 141q96 0 168 24t127 70 83.5 105.5T805 475q0 62-18.5 106.5T734 655q-71 60-210 60H371l32 166h154q76 0 140 18.5T808 955q45 35 69 86t24 116q0 53-16.5 88.5T839 1303q-62 47-189 47-43 0-87-5t-93-15q-56-11-104-25.5T260 1270l37 186 58 14.5t59 14 55.5 12 47.5 8.5q42 7 90 11t90 4q93 0 168-21.5t129-65.5q52-42 80-103.5t28-142.5q0-72-22-135.5T1013 936q-42-49-104-84.5T762 799q113-19 178-102 32-42 48-93t16-120q0-112-41.5-205.5T837 113Q755 43 644 7T383-29z" /><glyph unicode="4" d="M659 356H25l36 191 785 946h233L889 520h198l-30-164H858L788 0H590zm31 164 152 762-625-762h473z" /><glyph unicode="5" d="M366-29q-48 0-98.5 4T170-13Q76 3 4 35l41 205q46-28 89-46.5t83-29.5q45-13 90.5-19t87.5-6q93 0 173 29t140 87q55 53 88 128t33 162q0 130-80 203t-224 73q-39 0-78.5-5T365 801t-81-24.5-77-33.5l145 750h756l-33-170H504l-72-367q46 16 92 24 22 4 44.5 5.5T612 987q96 0 172-29t131-83q57-55 86-131.5t29-169.5q0-124-52-240-53-117-149-203-43-38-92.5-68.5T628 11Q571-9 507.5-19T366-29z" /><glyph unicode="6" d="M515-29q-93 0-174 28T202 87q-54 56-82 141.5T92 433q0 69 9.5 155.5T131 765q19 87 47 172t60 154q51 111 114.5 191T489 1413q152 107 357 107 38 0 76-3.5t72-11.5q31-7 66.5-19t67.5-26l-36-186q-59 37-126 57-34 10-70 14.5t-71 4.5q-1e2.0-178.5-35.5T505 1207q-125-143-181-427 36 54 75.5 91.5T486 935t98 39 112 13q88 0 156.5-25.5T967 888q50-51 73-123t23-162q0-54-9-113t-31-124q-21-63-48-111.5T915 164Q838 67 738 19 691-4 636-16.5T515-29zm6 158q67 0 130 32.5T764 263q47 66 71.5 149T860 583q0 62-13.5 108T802 769q-29 30-71.5 45T639 829q-75 0-138-33t-110-93q-49-63-73.5-143.5T293 394q0-66 15-114t45-82q32-35 76-52t92-17z" /><glyph unicode="7" d="M952 1323H244l32 170h936l-16-94L391 0H174z" /><glyph unicode="8" d="M483-29Q383-29 301-3.5T159 73q-54 47-86 117T41 354q0 87 28 158.5T146 639t120 95 164 59q-57 20-96 48t-65 63q-29 38-41.5 82.5T215 1081q0 90 38 170.5T362 1393q75 64 169 95.5t195 31.5q87 0 160.5-22.5T1015 1430q52-42 81.5-102t29.5-137q0-70-25-135.5T1029 936t-113-94.5T772 782q125-30 190-113 32-42 48-95.5t16-118.5q0-103-38.5-192.5T875 107Q803 42 703.5 6.5T483-29zM634 866q124 0 208 87 42 44 63 97t21 112q0 50-15 85.5t-45 62.5q-60 54-160 54-66 0-118-21t-90-59q-82-81-82-203 0-101 59-158 58-57 159-57zM494 127q72 0 132 23.5T731 219q45 46 67.5 106.5T821 458q0 62-16.5 107T755 643q-66 66-183 66-144 0-234-98-46-50-69-113t-23-134q0-60 16.5-101t50.5-73 78-47.5T494 127z" /><glyph unicode="9" d="M343-29q-76 0-146 15-32 7-65.5 17.5T63 31l35 186q29-19 60.5-32.5T224 161q69-20 142-20 194 0 320 144 124 142 180 426-67-101-161-154-51-29-103.5-41T492 504q-87 0-153.5 25.5T224 604q-97 1e2-97 285 0 63 10.5 122.5T167 1127q20 58 47.5 109t59.5 91q37 46 82.5 83.5T452 1472q99 48 224 48 101 0 180.5-30t133.5-87q110-116 110-344 0-69-9.5-156T1061 726q-20-91-47-172t-60-153q-52-112-114-190.5T703 79Q622 22 532.5-3.5T343-29zM551 662q75 0 138 33t110 93 72.5 140 25.5 169q0 69-15.5 117.5T837 1295t-72 49.5-94 17.5q-72 0-134.5-34.5T427 1228q-45-63-71-147t-26-174q0-57 13-104.5t45-80.5q29-30 71.5-45t91.5-15z" /><glyph unicode=":" d="M728 716q-28 0-52.5 9.5T631 757q-21 23-28.5 50t-7.5 56q0 39 15.5 74t46.5 63q27 25 61 39.5t72 14.5q35 0 59-11.5t41-29.5q16-17 25.5-42.5T925 913q0-38-14.5-76T864 770q-30-28-66.5-41T728 716zM617 0q-32 0-58 11t-43 31q-18 20-26 46.5t-8 54.5q0 39 15 76t47 66q26 24 60.5 38.5T677 338q28 0 54-9t46-32q16-17 25.5-42.5T812 194q0-83-62-140-28-26-62-40T617 0z" /><glyph unicode=";" d="M723 713q-71 0-112 50-32 38-32 93 0 9 1 18t3 18q7 42 25 73.5t44 53.5q26 23 59 36t68 13 64.5-12.5T893 1020q33-38 33-94 0-16-3-34-15-80-71-129-26-23-58.5-36.5T723 713zM339-351Q614-237 659 0q-14-3-23-4t-19-1q-33 0-61 10.5T508 36q-30 31-30 84v9q0 5 .5 11t1.5 13q6 35 22 64t45 52 61 33 64 10q91 0 130-71 13-23 19-52t6-57q0-17-2-42t-5-46q-14-92-51.5-170.5T674-267q-56-61-134-111.5T371-460z" /><glyph unicode="&#x3c;" d="M88 559v166l1057 418V961L295 641l850-317V141z" /><glyph unicode="=" d="M88 930h1057V760H88v170zm0-406h1057V352H88v172z" /><glyph unicode="&#x3e;" d="M88 324l850 317L88 961v182l1057-418V559L88 141v183z" /><glyph unicode="?" d="M546 583q12 78 53 146 21 35 53 70t86 81l104 89q42 35 65 59t37 44q32 45 39 93 3 18 3 34 0 32-11.5 60t-34.5 50q-27 26-68.5 40.5T775 1364q-80 0-173-34-48-17-98.5-43T398 1227l30 188q49 27 100.5 49t102.5 36 101.5 21 100.5 7q91 0 162-23t121-73q36-36 56-83.5t20-98.5q0-17-2-38t-4-37q-5-37-18.5-71.5T1130 1034q-26-38-64.5-77T978 876l-102-86q-43-36-67.5-62T771 682q-11-17-20-40t-12-43l-8-47-12-80H529zM542-40q-26 0-48 8.5T454-3q-19 22-26 46t-7 50q0 40 15.5 70.5T476 216t55.5 35 64.5 13q23 0 48-8.5t43-28.5q15-17 23-41t8-52q0-34-13-66.5T664 9q-23-21-54.5-35T542-40z" /><glyph unicode="@" d="M607-317q-151 0-267 50T144-129Q57-34 14 96t-43 283q0 97 17.5 198T43 781q34 94 83 182.5T238 1125q52 61 117 113t140 88q72 35 149 53t156 18q95 0 171-26t131-77q57-53 84.5-124t27.5-155q0-14-1-33t-3-38-5.5-41-8.5-45l-137-723H915l21 111q-26-32-57.5-56.5T814 149q-35-17-73.5-25.5T662 115q-71 0-123 24.5T448 207q-42 46-62.5 104.5T365 451q0 103 33 197t99 173q63 75 141 115.5T810 977q85 0 150-36t93-97l8 43q2 12 4.5 30t4.5 31 2.5 23 .5 22q0 59-18 108t-55 84q-73 70-204 70-72 0-139.5-20T524 1177q-63-38-120-92T297 957q-40-60-72.5-129.5T169 682q-21-72-32.5-149.5T125 377q0-128 32-230.5T253-29q63-72 152.5-109.5T603-176q30 0 62 3t60 9q21 5 53 14t74 25l45-131q-38-18-72-28.5T760-302q-71-15-153-15zM710 260q63 0 117 28t95 78q40 49 63 114t23 138q0 49-12 88t-38 68q-50 55-138 55-60 0-114-26t-96-77-64-116.5T524 474q0-48 12-89t38-70q50-55 136-55z" /><glyph unicode="A" d="M639 1493h246L1051 0H850l-35 389H295L111 0h-217zM801 551l-66 774-364-774h430z" /><glyph unicode="B" d="M313 1493h443q204 0 307-79 52-40 78-98t26-138q0-151-92-255-92-105-248-124 124-23 192-102 34-40 50-91t16-120q0-109-39.5-199.5T926 130Q767 0 475 0H23zM639 877q152 0 238 73 86 72 86 198 0 95-55 137-56 42-181 42H483l-88-450h244zM506 166q184 0 282 87 49 44 73 107t24 136q0 63-17 101.5T817 662q-68 51-211 51H365L258 166h248z" /><glyph unicode="C" d="M597-29Q479-29 390 6t-149 97q-62 64-94 159.5T115 492q0 99 17.5 206T185 913q35 110 80.5 195.5T369 1266q56 69 114 115t123 77q130 62 287 62 46 0 85.5-5t79.5-16q80-21 154-61l-41-207q-64 62-135 94-69 31-152 31-95 0-175-40t-152-124q-51-60-93.5-140T390 878q-33-1e2-48.5-196T326 503q0-187 78-277 34-39 89-65t135-26q86 0 177 32 89 31 178 93L944 53q-42-20-84-35.5T775-9q-38-9-84-14.5T597-29z" /><glyph unicode="D" d="M283 1493h303q273 0 409-124 69-63 102-157.5t33-225.5q0-74-10.5-157T1088 659q-22-90-51.5-167.5T975 354q-53-98-118.5-165T716 82Q561 0 295 0H-8zM324 166q184 0 297 63 113 62 180 203 25 52 48 122t41 153q17 80 25.5 153t8.5 133q0 95-20 157.5T842 1251q-82 76-275 76H453L227 166h97z" /><glyph unicode="E" d="M344 1493h885l-33-170H512l-86-442h653l-32-170H393L289 170h702L958 0H53z" /><glyph unicode="F" d="M383 1493h879l-33-170H553l-86-450h612l-32-170H434L295 0H92z" /><glyph unicode="G" d="M564-29Q442-29 352.5 5.5T202 106q-63 69-93.5 165T78 488q0 47 4.5 94.5T95 681q8 46 20.5 103.5T143 893q17 57 38 110.5t44 101.5q25 50 51 89.5t52 72.5q50 62 110 110.5t128 80.5q130 62 288 62 46 0 86-5t80-16q81-21 156-61l-41-207q-35 34-70 57t-66 37q-71 31-153 31-50 0-96.5-10.5T662 1315q-42-20-82-52t-72-71q-45-54-83-130-21-42-38-85.5T356 887q-17-56-30-110.5T305 673q-9-52-13.5-94.5T287 494q0-174 79-266 40-47 95.5-70T592 135q36 0 65 5t55 14q29 10 50.5 23t40.5 30l76 393H662l30 166h410L969 96Q883 35 779 3q-51-16-103.5-24T564-29z" /><glyph unicode="H" d="M283 1493h202L367 881h553l118 612h203L950 0H748l139 711H332L195 0H-8z" /><glyph unicode="I" d="M90 170h313l224 1153H313l33 170h830l-33-170H829L606 170h314L887 0H57z" /><glyph unicode="J" d="M375-29q-54 0-102 6T174-6Q121 6 73 22.5T-25 61l45 236q38-42 78.5-71t85.5-49q44-20 91-31t105-11q142 0 212 73 32 33 60 99.5T702 487l164 836H485l33 170h584L905 487q-29-150-72-247T729 86Q666 27 579.5-1T375-29z" /><glyph unicode="K" d="M283 1493h202L358 846l742 647h254L651 874 1079 0H860L5e2 741 307 573 195 0H-8z" /><glyph unicode="L" d="M369 1493h202L313 170h721L1001 0H78z" /><glyph unicode="M" d="M229 1493h269l110-756 414 756h270L1001 0H815l258 1327-434-795H498l-115 795L127 0H-59z" /><glyph unicode="N" d="M285 1493h256L805 264l239 1229h195L948 0H692L428 1229 188 0H-6z" /><glyph unicode="O" d="M478-29Q276-29 179 94 82 216 82 473q0 64 5.5 120T104 712q12 70 26.5 131T168 975q16 50 31 89t32 77q20 43 37.5 73.5T303 1271q86 128 198 189 51 28 112 44t140 16q1e2.0 175-29t126-94q97-122 97-373 0-60-5.5-119T1129 781q-22-128-66-265-16-50-30.5-88.5T1001 351q-14-29-33-64.5T928 219q-39-59-89.5-107T731 32Q622-29 478-29zm20 164q43 0 84 12.5t78 38.5q40 29 68.5 67t49.5 78q19 36 36.5 79t32.5 89 28 93 23 92q23 103 34.5 202.5T944 1067q0 86-13 137.5t-39 84.5q-26 32-65.5 49.5T734 1356q-44 0-85-12.5t-77-38.5q-35-26-64.5-63t-52.5-82q-35-66-67-157.5T333 808q-23-1e2-34.5-197.5T287 429q0-44 3.5-78.5t10-61.5 16.5-48 23-38q29-36 69.5-52t88.5-16z" /><glyph unicode="P" d="M321 1493h440q103 0 182-23.5t133-68.5 80.5-112.5T1183 1126q0-120-41-217t-119-166-186.5-106T583 6e2H350L233 0H30zM616 766q165 0 264 96 49 48 73.5 111.5T978 1111q0 53-14 95t-48 70q-62 51-192 51H491L382 766h234z" /><glyph unicode="Q" d="M504-27h-10Q383-27 307 3T181 93t-74.5 152.5T82 472q0 66 5.5 121.5T104 712q5 31 11 60.5t13.5 61 17 66T168 975q16 50 31 89t32 77q7 15 15.5 32t18 35 19.5 34.5 19 29.5q38 57 88.5 106.5T501 1460q56 31 118 45.5t134 14.5q102 0 176.5-30t124.5-93q48-60 72.5-151.5T1151 1029q0-48-3.5-95.5T1137 839t-18-100.5-25-109.5q-14-53-30.5-107t-31.5-95q-16-43-34-82.5T963 274q-22-39-52.5-81.5T839 111q-31-30-68.5-57T690 10l236-280H690zm-6 162q43 0 84 12.5t78 38.5q40 29 68.5 67t49.5 78q19 36 36.5 79t32.5 89 28 93 23 92q23 103 34.5 202.5T944 1067q0 86-13 137.5t-39 84.5q-26 32-65.5 49.5T734 1356q-44 0-85-12.5t-77-38.5q-35-26-64.5-63t-52.5-82q-35-66-67-157.5T333 808q-23-1e2-34.5-197.5T287 429q0-44 3.5-78.5t10-61.5 16.5-48 23-38q29-36 69.5-52t88.5-16z" /><glyph unicode="R" d="M281 1493h416q206 0 321-89 59-46 86-110.5t27-149.5q0-84-25.5-160T1028 848q-51-59-121-95.5T746 705q34-6 64.5-23.5T862 638q20-25 44.5-80.5T959 408L1080 0H879L773 377q-44 155-98 205-28 26-70.5 37.5T510 631H318L195 0H-8zM570 797q163 0 261 86 97 85 97 226 0 113-63 166-62 52-199 52H453L351 797h219z" /><glyph unicode="S" d="M435-29q-58 0-108 6T226-6Q123 17 25 61l41 209q97-68 199-102 51-17 103.5-25t106.5-8q86 0 152 21.5T745 223q103 88 103 221 0 44-11 75t-33 54q-26 26-68.5 45.5T627 659l-101 33q-81 26-147 57t-110 75q-37 37-55.5 84.5T195 1025q0 101 40.5 192.5T360 1380q83 70 191 105t232 35q48 0 91-5t88-15q46-10 90.5-24t94.5-34l-39-205q-82 59-168 89-87 30-181 30-85 0-153-22t-116-60-75.5-91-27.5-115q0-39 12-67.5t37-50.5 68.5-42.5T614 866l121-39q85-27 142-58t97-75q38-42 56.5-94.5T1049 473q0-110-41-202.5T883 109 686 5.5 435-29z" /><glyph unicode="T" d="M629 1323H160l33 170h1140l-33-170H831L575 0H371z" /><glyph unicode="U" d="M477-29q-190 0-293 90Q80 151 80 315q0 24 2 46t7 56q3 23 5.5 40.5t5.5 35 6.5 36.5 8.5 44l178 920h203L317 573q-1-7-3-17t-5-24q-15-74-22.5-131.5T279 313q0-43 14.5-76.5T334 181q53-46 167-46 45 0 80 7t68 23 60 38 47 51q11 16 21.5 39.5T801 361q11 36 23 89.5T850 573l178 920h203l-178-920q-12-64-23.5-113.5t-22.5-88-22-67-21-51.5q-25-54-56-94.5T838 86q-35-29-77-50T676 1q-92-30-199-30z" /><glyph unicode="V" d="M199 1493h198L510 190l598 1303h215L604 0H346z" /><glyph unicode="W" d="M145 1493h191L246 283l329 8e2h211l15-802 377 1212h198L866 0H672l-31 870L270 0H82z" /><glyph unicode="X" d="M546 797l-288 696h2e2l224-532 440 532h231L757 774 1081 0H880L626 612 120 0h-231z" /><glyph unicode="Y" d="M508 670l-313 823h202l236-651 497 651h218L713 670 584 0H377z" /><glyph unicode="Z" d="M32 154l976 1169H281l33 170h969l-29-154L275 170h774L1015 0H3z" /><glyph unicode="[" d="M682 1636h424l-23-143H843L587-127h240l-23-143H380z" /><glyph unicode="\" d="M356 1493h170L725-190H555z" /><glyph unicode="]" d="M366-127h240l256 1619H622l23 143h424L767-270H343z" /><glyph unicode="^" d="M528 1493h177l456-557H983l-367 395-366-395H72z" /><glyph unicode="_" d="M0-403h1024v-80H0v80z" /><glyph unicode="`" d="M453 1638h198l197-376H705z" /><glyph unicode="a" d="M407-29q-74 0-135.5 20.5T164 54q-48 43-70 1e2T72 280q0 92 39 172t115 138 182 87.5T645 707h246l12 61 3 19q1 5 1 10v7q0 57-18 89.5T844 946q-29 21-73 33t-106 12q-43 0-89.5-6T479 966q-51-13-103-32t-108-45l35 180q54 20 105 34.5t1e2 24.5 95.5 14.5 89.5 4.5q92 0 166-20t126-62q49-39 75.5-96.5T1087 839q0-33-6-85-4-32-8.5-59.5T1063 639L938 0H774l12 166Q714 72 616 22 566-4 515-16.5T407-29zm54 154q72 0 134.5 27T711 232q56 56 92 130t53 160l8 41H692q-60 0-104-1.5t-73-5.5-55-11-46-15q-26-11-55-30.5T305 442q-41-62-41-135 0-48 15.5-80.5T316 174q24-23 59.5-36t85.5-13z" /><glyph unicode="b" d="M535-29q-97 0-164 43-66 43-101 127L224 0H59l303 1556h185L434 977q61 83 144 127 82 43 185 43 79 0 144-25.5t111-77.5q90-102 90-296 0-66-10.5-138.5T1067 465q-19-67-46.5-130T954 213Q876 97 770 35 714 3 655-13T535-29zm5 156q83 0 151 45 35 23 62.5 55t51.5 77q25 46 45 100.5T883 513q14 58 21 114t7 106q0 62-11.5 111.5T861 929q-51 64-151 64-44 0-82.5-12T557 947t-62.5-56-56.5-79q-26-46-44.5-96T361 611q-14-59-21.5-116T332 389q0-63 12.5-111.5T385 194q30-38 70.5-52.5T540 127z" /><glyph unicode="c" d="M597-29Q482-29 399 .5T261 84q-58 57-86.5 139.5T146 412q0 75 13.5 151.5T199 709t63 130 82 111q48 53 102.5 90t102.5 58q110 49 245 49 88 0 171-21 38-10 80-26.5t82-38.5l-37-182q-65 58-136 85t-154 27q-111 0-196-44-42-22-78.5-55.5T459 813q-26-38-48.5-85.5T372 626q-32-108-32-208 0-69 16.5-124.5T408 2e2q32-35 82.5-54T615 127q45 0 91.5 7.5T798 158q47 17 90 41t81 53L930 51q-43-23-80.5-36.5T774-8q-44-11-86.5-16T597-29z" /><glyph unicode="d" d="M462-29q-85 0-146.5 27T210 76q-46 53-68.5 125.5T119 374q0 66 10 138t30 145q21 76 49 138.5T268 909q39 62 83 105.5t94 72.5 105 44.5 118 15.5q51 0 93-10.5t79-32.5q73-44 114-127l115 579h184L950 0H786l7 141Q729 58 646 14q-82-43-184-43zm56 156q85 0 154 45 35 23 63 55.5t53 77.5q49 87 77 203 14 56 21 112.5t7 106.5q0 132-53 197-25 31-64.5 49T682 991q-42 0-81-11.5T531 948q-32-21-61.5-55T417 817q-22-40-41.5-93.5T342 613t-20.5-115.5T315 388q0-69 12.5-117t38.5-80q51-64 152-64z" /><glyph unicode="e" d="M558-29Q438-29 353.5.0T213 83Q98 195 98 410q0 154 60 304t166 259q45 47 90 78t94 53q51 23 102.5 34t108.5 11q95 0 169-30t127-84q55-57 83-135.5t28-170.5q0-21-1.5-40t-3.5-44q-2-16-5.5-48.5T1104 516H297q-6-30-9-58-3-26-3-49 0-135 77-209 38-37 94-55t128-18q47 0 94.5 7.5T779 156q105 29 218 84L961 57q-57-23-105-38T756-7q-50-11-97-16.5T558-29zM938 659q3 14 5 25t3 20q1 8 1.5 16.5t.5 20.5q0 115-65 183-32 34-77.5 50.5T706 991q-60 0-118-21t-111-69q-46-42-84.5-103T332 659h606z" /><glyph unicode="f" d="M523 977H224l29 143h297l16 78q21 103 53.5 168.5T701 1474q50 42 119.5 62t163.5 20h221l-31-153H966q-94 0-143-41-26-23-41.5-58.5T755 1219l-21-99h385l-26-143H708L517 0H333z" /><glyph unicode="g" d="M376-440q-43 0-82.5 3.5T214-426q-78 13-155 41l37 182q40-23 76-39.5t76-27.5q80-23 158-23 148 0 231 80 42 40 70.5 105T756 53l24 117Q721 83 635 38q-45-23-93-34.5T443-8q-79 0-142.5 27T192 99q-46 54-68 129.5T102 398q0 63 10 132t30 138q39 135 112 243 40 60 83 101.5t95 72.5q104 62 216 62 99 0 176-48 35-23 63.5-56t46.5-78l47 151h164L942 72q-53-272-186-392-134-120-380-120zM513 145q38 0 74 11t71 34q65 44 112 129 26 46 46 100.5T847 521q14 55 20.5 111t6.5 101q0 126-56 192-28 33-67 49.5T664 991q-84 0-149.5-46T402 823q-50-81-77.5-187.5T297 421q0-83 15.5-131.5T353 212q29-32 70-49.5t90-17.5z" /><glyph unicode="h" d="M387 1556h184L455 952q74 96 163 146 43 24 88 36.5t101 12.5q66 0 120-18t92-54q38-35 57.5-86.5T1096 877q0-17-1.5-40.5T1091 793t-5.5-42-10.5-57L940 0H756l135 695q3 9 2 8.5t1 5.5q4 21 6.5 35.5T905 771t3 22.5 1 23.5q0 44-11.5 74.5T863 944q-46 43-133 43-129 0-217-93-89-94-122-261L268 0H84z" /><glyph unicode="i" d="M627 1323q-15 0-22.5 9t-4.5 24l34 173q4 27 32 27h124q15 0 22.5-9t4.5-24l-34-173q-5-27-32-27H627zM749-4Q575-4 492 60q-85 64-85 192 0 17 1.5 33.5T412 322t5.5 42 8.5 44l133 568H313l29 144h430L610 404q-4-16-6.5-35t-3.5-27q-2-16-3-25.5t-1-19.5q0-74 44-109 45-36 136-36h211L956-4H749z" /><glyph unicode="j" d="M811 1323q-15 0-22.5 9t-4.5 24l34 173q4 27 32 27h124q15 0 22.5-9t4.5-24l-34-173q-5-27-32-27H811zM55-270h233q45 0 83.5 14.5T438-211q54 58 80 191l192 997H393l28 143h502L702-20q-19-97-53-177t-89-133q-101-96-282-96H24z" /><glyph unicode="k" d="M393 1556h191L414 682l549 438h241L684 698 1057 0H844L537 582 369 449 281 0H90z" /><glyph unicode="l" d="M739-8Q565-8 482 56q-41 31-63 78.5T397 248q0 17 1.5 34t3.5 36 5.5 39.5T416 404l211 1008H311l29 144h5e2L6e2 4e2q-4-18-5.5-29t-2-17.5-.5-9V340q0-5-3-12.5t-3-32.5q0-76 44-111 45-36 136-36h211L946-8H739v0z" /><glyph unicode="m" d="M203 1120h148l1-96q43 60 1e2 92 55 31 120 31 74 0 120-37 45-37 56-104 20 35 46.5 61.5T850 1111q31 18 66.5 27t70.5 9q42 0 78-13t62-40q30-32 40.5-72.5T1178 943q0-20-2-52.5t-7-66.5q-2-18-5-36t-6.5-38.5-8-45T1139 649L1012 0H844l125 641q3 15 7.5 38t8.5 45.5 7.5 41.5 4.5 26q5 26 7 50t2 39q0 24-6 47t-17 37q-22 28-74 28-41 0-68.5-16T793 929q-24-38-43.5-105.5T707 641L582 0H414l125 641q3 13 6.5 33t7.5 41.5 8 42.5 6 37q3 20 5.5 44t2.5 42q0 23-5 44t-18 38q-23 30-74 30-35 0-63-13.5T366 934q-11-17-21.5-42t-21-60-21.5-82.5T279 641L154 0H-14z" /><glyph unicode="n" d="M303 1120h164l-12-168q74 96 163 146 43 24 88 36.5t101 12.5q66 0 120-18t92-54q38-35 57.5-86.5T1096 877q0-17-1.5-40.5T1091 793t-5.5-42-10.5-57L940 0H756l135 695q3 9 2 8.5t1 5.5q4 21 6.5 35.5T905 771t3 22.5 1 23.5q0 44-11.5 74.5T863 944q-46 43-133 43-129 0-217-93-89-94-122-261L268 0H84z" /><glyph unicode="o" d="M510-29q-92 0-166 26T218 80q-47 51-74 129t-27 187q0 130 41 267 19 63 47.5 126T274 910q81 118 190 177 112 60 253 60 91 0 166.5-26t128.5-81q102-107 102-314 0-135-41-273-23-75-53-137t-62-109q-42-61-88.5-104.5T766 30 644.5-14 510-29zm23 156q87 0 157.5 45T812 298q27 42 47 91.5T892.5 493 913 604t7 114q0 72-12.5 123T864 927q-30 34-71.5 49T702 991q-90 0-159.5-45T422 820q-50-79-79.5-188T313 402q0-72 12.5-124t43.5-87q29-32 71.5-48t92.5-16z" /><glyph unicode="p" d="M299 1120h164l-8-143q61 82 147 126t186 44q76 0 141-25t111-79q45-52 66.5-127t21.5-172q0-64-9.5-135.5T1089 465q-21-77-50-141.5T979 211q-38-60-82-104t-95-75Q701-29 578-29q-1e2.0-170 42-72 43-115 128L182-426H-2zM567 127q43 0 81 12t70 33q34 23 61 54.5t50 74.5q24 45 44 99.5T906 509q14 58 21 115t7 107q0 73-13.5 120.5T883 928q-27 33-66.5 48T728 991q-83 0-152-45-37-24-64.5-56T459 813q-26-46-45-97.5T382 611q-14-57-21-114.5T354 392q0-69 14-117.5t41-80.5q28-33 68-50t90-17z" /><glyph unicode="q" d="M774 141Q712 57 631 14q-82-43-185-43-81 0-145.5 25.5T190 73q-44 49-68 123T98 372q0 65 10.5 136T139 652q20 70 48 135t65 122q39 61 83 104.5t97 73.5q105 60 231 60 57 0 98.5-11t72.5-31q68-43 102-128l47 143h164L848-426H664zM496 127q85 0 154 46 36 24 66 59t52 73q48 84 77 203 14 59 21.5 116t7.5 107q0 63-12.5 112T821 926q-53 65-154 65-84 0-152-44-35-23-63-55t-51-76q-25-46-44-99.5T324 607q-29-118-29-221 0-131 51-195t150-64z" /><glyph unicode="r" d="M404 1120h164l-20-219q67 120 174 183 106 63 239 63 35 0 69-4.5t62-13.5q25-8 50.5-22t46.5-32l-35-186q-23 22-49.5 38.5T1050 955q-30 11-64 16.5t-69 5.5q-82 0-154-28t-130-85-97-137-58-178L371 0H187z" /><glyph unicode="s" d="M477-29q-48 0-92.5 4.5T302-12q-45 9-92 22.5T115 41l37 190q48-26 93-46t90-33q45-14 86.5-20.5T507 125q132 0 216 60 42 30 63 67.5t21 76.5q0 26-10 48.5t-33 42-60.5 36T611 487l-28 7-67 18q-65 17-111.5 40.5T327 608q-61 64-61 172 0 79 32.5 147.5T397 1047q62 48 151.5 74t206.5 26q43 0 85-4t83-12 79-20.5 75-29.5l-35-180q-35 23-74.5 40.5T893 970q-77 23-162 23-62 0-115-12.5T525 942q-40-27-58-63t-18-71q0-36 17.5-61t47.5-43 70-32 86-27q15-5 16-4.5t6-1.5l72-18q51-13 97-36t78-56q29-31 43.5-69t14.5-91q0-85-37-159T853 82Q781 26 684-1.5T477-29z" /><glyph unicode="t" d="M682-4q-89 0-148 15t-97 41q-40 28-59.5 69T358 222q0 12 1 28.5t3 33.5q2 13 5 34t8 47l119 612H195l28 143h299l62 318h184l-61-318h417l-28-143H678L559 365q-3-17-4.5-26t-2.5-14-1-7.5-1-7.5q-3-26-3-47 0-67 39-93 39-27 141-27h207L905-4H682v0z" /><glyph unicode="u" d="M409-27q-65 0-117.5 18T201 46q-39 38-57.5 89.5T125 248q0 18 1.5 39.5T130 332q3 30 5.5 49.5T143 426l133 694h185L326 426q-1-6-2.5-16t-3-20.5-3-19.5l-2.5-15q-2-17-3-32t-1-25q0-37 11-68.5t36-54.5q23-21 56.5-31.5T489 133q60 0 115 22.5T704 225q45 48 75 114.5T825 487l123 633h185L915 0H751l13 168Q690 70 602 22q-47-26-94.5-37.5T409-27z" /><glyph unicode="v" d="M182 1120h178l154-956 502 956h198L6e2.0H362z" /><glyph unicode="w" d="M92 1120h176l15-905 268 578h162l49-578 362 905h191L829 0H664l-60 623L307 0H141z" /><glyph unicode="x" d="M524 596l-293 524h196l217-395 369 395h225L726 573 1044 0H847L603 444 186 0H-40z" /><glyph unicode="y" d="M20-272h108q83 0 140 47 62 50 118 159l43 84-217 1102h183l172-862 483 862h205L816 360q-33-58-52-90t-29.5-50.5-16-28.5-12.5-22.5-19.5-34T651 72q-51-90-84.5-148t-56-95.5-38-60.5-30.5-43q-27-35-58.5-64.5T310-389q-74-37-171-37H-9z" /><glyph unicode="z" d="M111 168l784 805H291l28 147h814l-33-168-785-805h629L915 0H78z" /><glyph unicode="{" d="M685-334q-187 0-268 54-82 55-82 178v13q-1 14 0 24.5t3 27.5q4 29 6.5 44.5T349 34l45 236q2 5 2 7.5t1 4.5q5 25 7.5 45t2.5 45q0 49-12 79t-37 49q-49 37-162 37h-92l29 147h91q146 0 208 55 62 54 93 205l50 244q25 124 61 194 36 71 90 111 22 16 49.5 28.5T843 1542q34 7 83 10.5t118 3.5h82l-29-143h-85q-69 0-111-9.5t-65-29.5q-25-22-44-70t-33-120l-51-252q-15-75-37.5-133.5T615 7e2q-59-71-171-94 72-18 113-69 40-52 40-127 1-13 .5-22.5T594 353q-2-16-3-24.5t-2-14.5-2.5-12.5T583 283L536 39q-4-20-5.5-33T528-20l-1.5-25.5t-.5-13-.5-6.5-.5-5q0-64 43-92t140-28h78l-29-144h-72v0z" /><glyph unicode="|" d="M530 1565h172V-483H530v2048z" /><glyph unicode="}" d="M64-190h78q137 0 183 40 22 19 41 63t36 126l51 252q15 75 37 133.5t56 99.5q61 73 172 92-74 20-114 70-20 26-30 55.5T564 813q0 12 1 25.5t3 31.5q2 21 3.5 34t6.5 36l47 243q0 2 1.5 11t3 19.5 3 19 1.5 10.5q1 12 1.5 25t.5 22q0 66-42 95-43 28-141 28h-77l26 143h74q1e2.0 165-14t104-40 60-67.5 21-114.5q0-14-1-26.5t-3-34.5q-2-19-3.5-32t-6.5-39l-45-236-2-12q-5-25-7.5-48t-2.5-43q0-89 49-126t161-37h92l-29-147h-91q-143 0-207-55-32-27-56.5-77T634 279L587 35q-12-63-28-111.5T525-160q-36-71-90-110-25-18-53-29.5T319-319q-69-15-201-15H36z" /><glyph unicode="~" d="M88 666q78 60 151 87t156 27q28 0 53-3t49-8q20-5 53-15t73-27q8-3 12-5l7-3.5t5.5-3 7.5-3.5q114-55 210-55 69 0 138 31 68 30 142 92V606q-75-58-146-86-33-13-69.5-20.5T850 492q-30 0-56 4t-50.5 10.5-48.5 16-50 20.5q-11 4-17.5 7t-9.5 4.5l-4 2t-2 .5q-76 33-128 45-53 12-102 12-41 0-79.5-7.5T232 585q-31-13-68.5-36.5T88 492v174z" /><glyph unicode="&#xa0;" /><glyph unicode="&#xa1;" d="M713 1170q-33 0-58 9.5t-43 31.5q-21 25-28 55t-7 53q0 41 16 76t45 64q29 28 63 41.5t70 13.5q31 0 58-10t46-30q22-24 28-52.5t6-43.5q0-43-18-85.5t-53-74.5q-24-23-54.5-35.5T713 1170zM498 655l108 357h162l-39-357L602 0H369z" /><glyph unicode="&#xa2;" d="M510-27q-88 9-161 44.5T225 113t-76.5 140.5T123 434q0 88 20 175.5T204 778q44 88 101 151.5T425 1036q38 26 75.5 44.5T574 1112q76 27 163 33l56 287h102l-55-287q58-3 123-20 64-17 124-48l-32-172q-50 38-110 60t-134 28L641 123q32 2 66 9.5t69 18.5 70.5 26.5T920 213L887 41q-20-9-41-16.5T805.5 11 770 .5 744-7q-30-8-65-13t-67-7l-55-286H455zM709 991q-165-15-279-179-58-84-86.5-180.5T315 431q0-75 15-126t44-89q28-36 67.5-59t99.5-30z" /><glyph unicode="&#xa3;" d="M25 170h237l90 465H154l26 143h199l47 238q27 137 72 229t110 152q63 59 150 91t199 32q73 0 135-14 20-5 58.5-16.5t78.5-27.5l-37-184q-54 43-114 66-60 22-126 22-71 0-123.5-21.5T738 1281t-66-110.5T623 995l-43-217h370l-28-143H551l-90-465h536L965 0H-8z" /><glyph unicode="&#xa4;" d="M205 285l166 166q-19 31-28 52.5T326 549t-11.5 45.5T311 642q0 28 4 50.5t12 45.5q16 48 46 91L205 995l94 95 166-168q46 31 92 46 45 15 94 15 23 0 48-3.5t47-10.5 48-19 50-26l166 166 90-93-166-166q15-25 27.5-51t17.5-44q7-22 10.5-47.5T993 640q0-49-15-94-15-47-46-91l168-166-94-94-166 167q-46-31-91-46-47-15-97-15-26 0-47.5 3.5T557 316t-46.5 16.5T461 358L297 195zM653 426q44 0 83 15.5t70 46.5q30 31 46 70.5t16 84.5-16 84-45 68q-30 30-69.5 45.5T653 856q-43 0-82-15t-70-45q-29-28-46-67t-17-87q0-89 62-153 30-30 68.5-46.5T653 426z" /><glyph unicode="&#xa5;" d="M444 524H47l23 111h397l6 35-55 151H109l22 111h246l-205 561h207l223-664 459 664h211L868 932h252l-22-111H786L676 670l-10-35h393l-23-111H643L545 0H346z" /><glyph unicode="&#xa6;" d="M530 1432h172V674H530v758zm0-1024h172v-758H530v758z" /><glyph unicode="&#xa7;" d="M411-201q-40 0-79.5 4T260-187q-36 7-78.5 18.5T1e2-143l33 161q37-18 73.5-31.5T279-37t68.5-15 67.5-5q52 0 97.5 12T591-10t49.5 54.5T657 110q0 54-43.5 107.5T474 337l-87 60q-125 86-165 141-21 29-30.5 61t-9.5 68q0 45 15 90.5t49 90.5q32 42 77 79.5T428 997q-42 39-59 77-10 21-14.5 43t-4.5 50q0 74 30.5 137t89.5 111q60 48 139 72t170 24q35 0 70-3.5t72-10.5q39-8 74.5-18.5t73.5-24.5l-33-164q-34 18-68.5 32.5T897 1348t-68.5 15.5-61.5 4.5q-48 0-90.5-12t-75.5-37-49.5-55-16.5-61q0-43 32.5-86t101.5-88l48-32 86-59q63-43 104-79t63-65 32-62.5 10-68.5q0-47-16.5-95T946 475q-35-48-80.5-83T766 332q41-35 62-80 9-20 14.5-46t5.5-58q0-73-30-137.5T728-103q-61-49-142.5-73.5T411-201zM678 401q84 51 128 107t44 108q0 30-14.5 58T797 727q-27 28-79.5 67T596 877l-80 51q-81-52-125-108-43-55-43-109t43-101q20-22 59.5-54T559 479z" /><glyph unicode="&#xa8;" d="M469 1350q-15 0-22.5 9t-4.5 24l28 142q4 27 32 27h143q15 0 22.5-9t4.5-24l-28-142q-5-27-32-27H469zm391 0q-15 0-22.5 9t-4.5 24l28 142q4 27 32 27h143q15 0 22.5-9t4.5-24l-28-142q-5-27-32-27H860z" /><glyph unicode="&#xa9;" d="M616 125q-66 0-123 11.5T382 171q-55 23-106 57.5T181 307q-42 42-77.5 93.5T45 508Q0 614 0 741q0 63 11.5 122T46 977q23 54 56.5 104t79.5 97q47 48 97 81t102 54q109 45 235 45t236-45q57-23 107-57.5t92-77.5q49-50 82.5-101.5T1187 977q46-108 46-235 0-128-45-234-22-52-56.5-104t-79.5-97q-42-42-93-77t-108-59q-108-46-235-46zm1 102q104 0 195 38 47 20 89.5 49t77.5 64q34 34 64.5 78t49.5 90q37 89 37 195 0 54-9.5 103t-28.5 95q-38 92-113 167-74 74-165 112-90 37-198 37-107 0-196-37-92-38-166-112-76-76-113-167-39-93-39-197 0-54 9.5-101.5T141 546q24-57 54-97.5t59-69.5q38-38 78.5-66t88.5-48q45-19 93.5-28.5T617 227zm21 142q-92 0-163.5 26T353 469t-76.5 117T250 741q0 85 26.5 155t77.5 120q50 48 122 74t162 26q30 0 59-3t58-8q28-5 53.5-13t55.5-21V963q-59 29-113 42-28 7-56.5 10t-53.5 3q-57 0-105-17.5T453 945q-32-35-50-87.5T385 739q0-63 17.5-114.5T455 538t84.5-53T657 467q31 0 56 3.5t50 9.5 51 15.5 50 22.5V414q-26-11-53-20t-56-14-57.5-8-59.5-3z" /><glyph unicode="&#xaa;" d="M534 698q-61 0-104.5 17T358 758q-63 60-63 163 0 71 29 126t82 93q112 79 311 79h174q0 4 1 9 2 11 2.5 24t.5 21q0 28-9.5 53.5T850 1372q-22 17-55 25t-84 8q-35 0-69-4t-68-12-69-21.5-71-30.5l23 127q75 29 148 42 37 7 71 10.5t69 3.5q145 0 218-62t73-186q0-13-.5-27.5t-1.5-24.5q-1-7-3.5-26t-4.5-29l-86-448H797l22 112q-26-32-59-56.5T692 732q-39-18-79-26t-79-8zm47 119q49 0 96 16.5t85 50.5q41 36 66 86.5t36 104.5l6 29H729q-149 0-217-40-35-20-52.5-52T442 941q0-59 37-92 18-16 42.5-24t59.5-8zM246 592h676l-23-123H223z" /><glyph unicode="&#xab;" d="M74 559l16 82 549 418-43-211-350-264 250-267-35-176zm467 0 16 82 549 418-43-211-350-264 250-267-35-176z" /><glyph unicode="&#xac;" d="M977 690H88v172h1057V371H977v319z" /><glyph unicode="&#xad;" d="M336 643h522l-33-164H303z" /><glyph unicode="&#xae;" d="M616 125q-66 0-123 11.5T382 171t-105 57-96 79q-44 44-78 94.5T46 507q-23 54-34.5 111T0 741q0 128 46 236 23 54 57 104.5t79 96.5q43 44 92.5 78t106.5 57q109 45 235 45t236-45q57-23 107-57.5t92-77.5q49-50 82.5-101.5T1187 977q46-108 46-235 0-128-45-234-22-52-56.5-104t-79.5-97q-42-42-93-77t-108-59q-108-46-235-46zm1 102q104 0 195 38 47 20 89.5 49t77.5 64q34 34 64.5 78t49.5 90q37 89 37 195 0 54-9.5 103t-28.5 95q-38 92-113 167-74 74-165 112-90 37-198 37-107 0-196-37-92-38-166-112-76-76-113-167-39-93-39-197 0-54 9.5-101.5T141 546q24-57 54-97.5t59-69.5q38-38 78.5-66t88.5-48q45-19 93.5-28.5T617 227zM362 11e2h238q148 0 219-49 72-50 72-148 0-38-11-67t-33-52q-44-47-124-61 10-2 22-12t26-26q6-8 15-19t18-24l18-26t16-24l114-186H809L702 580q-24 39-44.5 65T623 681q-29 21-76 21h-55V406H362v694zM594 784q89 0 127 27 37 27 37 89 0 29-8.5 52.5T721 990q-38 26-127 26H492V784h102z" /><glyph unicode="&#xaf;" d="M469 1526h598l-29-148H440z" /><glyph unicode="&#xb0;" d="M612 885q-63 0-121 22.5T388 975q-40 40-64.5 97T299 1199q0 67 23.5 125t67.5 103q43 44 100.5 68.5T615 1520q30 0 62.5-5.5T740 1496q29-12 56-31.5t47-39.5q24-25 41.5-53t26.5-50q23-55 23-120 0-66-24-124.5T842 976q-43-42-102.5-66.5T612 885zm2 127q41 0 77 15t61 40q29 29 42 64t13 70q0 38-14.5 73t-41.5 62q-23 23-58 39t-77 16q-40 0-74.5-14.5T482 1337q-27-27-41.5-63t-14.5-75q0-41 14.5-74.5T481 1065q27-26 61-39.5t72-13.5z" /><glyph unicode="&#xb1;" d="M532 672H88v170h444v329h168V842h445V672H7e2V340H532v332zM88 170h1057V0H88v170z" /><glyph unicode="&#xb2;" d="M328 1230l203 167q157 128 235 215t78 148q0 18-7.5 37t-24.5 34.5-43.5 25.5-64.5 10q-48 0-109-18.5T451 1789l24 127q85 29 146.5 42.5T737 1972q63 0 110.5-16.5T927 1912t48-61 16-70q0-80-78.5-181T682 1385l-20-15-170-136h395l-23-114H307z" /><glyph unicode="&#xb3;" d="M536 1103q-63 0-126 10.5T287 1144l24 121q67-29 119-42t106-13 98 12 75 34.5 48 54.5 17 73q0 127-174 127h-72l21 106h72q49 0 88.5 10.5T777 1657t43.5 45.5T836 1760q0 52-42.5 77.5T671 1863q-50 0-98.5-10T461 1820l22 115q145 35 245 35 125 0 190-49.5t65-137.5q0-83-56-140.5T772 1566q74-13 112-58t38-120q0-64-27-116.5t-77.5-90-122-58T536 1103z" /><glyph unicode="&#xb4;" d="M907 1638h219l-395-376H575z" /><glyph unicode="&#xb5;" d="M252 1120h187L303 424q-2-11-4.5-27.5T294 366q-3-27-3-47 0-40 12.5-76.5T345 180q30-27 71.5-38t86.5-11q135 0 218 83 39 39 68.5 101T836 467l127 653h186L981 258q-1-4-2.5-16.5T977 227q-1-7-1.5-12.5T975 202q0-29 13-45 5-7 13.5-11.5t20.5-4.5q10 0 27 5 5 2 18.5 6.5T1096 164l-29-148q-19-11-41-20.5T990-18q-36-11-73-11-31 0-56.5 10T814 14q-19 20-29.5 47T774 129Q722 47 652 9q-71-38-166-38T330 13q-63 42-94 124L127-426H-49z" /><glyph unicode="&#xb6;" d="M506 649q-177 4-279 99-102 94-102 256 0 209 173 349t437 140h406L813-197H674l303 1567H786L483-197H342z" /><glyph unicode="&#xb8;" d="M366-395q-20 0-43.5 1.5T276-388q-45 7-94 23l25 129q20-10 39-17t38-12q36-9 68-9 67 0 105 30 19 15 28 36t9 45q0 17-4 35.5T480-93q-5 12-17 38.5T436 0h119q19-32 32.5-60t22.5-51q17-45 17-87t-17.5-78.5T557-341q-69-54-191-54z" /><glyph unicode="&#xb9;" d="M369 1230h206l117 611-231-41 22 116 238 39h137l-141-725h205l-21-110H348z" /><glyph unicode="&#xba;" d="M630 698q-78 0-136 24t-1e2 67q-44 45-65.5 107T307 1030q0 46 8.5 93t23.5 89q18 50 43.5 91t45.5 65q29 36 65.5 64.5T570 1481q41 20 83.5 29.5t90.5 9.5q148 0 235-91 41-43 63.5-105t22.5-140q0-42-7.5-87.5T1033 1003q-16-44-38-82.5T946 850q-30-36-65.5-64.5T805 737q-80-39-175-39zm15 115q53 0 102 26.5t87 80.5q38 53 57.5 121t19.5 138q0 107-49 166-26 32-61 46t-73 14q-57 0-104.5-28t-83.5-79q-38-54-57.5-120.5T463 1041q0-57 12.5-97.5T513 873t59-45 73-15zM246 592h676l-23-123H223z" /><glyph unicode="&#xbb;" d="M145 352l350 262-250 269 35 176 387-418-14-82-551-418zm467 0 350 262-250 269 35 176 387-418-14-82-551-418z" /><glyph unicode="&#xbc;" d="M111 934h206l117 611-231-41 22 116 238 39h137L459 934h205l-21-110H90zM47 612l1059 258 27-108L70 504zM799-86H413l23 121 465 530h162L958 25h117l-20-111H936l-33-184H764zM821 25l76 391L555 25h266z" /><glyph unicode="&#xbd;" d="M111 934h206l117 611-231-41 22 116 238 39h137L459 934h205l-21-110H90zM47 612l1059 258 27-108L70 504zM482-160 685 7q153 125 233 213t80 150q0 20-9 40.5T961 447q-36 30-1e2 30-23 0-53-4.5T749 459q-27-8-64.5-24T605 399l24 127q42 14 78.5 25t68.5 18q31 7 60 10t56 3q62 0 107.5-14.5T1077 527q34-28 51-66.5t17-73.5q0-39-21.5-85t-61-96.5-97-103.5T836-5l-20-15-170-136h395l-23-114H461z" /><glyph unicode="&#xbe;" d="M313 809q-34 0-66 3t-64 8-61.5 12T60 850l24 121q69-29 119-42 51-13 105-13t98 11.5 76 34.5q34 24 49.5 55.5T547 1087q0 66-42 98-44 32-132 32h-72l21 106h72q98 0 156 40 59 41 59 103 0 53-43 78-22 13-54 19t-72 6q-48 0-95-10-51-11-111-33l22 115q35 8 68 14.5t64 11.5q61 9 115 9 58 0 105.5-12t82.5-38q65-50 65-140 0-80-57-138-27-28-65-47.5t-89-28.5q72-12 111-57 19-22 29-51.5t10-68.5q0-127-104-207-103-79-278-79zM47 612l1059 258 27-108L70 504zM799-86H413l23 121 465 530h162L958 25h117l-20-111H936l-33-184H764zM821 25l76 391L555 25h266z" /><glyph unicode="&#xbf;" d="M752 1252q-26 0-48 8.5t-40 28.5q-19 22-26 46t-7 50q0 40 15.5 70.5T686 1508t55.5 35 64.5 13q23 0 48-8.5t43-28.5q15-17 23-41t8-52q0-34-13-66.5t-41-58.5q-23-21-54.5-35t-67.5-14zM495-27q-72 0-138.5 19T239 54q-48 41-72 95t-24 118q0 89 49 169 26 43 69.5 89T371 625l104 86q39 32 69 63.5t46 57.5q15 25 27 62.5t18 74.5l20 123h191l-29-154q-9-48-24.5-88.5T759 780q-21-34-58-73t-93-86l-106-89q-85-71-120-127-36-56-36-113 0-73 56-114t153-41q42 0 84.5 8.5T734 173q50 18 98.5 42T938 274L901 86q-59-31-112.5-52T692 1q-51-14-102-21t-95-7z" /><glyph unicode="&#xc0;" d="M551 1853h182l147-264H741zm88-360h246L1051 0H850l-35 389H295L111 0h-217zM801 551l-66 774-364-774h430z" /><glyph unicode="&#xc1;" d="M885 1852h208l-307-264H626zM639 1493h246L1051 0H850l-35 389H295L111 0h-217zM801 551l-66 774-364-774h430z" /><glyph unicode="&#xc2;" d="M704 1854h213l158-266H942l-139 178-209-178H442zm-65-361h246L1051 0H850l-35 389H295L111 0h-217zM801 551l-66 774-364-774h430z" /><glyph unicode="&#xc3;" d="M442 1627q34 107 97 164 31 28 67.5 41.5T684 1846q20 0 35.5-3t31.5-8q33-11 66-36l35-26q19-14 36-20 8-3 16-5t20-2q23 0 39 7t30 20q29 27 39 73h125q-31-108-95-164-29-26-67-40.5t-84-14.5q-20 0-34 3t-28 8q-16 6-29.5 13.5T790 1670l-34 25-2 1q-43 32-81 32-34 0-60-25-26-24-46-76H442zm197-134h246L1051 0H850l-35 389H295L111 0h-217zM801 551l-66 774-364-774h430z" /><glyph unicode="&#xc4;" d="M5e2 1620q-15 0-22.5 9t-4.5 24l28 143q4 27 32 27h144q27 0 27-24 0-6-1-9l-29-143q-6-27-32-27H5e2zm391 0q-15 0-22.5 9t-4.5 24l28 143q4 27 32 27h143q15 0 22.5-9t4.5-24l-28-143q-5-27-32-27H891zM639 1493h246L1051 0H850l-35 389H295L111 0h-217zM801 551l-66 774-364-774h430z" /><glyph unicode="&#xc5;" d="M6e2 1415q-50 34-76 89t-26 120q0 59 20.5 109t58.5 88q37 38 87 59t109 21q58 0 107-21t87-59q37-37 58.5-85.5T1047 1624q0-43-10.5-77.5T1007 1482q-41-65-110-96L1051 0H850l-35 389H295L111 0h-217zm172 60q33 0 60.5 12t47.5 32q44 44 44 107 0 34-12 61t-32 47q-23 23-51.5 33.5T771 1778q-63 0-106-43-44-44-44-108 0-65 44-109 19-19 46.5-31t60.5-12zm29-924-66 774-364-774h430z" /><glyph unicode="&#xc6;" d="M555 1493h752l-33-170H936l-86-442h307l-33-170H817L711 170h356L1034 0H492l75 383H215L39 0h-184zm45-942 150 772H647L291 551h309z" /><glyph unicode="&#xc7;" d="M1058 1499q80-21 154-61l-41-207q-64 62-135 94-69 31-152 31-95 0-175-40t-152-124q-51-60-93.5-140T390 878q-33-1e2-48.5-196T326 503q0-187 78-277 34-39 89-65t135-26q86 0 177 32 89 31 178 93L944 53q-42-20-84-35.5T775-9q-23-5-48.5-9.5T673-25q14-25 23.5-46t17.5-40q17-45 17-87t-17.5-78.5T661-341q-69-54-191-54-20 0-43.5 1.5T380-388q-45 7-94 23l25 129q20-10 41.5-17.5T388-265q34-9 69-9 31 0 58 7.5t46 22.5 28 36 9 45q0 17-4 35.5T584-93q-4 9-11.5 27T554-28q-103 7-181 41t-132 90q-62 64-94 159.5T115 492q0 99 17.5 206T185 913q35 110 80.5 195.5T369 1266q56 69 114 115t123 77q130 62 287 62 46 0 85.5-5t79.5-16z" /><glyph unicode="&#xc8;" d="M596 1849h182l147-264H786zM344 1493h885l-33-170H512l-86-442h653l-32-170H393L289 170h702L958 0H53z" /><glyph unicode="&#xc9;" d="M930 1859h208l-307-264H671zM344 1493h885l-33-170H512l-86-442h653l-32-170H393L289 170h702L958 0H53z" /><glyph unicode="&#xca;" d="M749 1861h213l158-266H987l-139 178-209-178H487zM344 1493h885l-33-170H512l-86-442h653l-32-170H393L289 170h702L958 0H53z" /><glyph unicode="&#xcb;" d="M545 1627q-15 0-22.5 9t-4.5 24l28 143q4 27 32 27h144q27 0 27-24 0-6-1-9l-29-143q-6-27-32-27H545zm391 0q-15 0-22.5 9t-4.5 24l28 143q4 27 32 27h143q15 0 22.5-9t4.5-24l-28-143q-5-27-32-27H936zM344 1493h885l-33-170H512l-86-442h653l-32-170H393L289 170h702L958 0H53z" /><glyph unicode="&#xcc;" d="M557 1859h182l147-264H747zM90 170h313l224 1153H313l33 170h830l-33-170H829L606 170h314L887 0H57z" /><glyph unicode="&#xcd;" d="M891 1859h208l-307-264H632zM90 170h313l224 1153H313l33 170h830l-33-170H829L606 170h314L887 0H57z" /><glyph unicode="&#xce;" d="M710 1861h213l158-266H948l-139 178-209-178H448zM90 170h313l224 1153H313l33 170h830l-33-170H829L606 170h314L887 0H57z" /><glyph unicode="&#xcf;" d="M506 1627q-15 0-22.5 9t-4.5 24l28 143q4 27 32 27h144q27 0 27-24 0-6-1-9l-29-143q-6-27-32-27H506zm391 0q-15 0-22.5 9t-4.5 24l28 143q4 27 32 27h143q15 0 22.5-9t4.5-24l-28-143q-5-27-32-27H897zM90 170h313l224 1153H313l33 170h830l-33-170H829L606 170h314L887 0H57z" /><glyph unicode="&#xd0;" d="M129 709H2l29 149h129l123 635h303q273 0 409-124 69-63 102-157.5t33-225.5q0-74-10.5-157T1088 659q-22-90-51.5-167.5T975 354q-53-98-118.5-165T716 82Q561 0 295 0H-8zM324 166q99 0 170.5 16.5T621 229q63 35 104.5 84.5T8e2 432q26 53 49 121t41 154q17 80 25.5 153t8.5 133q0 95-20 157.5T842 1251q-82 76-275 76H453l-91-469h267l-29-149H334L227 166h97z" /><glyph unicode="&#xd1;" d="M438 1627q34 107 97 164 31 28 67.5 41.5T680 1846q20 0 35.5-3t31.5-8q33-11 66-36l35-26q19-14 36-20 8-3 16-5t20-2q23 0 39 7t30 20q29 27 39 73h125q-31-108-95-164-29-26-67-40.5t-84-14.5q-20 0-34 3t-28 8q-16 6-29.5 13.5T786 1670l-34 25-2 1q-43 32-81 32-34 0-60-25-26-24-46-76H438zM285 1493h256L805 264l239 1229h195L948 0H692L428 1229 188 0H-6z" /><glyph unicode="&#xd2;" d="M543 1859h182l147-264H733zM478-29Q276-29 179 94 82 216 82 473q0 64 5.5 120T104 712q12 70 26.5 131T168 975q16 50 31 89t32 77q20 43 37.5 73.5T303 1271q86 128 198 189 51 28 112 44t140 16q1e2.0 175-29t126-94q97-122 97-373 0-60-5.5-119T1129 781q-22-128-66-265-16-50-30.5-88.5T1001 351q-14-29-33-64.5T928 219q-39-59-89.5-107T731 32Q622-29 478-29zm20 164q43 0 84 12.5t78 38.5q40 29 68.5 67t49.5 78q19 36 36.5 79t32.5 89 28 93 23 92q23 103 34.5 202.5T944 1067q0 86-13 137.5t-39 84.5q-26 32-65.5 49.5T734 1356q-44 0-85-12.5t-77-38.5q-35-26-64.5-63t-52.5-82q-35-66-67-157.5T333 808q-23-1e2-34.5-197.5T287 429q0-44 3.5-78.5t10-61.5 16.5-48 23-38q29-36 69.5-52t88.5-16z" /><glyph unicode="&#xd3;" d="M897 1859h208l-307-264H638zM478-29Q276-29 179 94 82 216 82 473q0 64 5.5 120T104 712q12 70 26.5 131T168 975q16 50 31 89t32 77q20 43 37.5 73.5T303 1271q86 128 198 189 51 28 112 44t140 16q1e2.0 175-29t126-94q97-122 97-373 0-60-5.5-119T1129 781q-22-128-66-265-16-50-30.5-88.5T1001 351q-14-29-33-64.5T928 219q-39-59-89.5-107T731 32Q622-29 478-29zm20 164q43 0 84 12.5t78 38.5q40 29 68.5 67t49.5 78q19 36 36.5 79t32.5 89 28 93 23 92q23 103 34.5 202.5T944 1067q0 86-13 137.5t-39 84.5q-26 32-65.5 49.5T734 1356q-44 0-85-12.5t-77-38.5q-35-26-64.5-63t-52.5-82q-35-66-67-157.5T333 808q-23-1e2-34.5-197.5T287 429q0-44 3.5-78.5t10-61.5 16.5-48 23-38q29-36 69.5-52t88.5-16z" /><glyph unicode="&#xd4;" d="M696 1861h213l158-266H934l-139 178-209-178H434zM478-29Q276-29 179 94 82 216 82 473q0 64 5.5 120T104 712q12 70 26.5 131T168 975q16 50 31 89t32 77q20 43 37.5 73.5T303 1271q86 128 198 189 51 28 112 44t140 16q1e2.0 175-29t126-94q97-122 97-373 0-60-5.5-119T1129 781q-22-128-66-265-16-50-30.5-88.5T1001 351q-14-29-33-64.5T928 219q-39-59-89.5-107T731 32Q622-29 478-29zm20 164q43 0 84 12.5t78 38.5q40 29 68.5 67t49.5 78q19 36 36.5 79t32.5 89 28 93 23 92q23 103 34.5 202.5T944 1067q0 86-13 137.5t-39 84.5q-26 32-65.5 49.5T734 1356q-44 0-85-12.5t-77-38.5q-35-26-64.5-63t-52.5-82q-35-66-67-157.5T333 808q-23-1e2-34.5-197.5T287 429q0-44 3.5-78.5t10-61.5 16.5-48 23-38q29-36 69.5-52t88.5-16z" /><glyph unicode="&#xd5;" d="M434 1627q34 107 97 164 31 28 67.5 41.5T676 1846q20 0 35.5-3t31.5-8q33-11 66-36l35-26q19-14 36-20 8-3 16-5t20-2q23 0 39 7t30 20q29 27 39 73h125q-31-108-95-164-29-26-67-40.5t-84-14.5q-20 0-34 3t-28 8q-16 6-29.5 13.5T782 1670l-34 25-2 1q-43 32-81 32-34 0-60-25-26-24-46-76H434zM478-29Q276-29 179 94 82 216 82 473q0 64 5.5 120T104 712q12 70 26.5 131T168 975q16 50 31 89t32 77q20 43 37.5 73.5T303 1271q86 128 198 189 51 28 112 44t140 16q1e2.0 175-29t126-94q97-122 97-373 0-60-5.5-119T1129 781q-22-128-66-265-16-50-30.5-88.5T1001 351q-14-29-33-64.5T928 219q-39-59-89.5-107T731 32Q622-29 478-29zm20 164q43 0 84 12.5t78 38.5q40 29 68.5 67t49.5 78q19 36 36.5 79t32.5 89 28 93 23 92q23 103 34.5 202.5T944 1067q0 86-13 137.5t-39 84.5q-26 32-65.5 49.5T734 1356q-44 0-85-12.5t-77-38.5q-35-26-64.5-63t-52.5-82q-35-66-67-157.5T333 808q-23-1e2-34.5-197.5T287 429q0-44 3.5-78.5t10-61.5 16.5-48 23-38q29-36 69.5-52t88.5-16z" /><glyph unicode="&#xd6;" d="M492 1627q-15 0-22.5 9t-4.5 24l28 143q4 27 32 27h144q27 0 27-24 0-6-1-9l-29-143q-6-27-32-27H492zm391 0q-15 0-22.5 9t-4.5 24l28 143q4 27 32 27h143q15 0 22.5-9t4.5-24l-28-143q-5-27-32-27H883zM478-29Q276-29 179 94 82 216 82 473q0 64 5.5 120T104 712q12 70 26.5 131T168 975q16 50 31 89t32 77q20 43 37.5 73.5T303 1271q86 128 198 189 51 28 112 44t140 16q1e2.0 175-29t126-94q97-122 97-373 0-60-5.5-119T1129 781q-22-128-66-265-16-50-30.5-88.5T1001 351q-14-29-33-64.5T928 219q-39-59-89.5-107T731 32Q622-29 478-29zm20 164q43 0 84 12.5t78 38.5q40 29 68.5 67t49.5 78q19 36 36.5 79t32.5 89 28 93 23 92q23 103 34.5 202.5T944 1067q0 86-13 137.5t-39 84.5q-26 32-65.5 49.5T734 1356q-44 0-85-12.5t-77-38.5q-35-26-64.5-63t-52.5-82q-35-66-67-157.5T333 808q-23-1e2-34.5-197.5T287 429q0-44 3.5-78.5t10-61.5 16.5-48 23-38q29-36 69.5-52t88.5-16z" /><glyph unicode="&#xd7;" d="M150 293l350 348-350 350 116 117 350-350 351 350 116-117-350-350 348-348-116-119-349 350-348-350z" /><glyph unicode="&#xd8;" d="M14-6l119 170q-14 31-24 64t-16 65q-13 68-13 159 0 95 13 197.5T132 859q24 98 57.5 187.5T269 1217q40 70 90 128t117 1e2q62 38 130.5 56.5T750 1520q41 0 78-5t69-16q29-10 60.5-26.5t58.5-38.5l84 125 1e2-64-106-158q16-34 26-65.5t17-66.5q7-36 10.5-75.5t3.5-90.5q0-94-13-196t-39-209q-29-116-64.5-204.5T962 276q-45-80-96-136T756 47 627-9.5 479-29q-43 0-79.5 6T329-6q-29 10-61 26.5T207 63L113-70zM905 1274q-13 18-32.5 34t-41.5 27q-20 10-47 15.5t-57 5.5q-54 0-101.5-19.5T536 1274q-81-83-141-256-11-32-22-69t-21.5-76.5-19.5-79-16-75.5q-14-71-21.5-139T287 457l2-38q1-10 1-15v-7t.5-3.5.5-4.5zM501 135q113 0 194 82 34 35 70 96t71 160q12 33 23 70t21 75 18.5 75.5T913 766q27 147 27 270v46q0 3-.5 14.5T938 1116L322 229q19-43 67-69 23-13 51.5-19t60.5-6z" /><glyph unicode="&#xd9;" d="M555 1859h182l147-264H745zM477-29q-190 0-293 90Q80 151 80 315q0 24 2 46t7 56q3 23 5.5 40.5t5.5 35 6.5 36.5 8.5 44l178 920h203L317 573q-1-7-3-17t-5-24q-15-74-22.5-131.5T279 313q0-43 14.5-76.5T334 181q53-46 167-46 45 0 80 7t68 23 60 38 47 51q11 16 21.5 39.5T801 361q11 36 23 89.5T850 573l178 920h203l-178-920q-12-64-23.5-113.5t-22.5-88-22-67-21-51.5q-25-54-56-94.5T838 86q-35-29-77-50T676 1q-92-30-199-30z" /><glyph unicode="&#xda;" d="M889 1859h208l-307-264H630zM477-29q-190 0-293 90Q80 151 80 315q0 24 2 46t7 56q3 23 5.5 40.5t5.5 35 6.5 36.5 8.5 44l178 920h203L317 573q-1-7-3-17t-5-24q-15-74-22.5-131.5T279 313q0-43 14.5-76.5T334 181q53-46 167-46 45 0 80 7t68 23 60 38 47 51q11 16 21.5 39.5T801 361q11 36 23 89.5T850 573l178 920h203l-178-920q-12-64-23.5-113.5t-22.5-88-22-67-21-51.5q-25-54-56-94.5T838 86q-35-29-77-50T676 1q-92-30-199-30z" /><glyph unicode="&#xdb;" d="M708 1861h213l158-266H946l-139 178-209-178H446zM477-29q-190 0-293 90Q80 151 80 315q0 24 2 46t7 56q3 23 5.5 40.5t5.5 35 6.5 36.5 8.5 44l178 920h203L317 573q-1-7-3-17t-5-24q-15-74-22.5-131.5T279 313q0-43 14.5-76.5T334 181q53-46 167-46 45 0 80 7t68 23 60 38 47 51q11 16 21.5 39.5T801 361q11 36 23 89.5T850 573l178 920h203l-178-920q-12-64-23.5-113.5t-22.5-88-22-67-21-51.5q-25-54-56-94.5T838 86q-35-29-77-50T676 1q-92-30-199-30z" /><glyph unicode="&#xdc;" d="M504 1627q-15 0-22.5 9t-4.5 24l28 143q4 27 32 27h144q27 0 27-24 0-6-1-9l-29-143q-6-27-32-27H504zm391 0q-15 0-22.5 9t-4.5 24l28 143q4 27 32 27h143q15 0 22.5-9t4.5-24l-28-143q-5-27-32-27H895zM477-29q-190 0-293 90Q80 151 80 315q0 24 2 46t7 56q3 23 5.5 40.5t5.5 35 6.5 36.5 8.5 44l178 920h203L317 573q-1-7-3-17t-5-24q-15-74-22.5-131.5T279 313q0-43 14.5-76.5T334 181q53-46 167-46 45 0 80 7t68 23 60 38 47 51q11 16 21.5 39.5T801 361q11 36 23 89.5T850 573l178 920h203l-178-920q-12-64-23.5-113.5t-22.5-88-22-67-21-51.5q-25-54-56-94.5T838 86q-35-29-77-50T676 1q-92-30-199-30z" /><glyph unicode="&#xdd;" d="M921 1859h208l-307-264H662zM508 670l-313 823h202l236-651 497 651h218L713 670 584 0H377z" /><glyph unicode="&#xde;" d="M342 1493l203-2-51-274h241q207 0 316-88 54-44 81-107.5t27-154.5q0-111-40-203.5T998 502Q837 365 557 365H326L254 0H51zM590 522q163 0 263 92 50 46 74.5 107T952 853q0 60-16.5 97t-45.5 60q-61 49-192 49H461L356 522h234z" /><glyph unicode="&#xdf;" d="M599-29q-38 0-69.5 3T462-16Q421-9 392-.5T330 20l30 164q58-32 126-48 68-17 137-17 130 0 207 63 36 30 55.5 71.5T905 348q0 31-6.5 54T878 445q-17 25-43.5 48.5T766 549l-61 47q-43 33-71.5 59T587 710q-28 46-28 110 0 130 102 226 47 45 115 79t164 53q2 8 3 15t2 15q1 7 1 12v7q0 40-11 74.5t-40 59.5q-24 20-61 32t-87 12q-57 0-105.5-16.5T558 1338q-32-31-57.5-81T461 1133L242 0H55l221 1137q20 105 61 184.5T438 1453q63 54 144 78.5t176 24.5q91 0 160-21t114-59q94-80 94-232 0-14-1-31t-3-34-5.5-35-8.5-36q-174-21-274-88-101-68-101-163 0-21 5-37t16-32q14-20 32-36t48-39l51-39q54-42 93.5-77.5T1041 523q40-65 40-159 0-84-31-156.5T952 79Q889 26 801.5-1.5T599-29z" /><glyph unicode="&#xe0;" d="M457 1673h198l197-376H709zM407-29q-74 0-135.5 20.5T164 54q-48 43-70 1e2T72 280q0 92 39 172t115 138 182 87.5T645 707h246l12 61 3 19q1 5 1 10v7q0 57-18 89.5T844 946q-29 21-73 33t-106 12q-43 0-89.5-6T479 966q-51-13-103-32t-108-45l35 180q54 20 105 34.5t1e2 24.5 95.5 14.5 89.5 4.5q92 0 166-20t126-62q49-39 75.5-96.5T1087 839q0-33-6-85-4-32-8.5-59.5T1063 639L938 0H774l12 166Q714 72 616 22 566-4 515-16.5T407-29zm54 154q72 0 134.5 27T711 232q56 56 92 130t53 160l8 41H692q-60 0-104-1.5t-73-5.5-55-11-46-15q-26-11-55-30.5T305 442q-41-62-41-135 0-48 15.5-80.5T316 174q24-23 59.5-36t85.5-13z" /><glyph unicode="&#xe1;" d="M911 1673h219l-395-376H579zM407-29q-74 0-135.5 20.5T164 54q-48 43-70 1e2T72 280q0 92 39 172t115 138 182 87.5T645 707h246l12 61 3 19q1 5 1 10v7q0 57-18 89.5T844 946q-29 21-73 33t-106 12q-43 0-89.5-6T479 966q-51-13-103-32t-108-45l35 180q54 20 105 34.5t1e2 24.5 95.5 14.5 89.5 4.5q92 0 166-20t126-62q49-39 75.5-96.5T1087 839q0-33-6-85-4-32-8.5-59.5T1063 639L938 0H774l12 166Q714 72 616 22 566-4 515-16.5T407-29zm54 154q72 0 134.5 27T711 232q56 56 92 130t53 160l8 41H692q-60 0-104-1.5t-73-5.5-55-11-46-15q-26-11-55-30.5T305 442q-41-62-41-135 0-48 15.5-80.5T316 174q24-23 59.5-36t85.5-13z" /><glyph unicode="&#xe2;" d="M721 1673h147l164-376H899l-117 241-225-241H401zM407-29q-74 0-135.5 20.5T164 54q-48 43-70 1e2T72 280q0 92 39 172t115 138 182 87.5T645 707h246l12 61 3 19q1 5 1 10v7q0 57-18 89.5T844 946q-29 21-73 33t-106 12q-43 0-89.5-6T479 966q-51-13-103-32t-108-45l35 180q54 20 105 34.5t1e2 24.5 95.5 14.5 89.5 4.5q92 0 166-20t126-62q49-39 75.5-96.5T1087 839q0-33-6-85-4-32-8.5-59.5T1063 639L938 0H774l12 166Q714 72 616 22 566-4 515-16.5T407-29zm54 154q72 0 134.5 27T711 232q56 56 92 130t53 160l8 41H692q-60 0-104-1.5t-73-5.5-55-11-46-15q-26-11-55-30.5T305 442q-41-62-41-135 0-48 15.5-80.5T316 174q24-23 59.5-36t85.5-13z" /><glyph unicode="&#xe3;" d="M894 1297q-43 0-76 15-15 7-33.5 19.5T745 1366l-47 49q-5 5-15.5 14t-20.5 14q-17 9-37 9-15 0-32-7t-31-30q-25-38-32-116H405q16 135 74 209 57 73 147 73 43 0 76-15 17-8 35.5-22t36.5-32l47-47q14-14 20-19t17-11q16-9 34-9 20 0 37 10.5t28 28.5 19.5 47.5T989 1581h125q-8-63-26-117.5t-47-92.5-66-56-81-18zM407-29q-74 0-135.5 20.5T164 54q-48 43-70 1e2T72 280q0 92 39 172t115 138 182 87.5T645 707h246l12 61 3 19q1 5 1 10v7q0 57-18 89.5T844 946q-29 21-73 33t-106 12q-43 0-89.5-6T479 966q-51-13-103-32t-108-45l35 180q54 20 105 34.5t1e2 24.5 95.5 14.5 89.5 4.5q92 0 166-20t126-62q49-39 75.5-96.5T1087 839q0-33-6-85-4-32-8.5-59.5T1063 639L938 0H774l12 166Q714 72 616 22 566-4 515-16.5T407-29zm54 154q72 0 134.5 27T711 232q56 56 92 130t53 160l8 41H692q-60 0-104-1.5t-73-5.5-55-11-46-15q-26-11-55-30.5T305 442q-41-62-41-135 0-48 15.5-80.5T316 174q24-23 59.5-36t85.5-13z" /><glyph unicode="&#xe4;" d="M473 1350q-15 0-22.5 9t-4.5 24l28 142q4 27 32 27h143q15 0 22.5-9t4.5-24l-28-142q-5-27-32-27H473zm391 0q-15 0-22.5 9t-4.5 24l28 142q4 27 32 27h143q15 0 22.5-9t4.5-24l-28-142q-5-27-32-27H864zM407-29q-74 0-135.5 20.5T164 54q-48 43-70 1e2T72 280q0 92 39 172t115 138 182 87.5T645 707h246l12 61 3 19q1 5 1 11v8q0 96-62 140-29 21-75 33t-107 12q-42 0-88-6t-96-19q-51-13-103-32t-108-45l35 180q54 20 105 34.5t1e2 24.5 95.5 14.5 89.5 4.5q92 0 166-20t126-62q49-39 75.5-96.5T1087 839q0-33-6-85-4-32-8.5-59.5T1063 639L938 0H774l12 166Q714 72 616 22 566-4 515-16.5T407-29zm54 154q72 0 134.5 27T711 232q56 56 92 130t53 160l8 41H692q-60 0-104-1.5t-73-5.5-55-11-46-15q-26-11-55-30.5T305 442q-41-62-41-135 0-48 15.5-80.5T316 174q24-23 59.5-36t85.5-13z" /><glyph unicode="&#xe5;" d="M782 1321q-114 0-194 80t-80 194q0 116 80 196 79 79 194 79 116 0 195-79 80-80 80-196 0-114-80-194t-195-80zm0 123q64 0 108 44t44 107q0 64-44 108t-108 44-107-43q-44-44-44-109 0-63 44-107t107-44zM407-29q-74 0-135.5 20.5T164 54q-48 43-70 1e2T72 280q0 92 39 172t115 138 182 87.5T645 707h246l12 61 3 19q1 5 1 10v7q0 57-18 89.5T844 946q-29 21-73 33t-106 12q-43 0-89.5-6T479 966q-51-13-103-32t-108-45l35 180q54 20 105 34.5t1e2 24.5 95.5 14.5 89.5 4.5q92 0 166-20t126-62q49-39 75.5-96.5T1087 839q0-33-6-85-4-32-8.5-59.5T1063 639L938 0H774l12 166Q714 72 616 22 566-4 515-16.5T407-29zm54 154q72 0 134.5 27T711 232q56 56 92 130t53 160l8 41H692q-60 0-104-1.5t-73-5.5-55-11-46-15q-26-11-55-30.5T305 442q-41-62-41-135 0-48 15.5-80.5T316 174q24-23 59.5-36t85.5-13z" /><glyph unicode="&#xe6;" d="M234-29q-68 0-120.5 20T28 43q-41 38-58 92t-17 117q0 87 30 164.5T74 549q120 108 344 108h117l18 88q3 14 4 21.5t2 20.5q1 11 1.5 22.5t.5 22.5q0 42-11 71.5T519 953q-19 19-49 30.5T4e2 995q-27 0-56.5-5.5T284 974q-32-11-69-27t-74-36l35 168q44 19 79 31t69 20q35 8 66 12.5t60 4.5q81 0 140-33 58-33 90-96 23 29 54 54t66 42q36 17 74.5 25t75.5 8q59 0 108-19t85-58q35-38 53-90.5t18-112.5q0-21-2-49.5t-6-57.5q-2-11-4.5-30.5T1195 688l-8-44t-7-40l-17-90H668q-12-57-17.5-88.5T641 368q-4-28-6-47t-2-36q0-41 13-71.5t36-50.5q49-44 133-44 69 0 142 29 70 28 124 79l-34-172q-28-20-61.5-36.5T922-8q-65-21-137-21-53 0-98 11t-79 31-58 50-36 68Q467 51 397 11q-35-20-76.5-30T234-29zm790 686 16 74q4 17 6 31.5t3 23.5q1 11 1.5 29t.5 29q0 39-9 66.5t-26 46.5q-33 38-94 38-35 0-70-14t-64-49-46-82-31-111l-17-82h330zM267 123q83 0 134 68 13 18 24.5 41t22 53.5 20 69T487 442l15 72h-49q-67 0-107-3.5T276 498q-31-9-51-21.5T188 444q-18-20-28.5-39.5T141 362q-18-51-18-95 0-27 8.5-55t29.5-50q22-22 50-30.5t56-8.5z" /><glyph unicode="&#xe7;" d="M469 813q-26-38-48.5-85.5T382 626q-32-108-32-208 0-69 16.5-124.5T418 2e2q32-35 82.5-54T625 127q45 0 91.5 7.5T808 158q47 17 90 41t81 53L940 51q-43-23-80.5-36.5T784-8q-24-6-48-10t-48-7q14-24 23.5-45.5T729-111q17-45 17-87t-17.5-78.5T676-341q-69-54-191-54-20 0-43.5 1.5T395-388q-45 7-94 23l25 129q20-10 41.5-17.5T403-265q34-9 69-9 31 0 58 7.5t46 22.5 28 36 9 45q0 17-4 35.5T599-93q-3 9-11 26.5T570-28Q469-23 395.5 5.5T271 84q-58 57-86.5 139.5T156 412q0 75 13.5 151.5T209 709t63 130 82 111q48 53 102.5 90t102.5 58q110 49 245 49 88 0 171-21 38-10 80-26.5t82-38.5l-37-182q-65 58-136 85t-154 27q-111 0-196-44-42-22-78.5-55.5T469 813z" /><glyph unicode="&#xe8;" d="M453 1673h198l197-376H705zM558-29Q438-29 353.5.0T213 83Q98 195 98 410q0 154 60 304t166 259q45 47 90 78t94 53q51 23 102.5 34t108.5 11q95 0 169-30t127-84q55-57 83-135.5t28-170.5q0-21-1.5-40t-3.5-44q-2-16-5.5-48.5T1104 516H297q-6-30-9-58-3-26-3-49 0-135 77-209 38-37 94-55t128-18q47 0 94.5 7.5T779 156q105 29 218 84L961 57q-57-23-105-38T756-7q-50-11-97-16.5T558-29zM938 659q3 14 5 25t3 20q1 8 1.5 16.5t.5 20.5q0 115-65 183-32 34-77.5 50.5T706 991q-60 0-118-21t-111-69q-46-42-84.5-103T332 659h606z" /><glyph unicode="&#xe9;" d="M907 1673h219l-395-376H575zM558-29Q438-29 353.5.0T213 83Q98 195 98 410q0 154 60 304t166 259q45 47 90 78t94 53q51 23 102.5 34t108.5 11q95 0 169-30t127-84q55-57 83-135.5t28-170.5q0-21-1.5-40t-3.5-44q-2-16-5.5-48.5T1104 516H297q-6-30-9-58-3-26-3-49 0-135 77-209 38-37 94-55t128-18q47 0 94.5 7.5T779 156q105 29 218 84L961 57q-57-23-105-38T756-7q-50-11-97-16.5T558-29zM938 659q3 14 5 25t3 20q1 8 1.5 16.5t.5 20.5q0 115-65 183-32 34-77.5 50.5T706 991q-60 0-118-21t-111-69q-46-42-84.5-103T332 659h606z" /><glyph unicode="&#xea;" d="M717 1673h147l164-376H895l-117 241-225-241H397zM558-29Q438-29 353.5.0T213 83Q98 195 98 410q0 154 60 304t166 259q45 47 90 78t94 53q51 23 102.5 34t108.5 11q95 0 169-30t127-84q55-57 83-135.5t28-170.5q0-21-1.5-40t-3.5-44q-2-16-5.5-48.5T1104 516H297q-6-30-9-58-3-26-3-49 0-135 77-209 38-37 94-55t128-18q47 0 94.5 7.5T779 156q105 29 218 84L961 57q-57-23-105-38T756-7q-50-11-97-16.5T558-29zM938 659q3 14 5 25t3 20q1 8 1.5 16.5t.5 20.5q0 115-65 183-32 34-77.5 50.5T706 991q-60 0-118-21t-111-69q-46-42-84.5-103T332 659h606z" /><glyph unicode="&#xeb;" d="M469 1350q-15 0-22.5 9t-4.5 24l28 142q4 27 32 27h143q15 0 22.5-9t4.5-24l-28-142q-5-27-32-27H469zm391 0q-15 0-22.5 9t-4.5 24l28 142q4 27 32 27h143q15 0 22.5-9t4.5-24l-28-142q-5-27-32-27H860zM558-29Q438-29 353.5.0T213 83Q98 195 98 410q0 154 60 304t166 259q45 47 90 78t94 53q51 23 102.5 34t108.5 11q95 0 169-30t127-84q55-57 83-135.5t28-170.5q0-21-1.5-40t-3.5-44q-2-16-5.5-48.5T1104 516H297q-6-30-9-58-3-26-3-49 0-135 77-209 38-37 94-55t128-18q47 0 94.5 7.5T779 156q105 29 218 84L961 57q-57-23-105-38T756-7q-50-11-97-16.5T558-29zM938 659q3 14 5 25t3 20q1 8 1.5 16.5t.5 20.5q0 115-65 183-32 34-77.5 50.5T706 991q-60 0-118-21t-111-69q-46-42-84.5-103T332 659h606z" /><glyph unicode="&#xec;" d="M383 1646h198l197-376H635zM749-4Q575-4 492 60q-85 64-85 192 0 17 1.5 33.5T412 322t5.5 42 8.5 44l133 568H313l29 144h430L610 404q-4-16-6.5-35t-3.5-27q-2-16-3-25.5t-1-19.5q0-74 44-109 45-36 136-36h211L956-4H749z" /><glyph unicode="&#xed;" d="M828 1673h219l-395-376H496zM749-4Q575-4 492 60q-85 64-85 192 0 17 1.5 33.5T412 322t5.5 42 8.5 44l133 568H313l29 144h430L610 404q-4-16-6.5-35t-3.5-27q-2-16-3-25.5t-1-19.5q0-74 44-109 45-36 136-36h211L956-4H749z" /><glyph unicode="&#xee;" d="M688 1673h147l164-376H866l-117 241-225-241H368zM749-4Q575-4 492 60q-85 64-85 192 0 17 1.5 33.5T412 322t5.5 42 8.5 44l133 568H313l29 144h430L610 404q-4-16-6.5-35t-3.5-27q-2-16-3-25.5t-1-19.5q0-74 44-109 45-36 136-36h211L956-4H749z" /><glyph unicode="&#xef;" d="M380 1320q-15 0-22.5 9t-4.5 24l28 142q4 27 32 27h143q15 0 22.5-9t4.5-24l-28-142q-5-27-32-27H380zm391 0q-15 0-22.5 9t-4.5 24l28 142q4 27 32 27h143q15 0 22.5-9t4.5-24l-28-142q-5-27-32-27H771zM749-4Q575-4 492 60q-85 64-85 192 0 17 1.5 33.5T412 322t5.5 42 8.5 44l133 568H313l29 144h430L610 404q-4-16-6.5-35t-3.5-27q-2-16-3-25.5t-1-19.5q0-74 44-109 45-36 136-36h211L956-4H749z" /><glyph unicode="&#xf0;" d="M516-29Q323-29 221 79q-54 57-78 134.5T119 389q0 125 38 248 20 66 50 125.5T266 864q77 112 192 173 58 31 120.5 46t118.5 15q18 0 35-1.5t40-3.5l33-3q-20 37-45 81-5 7-12.5 19.5t-17 26.5-19.5 28.5-19 26.5l-297-94-30 92 274 86-141 2e2h213l104-145 287 88 28-92-260-80q62-86 107-166.5t73-153.5q56-147 56-306 0-64-9-130t-28-131q-37-129-108-233-42-61-87.5-103.5T771 31Q657-29 516-29zm18 156q79 0 149 40.5T806 288q53 81 79 186.5T911 702q0 36-2 64t-7 54q-9 51-28 87-37 19-77 28-41 9-83 9-94 0-166.5-41T424 789q-28-40-49-87t-34.5-97.5-20.5-103-7-103.5q0-67 12.5-119t44.5-87q26-29 67.5-47t96.5-18z" /><glyph unicode="&#xf1;" d="M890 1297q-43 0-76 15-15 7-33.5 19.5T741 1366l-47 49q-5 5-15.5 14t-20.5 14q-17 9-37 9-15 0-32-7t-31-30q-25-38-32-116H401q16 135 74 209 57 73 147 73 43 0 76-15 17-8 35.5-22t36.5-32l47-47q14-14 20-19t17-11q16-9 34-9 20 0 37 10.5t28 28.5 19.5 47.5T985 1581h125q-8-63-26-117.5t-47-92.5-66-56-81-18zM303 1120h164l-12-168q74 96 163 146 43 24 88 36.5t101 12.5q66 0 120-18t92-54q38-35 57.5-86.5T1096 877q0-17-1.5-40.5T1091 793t-5.5-42-10.5-57L940 0H756l135 695q3 9 2 8.5t1 5.5q4 21 6.5 35.5T905 771t3 22.5 1 23.5q0 44-11.5 74.5T863 944q-46 43-133 43-129 0-217-93-89-94-122-261L268 0H84z" /><glyph unicode="&#xf2;" d="M453 1673h198l197-376H705zM510-29q-92 0-166 26T218 80q-47 51-74 129t-27 187q0 130 41 267 19 63 47.5 126T274 910q81 118 190 177 112 60 253 60 91 0 166.5-26t128.5-81q102-107 102-314 0-135-41-273-23-75-53-137t-62-109q-42-61-88.5-104.5T766 30 644.5-14 510-29zm23 156q87 0 157.5 45T812 298q27 42 47 91.5T892.5 493 913 604t7 114q0 72-12.5 123T864 927q-30 34-71.5 49T702 991q-90 0-159.5-45T422 820q-50-79-79.5-188T313 402q0-72 12.5-124t43.5-87q29-32 71.5-48t92.5-16z" /><glyph unicode="&#xf3;" d="M907 1673h219l-395-376H575zM510-29q-92 0-166 26T218 80q-47 51-74 129t-27 187q0 130 41 267 19 63 47.5 126T274 910q81 118 190 177 112 60 253 60 91 0 166.5-26t128.5-81q102-107 102-314 0-135-41-273-23-75-53-137t-62-109q-42-61-88.5-104.5T766 30 644.5-14 510-29zm23 156q87 0 157.5 45T812 298q27 42 47 91.5T892.5 493 913 604t7 114q0 72-12.5 123T864 927q-30 34-71.5 49T702 991q-90 0-159.5-45T422 820q-50-79-79.5-188T313 402q0-72 12.5-124t43.5-87q29-32 71.5-48t92.5-16z" /><glyph unicode="&#xf4;" d="M717 1673h147l164-376H895l-117 241-225-241H397zM510-29q-92 0-166 26T218 80q-47 51-74 129t-27 187q0 130 41 267 19 63 47.5 126T274 910q81 118 190 177 112 60 253 60 91 0 166.5-26t128.5-81q102-107 102-314 0-135-41-273-23-75-53-137t-62-109q-42-61-88.5-104.5T766 30 644.5-14 510-29zm23 156q87 0 157.5 45T812 298q27 42 47 91.5T892.5 493 913 604t7 114q0 72-12.5 123T864 927q-30 34-71.5 49T702 991q-90 0-159.5-45T422 820q-50-79-79.5-188T313 402q0-72 12.5-124t43.5-87q29-32 71.5-48t92.5-16z" /><glyph unicode="&#xf5;" d="M890 1297q-43 0-76 15-15 7-33.5 19.5T741 1366l-47 49q-5 5-15.5 14t-20.5 14q-17 9-37 9-15 0-32-7t-31-30q-25-38-32-116H401q16 135 74 209 57 73 147 73 43 0 76-15 17-8 35.5-22t36.5-32l47-47q14-14 20-19t17-11q16-9 34-9 20 0 37 10.5t28 28.5 19.5 47.5T985 1581h125q-8-63-26-117.5t-47-92.5-66-56-81-18zM510-29q-92 0-166 26T218 80q-47 51-74 129t-27 187q0 130 41 267 19 63 47.5 126T274 910q81 118 190 177 112 60 253 60 91 0 166.5-26t128.5-81q102-107 102-314 0-135-41-273-23-75-53-137t-62-109q-42-61-88.5-104.5T766 30 644.5-14 510-29zm23 156q87 0 157.5 45T812 298q27 42 47 91.5T892.5 493 913 604t7 114q0 72-12.5 123T864 927q-30 34-71.5 49T702 991q-90 0-159.5-45T422 820q-50-79-79.5-188T313 402q0-72 12.5-124t43.5-87q29-32 71.5-48t92.5-16z" /><glyph unicode="&#xf6;" d="M469 1350q-15 0-22.5 9t-4.5 24l28 142q4 27 32 27h143q15 0 22.5-9t4.5-24l-28-142q-5-27-32-27H469zm391 0q-15 0-22.5 9t-4.5 24l28 142q4 27 32 27h143q15 0 22.5-9t4.5-24l-28-142q-5-27-32-27H860zM510-29q-92 0-166 26T218 80q-47 51-74 129t-27 187q0 130 41 267 19 63 47.5 126T274 910q81 118 190 177 112 60 253 60 91 0 166.5-26t128.5-81q102-107 102-314 0-135-41-273-23-75-53-137t-62-109q-42-61-88.5-104.5T766 30 644.5-14 510-29zm23 156q87 0 157.5 45T812 298q27 42 47 91.5T892.5 493 913 604t7 114q0 72-12.5 123T864 927q-30 34-71.5 49T702 991q-90 0-159.5-45T422 820q-50-79-79.5-188T313 402q0-72 12.5-124t43.5-87q29-32 71.5-48t92.5-16z" /><glyph unicode="&#xf7;" d="M524 889q-30 0-30 30v186q0 30 30 30h185q30 0 30-30V919q0-30-30-30H524zM88 727h1057V557H88v170zM524 150q-30 0-30 30v185q0 30 30 30h185q30 0 30-30V180q0-30-30-30H524z" /><glyph unicode="&#xf8;" d="M47-20l129 153q-14 24-25 52t-18 60-10.5 67.5T119 391q0 69 10 138t30 137q19 63 48 127t67 119 87 101.5 106 75.5q56 29 120.5 43.5T724 1147q79 0 139-18 59-18 106-54l112 137 93-77-123-146q17-26 29-56t19-58q8-31 11.5-69.5t3.5-79.5q0-135-41-273-21-70-50.5-132T958 207q-42-61-88.5-104.5T766 30Q653-29 507-29q-40 0-72 4.5T371-10q-28 8-56 21t-57 34L139-96zM852 938q-14 13-31.5 24T784 979q-18 6-39.5 9t-43.5 3q-88 0-158-45T422 820t-80-192.5T313 388q0-20 .5-29t1.5-19q2-19 2.5-26.5T319 302zM534 127q83 0 153 43t124 129q50 79 79.5 187T920 725q0 20-.5 34t-1.5 23q-1 10-2.5 21t-4.5 22L377 186q15-15 31.5-25.5T446 142q19-7 40-11t48-4z" /><glyph unicode="&#xf9;" d="M449 1648h198l197-376H701zM409-27q-65 0-117.5 18T201 46q-39 38-57.5 89.5T125 248q0 18 1.5 39.5T130 332q3 30 5.5 49.5T143 426l133 694h185L326 426q-1-6-2.5-16t-3-20.5-3-19.5l-2.5-15q-2-17-3-32t-1-25q0-37 11-68.5t36-54.5q23-21 56.5-31.5T489 133q60 0 115 22.5T704 225q45 48 75 114.5T825 487l123 633h185L915 0H751l13 168Q690 70 602 22q-47-26-94.5-37.5T409-27z" /><glyph unicode="&#xfa;" d="M903 1648h219l-395-376H571zM409-27q-65 0-117.5 18T201 46q-39 38-57.5 89.5T125 248q0 18 1.5 39.5T130 332q3 30 5.5 49.5T143 426l133 694h185L326 426q-1-6-2.5-16t-3-20.5-3-19.5l-2.5-15q-2-17-3-32t-1-25q0-37 11-68.5t36-54.5q23-21 56.5-31.5T489 133q60 0 115 22.5T704 225q45 48 75 114.5T825 487l123 633h185L915 0H751l13 168Q690 70 602 22q-47-26-94.5-37.5T409-27z" /><glyph unicode="&#xfb;" d="M713 1648h147l164-376H891l-117 241-225-241H393zM409-27q-65 0-117.5 18T201 46q-39 38-57.5 89.5T125 248q0 18 1.5 39.5T130 332q3 30 5.5 49.5T143 426l133 694h185L326 426q-1-6-2.5-16t-3-20.5-3-19.5l-2.5-15q-2-17-3-32t-1-25q0-37 11-68.5t36-54.5q23-21 56.5-31.5T489 133q60 0 115 22.5T704 225q45 48 75 114.5T825 487l123 633h185L915 0H751l13 168Q690 70 602 22q-47-26-94.5-37.5T409-27z" /><glyph unicode="&#xfc;" d="M465 1320q-15 0-22.5 9t-4.5 24l28 142q4 27 32 27h143q15 0 22.5-9t4.5-24l-28-142q-5-27-32-27H465zm391 0q-15 0-22.5 9t-4.5 24l28 142q4 27 32 27h143q15 0 22.5-9t4.5-24l-28-142q-5-27-32-27H856zM409-27q-65 0-117.5 18T201 46q-39 38-57.5 89.5T125 248q0 18 1.5 39.5T130 332q3 30 5.5 49.5T143 426l133 694h185L326 426q-1-6-2.5-16t-3-20.5-3-19.5l-2.5-15q-2-17-3-32t-1-25q0-37 11-68.5t36-54.5q23-21 56.5-31.5T489 133q60 0 115 22.5T704 225q45 48 75 114.5T825 487l123 633h185L915 0H751l13 168Q690 70 602 22q-47-26-94.5-37.5T409-27z" /><glyph unicode="&#xfd;" d="M947 1648h219l-395-376H615zM20-272h108q83 0 140 47 62 50 118 159l43 84-217 1102h183l172-862 483 862h205L816 360q-33-58-52-90t-29.5-50.5-16-28.5-12.5-22.5-19.5-34T651 72q-51-90-84.5-148t-56-95.5-38-60.5-30.5-43q-27-35-58.5-64.5T310-389q-74-37-171-37H-9z" /><glyph unicode="&#xfe;" d="M385 1567h184L455 977q61 82 147 126t186 44q76 0 141-25t111-79q45-52 66.5-127t21.5-172q0-64-9.5-135.5T1089 465q-21-77-50-141.5T979 211q-38-60-82-104t-95-75Q701-29 578-29q-1e2.0-170 42-72 43-115 128L182-426H-2zM567 127q43 0 81 12t70 33q34 23 61 54.5t50 74.5q24 45 44 99.5T906 509q14 58 21 115t7 107q0 73-13.5 120.5T883 928q-27 33-66.5 48T728 991q-83 0-152-45-37-24-64.5-56T459 813q-26-46-45-97.5T382 611q-14-57-21-114.5T354 392q0-69 14-117.5t41-80.5q28-33 68-50t90-17z" /><glyph unicode="&#xff;" d="M509 1320q-15 0-22.5 9t-4.5 24l28 142q4 27 32 27h143q15 0 22.5-9t4.5-24l-28-142q-5-27-32-27H509zm391 0q-15 0-22.5 9t-4.5 24l28 142q4 27 32 27h143q15 0 22.5-9t4.5-24l-28-142q-5-27-32-27H9e2zM20-272h108q83 0 140 47 62 50 118 159l43 84-217 1102h183l172-862 483 862h205L816 360q-33-58-52-90t-29.5-50.5-16-28.5-12.5-22.5-19.5-34T651 72q-51-90-84.5-148t-56-95.5-38-60.5-30.5-43q-27-35-58.5-64.5T310-389q-74-37-171-37H-9z" /><glyph unicode="&#x100;" d="M531 18e2h598l-29-148H502zm108-307h246L1051 0H850l-35 389H295L111 0h-217zM801 551l-66 774-364-774h430z" /><glyph unicode="&#x101;" d="M469 1495h598l-29-148H440zM404-29q-75 0-136.5 21.5t-105 62-67 98.5T72 283q0 94 40 172t114.5 134T407 676t238 31h246l12 61q2 9 3 19t1 20q0 94-62.5 139T665 991q-175 0-397-102l35 180q109 39 205 58.5t185 19.5q93 0 166.5-21.5t124-61 77-96.5 26.5-129q0-34-6-85.5T1063 639L938 0H774l12 166Q714 73 618 22T404-29zm57 154q67 0 130 26.5t115.5 77T798 353t58 169l8 41H692q-56 0-98.5-1.5t-75-5.5-58-10.5T414 530q-68-29-109-87t-41-136q0-84 51-133t146-49z" /><glyph unicode="&#x102;" d="M794 1612q-267 0-267 205 0 9 .5 18t1.5 19h119q1-54 45-82.5t129-28.5q163 0 215 111h119q-35-120-126-181t-236-61zM639 1493h246L1051 0H850l-35 389H295L111 0h-217zM801 551l-66 774-364-774h430z" /><glyph unicode="&#x103;" d="M747 1297q-134 0-206 64t-72 182q0 17 .5 25t2.5 16h120v-17q0-66 43.5-99.5T761 1434q85 0 137 37.5t81 112.5h119q-33-144-122.5-215.5T747 1297zM404-29q-75 0-136.5 21.5t-105 62-67 98.5T72 283q0 94 40 172t114.5 134T407 676t238 31h246l12 61q2 9 3 19t1 20q0 94-62.5 139T665 991q-175 0-397-102l35 180q109 39 205 58.5t185 19.5q93 0 166.5-21.5t124-61 77-96.5 26.5-129q0-34-6-85.5T1063 639L938 0H774l12 166Q714 73 618 22T404-29zm57 154q67 0 130 26.5t115.5 77T798 353t58 169l8 41H692q-56 0-98.5-1.5t-75-5.5-58-10.5T414 530q-68-29-109-87t-41-136q0-84 51-133t146-49z" /><glyph unicode="&#x104;" d="M943-272q29 0 62 7.5t65 22.5l-25-133q-69-20-139-20-98 0-151.5 40T701-245q0 56 37 115.5T853 0h-3l-35 389H295L111 0h-217l745 1493h246L1051 0h-79q-61-58-93-108t-32-92q0-35 24-53.5t72-18.5zM801 551l-66 774-364-774h430z" /><glyph unicode="&#x105;" d="M868 0q-61-58-93-108t-32-92q0-35 24-53.5t72-18.5q29 0 62 7.5t65 22.5l-25-133q-69-20-139-20-98 0-151.5 40T597-245q0 56 37 115.5T749 0h5l32 166Q714 73 618 22T404-29q-75 0-136.5 21.5t-105 62-67 98.5T72 283q0 94 40 172t114.5 134T407 676t238 31h246l12 61q2 9 3 19t1 20q0 94-62.5 139T665 991q-175 0-397-102l35 180q109 39 205 58.5t185 19.5q93 0 166.5-21.5t124-61 77-96.5 26.5-129q0-34-6-85.5T1063 639L938 0h-70zM461 125q67 0 130 26.5t115.5 77T798 353t58 169l8 41H692q-56 0-98.5-1.5t-75-5.5-58-10.5T414 530q-68-29-109-87t-41-136q0-84 51-133t146-49z" /><glyph unicode="&#x106;" d="M1008 1859h208l-307-264H749zM597-29Q479-29 390 6t-149 97q-62 64-94 159.5T115 492q0 99 17.5 206T185 913q35 110 80.5 195.5T369 1266q56 69 114 115t123 77q130 62 287 62 46 0 85.5-5t79.5-16q80-21 154-61l-41-207q-64 62-135 94-69 31-152 31-95 0-175-40t-152-124q-51-60-93.5-140T390 878q-33-1e2-48.5-196T326 503q0-187 78-277 34-39 89-65t135-26q86 0 177 32 89 31 178 93L944 53q-42-20-84-35.5T775-9q-38-9-84-14.5T597-29z" /><glyph unicode="&#x107;" d="M997 1673h219l-395-376H665zM607-29Q492-29 409 .5T271 84q-58 57-86.5 139.5T156 412q0 75 13.5 151.5T209 709t63 130 82 111q48 53 102.5 90t102.5 58q110 49 245 49 88 0 171-21 38-10 80-26.5t82-38.5l-37-182q-65 58-136 85t-154 27q-111 0-196-44-42-22-78.5-55.5T469 813q-26-38-48.5-85.5T382 626q-32-108-32-208 0-69 16.5-124.5T418 2e2q32-35 82.5-54T625 127q45 0 91.5 7.5T808 158q47 17 90 41t81 53L940 51q-43-23-80.5-36.5T784-8q-44-11-86.5-16T607-29z" /><glyph unicode="&#x10a;" d="M808 1627q-16 0-25.5 11t-6.5 28l27 143q2 11 10 17t19 6h141q16 0 26-11t7-28l-28-143q-2-11-10-17t-19-6H808zM598-29Q483-29 393 3.5T241.5 102t-94 165T115 499q0 102 18.5 208.5t52 207T266 1105t103 161q102 128 234.5 191t288.5 63q86 0 162.5-20t157.5-62l-41-207q-126 125-287 125-97 0-178-41.5T557 1192q-51-61-93.5-141.5t-73-171-47.5-186T326 508q0-191 77.5-282T626 135q88 0 178.5 32T983 260L944 53Q777-29 598-29z" /><glyph unicode="&#x10b;" d="M739 1348q-27 0-27 24 0 6 1 9l29 144q4 27 32 27h145q27 0 27-24 0-6-1-9l-29-144q-6-27-32-27H739zM606-29Q385-29 270.5 82.5T156 414q0 75 13.5 148.5t39 142.5 62 131T354 950q88 97 202 147t249 50q174 0 332-86l-37-182q-66 58-136 85t-156 27q-115 0-197-45.5T469 813q-28-41-50-88.5T381.5 626 358 522t-8-104q0-149 68.5-220T627 127q92 0 180 31t172 94L940 51Q867 12 784-8.5T606-29z" /><glyph unicode="&#x10c;" d="M616 1861h136l139-178 209 178h151l-264-266H774zM597-29Q479-29 390 6t-149 97q-62 64-94 159.5T115 492q0 99 17.5 206T185 913q35 110 80.5 195.5T369 1266q56 69 114 115t123 77q130 62 287 62 46 0 85.5-5t79.5-16q80-21 154-61l-41-207q-64 62-135 94-69 31-152 31-95 0-175-40t-152-124q-51-60-93.5-140T390 878q-33-1e2-48.5-196T326 503q0-187 78-277 34-39 89-65t135-26q86 0 177 32 89 31 178 93L944 53q-42-20-84-35.5T775-9q-38-9-84-14.5T597-29z" /><glyph unicode="&#x10d;" d="M561 1673h131l119-243 225 243h156l-320-376H725zM607-29Q492-29 409 .5T271 84q-58 57-86.5 139.5T156 412q0 75 13.5 151.5T209 709t63 130 82 111q48 53 102.5 90t102.5 58q110 49 245 49 88 0 171-21 38-10 80-26.5t82-38.5l-37-182q-65 58-136 85t-154 27q-111 0-196-44-42-22-78.5-55.5T469 813q-26-38-48.5-85.5T382 626q-32-108-32-208 0-69 16.5-124.5T418 2e2q32-35 82.5-54T625 127q45 0 91.5 7.5T808 158q47 17 90 41t81 53L940 51q-43-23-80.5-36.5T784-8q-44-11-86.5-16T607-29z" /><glyph unicode="&#x10e;" d="M484 1861h136l139-178 209 178h151l-264-266H642zM283 1493h303q277 0 410.5-125.5T1130 983q0-75-10.5-156.5t-30.5-164-49-161T975 354q-51-96-115-163.5T713.5 81 528 19.5 295 0H-8zM324 166q93 0 166.5 15.5t131.5 48T724 312t77 120q26 54 48.5 124t39 146 26 152 9.5 142q0 89-19.5 152T842 1250.5t-110.5 58T567 1327H453L227 166h97z" /><glyph unicode="&#x10f;" d="M460-29Q299-29 209 75t-90 304q0 66 10 136.5T158.5 655t47 134T268 909q75 118 176.5 178t221.5 60q1e2.0 172.5-42T954 977l115 579h184L950 0H786l7 141Q727 56 645 13.5T460-29zm856 1581h196l-186-373h-140zM517 127q89 0 156 45.5T788 305q24 43 43.5 95.5t33 108 21 110.5 7.5 105q0 138-54.5 202.5T681 991q-89 0-153-45T418 817q-24-44-43-96t-32.5-108T322 500.5 315 392q0-136 49.5-200.5T517 127z" /><glyph unicode="&#x110;" d="M129 709H2l29 149h129l123 635h303q277 0 410.5-125.5T1130 983q0-75-10.5-156.5t-30.5-164-49-161T975 354q-51-96-115-163.5T713.5 81 528 19.5 295 0H-8zM324 166q93 0 166.5 15.5t131.5 48T724 312t77 120q26 54 48.5 124t39 146 26 152 9.5 142q0 89-19.5 152T842 1250.5t-110.5 58T567 1327H453l-91-469h267l-29-149H334L227 166h97z" /><glyph unicode="&#x111;" d="M462-29q-85 0-146.5 27T210 76q-46 53-68.5 125.5T119 374q0 66 10 138t30 145q21 76 49 138.5T268 909q39 62 83 105.5t94 72.5 105 44.5 118 15.5q51 0 93-10.5t79-32.5q73-44 114-127l62 309H684l25 121h329l31 149h184l-30-149h192l-22-121h-193L950 0H786l7 141Q729 58 646 14q-82-43-184-43zm56 156q85 0 154 45 35 23 63 55.5t53 77.5q49 87 77 203 14 56 21 112.5t7 106.5q0 132-53 197-25 31-64.5 49T682 991q-42 0-81-11.5T531 948q-32-21-61.5-55T417 817q-22-40-41.5-93.5T342 613t-20.5-115.5T315 388q0-69 12.5-117t38.5-80q51-64 152-64z" /><glyph unicode="&#x112;" d="M549 18e2h598l-29-148H520zM344 1493h885l-33-170H512l-86-442h653l-32-170H393L289 170h702L958 0H53z" /><glyph unicode="&#x113;" d="M504 1486h598l-29-148H475zM556-29Q329-29 213.5 82T98 407q0 78 15.5 156T158 714t71 139 95 120q84 87 183.5 131.5T719 1149q92 0 167-30t128.5-84.5 82.5-132 29-171.5q0-36-5-86.5T1104 516H297q-6-32-9-58t-3-52q0-133 76-206t223-73q90 0 194 28t219 85L961 57Q855 14 755.5-7.5T556-29zM938 659q6 27 8 45t2 35q0 59-17 106t-48.5 79.5-76 49.5-99.5 17q-65 0-123.5-23.5t-107-67-85.5-105T332 659h606z" /><glyph unicode="&#x116;" d="M751 1627q-16 0-25.5 11t-6.5 28l27 143q2 11 10 17t19 6h141q16 0 26-11t7-28l-28-143q-2-11-10-17t-19-6H751zM344 1493h885l-33-170H512l-86-442h653l-32-170H393L289 170h702L958 0H53z" /><glyph unicode="&#x117;" d="M678 1349q-27 0-27 24 0 6 1 9l29 144q4 27 32 27h145q27 0 27-24 0-6-1-9l-29-144q-6-27-32-27H678zM556-29Q329-29 213.5 82T98 407q0 78 15.5 156T158 714t71 139 95 120q84 87 183.5 131.5T719 1149q92 0 167-30t128.5-84.5 82.5-132 29-171.5q0-36-5-86.5T1104 516H297q-6-32-9-58t-3-52q0-133 76-206t223-73q90 0 194 28t219 85L961 57Q855 14 755.5-7.5T556-29zM938 659q6 27 8 45t2 35q0 59-17 106t-48.5 79.5-76 49.5-99.5 17q-65 0-123.5-23.5t-107-67-85.5-105T332 659h606z" /><glyph unicode="&#x118;" d="M512 1323l-86-442h653l-32-170H393L289 170h702L958 0h-96q-61-58-93-108t-32-92q0-35 24-53.5t72-18.5q29 0 62 7.5t65 22.5l-25-133q-69-20-139-20-98 0-151.5 40T591-245q0 56 37 115.5T743 0H53l291 1493h885l-33-170H512z" /><glyph unicode="&#x119;" d="M297 516q-6-32-9-58t-3-52q0-133 76-206t223-73q90 0 194 28t219 85L961 57Q872 21 787 0q-61-58-93-108t-32-92q0-35 24-53.5t72-18.5q29 0 62 7.5t65 22.5l-25-133q-69-20-139-20-98 0-151.5 40T516-245q0 51 30.5 104.5T641-25q-21-2-42.5-3T556-29Q329-29 213.5 82T98 407q0 78 15.5 156T158 714t71 139 95 120q84 87 183.5 131.5T719 1149q92 0 167-30t128.5-84.5 82.5-132 29-171.5q0-36-5-86.5T1104 516H297zM707 991q-65 0-123.5-23.5t-107-67-85.5-105T332 659h606q6 27 8 45t2 35q0 59-17 106t-48.5 79.5-76 49.5-99.5 17z" /><glyph unicode="&#x11a;" d="M586 1861h136l139-178 209 178h151l-264-266H744zM344 1493h885l-33-170H512l-86-442h653l-32-170H393L289 170h702L958 0H53z" /><glyph unicode="&#x11b;" d="M526 1673h131l119-243 225 243h156l-320-376H690zM556-29Q329-29 213.5 82T98 407q0 78 15.5 156T158 714t71 139 95 120q84 87 183.5 131.5T719 1149q92 0 167-30t128.5-84.5 82.5-132 29-171.5q0-36-5-86.5T1104 516H297q-6-32-9-58t-3-52q0-133 76-206t223-73q90 0 194 28t219 85L961 57Q855 14 755.5-7.5T556-29zM938 659q6 27 8 45t2 35q0 59-17 106t-48.5 79.5-76 49.5-99.5 17q-65 0-123.5-23.5t-107-67-85.5-105T332 659h606z" /><glyph unicode="&#x11e;" d="M788 1619q-120 0-190 61-33 29-56 72t-34 109h114q17-62 56-88 20-14 48-20.5t69-6.5 76 7 62 21q53 28 80 87h121q-33-112-125-177-94-65-221-65zM564-29Q442-29 352.5 5.5T202 106q-63 69-93.5 165T78 488q0 47 4.5 94.5T95 681q8 47 20 102.5T143 893q17 59 39 114.5t43 97.5q28 56 55.5 96t47.5 66q49 61 109.5 110t128.5 81q130 62 288 62 46 0 86-5t80-16q81-21 156-61l-41-207q-35 34-70 57t-66 37q-71 31-153 31-50 0-96.5-10.5T662 1315q-42-20-82-52t-72-71q-45-54-83-130-20-41-37-84t-32-91q-18-58-30.5-112T305 673q-9-52-13.5-94.5T287 494q0-174 79-266 40-47 95.5-70T592 135q36 0 65 5t55 14q29 10 50.5 23t40.5 30l76 393H662l30 166h410L969 96Q883 35 779 3q-51-16-103.5-24T564-29z" /><glyph unicode="&#x11f;" d="M748 1297q-132 0-206 63-40 35-56.5 82.5T469 1547q0 13 .5 16t.5 5v5t2 11h120v-17q0-64 44-99 43-34 126-34t135 37q26 18 47 46.5t35 66.5h119q-15-68-45.5-122.5T977 1370q-89-73-229-73zM376-440q-43 0-82.5 3.5T214-426q-78 13-155 41l37 182q40-23 76-39.5t76-27.5q80-23 158-23 148 0 231 80 42 40 70.5 105T756 53l24 117Q721 83 635 38q-45-23-93-34.5T443-8q-79 0-142.5 27T192 99q-46 54-68 129.5T102 398q0 63 10 132t30 138q39 135 112 243 40 60 83 101.5t95 72.5q104 62 216 62 99 0 176-48 35-23 63.5-56t46.5-78l47 151h164L942 72q-53-272-186-392-134-120-380-120zM513 145q38 0 74 11t71 34q65 44 112 129 26 46 46 100.5T847 521q14 55 20.5 111t6.5 101q0 126-56 192-28 33-67 49.5T664 991q-84 0-149.5-46T402 823q-50-81-77.5-187.5T297 421q0-83 15.5-131.5T353 212q29-32 70-49.5t90-17.5z" /><glyph unicode="&#x120;" d="M783 1627q-16 0-25.5 11t-6.5 28l27 143q2 11 10 17t19 6h141q16 0 26-11t7-28l-28-143q-2-11-10-17t-19-6H783zM563-29Q445-29 354.5 5t-152 1e2-93 162T78 487q0 94 17 198t48 208q35 118 80 208t105 165q206 254 524 254 85 0 162.5-19.5T1176 1438l-41-207q-129 125-290 125-97 0-183-41.5T508 1192q-49-59-86-136t-66-169q-17-56-30-111t-21.5-106.5-13-98T287 487q0-168 79-260t227-92q66 0 119.5 18.5T803 207l76 393H662l30 166h410L969 96Q883 34 780 2.5T563-29z" /><glyph unicode="&#x121;" d="M664 1348q-27 0-27 24 0 6 1 9l29 144q4 27 32 27h145q27 0 27-24 0-6-1-9l-29-144q-6-27-32-27H664zM378-440q-86 0-165 14T59-385l37 182q73-45 151-67.5T409-293q76 0 132.5 20t98 62T709-103.5 756 53l24 117Q721 80 632.5 36T443-8q-79 0-142 27T193.5 98t-68 128T102 401q0 65 10.5 133t30 134T190 796t64 115q37 55 81.5 99t95 74.5T536 1131t112 16q101 0 176.5-48.5T934 965l47 151h164L942 72q-26-132-71-228.5T758-316t-162-93.5T378-440zM507 145q166 0 263 174 24 43 43 95t32.5 106.5 21 108T874 728q0 130-55 196.5T667 991q-57 0-107-23t-91-63-73-94.5-54-117-33.5-130T297 429q0-76 14.5-129.5t41.5-88 66-50.5 88-16z" /><glyph unicode="&#x122;" d="M563-29Q445-29 354.5 5t-152 1e2-93 162T78 487q0 94 17 198t48 208q35 118 80 208t105 165q206 254 524 254 85 0 162.5-19.5T1176 1438l-41-207q-129 125-290 125-97 0-183-41.5T508 1192q-49-59-86-136t-66-169q-17-56-30-111t-21.5-106.5-13-98T287 487q0-168 79-260t227-92q66 0 119.5 18.5T803 207l76 393H662l30 166h410L969 96Q883 34 780 2.5T563-29zM463-228h239L448-573H302z" /><glyph unicode="&#x123;" d="M804 1614h146l-161-345H550zM378-440q-86 0-165 14T59-385l37 182q73-45 151-67.5T409-293q76 0 132.5 20t98 62T709-103.5 756 53l24 117Q721 80 632.5 36T443-8q-79 0-142 27T193.5 98t-68 128T102 401q0 65 10.5 133t30 134T190 796t64 115q37 55 81.5 99t95 74.5T536 1131t112 16q101 0 176.5-48.5T934 965l47 151h164L942 72q-26-132-71-228.5T758-316t-162-93.5T378-440zM507 145q166 0 263 174 24 43 43 95t32.5 106.5 21 108T874 728q0 130-55 196.5T667 991q-57 0-107-23t-91-63-73-94.5-54-117-33.5-130T297 429q0-76 14.5-129.5t41.5-88 66-50.5 88-16z" /><glyph unicode="&#x126;" d="M207 1105H73l32 164h134l43 224h202l-43-224h554l43 224h202l-43-224h135l-32-164h-135L950 0H748l138 711H332L194 0H-8zM919 881l44 224H409l-44-224h554z" /><glyph unicode="&#x127;" d="M291 1270H166l32 164h125l23 122h184l-23-122h353l-32-164H475l-62-318q67 97 160.5 146t210.5 49q85 0 137.5-25t82-65 39.5-91.5 10-103.5q0-43-5-82.5t-14-85.5L9e2.0H715l135 695q12 64 12 114 0 33-6.5 65t-25 57-52.5 40.5-89 15.5q-63 0-117-22t-97.5-66-75-110.5T351 633L228 0H44z" /><glyph unicode="&#x128;" d="M448 1627q35 109 97 164t143 55q34 0 67-10.5t68-36.5l35-26q36-27 72-27 42 0 69.5 27t38.5 73h125q-32-111-97-165t-148-54q-32 0-60.5 9.5T796 1670l-34 25-2 1q-43 32-80 32-69 0-107-101H448zM90 170h313l224 1153H313l33 170h830l-33-170H829L606 170h314L887 0H57z" /><glyph unicode="&#x129;" d="M817 1270q-34 0-69 13.5t-76 55.5l-47 49q-36 37-74 37-42 0-64-40t-30-113H332q17 134 72.5 208t150.5 74q40 0 74-15.5t72-53.5l47-47q20-20 35-29.5t35-9.5q81 0 98 155h125q-18-140-73.5-212T817 1270zM749-4Q575-4 492 60q-85 64-85 192 0 17 1.5 33.5T412 322t5.5 41.5T426 408l133 568H313l29 144h430L610 404q-4-16-6.5-34.5T6e2 342l-3-25.5t-1-18.5q0-75 44-110 45-36 136-36h211L956-4H749z" /><glyph unicode="&#x12a;" d="M531 18e2h598l-29-148H502zM90 170h313l224 1153H313l33 170h830l-33-170H829L606 170h314L887 0H57z" /><glyph unicode="&#x12b;" d="M409 1468h598l-29-148H380zM749-4Q575-4 492 60q-85 64-85 192 0 17 1.5 33.5T412 322t5.5 42 8.5 44l133 568H313l29 144h430L610 404q-4-16-6.5-35t-3.5-27q-2-16-3-25.5t-1-19.5q0-74 44-109 45-36 136-36h211L956-4H749z" /><glyph unicode="&#x12e;" d="M865 1323 642 170h314L923 0H610q-61-58-93-108t-32-92q0-35 24-53.5t72-18.5q29 0 62 7.5t65 22.5l-25-133q-69-20-139-20-98 0-151.5 40T339-245q0 56 37 115.5T491 0H93l33 170h313l224 1153H349l33 170h830l-33-170H865z" /><glyph unicode="&#x12f;" d="M631 1323q-15 0-22.5 9t-4.5 24l34 173q4 27 32 27h124q15 0 22.5-9t4.5-24l-34-173q-5-27-32-27H631zM774-4q-51-52-78-97t-27-83q0-35 24-53.5t72-18.5q29 0 62 7.5t65 22.5l-25-133q-69-20-139-20-98 0-151.5 40T523-229q0 53 33 109T659 1Q550 15 492 60q-85 64-85 192 0 17 1.5 33.5T412 322t5.5 41.5T426 408l133 568H313l29 144h430L610 404q-4-16-6.5-34.5T6e2 342l-3-25.5t-1-18.5q0-75 44-110 45-36 136-36h211L956-4H774z" /><glyph unicode="&#x130;" d="M711 1627q-27 0-27 24 0 6 1 9l29 145q4 27 32 27h142q15 0 22.5-9t4.5-24l-28-145q-5-27-32-27H711zM90 170h313l224 1153H313l33 170h830l-33-170H829L606 170h314L887 0H57z" /><glyph unicode="&#x131;" d="M749-4Q575-4 492 60q-85 64-85 192 0 17 1.5 33.5T412 322t5.5 42 8.5 44l133 568H313l29 144h430L610 404q-4-16-6.5-35t-3.5-27q-2-16-3-25.5t-1-19.5q0-74 44-109 45-36 136-36h211L956-4H749v0z" /><glyph unicode="&#x136;" d="M283 1493h202L358 846l742 647h254L651 874 1079 0H860L5e2 741 307 573 195 0H-8zM439-199h239L424-544H278z" /><glyph unicode="&#x137;" d="M393 1556h191L414 682l549 438h241L684 698 1057 0H844L537 582 369 449 281 0H90zM477-199h239L462-544H316z" /><glyph unicode="&#x139;" d="M839 1860h208l-307-264H580zM369 1493h202L313 170h721L1001 0H78z" /><glyph unicode="&#x13a;" d="M889 1901h208l-307-264H630zM739-8Q397-8 397 245q0 34 5.5 76t13.5 83l211 1008H311l29 144h5e2L6e2 4e2q-14-70-14-111 0-69 44.5-105T766 148h211L946-8H739z" /><glyph unicode="&#x13b;" d="M369 1493h202L313 170h721L1001 0H78zM443-199h239L428-544H282z" /><glyph unicode="&#x13c;" d="M739-8Q397-8 397 245q0 34 5.5 76t13.5 83l211 1008H311l29 144h5e2L6e2 4e2q-14-70-14-111 0-69 44.5-105T766 148h211L946-8H739zM512-199h239L497-544H351z" /><glyph unicode="&#x13d;" d="M369 1493h202L313 170h721L1001 0H78zm518-1h219l-208-376H742z" /><glyph unicode="&#x13e;" d="M739-8Q397-8 397 245q0 34 5.5 76t13.5 83l211 1008H311l29 144h5e2L6e2 4e2q-14-70-14-111 0-69 44.5-105T766 148h211L946-8H739zm278 1564h219l-208-376H872z" /><glyph unicode="&#x141;" d="M195 563 45 459-29 559l260 180 140 752h202L459 899l297 209 73-1e2-399-279-113-561h721L1006 0H82z" /><glyph unicode="&#x142;" d="M739-8Q645-8 583.5 9T482 56q-85 64-85 194 0 18 1.5 36.5T402 325q3 25 6 42t8 37l59 286-313-219-74 99 424 292 115 550H311l29 144h5e2l-115-550 315 217 74-98-424-293-90-432q-3-15-5.5-33t-4.5-31q-2-15-3-25t-1-20q0-38 11-63.5t34-43.5q22-17 54-26.5t81-9.5h211L946-8H739v0z" /><glyph unicode="&#x143;" d="M907 1866h208l-307-264H648zM285 1493h256L805 264l239 1229h195L948 0H692L428 1229 188 0H-6z" /><glyph unicode="&#x144;" d="M9e2 1685h219l-395-376H568zM303 1120h164l-12-168q78 1e2 164.5 147.5T809 1147q66 0 119-18.5t90.5-54 57.5-86 20-114.5q0-35-5.5-81.5T1075 694L940 0H756l135 695q2 5 3 14 15 70 15 112 0 79-46 122.5T729 987q-63 0-117.5-24t-98-69-75-111T391 633L268 0H84z" /><glyph unicode="&#x145;" d="M285 1493h256L805 264l239 1229h195L948 0H692L428 1229 188 0H-6zM375-199h239L360-544H214z" /><glyph unicode="&#x146;" d="M303 1120h164l-12-168q78 1e2 164.5 147.5T809 1147q66 0 119-18.5t90.5-54 57.5-86 20-114.5q0-35-5.5-81.5T1075 694L940 0H756l135 695q2 5 3 14 15 70 15 112 0 79-46 122.5T729 987q-63 0-117.5-24t-98-69-75-111T391 633L268 0H84zM416-199h239L401-544H255z" /><glyph unicode="&#x147;" d="M534 1861h136l139-178 209 178h151l-264-266H692zM285 1493h256L805 264l239 1229h195L948 0H692L428 1229 188 0H-6z" /><glyph unicode="&#x148;" d="M519 1673h131l119-243 225 243h156l-320-376H683zM303 1120h164l-12-168q78 1e2 164.5 147.5T809 1147q66 0 119-18.5t90.5-54 57.5-86 20-114.5q0-35-5.5-81.5T1075 694L940 0H756l135 695q2 5 3 14 15 70 15 112 0 79-46 122.5T729 987q-63 0-117.5-24t-98-69-75-111T391 633L268 0H84z" /><glyph unicode="&#x14a;" d="M377-270h167q93 0 148 63.5T775 0l197 1009q16 80 16 144 0 106-46.5 155.5T8e2 1358q-140 0-237-105.5T425 937L242 0H40l291 1493h182l-19-198q76 112 178.5 169.5T902 1522q293 0 293-322 0-91-22-201L975-20q-19-98-56.5-173.5t-91.5-127T703.5-399 552-426H347z" /><glyph unicode="&#x14b;" d="M379-270h185q93 0 148.5 62.5T792-20l139 714q12 64 12 116 0 32-6 63.5t-24 57-52 41-90 15.5q-132 0-219-91T432 633L309 0H125l218 1120h164l-13-168q69 97 162 146t209 49q85 0 137.5-24.5t81.5-64.5 39.5-91 10.5-103q0-76-18-170L977-20q-19-98-56.5-173.5t-91.5-127T705.5-399 554-426H349z" /><glyph unicode="&#x14c;" d="M531 18e2h598l-29-148H502zM480-29Q82-29 82 459q0 128 23.5 263T167 975q31 97 66 170t71 127q84 125 194 186.5t253 61.5q201 0 300.5-119.5T1151 1037q0-60-6-125.5T1127.5 779 11e2 645.5 1064 516q-30-94-65-168t-72-129Q842 91 731 31T480-29zm17 164q49 0 90 13.5t75 39 62.5 62T778 333t47 104 40 119.5 33 128 25 131T938.5 943t5.5 117q0 66-9.5 120.5t-33 93.5-64 60.5T734 1356q-49 0-89.5-13.5t-74-38.5-62-62-53.5-83q-38-71-68.5-162t-53-189.5-34.5-196T287 432q0-69 10-124.5t34-93.5 64.5-58.5T497 135z" /><glyph unicode="&#x14d;" d="M469 1495h598l-29-148H440zM514-29Q318-29 217.5 80T117 392q0 67 11 136.5t31 137 49.5 130T274 911q81 118 190.5 177t252.5 59q193 0 295-106.5T1114 724q0-65-10-133.5t-30-135-49-130T958 207Q878 91 768.5 31T514-29zm10 156q67 0 122.5 24.5t99.5 67 76.5 99 54.5 121T909.5 572 920 707q0 149-52.5 216.5T709 991q-67 0-122.5-24.5t-99.5-67-76.5-99-54.5-121T323.5 546 313 411q0-149 52.5-216.5T524 127z" /><glyph unicode="&#x150;" d="M766 1859h186l-280-264H518zm319 0h186l-280-264H837zM480-29Q82-29 82 459q0 128 23.5 263T167 975q31 97 66 170t71 127q84 125 194 186.5t253 61.5q201 0 300.5-119.5T1151 1037q0-60-6-125.5T1127.5 779 11e2 645.5 1064 516q-30-94-65-168t-72-129Q842 91 731 31T480-29zm17 164q49 0 90 13.5t75 39 62.5 62T778 333t47 104 40 119.5 33 128 25 131T938.5 943t5.5 117q0 66-9.5 120.5t-33 93.5-64 60.5T734 1356q-49 0-89.5-13.5t-74-38.5-62-62-53.5-83q-38-71-68.5-162t-53-189.5-34.5-196T287 432q0-69 10-124.5t34-93.5 64.5-58.5T497 135z" /><glyph unicode="&#x151;" d="M688 1673h189l-302-376H440zm340 0h197l-324-376H766zM514-29Q318-29 217.5 80T117 392q0 67 11 136.5t31 137 49.5 130T274 911q81 118 190.5 177t252.5 59q193 0 295-106.5T1114 724q0-65-10-133.5t-30-135-49-130T958 207Q878 91 768.5 31T514-29zm10 156q67 0 122.5 24.5t99.5 67 76.5 99 54.5 121T909.5 572 920 707q0 149-52.5 216.5T709 991q-67 0-122.5-24.5t-99.5-67-76.5-99-54.5-121T323.5 546 313 411q0-149 52.5-216.5T524 127z" /><glyph unicode="&#x152;" d="M467 0Q359 0 277 25.5T141 103q-56 54-81 134.5T35 424q0 62 8 144.5T68 742t39 175 47 150q45 120 100.5 200.5T379 1396q137 97 379 97h594l-33-170H961l-87-442h328l-33-170H842L735 170h369L1071 0H467zm72 170 225 1153h-62q-119 0-201-54-47-30-77-70.5t-53-92.5q-6-14-12-28.5t-11.5-31-12-37.5-13.5-48q-14-52-26-103.5T272 745q-11-53-18.5-98.5T240 556q-5-42-8-77.5t-3-62.5q0-60 15.5-107t47.5-79q33-32 80.5-46T477 170h62z" /><glyph unicode="&#x153;" d="M288-29Q148-29 71 54T-6 292q0 26 2 58t6 64q1 13 3.5 30.5t5.5 37 6.5 39.5 6.5 38q5 28 12 58.5T50.5 677 65 731.5 77 774q12 39 29 82t39 82q28 50 63 88.5t83 67.5q91 53 204 53 84 0 145-34 62-34 95-93 59 64 126 95 69 32 147 32 123 0 193-76 35-38 53-91t18-117q0-26-2.5-55.5T1264 754q-4-29-10.5-69.5T1239 604l-16-90H721q-5-23-8.5-40.5t-6.5-34-5.5-33.5-5.5-38q-5-29-7-47.5t-2-35.5q0-42 12.5-71t36.5-51q49-44 133-44 70 0 142 29 69 28 125 79l-35-172q-34-23-64.5-37.5T975-7q-32-11-64.5-16.5T839-29q-96 0-164 35t-102 98Q514 39 444 5q-71-34-156-34zm21 152q61 0 110 35 29 20 46 46.5t30 55.5q5 11 9 21t8.5 23 9.5 30.5 12 44.5q13 49 23 93t18 88 15.5 89.5T603 735q9 67 9 101 0 36-9 66t-27 51q-36 42-104 42-36 0-63-9.5T361 961q-24-17-42-42t-34-63q-11-26-22-59t-20-68q-20-75-38-170-8-44-14.5-80.5T178 4e2q-5-37-7.5-64t-2.5-47q0-79 37-122 38-44 104-44zm774 530 15 76q3 16 5.5 33.5t3.5 25.5q2 14 2.5 27.5t.5 24.5q0 33-8 63t-25 50q-18 21-43.5 29.5T980 991q-43 0-75.5-17T847 926q-30-37-50-87t-29-104l-14-82h329z" /><glyph unicode="&#x154;" d="M839 1860h208l-307-264H580zM281 1493h416q207 0 320.5-89t113.5-264q0-85-27-159.5t-77-132-121.5-95T746 705q35-6 65.5-24t50.5-43q21-27 45.5-83T959 408L1080 0H879L773 377q-22 78-45.5 127.5T674 582t-69.5 38.5T510 631H318L195 0H-8zM570 797q81 0 147.5 22t113 63.5 72 99.5 25.5 130q0 111-63 163t-199 52H453L351 797h219z" /><glyph unicode="&#x155;" d="M1045 1673h219l-395-376H713zM434 1120h164l-20-219q67 121 173 183.5t241 62.5q146 0 227-72l-35-186q-45 45-104.5 66.5T948 977q-85 0-157.5-30T662 861.5 566.5 727 508 549L401 0H217z" /><glyph unicode="&#x156;" d="M281 1493h416q207 0 320.5-89t113.5-264q0-85-27-159.5t-77-132-121.5-95T746 705q35-6 65.5-24t50.5-43q21-27 45.5-83T959 408L1080 0H879L773 377q-22 78-45.5 127.5T674 582t-69.5 38.5T510 631H318L195 0H-8zM570 797q81 0 147.5 22t113 63.5 72 99.5 25.5 130q0 111-63 163t-199 52H453L351 797h219zM440-199h239L425-544H279z" /><glyph unicode="&#x157;" d="M434 1120h164l-20-219q67 121 173 183.5t241 62.5q146 0 227-72l-35-186q-45 45-104.5 66.5T948 977q-85 0-157.5-30T662 861.5 566.5 727 508 549L401 0H217zM213-199h239L198-544H52z" /><glyph unicode="&#x158;" d="M438 1861h136l139-178 209 178h151l-264-266H596zM281 1493h416q207 0 320.5-89t113.5-264q0-85-27-159.5t-77-132-121.5-95T746 705q35-6 65.5-24t50.5-43q21-27 45.5-83T959 408L1080 0H879L773 377q-22 78-45.5 127.5T674 582t-69.5 38.5T510 631H318L195 0H-8zM570 797q81 0 147.5 22t113 63.5 72 99.5 25.5 130q0 111-63 163t-199 52H453L351 797h219z" /><glyph unicode="&#x159;" d="M591 1673h131l119-243 225 243h156l-320-376H755zM434 1120h164l-20-219q67 121 173 183.5t241 62.5q146 0 227-72l-35-186q-45 45-104.5 66.5T948 977q-85 0-157.5-30T662 861.5 566.5 727 508 549L401 0H217z" /><glyph unicode="&#x15a;" d="M907 1866h208l-307-264H648zM435-29Q325-29 225-6.5T25 61l41 209q101-72 203-103.5T469 135q88 0 158.5 23.5T747 224t75 1e2 26 128q0 40-10 69.5t-35.5 53-68 43.5T627 659l-101 33q-93 30-156.5 62T267 824.5 211.5 911 195 1022q0 109 44 200.5T361.5 1380t186 103 234.5 37q87 0 175-19t190-59l-39-205q-163 119-349 119-83 0-151-22t-117.5-60.5T414 1182t-27-116q0-38 11-66t37.5-50.5 70-42.5T614 866l121-39q86-28 146-61.5t97.5-76.5 54-96.5T1049 472q0-112-43-204T883.5 110 690.5 7.5 435-29z" /><glyph unicode="&#x15b;" d="M9e2 1680h219l-395-376H568zM476-29q-87 0-174 17.5T115 41l37 190q187-106 353-106 67 0 122.5 16t95.5 43.5 62 64 22 76.5q0 114-196 162l-28 7-67 18q-128 34-189 96t-61 170q0 84 34 152t97.5 116.5 154 74.5 202.5 26q177 0 323-66l-35-180q-72 45-149 68.5T731 993q-66 0-118.5-14t-89-38.5-55.5-58-19-72.5q0-29 11.5-52t37.5-43 68-37 104-33q16-5 22-6l72-18q120-30 176.5-93T997 365q0-84-37.5-156t-106-125T689 1 476-29z" /><glyph unicode="&#x15e;" d="M490 1274q-48-38-75.5-91T387 1068q0-39 12-67.5t37-50.5 68.5-42.5T614 866l121-39q85-27 142-58t97-75q38-42 56.5-94.5T1049 473q0-110-41-202.5T883 109q-63-52-142.5-84T567-20q15-28 26-51t17-40q9-24 13-45.5t4-41.5q0-42-17.5-78.5T557-341q-69-54-191-54-20 0-43.5 1.5T276-388q-45 7-94 23l25 129q20-10 41.5-17.5T284-265q34-9 69-9 31 0 58 7.5t46 22.5 28 36 9 45q0 17-4 35.5T480-93q-3 9-10.5 26.5T451-29h-16q-58 0-108 6T226-6Q123 17 25 61l41 209q97-68 199-102 51-17 103.5-25t106.5-8q86 0 152 21.5T745 223q103 88 103 221 0 44-11 75t-33 54q-26 26-68.5 45.5T627 659l-101 33q-81 26-147 57t-110 75q-37 37-55.5 84.5T195 1025q0 101 40.5 192.5T360 1380q83 70 191 105t232 35q48 0 91-5t88-15q48-11 91.5-24.5t93.5-33.5l-39-205q-82 59-168 89-87 30-181 30-85 0-153-22t-116-60z" /><glyph unicode="&#x15f;" d="M525 942q-40-27-58-63t-18-71q0-36 17.5-61t47.5-43 70-32 86-27q15-5 16-4.5t6-1.5l72-18q51-13 97-36t78-56q29-31 43.5-69t14.5-91q0-85-37-159T853 82q-57-44-129.5-70.5T569-24q14-25 23.5-46.5T610-111q17-45 17-87t-17.5-78.5T557-341q-69-54-191-54-20 0-43.5 1.5T276-388q-45 7-94 23l25 129q20-10 41.5-17.5T284-265q34-9 69-9 31 0 58 7.5t46 22.5 28 36 9 45q0 17-4 35.5T480-93q-3 9-11 26.5T451-29q-82 3-149 17-45 9-92 22.5T115 41l37 190q48-26 93-46t90-33q45-14 86.5-20.5T507 125q132 0 216 60 42 30 63 67.5t21 76.5q0 26-10 48.5t-33 42-60.5 36T611 487l-28 7-67 18q-65 17-111.5 40.5T327 608q-61 64-61 172 0 79 32.5 147.5T397 1047q62 48 151.5 74t206.5 26q43 0 85-4t83-12 79-20.5 75-29.5l-35-180q-35 23-74.5 40.5T893 970q-77 23-162 23-62 0-115-12.5T525 942z" /><glyph unicode="&#x160;" d="M489 1861h136l139-178 209 178h151l-264-266H647zM435-29q-58 0-108 6T226-6Q123 17 25 61l41 209q97-68 199-102 51-17 103.5-25t106.5-8q86 0 152 21.5T745 223q103 88 103 221 0 44-11 75t-33 54q-26 26-68.5 45.5T627 659l-101 33q-81 26-147 57t-110 75q-37 37-55.5 84.5T195 1025q0 101 40.5 192.5T360 1380q83 70 191 105t232 35q48 0 91-5t88-15q48-11 91.5-24.5t93.5-33.5l-39-205q-82 59-168 89-87 30-181 30-85 0-153-22t-116-60-75.5-91-27.5-115q0-39 12-67.5t37-50.5 68.5-42.5T614 866l121-39q85-27 142-58t97-75q38-42 56.5-94.5T1049 473q0-110-41-202.5T883 109 686 5.5 435-29z" /><glyph unicode="&#x161;" d="M471 1673h131l119-243 225 243h156l-320-376H635zM477-29q-48 0-92.5 4.5T302-12q-45 9-92 22.5T115 41l37 190q48-26 93-46t90-33q45-14 86.5-20.5T507 125q132 0 216 60 42 30 63 67.5t21 76.5q0 26-10 48.5t-33 42-60.5 36T611 487l-28 7-67 18q-65 17-111.5 40.5T327 608q-61 64-61 172 0 79 32.5 147.5T397 1047q62 48 151.5 74t206.5 26q43 0 85-4t83-12 79-20.5 75-29.5l-35-180q-35 23-74.5 40.5T893 970q-77 23-162 23-62 0-115-12.5T525 942q-40-27-58-63t-18-71q0-36 17.5-61t47.5-43 70-32 86-27q15-5 16-4.5t6-1.5l72-18q51-13 97-36t78-56q29-31 43.5-69t14.5-91q0-85-37-159T853 82Q781 26 684-1.5T477-29z" /><glyph unicode="&#x164;" d="M508 1861h136l139-178 209 178h151l-264-266H666zm121-538H160l33 170h1140l-33-170H831L575 0H371z" /><glyph unicode="&#x165;" d="M1063 1680h219l-208-376H918zM682-4q-89 0-148 15t-97 41q-40 28-59.5 69T358 222q0 12 1 28.5t3 33.5q2 13 5 34t8 47l119 612H195l28 143h299l62 318h184l-61-318h417l-28-143H678L559 365q-3-17-4.5-26t-2.5-14-1-7.5-1-7.5q-3-26-3-47 0-67 39-93 39-27 141-27h207L905-4H682z" /><glyph unicode="&#x166;" d="M483 577H218l33 170h265l112 576H159l33 170h1139l-33-170H831L719 747h265l-33-170H686L574 0H371z" /><glyph unicode="&#x167;" d="M667-4Q564-4 496 16T392 79q-24 29-34 67t-10 86q0 32 3.5 64t10.5 69l45 237H178l28 142h229l45 233H181l28 143h299l62 318h184l-62-318h418l-28-143H664l-45-233h229l-28-142H591l-45-237q-9-50-9-86 0-58 22-87 37-49 155-49h207L892-4H667v0z" /><glyph unicode="&#x168;" d="M446 1627q35 109 97 164t143 55q34 0 67-10.5t68-36.5l35-26q36-27 72-27 42 0 69.5 27t38.5 73h125q-32-111-97-165t-148-54q-32 0-60.5 9.5T794 1670l-34 25-2 1q-43 32-80 32-69 0-107-101H446zM478-29q-96 0-170 23.5T183.5 62t-77 107T80 311q0 44 8.5 106T115 573l178 920h203L317 573q-1-6-1.5-8t-1-5-1.5-8.5-4-19.5q-15-74-22.5-131t-7.5-89q0-85 54.5-131T496 135q37 0 74.5 6t72 20 63.5 36.5 50 55.5q11 18 22 42.5t23 65.5q11 38 23.5 92T850 573l178 920h203l-178-920q-21-107-42-184t-46-134-56-97-71-72Q765 28 673.5-.5T478-29z" /><glyph unicode="&#x169;" d="M882 1270q-34 0-69 13.5t-76 55.5l-47 49q-36 37-74 37-42 0-64-40t-30-113H397q17 134 72.5 208t150.5 74q40 0 74-15.5t72-53.5l47-47q20-20 35-29.5t35-9.5q81 0 98 155h125q-18-140-73.5-212T882 1270zM409-27q-66 0-118.5 18.5T201 46t-56.5 88T125 253q0 32 4.5 78.5T143 426l133 694h185L326 426q-6-32-10.5-68t-4.5-62q0-78 46.5-120.5T489 133q124 0 213 90.5T825 487l123 633h185L915 0H751l13 168Q620-27 409-27z" /><glyph unicode="&#x16a;" d="M531 18e2h598l-29-148H502zM478-29q-96 0-170 23.5T183.5 62t-77 107T80 311q0 44 8.5 106T115 573l178 920h203L317 573q-1-6-1.5-8t-1-5-1.5-8.5-4-19.5q-15-74-22.5-131t-7.5-89q0-85 54.5-131T496 135q37 0 74.5 6t72 20 63.5 36.5 50 55.5q11 18 22 42.5t23 65.5q11 38 23.5 92T850 573l178 920h203l-178-920q-21-107-42-184t-46-134-56-97-71-72Q765 28 673.5-.5T478-29z" /><glyph unicode="&#x16b;" d="M469 1469h598l-29-148H440zM409-27q-66 0-118.5 18.5T201 46t-56.5 88T125 253q0 32 4.5 78.5T143 426l133 694h185L326 426q-6-32-10.5-68t-4.5-62q0-78 46.5-120.5T489 133q124 0 213 90.5T825 487l123 633h185L915 0H751l13 168Q620-27 409-27z" /><glyph unicode="&#x16e;" d="M760 1352q-57 0-107 21.5t-87 58.5-58.5 87-21.5 108 21.5 108 58.5 87 87 58 107 21 107.5-21 87.5-58 58.5-87 21.5-108-21.5-108-58.5-87-87.5-58.5T760 1352zm0 123q32 0 59.5 12t48 32 32.5 47.5 12 59.5-12 59.5-32.5 48-48 32.5-59.5 12-59.5-11.5-48-32-32-48T609 1627t11.5-60 32-48.5 48-32T760 1475zM478-29q-96 0-170 23.5T183.5 62t-77 107T80 311q0 44 8.5 106T115 573l178 920h203L317 573q-1-6-1.5-8t-1-5-1.5-8.5-4-19.5q-15-74-22.5-131t-7.5-89q0-85 54.5-131T496 135q37 0 74.5 6t72 20 63.5 36.5 50 55.5q11 18 22 42.5t23 65.5q11 38 23.5 92T850 573l178 920h203l-178-920q-21-107-42-184t-46-134-56-97-71-72Q765 28 673.5-.5T478-29z" /><glyph unicode="&#x16f;" d="M738 1186q-57 0-107 21.5t-87 58.5-58.5 87-21.5 108 21.5 108 58.5 87 87 58 107 21 107.5-21 87.5-58 58.5-87 21.5-108-21.5-108-58.5-87-87.5-58.5T738 1186zm0 123q32 0 59.5 12t48 32 32.5 47.5 12 59.5-12 59.5-32.5 48-48 32.5-59.5 12-59.5-11.5-48-32-32-48T587 1461t11.5-60 32-48.5 48-32T738 1309zM409-27q-66 0-118.5 18.5T201 46t-56.5 88T125 253q0 32 4.5 78.5T143 426l133 694h185L326 426q-6-32-10.5-68t-4.5-62q0-78 46.5-120.5T489 133q124 0 213 90.5T825 487l123 633h185L915 0H751l13 168Q620-27 409-27z" /><glyph unicode="&#x170;" d="M766 1859h186l-280-264H518zm319 0h186l-280-264H837zM478-29q-96 0-170 23.5T183.5 62t-77 107T80 311q0 44 8.5 106T115 573l178 920h203L317 573q-1-6-1.5-8t-1-5-1.5-8.5-4-19.5q-15-74-22.5-131t-7.5-89q0-85 54.5-131T496 135q37 0 74.5 6t72 20 63.5 36.5 50 55.5q11 18 22 42.5t23 65.5q11 38 23.5 92T850 573l178 920h203l-178-920q-21-107-42-184t-46-134-56-97-71-72Q765 28 673.5-.5T478-29z" /><glyph unicode="&#x171;" d="M688 1648h189l-302-376H440zm340 0h197l-324-376H766zM409-27q-66 0-118.5 18.5T201 46t-56.5 88T125 253q0 32 4.5 78.5T143 426l133 694h185L326 426q-6-32-10.5-68t-4.5-62q0-78 46.5-120.5T489 133q124 0 213 90.5T825 487l123 633h185L915 0H751l13 168Q620-27 409-27z" /><glyph unicode="&#x172;" d="M1231 1493l-178-920q-21-107-42-184t-46-134-56-97-71-72Q765 28 673.5-.5T478-29h-23q-55-54-83.5-101T343-216q0-35 24-53.5t72-18.5q29 0 62 7.5t65 22.5l-25-133q-69-20-139-20-98 0-151.5 40T197-261q0 56 37 115.5T349-16Q218 12 149 96.5T80 311q0 44 8.5 106T115 573l178 920h203L317 573q-1-6-1.5-8t-1-5-1.5-8.5-4-19.5q-15-74-22.5-131t-7.5-89q0-85 54.5-131T496 135q37 0 74.5 6t72 20 63.5 36.5 50 55.5q11 18 22 42.5t23 65.5q11 38 23.5 92T850 573l178 920h203z" /><glyph unicode="&#x173;" d="M409-27q-66 0-118.5 18.5T201 46t-56.5 88T125 253q0 32 4.5 78.5T143 426l133 694h185L326 426q-6-32-10.5-68t-4.5-62q0-78 46.5-120.5T489 133q124 0 213 90.5T825 487l123 633h185L915 0H751l13 168Q620-27 409-27zM850-397q-98 0-151.5 40T645-247q0 56 37 115.5T797-2h119q-61-58-93-108t-32-92q0-35 24-53.5t72-18.5q29 0 62 7.5t65 22.5l-25-133q-69-20-139-20z" /><glyph unicode="&#x174;" d="M737 1868h213l158-266H975l-139 178-209-178H475zM145 1493h191L246 283l329 8e2h211l15-802 377 1212h198L866 0H672l-31 870L270 0H82z" /><glyph unicode="&#x175;" d="M737 1646h147l164-376H915l-117 241-225-241H417zM92 1120h176l15-905 268 578h162l49-578 362 905h191L829 0H664l-60 623L307 0H141z" /><glyph unicode="&#x176;" d="M735 1868h213l158-266H973l-139 178-209-178H473zM508 670l-313 823h202l236-651 497 651h218L713 670 584 0H377z" /><glyph unicode="&#x177;" d="M777 1646h147l164-376H955l-117 241-225-241H457zM20-272h108q42 0 77 12t66 37.5 59.5 64.5T386-66l43 84-217 1102h183l172-862 483 862h205L816 360q-25-43-49.5-86T720 192.5l-40-70T651 72Q572-66 522.5-150T442-276q-60-79-136-114.5T139-426H-9z" /><glyph unicode="&#x178;" d="M506 1627q-15 0-22.5 9t-4.5 24l28 143q4 27 32 27h144q27 0 27-24 0-6-1-9l-29-143q-6-27-32-27H506zm391 0q-15 0-22.5 9t-4.5 24l28 143q4 27 32 27h143q15 0 22.5-9t4.5-24l-28-143q-5-27-32-27H897zM508 670l-313 823h202l236-651 497 651h218L713 670 584 0H377z" /><glyph unicode="&#x179;" d="M907 1866h208l-307-264H648zM23 154l976 1169H272l33 170h969l-29-154L266 170h774L1006 0H-6z" /><glyph unicode="&#x17a;" d="M940 1646h219l-395-376H608zM111 168l784 805H291l28 147h814l-33-168-785-805h629L915 0H78z" /><glyph unicode="&#x17b;" d="M783 1627q-16 0-25.5 11t-6.5 28l27 143q2 11 10 17t19 6h141q16 0 26-11t7-28l-28-143q-2-11-10-17t-19-6H783zM23 154l976 1169H272l33 170h969l-29-154L266 170h774L1006 0H-6z" /><glyph unicode="&#x17c;" d="M694 1320q-27 0-27 24 0 6 1 9l29 144q4 27 32 27h145q27 0 27-24 0-6-1-9l-29-144q-6-27-32-27H694zM111 168l784 805H291l28 147h814l-33-168-785-805h629L915 0H78z" /><glyph unicode="&#x17d;" d="M539 1861h136l139-178 209 178h151l-264-266H697zM23 154l976 1169H272l33 170h969l-29-154L266 170h774L1006 0H-6z" /><glyph unicode="&#x17e;" d="M501 1646h131l119-243 225 243h156l-320-376H665zM111 168l784 805H291l28 147h814l-33-168-785-805h629L915 0H78z" /><glyph unicode="&#x192;" d="M203-426q-26 0-53 2.5T97-416q-50 10-97 33v164q27-17 51-28.5T99-267q25-8 49.5-12t46.5-4q53 0 91.5 20t67.5 55 50.5 90.5T440 18l117 687H305v143h275l49 330q14 92 45 160t80 118q99 1e2 248 1e2 48 0 98-9 48-9 1e2-27v-164q-15 12-36 24t-41 19q-17 6-39.5 10t-48.5 4q-51 0-89.5-16.5T879 1351q-30-32-48-78t-28-114l-45-311h303V705H733L633 70q-20-125-55.5-223T491-311q-98-115-288-115z" /><glyph unicode="&#x1a0;" d="M1367 1557q1-14 1.5-26t.5-23q0-27-2.5-48t-5.5-39q-21-114-74.5-175.5T1142 1184q-31 0-56 7 12-69 12-154 0-60-6-125.5T1074.5 779 1047 645.5 1011 516q-30-94-65-168t-72-129Q789 91 678 31T427-29Q29-29 29 459q0 128 23.5 263T114 975q31 97 66 170t71 127q84 125 194 186.5t253 61.5q227 0 326-156 32-22 57.5-31.5t49.5-9.5q42 0 70 27.5t39 81.5q5 28 5 51 0 35-11 74h133zM725 333q25 47 47 104t40 119.5 33 128 25 131T885.5 943t5.5 117q0 66-9.5 120.5t-33 93.5-64 60.5T681 1356q-49 0-89.5-13.5t-74-38.5-62-62-53.5-83q-38-71-68.5-162t-53-189.5-34.5-196T234 432q0-69 10-124.5t34-93.5 64.5-58.5T444 135q49 0 90 13.5t75 39 62.5 62T725 333z" /><glyph unicode="&#x1a1;" d="M1218 1137q1-14 1.5-26t.5-23q0-27-2.5-48t-5.5-39q-20-109-70-170.5T1007 764q1-10 1-19.5V724q0-65-10-133.5t-30-135-49-130T852 207Q772 91 662.5 31T408-29Q212-29 111.5 80T11 392q0 67 11 136.5t31 137 49.5 130T168 911q81 118 190.5 177t252.5 59q146 0 240-61.5T983 903q42 1 69.5 28.5t38.5 80.5q5 28 5 51 0 35-11 74h133zM418 127q67 0 122.5 24.5t99.5 67 76.5 99 54.5 121T803.5 572 814 707q0 149-52.5 216.5T603 991q-67 0-122.5-24.5t-99.5-67-76.5-99-54.5-121T217.5 546 207 411q0-149 52.5-216.5T418 127z" /><glyph unicode="&#x1af;" d="M1385 1557q1-14 1.5-26t.5-23q0-27-2.5-48t-5.5-39q-21-114-74.5-175.5T1160 1184q-40 0-73 13L966 573q-21-107-42-184t-46-134-56-97-71-72Q678 28 586.5-.5T391-29q-96 0-170 23.5T96.5 62t-77 107T-7 311q0 44 8.5 106T28 573l178 920h203L230 573q-1-6-1.5-8t-1-5-1.5-8.5-4-19.5q-15-74-22.5-131t-7.5-89q0-85 54.5-131T409 135q37 0 74.5 6t72 20 63.5 36.5 50 55.5q11 18 22 42.5t23 65.5q11 38 23.5 92T763 573l178 920h203l-32-165q10-2 19-3.5t18-1.5q42 0 70 27.5t39 81.5q5 28 5 51 0 35-11 74h133v0z" /><glyph unicode="&#x1b0;" d="M1260 1137q1-14 1.5-26t.5-23q0-27-2.5-48t-5.5-39q-21-114-74.5-175.5T1035 764q-40 0-75 13L809 0H645l13 168Q514-27 303-27q-66 0-118.5 18.5T95 46t-56.5 88T19 253q0 32 4.5 78.5T37 426l133 694h185L220 426q-6-32-10.5-68t-4.5-62q0-78 46.5-120.5T383 133q124 0 213 90.5T719 487l123 633h185l-41-211q19-6 38-6 42 0 70 27.5t39 81.5q5 28 5 51 0 35-11 74h133v0z" /><glyph unicode="&#x1e6;" d="M529 1861h136l139-178 209 178h151l-264-266H687zM563-29Q445-29 354.5 5t-152 1e2-93 162T78 487q0 94 17 198t48 208q35 118 80 208t105 165q206 254 524 254 85 0 162.5-19.5T1176 1438l-41-207q-129 125-290 125-97 0-183-41.5T508 1192q-49-59-86-136t-66-169q-17-56-30-111t-21.5-106.5-13-98T287 487q0-168 79-260t227-92q66 0 119.5 18.5T803 207l76 393H662l30 166h410L969 96Q883 34 780 2.5T563-29z" /><glyph unicode="&#x1e7;" d="M471 1673h131l119-243 225 243h156l-320-376H635zM378-440q-86 0-165 14T59-385l37 182q73-45 151-67.5T409-293q76 0 132.5 20t98 62T709-103.5 756 53l24 117Q721 80 632.5 36T443-8q-79 0-142 27T193.5 98t-68 128T102 401q0 65 10.5 133t30 134T190 796t64 115q37 55 81.5 99t95 74.5T536 1131t112 16q101 0 176.5-48.5T934 965l47 151h164L942 72q-26-132-71-228.5T758-316t-162-93.5T378-440zM507 145q166 0 263 174 24 43 43 95t32.5 106.5 21 108T874 728q0 130-55 196.5T667 991q-57 0-107-23t-91-63-73-94.5-54-117-33.5-130T297 429q0-76 14.5-129.5t41.5-88 66-50.5 88-16z" /><glyph unicode="&#x1fe;" d="M887 1859h208l-307-264H628zM14-6l119 170q-27 58-40 128T80 453q0 95 13.5 198t38 203.5 59 193.5 77.5 169q87 153 207 228t274 75q83 0 148-21.5t119-64.5l84 125 1e2-64-106-158q29-60 43-131.5t14-165.5q0-97-14-200.5t-38.5-204-59-193T963 276Q873 117 751 44T480-29q-81 0-148.5 22T207 63L113-70zM905 1274q-29 39-74 60.5T726 1356q-114 0-193-84.5T395 1018q-24-69-44-145.5t-34-150T295 583t-8-114q0-26 1.5-45.5T291 389zM502 135q57 0 105 20.5t88.5 62.5 75 105.5T836 473q24 68 43.5 141.5t33 147.5T933 907.5t7 135.5q0 20-.5 38t-1.5 35L322 229q20-45 67-69.5T502 135z" /><glyph unicode="&#x1ff;" d="M907 1673h219l-395-376H575zM47-20l129 153q-57 94-57 256 0 140 39.5 275.5T274 911q80 116 188.5 176t259.5 60q81 0 141-18t106-54l112 137 93-77-123-146q32-51 47.5-114.5T1114 729q0-71-11-142t-31-138-49-128.5T958 207Q880 94 770.5 32.5T511-29q-81 0-141 18.5T258 45L139-96zM852 938q-30 28-68 40.5T703 991q-86 0-157.5-45.5T422.5 820 342 629t-29-241q0-29 1.5-48.5T319 302zM533 127q84 0 154.5 45.5t122.5 126 81 191T920 731q0 29-2 51.5t-7 42.5L377 186q29-29 68.5-44t87.5-15z" /><glyph unicode="&#x218;" d="M435-29Q325-29 225-6.5T25 61l41 209q101-72 203-103.5T469 135q88 0 158.5 23.5T747 224t75 1e2 26 128q0 40-10 69.5t-35.5 53-68 43.5T627 659l-101 33q-93 30-156.5 62T267 824.5 211.5 911 195 1022q0 109 44 200.5T361.5 1380t186 103 234.5 37q87 0 175-19t190-59l-39-205q-163 119-349 119-83 0-151-22t-117.5-60.5T414 1182t-27-116q0-38 11-66t37.5-50.5 70-42.5T614 866l121-39q86-28 146-61.5t97.5-76.5 54-96.5T1049 472q0-112-43-204T883.5 110 690.5 7.5 435-29zM335-197h239L320-542H174z" /><glyph unicode="&#x219;" d="M476-29q-87 0-174 17.5T115 41l37 190q187-106 353-106 67 0 122.5 16t95.5 43.5 62 64 22 76.5q0 114-196 162l-28 7-67 18q-128 34-189 96t-61 170q0 84 34 152t97.5 116.5 154 74.5 202.5 26q177 0 323-66l-35-180q-72 45-149 68.5T731 993q-66 0-118.5-14t-89-38.5-55.5-58-19-72.5q0-29 11.5-52t37.5-43 68-37 104-33q16-5 22-6l72-18q120-30 176.5-93T997 365q0-84-37.5-156t-106-125T689 1 476-29zM389-197h239L374-542H228z" /><glyph unicode="&#x21a;" d="M1333 1493l-33-170H831L575 0h-20q38-67 55-112t17-86q0-44-18.5-80t-52-62-82-40.5T366-395q-43 0-89.5 7.5T182-365l25 129q40-19 76.5-28.5T355-274q65 0 102 30.5t37 81.5q0 30-14.5 69T436 0h-65l258 1323H160l33 170h1140z" /><glyph unicode="&#x21b;" d="M559 365q-3-17-4.5-26t-2.5-14-1-7.5-1-7.5q-3-26-3-47 0-67 39-93 39-27 141-27h207L905-4H702q34-60 50-103.5t16-78.5q0-47-18.5-84t-52-63.5T616-374t-108-14q-91 0-185 30l25 129q81-38 145-38 67 0 104.5 30t37.5 84q0 53-56 155-47 7-81.5 19.5T437 52q-40 28-59.5 69T358 222q0 12 1 28.5t3 33.5q2 13 5 34t8 47l119 612H195l28 143h299l62 318h184l-61-318h417l-28-143H678L559 365v0z" /><glyph unicode="&#x2b9;" d="M605 1638h190l-206-498H444z" /><glyph unicode="&#x2bb;" d="M504 1174l270 382h154l-172-382-41-207H463z" /><glyph unicode="&#x2bc;" d="M578 1349l40 207h252l-40-207-270-382H406z" /><glyph unicode="&#x2bd;" d="M688 1218q-2e2.0-2e2 177 0 18 1.5 38t6.5 42l49 254h241l-49-254H626q-3-13-4-24.5t-1-22.5q0-87 90-87l-23-123v0z" /><glyph unicode="&#x2be;" d="M615 1007q5 31 11 61.5t12 61.5q36 0 69 14.5t59 39 41.5 57.5 15.5 70q0 53-34.5 87.5T697 1433l24 123q51 0 92.5-16.5t71-46 46-70T947 1335q0-13-1.5-26t-3.5-27q-11-57-42-107.5t-75-87.5-98.5-58.5T615 1007z" /><glyph unicode="&#x2bf;" d="M819 1007q-51 0-92.5 17t-71 46.5-46 70T593 1229q0 13 1.5 26t3.5 27q11 57 42 107t75 87 98.5 58.5T925 1556l-24-123q-36 0-69-14.5t-58.5-39.5-41-58-15.5-69q0-53 34-87.5t91-34.5q-6-31-12-61.5t-11-61.5z" /><glyph unicode="&#x2c0;" d="M511 1341h40q66 0 112 17.5t76 46.5q28 27 44 64t16 74q0 41-20 70t-61.5 46.5T614 1677q-48 0-99.5-12T409 1629l18 96q52 20 104.5 29.5T638 1764q75 0 129-16.5t88.5-44.5 50.5-66 16-80q0-28-6-55-11-52-38.5-93.5T811 1337t-87-49.5-101-28.5l-71-365H425z" /><glyph unicode="&#x2c1;" d="M582 1259q-46 8-83 25t-63.5 42.5-41 59T380 1460q0 22 4 42 9 51 37 98.5t75.5 83.5 114 58 153.5 22q54 0 102.5-9.5T960 1725l-19-96q-90 48-189 48-56 0-98.5-13.5t-73.5-37-49.5-55.5-24.5-69q-3-15-3-30 0-36 21-67 44-64 163-64h39l-87-447H511z" /><glyph unicode="&#x2c6;" d="M717 1638h147l164-376H895l-117 241-225-241H397z" /><glyph unicode="&#x2c7;" d="M471 1638h131l119-243 225 243h156l-320-376H635z" /><glyph unicode="&#x2c8;" d="M602 1554h136L631 999H495z" /><glyph unicode="&#x2c9;" d="M469 1526h598l-29-148H440z" /><glyph unicode="&#x2cc;" d="M602 252h136L631-303H495z" /><glyph unicode="&#x2cd;" d="M133-209h598l-29-148H104z" /><glyph unicode="&#x2ce;" d="M551-208h198l197-376H803z" /><glyph unicode="&#x2cf;" d="M809-208h219L633-584H477z" /><glyph unicode="&#x2d0;" d="M541 1059h357L655 729zm37-729L692 0H335z" /><glyph unicode="&#x2d1;" d="M470 1059h357L584 729z" /><glyph unicode="&#x2d8;" d="M748 1321q-135 0-206 64-73 64-73 182v14.5t1 10.5q0 6 2 16h120v-17q0-64 44-99 43-34 128-34 81 0 133 37 54 39 82 113h119q-31-139-121-214-89-73-229-73z" /><glyph unicode="&#x2d9;" d="M664 1348q-27 0-27 24 0 6 1 9l29 144q4 27 32 27h145q27 0 27-24 0-6-1-9l-29-144q-5-27-32-27H664v0z" /><glyph unicode="&#x2da;" d="M778 1321q-114 0-194 80t-80 194q0 116 80 196 79 79 194 79 116 0 195-79 80-80 80-196 0-114-80-194t-195-80zm0 123q64 0 108 44t44 107q0 64-44 108t-108 44-107-43q-44-44-44-109 0-63 44-107t107-44z" /><glyph unicode="&#x2db;" d="M438-395q-48 0-87 10t-66 30q-29 22-41.5 50.5T231-245q0 29 9.5 57.5T269-129Q306-69 383 0h119q-62-59-93-109-32-51-32-89 0-36 24-55 22-19 70-19 14 0 30.5 1.5T535-265q32 7 65 23l-25-133q-20-6-36-9.5t-33-5.5q-18-2-33.5-3.5T438-395z" /><glyph unicode="&#x2dc;" d="M890 1307q-43 0-76 15-15 7-33.5 19.5T741 1376l-47 49q-5 5-15.5 14t-20.5 14q-17 9-37 9-15 0-32-7t-31-30q-25-38-32-116H401q16 135 74 209 57 73 147 73 43 0 76-15 17-8 35.5-22t36.5-32l47-47q14-14 20-19t17-11q16-9 34-9 20 0 37 10.5t28 28.5 19.5 47.5T985 1591h125q-8-63-26-117.5t-47-92.5-66-56-81-18z" /><glyph unicode="&#x2dd;" d="M688 1638h189l-302-376H440zm340 0h197l-324-376H766z" /><glyph unicode="&#x300;" horiz-adv-x="0" d="M-780 1638h198l197-376h-143z" /><glyph unicode="&#x301;" horiz-adv-x="0" d="M-326 1638h219l-395-376h-156z" /><glyph unicode="&#x302;" horiz-adv-x="0" d="M-516 1638h147l164-376h-133l-117 241-225-241h-156z" /><glyph unicode="&#x303;" horiz-adv-x="0" d="M-347 1307q-34 0-69 13.5t-76 55.5l-47 49q-36 37-74 37-42 0-64-40t-30-113h-125q17 134 72.5 208t150.5 74q40 0 74-15.5t72-53.5l47-47q20-20 35-29.5t35-9.5q81 0 98 155h125q-18-140-73.5-212t-150.5-72z" /><glyph unicode="&#x304;" horiz-adv-x="0" d="M-764 1526h598l-29-148h-598z" /><glyph unicode="&#x305;" horiz-adv-x="0" d="M-1233 1547H0v-80h-1233v80z" /><glyph unicode="&#x306;" horiz-adv-x="0" d="M-486 1321q-134 0-206 64t-72 182q0 17 .5 25t2.5 16h120v-17q0-66 43.5-99.5T-472 1458q85 0 137 37.5t81 112.5h119q-33-144-122.5-215.5T-486 1321z" /><glyph unicode="&#x307;" horiz-adv-x="0" d="M-561 1552h205l-41-204h-205z" /><glyph unicode="&#x308;" horiz-adv-x="0" d="M-758 1552h203l-39-202h-203zm391 0h203l-39-202h-203z" /><glyph unicode="&#x309;" horiz-adv-x="0" d="M-711 1374q19 6 38.5 15t37 18.5 31.5 19.5 22 17q15 14 28 40t13 52q0 15-5.5 28.5t-18.5 24-34.5 16.5-54.5 6q-35 0-76.5-7.5T-808 1579l25 131q91 24 179 24 210 0 210-138 0-16-3-32-1-2-1-5t-1-5q-6-32-22-61t-39-54.5-50.5-47-56.5-37.5l-17-88h-148z" /><glyph unicode="&#x30a;" horiz-adv-x="0" d="M-455 1321q-57 0-107 21.5t-87 58.5-58.5 87-21.5 108 21.5 108 58.5 87 87 58 107 21 107.5-21 87.5-58 58.5-87 21.5-108-21.5-108-58.5-87-87.5-58.5T-455 1321zm0 123q32 0 59.5 12t48 32 32.5 47.5 12 59.5-12 59.5-32.5 48-48 32.5-59.5 12-59.5-11.5-48-32-32-48-11.5-59.5 11.5-60 32-48.5 48-32 59.5-11.5z" /><glyph unicode="&#x30b;" horiz-adv-x="0" d="M-545 1638h189l-302-376h-135zm340 0H-8l-324-376h-135z" /><glyph unicode="&#x30c;" horiz-adv-x="0" d="M-762 1638h131l119-243 225 243h156l-320-376h-147z" /><glyph unicode="&#x30d;" horiz-adv-x="0" d="M-644 1706h136l-86-444h-136z" /><glyph unicode="&#x30e;" horiz-adv-x="0" d="M-848 1706h136l-86-444h-136zm408 0h136l-86-444h-136z" /><glyph unicode="&#x30f;" horiz-adv-x="0" d="M-849 1638h178l132-376h-135zm342 0h170l117-376h-137z" /><glyph unicode="&#x310;" horiz-adv-x="0" d="M-87 1812q-33-144-122.5-215.5T-438 1525q-134 0-206 64t-72 182q0 17 .5 25t2.5 16h120v-17q0-79 65-113l15 74h205l-15-76q41 17 69 49.5t48 82.5h119z" /><glyph unicode="&#x311;" horiz-adv-x="0" d="M-817 1321q78 287 370 287 72 0 121.5-17t80.5-47.5 44.5-73.5 13.5-94q0-27-3-55h-119q1 79-41.5 114.5T-476 1471q-89 0-142.5-38t-79.5-112h-119v0z" /><glyph unicode="&#x312;" horiz-adv-x="0" d="M-510 1312h146l-161-345h-239z" /><glyph unicode="&#x313;" horiz-adv-x="0" d="M-763 1341q111-3 138 134h-111l49 254h241l-49-254q-50-257-292-257z" /><glyph unicode="&#x314;" horiz-adv-x="0" d="M-545 1218q-2e2.0-2e2 177 0 18 1.5 38t6.5 42l49 254h241l-49-254h-111q-3-13-4-24.5t-1-22.5q0-87 90-87l-23-123v0z" /><glyph unicode="&#x315;" horiz-adv-x="0" d="M-513 1638h219l-208-376h-156z" /><glyph unicode="&#x316;" horiz-adv-x="0" d="M-682-208h198l197-376h-143z" /><glyph unicode="&#x317;" horiz-adv-x="0" d="M-424-208h219l-395-376h-156z" /><glyph unicode="&#x318;" horiz-adv-x="0" d="M-672-590h-176l26 136h176l34 177h136l-95-490h-136z" /><glyph unicode="&#x319;" horiz-adv-x="0" d="M-667-277h136l-34-177h176l-27-136h-176l-34-177h-136z" /><glyph unicode="&#x31a;" horiz-adv-x="0" d="M-486 1768h-354l26 136h490l-95-490h-136z" /><glyph unicode="&#x31b;" horiz-adv-x="0" d="M-628 764q-56 0-102.5 26t-98.5 82l23 119q55-48 94-68t73-20q42 0 70 27.5t39 81.5q5 28 5 51 0 35-11 74h133q1-14 1.5-26t.5-23q0-27-2.5-48t-5.5-39q-21-114-74.5-175.5T-628 764z" /><glyph unicode="&#x31c;" horiz-adv-x="0" d="M-749-502q-47 0-81 15t-56 40-33 58-11 68q0 55 24.5 102.5t62.5 82 85.5 54T-663-63l-19-98q-26 0-52-11t-47.5-30-35-45-13.5-57q0-39 24.5-69.5T-730-404l-19-98v0z" /><glyph unicode="&#x31d;" horiz-adv-x="0" d="M-842-454h177l34 177h136l-34-177h177l-27-136h-490z" /><glyph unicode="&#x31e;" horiz-adv-x="0" d="M-638-413h-177l26 136h490l-26-136h-177l-35-177h-136z" /><glyph unicode="&#x31f;" horiz-adv-x="0" d="M-682-590h-177l27 136h177l34 177h136l-34-177h177l-27-136h-177l-34-177h-136z" /><glyph unicode="&#x320;" horiz-adv-x="0" d="M-848-277h490l-27-136h-490z" /><glyph unicode="&#x321;" horiz-adv-x="0" d="M-893-270h185q94 0 148.5 63T-481-20l29 148h185l-29-148q-19-98-56.5-173.5t-91.5-127-123.5-78.5-151.5-27h-205z" /><glyph unicode="&#x322;" horiz-adv-x="0" d="M-888-426q-137 0-207.5 71.5T-1166-146q0 29 3 60t10 66l29 148h185l-29-148q-5-27-7.5-50.5T-978-115q0-155 141-155h185l-31-156h-205v0z" /><glyph unicode="&#x323;" horiz-adv-x="0" d="M-905-209h205l-39-204h-205z" /><glyph unicode="&#x324;" horiz-adv-x="0" d="M-1098-210h203l-40-202h-203zm392 0h202l-40-202h-202z" /><glyph unicode="&#x325;" horiz-adv-x="0" d="M-863-502q-41 0-73.5 13.5t-55 37.5-35 57-12.5 72q0 56 24 103.5t63 82 87.5 54T-768-63q40 0 72.5-13.5t56-37.5 36-57 12.5-72q0-56-24-103t-63-82-87.5-54.5T-863-502zm20 98q27 0 54 11t49 30 35.5 45 13.5 57q0 43-27 71.5t-72 28.5q-26 0-52.5-10.5t-48-30-35-46T-939-305q0-43 25.5-71t70.5-28z" /><glyph unicode="&#x326;" horiz-adv-x="0" d="M-898-197h239l-254-345h-146z" /><glyph unicode="&#x327;" horiz-adv-x="0" d="M-867-395q-43 0-89.5 7.5T-1051-365l25 129q40-19 76.5-28.5t71.5-9.5q65 0 102 30.5t37 81.5q0 30-14.5 69T-797 0h119q38-67 55-112t17-86q0-44-18.5-80t-52-62-82-40.5T-867-395z" /><glyph unicode="&#x328;" horiz-adv-x="0" d="M-787-395q-98 0-151.5 40T-992-245q0 56 37 115.5T-840 0h119q-61-58-93-108t-32-92q0-35 24-53.5t72-18.5q29 0 62 7.5t65 22.5l-25-133q-69-20-139-20z" /><glyph unicode="&#x329;" horiz-adv-x="0" d="M-641-209h136l-87-444h-136z" /><glyph unicode="&#x32a;" horiz-adv-x="0" d="M-860-209h551l-64-330h-137l38 194h-277l-38-194h-137z" /><glyph unicode="&#x32b;" horiz-adv-x="0" d="M-820-455q-186 0-186 205 0 35 6 77 1 1 1 5h117q-1-10-1.5-19.5t-.5-18.5q0-112 90-112 102 0 146 150h118q-1-8-1.5-15.5t-.5-15.5q0-60 26-89.5t62-29.5q41 0 83 37.5t65 112.5h118q-36-148-111-217.5T-469-455q-116 0-159 82-76-82-192-82z" /><glyph unicode="&#x32c;" horiz-adv-x="0" d="M-1101-109h139l132-245 229 245h139l-319-376h-147z" /><glyph unicode="&#x32d;" horiz-adv-x="0" d="M-855-109h147l173-376h-139l-134 245-227-245h-139z" /><glyph unicode="&#x32e;" horiz-adv-x="0" d="M-838-487q-134 0-206 64t-72 182q0 17 .5 25t2.5 16h120v-17q0-66 43.5-99.5T-824-350q85 0 137 37.5t81 112.5h119q-33-144-122.5-215.5T-838-487z" /><glyph unicode="&#x32f;" horiz-adv-x="0" d="M-1168-485q78 287 370 287 72 0 121.5-17t80.5-47.5 44.5-73.5 13.5-94q0-27-3-55h-119v13q0 66-38.5 101.5T-824-335q-89 0-143.5-38t-81.5-112h-119v0z" /><glyph unicode="&#x330;" horiz-adv-x="0" d="M-699-487q-34 0-69 13.5t-76 55.5l-47 49q-36 37-74 37-42 0-64-40t-30-113h-125q17 134 72.5 208t150.5 74q40 0 74-15.5t72-53.5l47-47q20-20 35-29.5t35-9.5q81 0 98 155h125q-18-140-73.5-212T-699-487z" /><glyph unicode="&#x331;" horiz-adv-x="0" d="M-11e2-209h598l-29-148h-598z" /><glyph unicode="&#x332;" horiz-adv-x="0" d="M-1233-403H0v-80h-1233v80z" /><glyph unicode="&#x333;" horiz-adv-x="0" d="M-1233-163H0v-80h-1233v80zm0-240H0v-80h-1233v80z" /><glyph unicode="&#x334;" horiz-adv-x="0" d="M-1139 666q45 30 86 51.5t81.5 35.5 80.5 20.5 83 6.5q25 0 49-2.5t49.5-8.5 54-16.5T-593 727q6-3 8.5-4t4-2 5-3 12.5-6q56-28 101.5-41.5T-367 657q72 0 146 30t161 93l-34-174q-165-114-314-114-51 0-98.5 12.5T-606 543q-5 2-6.5 3t-3.5 2-6.5 3l-13.5 6q-36 16-64 26.5t-52.5 17.5-48 10-50.5 3q-81 0-157-28t-165-94z" /><glyph unicode="&#x335;" horiz-adv-x="0" d="M-1091 616h920V452h-920v164z" /><glyph unicode="&#x336;" horiz-adv-x="0" d="M-1233 616H0V452h-1233v164z" /><glyph unicode="&#x337;" horiz-adv-x="0" d="M-1297-20-24 1212l78-77L-1220-96z" /><glyph unicode="&#x338;" horiz-adv-x="0" d="M-1369 0 26 1559l86-74L-1279-70z" /><glyph unicode="&#x339;" horiz-adv-x="0" d="M-950-404q25 0 51.5 11t48.5 30 35.5 45 13.5 57q0 39-25 69.5t-76 30.5l19 98q46 0 80.5-15t57-40 33.5-57.5 11-67.5q0-56-24.5-103t-63-82-86.5-54.5-94-19.5z" /><glyph unicode="&#x33a;" horiz-adv-x="0" d="M-860-54h137l-38-194h277l38 194h137l-64-330h-551z" /><glyph unicode="&#x33b;" horiz-adv-x="0" d="M-839-209h551l-106-550h-551zm334-414 54 278h-277l-54-278h277z" /><glyph unicode="&#x33c;" horiz-adv-x="0" d="M-1055-455q36 148 111 217.5t180 69.5q116 0 159-82 76 82 192 82 186 0 186-205 0-35-6-77-1-1-1-5h-117q1 10 1.5 19.5t.5 18.5q0 112-90 112-103 0-146-150h-118q1 8 1.5 15.5t.5 15.5q0 60-26 89.5t-62 29.5q-41 0-83-37.5T-937-455h-118v0z" /><glyph unicode="&#x33d;" horiz-adv-x="0" d="M-862 1324l149 125-1e2 125 114 97 101-126 150 126 77-97-149-125 1e2-125-114-96-101 125-150-125z" /><glyph unicode="&#x33e;" horiz-adv-x="0" d="M-787 1328q42 1 71.5 5t49.5 11q45 16 45 44 0 8-6 20t-23 28l-47 43q-24 24-33.5 44t-9.5 40q0 5 .5 10t1.5 10q7 40 32.5 70.5t66.5 50.5 95.5 30.5T-424 1746l-22-110q-82-1-121-15-45-17-45-45 0-8 6-20t23-28l47-43q24-24 33.5-44t9.5-40q0-5-.5-10t-1.5-10q-7-40-32.5-70.5T-594 1260t-95.5-30.5T-809 1218z" /><glyph unicode="&#x33f;" horiz-adv-x="0" d="M0 1307v-80h-1233v80H0z" /><glyph unicode="&#x358;" horiz-adv-x="0" d="M90 1552h205l-41-204H49z" /><glyph unicode="&#x361;" horiz-adv-x="0" d="M-15e2 1520q47 240 566 3e2 234 27 351 27 28 0 77-1t110-4.5 129.5-11 136-21.5 129-35 108.5-51 75-70.5 28-93.5q0-22-4-39H88q-101 142-363 165-141 13-224 19t-111 6q-18 0-68-1t-119-6.5-149.5-17-160.5-32.5-152-53.5-123-79.5h-118v0z" /><glyph unicode="&#x384;" d="M907 1638h219l-395-376H575z" /><glyph unicode="&#x385;" d="M1008 1896h219l-395-376H676zM439 1320q-15 0-22.5 9t-4.5 24l28 142q4 27 32 27h143q15 0 22.5-9t4.5-24l-28-142q-5-27-32-27H439zm431 0q-15 0-22.5 9t-4.5 24l28 142q4 27 32 27h143q15 0 22.5-9t4.5-24l-28-142q-5-27-32-27H870z" /><glyph unicode="&#x386;" d="M457 1638h219l-395-376H125zm182-145h246L1051 0H850l-35 389H295L111 0h-217zM801 551l-66 774-364-774h430z" /><glyph unicode="&#x388;" d="M207 1638h219L31 1262h-156zm137-145h885l-33-170H512l-86-442h653l-32-170H393L289 170h702L958 0H53z" /><glyph unicode="&#x389;" d="M157 1638h219l-395-376h-156zm126-145h202L367 881h553l118 612h203L950 0H748l139 711H332L195 0H-8z" /><glyph unicode="&#x38a;" d="M207 1638h219L31 1262h-156zM90 170h313l224 1153H313l33 170h830l-33-170H829L606 170h314L887 0H57z" /><glyph unicode="&#x38c;" d="M357 1638h219l-395-376H25zM480-29Q82-29 82 459q0 128 23.5 263T167 975q31 97 66 170t71 127q84 125 194 186.5t253 61.5q201 0 300.5-119.5T1151 1037q0-60-6-125.5T1127.5 779 11e2 645.5 1064 516q-30-94-65-168t-72-129Q842 91 731 31T480-29zm17 164q49 0 90 13.5t75 39 62.5 62T778 333t47 104 40 119.5 33 128 25 131T938.5 943t5.5 117q0 66-9.5 120.5t-33 93.5-64 60.5T734 1356q-49 0-89.5-13.5t-74-38.5-62-62-53.5-83q-38-71-68.5-162t-53-189.5-34.5-196T287 432q0-69 10-124.5t34-93.5 64.5-58.5T497 135z" /><glyph unicode="&#x38e;" d="M-8 1638h219l-395-376h-156zM496 650q10 49 14.5 102t4.5 108q0 74-8.5 145.5t-24.5 131-39.5 102T388 1297q-72 35-149 35-40 0-82-9l33 170q19 6 42 8.5t49 2.5q29 0 63.5-3t72.5-11q263-48 258-446 191 393 430 446 28 7 59 7 35 0 66-9.5t54.5-28 37-45.5 13.5-62q0-27-9.5-59t-30.5-69q-20-34-51-50.5t-63-16.5q-25 0-48 9t-40.5 26.5-27 43.5-6.5 61q-43-26-83-69t-76.5-96.5-68.5-115T773.5 892 729 767t-30-117L573 0H370z" /><glyph unicode="&#x38f;" d="M383 1638h219l-395-376H51zM-33 172h245q-69 94-102.5 194.5T76 585q0 92 21 197 30 154 91.5 279.5t147.5 214T529.5 1412t229.5 48q101 0 179-33t131-94.5 80.5-149.5 27.5-198q0-95-21-203-18-94-47.5-176.5T1036 449 935.5 306.5 804 172h248L1018 0H555l34 172q67 37 126.5 99.5t108 144 84.5 179T964 799q8 47 12.5 90t4.5 82q0 153-63.5 238T728 1294q-76 0-144-32.5T460.5 1166 363 1010.5 297 799q-24-117-24-222 0-140 40-245.5T430 172L396 0H-67z" /><glyph unicode="&#x390;" d="M1008 1896h219l-395-376H676zM439 1320q-15 0-22.5 9t-4.5 24l28 142q4 27 32 27h143q15 0 22.5-9t4.5-24l-28-142q-5-27-32-27H439zm431 0q-15 0-22.5 9t-4.5 24l28 142q4 27 32 27h143q15 0 22.5-9t4.5-24l-28-142q-5-27-32-27H870zM746-5Q601-5 532.5 56T464 249q0 64 17 152l110 576H381l28 143h398L666 390q-15-77-15-125 0-33 8-55t25.5-35 45.5-18.5 68-5.5h88L856-5H746z" /><glyph unicode="&#x391;" d="M639 1493h246L1051 0H850l-35 389H295L111 0h-217zM801 551l-66 774-364-774h430z" /><glyph unicode="&#x392;" d="M313 1493h443q204 0 307.5-79t103.5-236q0-76-24-141t-68-114.5T968 841t-141-42q136-27 197-108t61-209q0-110-41-199T925 131 733.5 34 475 0H23zM639 877q75 0 135 18.5t102 54 64.5 85.5 22.5 113q0 94-55.5 136.5T727 1327H483l-88-450h244zM506 166q92 0 162.5 22.5t118.5 65 73 103T885 492q0 116-65 168.5T606 713H365L258 166h248z" /><glyph unicode="&#x393;" d="M360 1493h924l-33-170H530L273 0H70z" /><glyph unicode="&#x394;" d="M640 1493h245L1052 0H-107zM827 170l-99 1145L183 170h644z" /><glyph unicode="&#x395;" d="M344 1493h885l-33-170H512l-86-442h653l-32-170H393L289 170h702L958 0H53z" /><glyph unicode="&#x396;" d="M23 154l976 1169H272l33 170h969l-29-154L266 170h774L1006 0H-6z" /><glyph unicode="&#x397;" d="M283 1493h202L367 881h553l118 612h203L950 0H748l139 711H332L195 0H-8z" /><glyph unicode="&#x398;" d="M465-29Q274-29 177.5 81.5T81 421q0 139 36 324 75 385 234 580t416 195q196 0 290.5-113t94.5-339q0-140-36-323-76-390-237-582T465-29zm33 164q78 0 140.5 36.5T746 276q27 41 52 99.5T845 503t39.5 145T915 799.5t20 148 7 133.5q0 40-3 74t-10 60q-18 69-67 105t-127 36q-79 0-141.5-37T487 1215q-26-41-51-99t-47-127-40-145-31.5-152T297 543.5 290 410q0-80 14-134 19-72 69-106.5T498 135zM444 881h398l-33-170H411z" /><glyph unicode="&#x399;" d="M90 170h313l224 1153H313l33 170h830l-33-170H829L606 170h314L887 0H57z" /><glyph unicode="&#x39a;" d="M283 1493h202L358 846l742 647h254L651 874 1079 0H860L5e2 741 307 573 195 0H-8z" /><glyph unicode="&#x39b;" d="M640 1493h245L1052 0H843L728 1315 102 0h-209z" /><glyph unicode="&#x39c;" d="M229 1493h269l110-756 414 756h270L1001 0H815l258 1327-434-795H498l-115 795L127 0H-59z" /><glyph unicode="&#x39d;" d="M285 1493h256L805 264l239 1229h195L948 0H692L428 1229 188 0H-6z" /><glyph unicode="&#x39e;" d="M283 1493h959l-33-170H250zm84-612h553l-33-170H334zM26 170h959L952 0H-7z" /><glyph unicode="&#x39f;" d="M480-29Q82-29 82 459q0 128 23.5 263T167 975q31 97 66 170t71 127q84 125 194 186.5t253 61.5q201 0 300.5-119.5T1151 1037q0-60-6-125.5T1127.5 779 11e2 645.5 1064 516q-30-94-65-168t-72-129Q842 91 731 31T480-29zm17 164q49 0 90 13.5t75 39 62.5 62T778 333t47 104 40 119.5 33 128 25 131T938.5 943t5.5 117q0 66-9.5 120.5t-33 93.5-64 60.5T734 1356q-49 0-89.5-13.5t-74-38.5-62-62-53.5-83q-38-71-68.5-162t-53-189.5-34.5-196T287 432q0-69 10-124.5t34-93.5 64.5-58.5T497 135z" /><glyph unicode="&#x3a0;" d="M283 1493h959L952 0H749l257 1323H453L196 0H-7z" /><glyph unicode="&#x3a1;" d="M342 1493h440q205 0 313.5-91t108.5-280q0-117-41.5-213t-119-165T855 637.5 604 6e2H371L254 0H51zM637 766q82 0 149 25t114.5 70.5 73 109T999 1110q0 112-61 164.5T745 1327H512L403 766h234z" /><glyph unicode="&#x3a3;" d="M9 170l566 577-342 576 33 170h1013l-33-170H444l343-576-567-577h802L989 0H-24z" /><glyph unicode="&#x3a4;" d="M629 1323H160l33 170h1140l-33-170H831L575 0H371z" /><glyph unicode="&#x3a5;" d="M496 650q10 49 14.5 102t4.5 108q0 74-8.5 145.5t-24.5 131-39.5 102T388 1297q-72 35-149 35-40 0-82-9l33 170q19 6 42 8.5t49 2.5q29 0 63.5-3t72.5-11q263-48 258-446 191 393 430 446 28 7 59 7 35 0 66-9.5t54.5-28 37-45.5 13.5-62q0-27-9.5-59t-30.5-69q-20-34-51-50.5t-63-16.5q-25 0-48 9t-40.5 26.5-27 43.5-6.5 61q-43-26-83-69t-76.5-96.5-68.5-115T773.5 892 729 767t-30-117L573 0H370z" /><glyph unicode="&#x3a6;" d="M255 170h147l22 116q-73 8-132 29.5t-101 60-65 95.5-23 137q0 31 3 65t11 72q23 118 68.5 201.5T294 1084t141.5 83 167.5 38l23 118H479l33 170h497l-33-170H829l-23-118q73-8 132.5-30t101.5-61 65-97 23-137q0-30-3-63.5t-11-71.5q-23-117-68-2e2T938 407.5 796 324t-169-38l-22-116h147L719 0H222zm314 859q-37-8-71-22.5T439 971q-27-24-49.5-60.5t-38.5-80-24.5-90T318 651q0-41 8.5-74.5T352 520q17-21 44.5-35.5T459 462zm93-567q37 8 71 22.5t59 35.5q27 23 49.5 60t38 80.5 24 90.5 8.5 90q0 41-8 74.5T879 971q-17 21-44.5 35.5T772 1029z" /><glyph unicode="&#x3a7;" d="M530 797l-288 696h2e2l224-532 440 532h231L741 774 1065 0H864L610 612 104 0h-231z" /><glyph unicode="&#x3a8;" d="M255 170h147l42 214q-172 32-239 183-46 104-46 260 0 140 36 323l67 343h203l-67-343q-36-185-36-310 0-96 21-159 28-86 95-121l181 933h203L681 560q81 35 142 121 53 73 94 192t72 277l67 343h203l-67-343q-39-202-98.5-345.5T956 567Q828 415 647 384l-42-214h147L719 0H222z" /><glyph unicode="&#x3a9;" d="M74 172h245Q197 304 141 450 86 593 86 783q0 309 144 494 71 91 166.5 137t217.5 46q125 0 221-47t166-136q144-183 144-494 0-190-55-333-29-75-73.5-143.5T911 172h248V0H696v172q120 76 187 241 33 81 50 176t17 201q0 116-21.5 210T861 1162q-43 63-105 97.5T616 1294q-82 0-142.5-36T372 1162q-44-65-66.5-157T283 790q0-106 17-201t50-176q35-85 82-144.5T537 172V0H74v172z" /><glyph unicode="&#x3aa;" d="M506 1647q-15 0-22.5 9t-4.5 24l28 143q4 27 32 27h144q16 0 22.5-9t3.5-24l-29-143q-6-27-32-27H506zm391 0q-15 0-22.5 9t-4.5 24l28 143q4 27 32 27h143q15 0 22.5-9t4.5-24l-28-143q-5-27-32-27H897zM90 170h313l224 1153H313l33 170h830l-33-170H829L606 170h314L887 0H57z" /><glyph unicode="&#x3ab;" d="M506 1647q-15 0-22.5 9t-4.5 24l28 143q4 27 32 27h144q16 0 22.5-9t3.5-24l-29-143q-6-27-32-27H506zm391 0q-15 0-22.5 9t-4.5 24l28 143q4 27 32 27h143q15 0 22.5-9t4.5-24l-28-143q-5-27-32-27H897zM496 650q10 49 14.5 102t4.5 108q0 74-8.5 145.5t-24.5 131-39.5 102T388 1297q-72 35-149 35-40 0-82-9l33 170q19 6 42 8.5t49 2.5q29 0 63.5-3t72.5-11q263-48 258-446 191 393 430 446 28 7 59 7 35 0 66-9.5t54.5-28 37-45.5 13.5-62q0-27-9.5-59t-30.5-69q-20-34-51-50.5t-63-16.5q-25 0-48 9t-40.5 26.5-27 43.5-6.5 61q-43-26-83-69t-76.5-96.5-68.5-115T773.5 892 729 767t-30-117L573 0H370z" /><glyph unicode="&#x3ac;" d="M917 1673h219l-395-376H585zM396-25Q231-25 140 75.5T49 367q0 87 21 192 30 150 87.5 259.5t131.5 181T448.5 1107t171.5 39h17q68 0 122-21.5t90.5-62 55-1e2T921 827l156 293h164L918 513l-3-219q0-24 8-48.5t20.5-44.5 29-32.5T1005 156h89L1064 0H953q-47 0-91.5 23T791 84q-16 22-24 52.5t-9 77.5q-30-48-63.5-91.5T618 46 520.5-6 396-25zm25 152q60 0 121 51t120 162l96 181 1 231q0 65-12 110.5t-33 74-49 41.5-59 13q-52 0-106.5-30.5T403 879q-32-38-60.5-94t-50-121T258 529.5 245 396q0-45 7-86.5t23-75.5q23-50 61-78.5t85-28.5z" /><glyph unicode="&#x3ad;" d="M947 1673h219l-395-376H615zM544-29Q435-29 350.5-8T211 59q-45 38-64.5 86T127 244q0 35 8 69.5t23 66.5 36 59.5 46 48.5l36 30q67 54 158 74-14 3-31 8.5T374 612q-16 8-35.5 23t-36 37.5-27.5 52-11 66.5q0 10 1 20t3 21q11 66 52.5 121.5t106 95 149 61.5 181.5 22q70 0 152-12t188-36l-35-179q-47 16-94.5 28T876 952.5 793.5 963t-66.5 2l-31-1q-38-2-76.5-15T553 919l-44-28q-17-14-26-30t-14-40q-3-14-3-26 0-17 11-33t43-38q38-26 79-40t98-14h127l-32-163H666q-55 0-115.5-18T442 444t-71.5-58-30.5-65q-2-6-3.5-18.5T335 278q0-53 58-99 4-2 7-5t7-5q32-23 77.5-34t99.5-11q20 0 34 1.5t30 3.5l128 29 15 3q20 4 45 9.5t50 12 46.5 12.5 35.5 12L932 26Q833-1 734-15T544-29z" /><glyph unicode="&#x3ae;" d="M946 1673h219l-395-376H614zM890 694q6 32 9.5 60.5T903 809q0 93-43.5 135.5T729 987q-129 0-216.5-89.5T391 633L268 0H84l218 1120h164l-13-168q69 97 162 146t208 49q270 0 270-284 0-75-18-169L857-426H672z" /><glyph unicode="&#x3af;" d="M887 1648h219l-395-376H555zM716-5Q571-5 502.5 56T434 249q0 64 17 152l110 576H351l28 143h398L636 390q-15-77-15-125 0-33 8-55t25.5-35 45.5-18.5 68-5.5h88L826-5H716z" /><glyph unicode="&#x3b0;" d="M1017 1888h219l-395-376H685zM449 1320q-15 0-22.5 9t-4.5 24l28 142q4 27 32 27h143q15 0 22.5-9t4.5-24l-28-142q-5-27-32-27H449zm436 0q-15 0-22.5 9t-4.5 24l28 142q4 27 32 27h143q15 0 22.5-9t4.5-24l-28-142q-5-27-32-27H885zM485 0Q348 0 282 62.5T216 257q0 33 4 70t12 79l110 571H132l28 143h398L417 395q-7-36-11-66t-4-54q0-64 28.5-91.5T525 156q84 0 153.5 40T802 303t93 154.5T958 640q11 43 17.5 87.5T982 820q0 70-19 144.5T895 1120h186q36-62 58-141t22-176q0-39-4-80t-13-85q-15-74-43.5-150T1030 341t-97.5-133T809 99.5t-149.5-73T485 0z" /><glyph unicode="&#x3b1;" d="M396-25Q231-25 140 75.5T49 367q0 87 21 192 30 150 87.5 259.5t131.5 181T448.5 1107t171.5 39h17q68 0 122-21.5t90.5-62 55-1e2T921 827l156 293h164L918 513l-3-219q0-24 8-48.5t20.5-44.5 29-32.5T1005 156h89L1064 0H953q-47 0-91.5 23T791 84q-16 22-24 52.5t-9 77.5q-30-48-63.5-91.5T618 46 520.5-6 396-25zm25 152q60 0 121 51t120 162l96 181 1 231q0 65-12 110.5t-33 74-49 41.5-59 13q-52 0-106.5-30.5T403 879q-32-38-60.5-94t-50-121T258 529.5 245 396q0-45 7-86.5t23-75.5q23-50 61-78.5t85-28.5z" /><glyph unicode="&#x3b2;" d="M258 1113q23 120 75 207.5T454 1464t149 83 158 27q74 0 142-22.5t119.5-65.5 82.5-105 31-141q0-14-1-28t-3-28q-8-56-29.5-113.5t-54-108T975 872t-88-62q114-23 167.5-87t53.5-170q0-23-2.5-48t-7.5-52q-20-113-70-201T903.5 103.5 732.5 11 523-21q-32 0-63 3.5t-64.5 13-71.5 27T240 69l-96-495H-41zm35-771q12-35 41.5-64.5t71-51T496 193t1e2-12q53 0 105 14.5t94.5 47 73 83.5T910 450q2 14 3 27t1 25q0 53-20 92t-63 65-109.5 39T561 711h-32t-33-1l33 170q7 0 13.5-.5t13.5-.5q96 0 168 27.5T846 979q54 47 80 105t26 113q0 45-17 80t-45.5 58.5-66 36T745 1384q-47 0-95-16.5t-89.5-50.5-73-86-45.5-124z" /><glyph unicode="&#x3b3;" d="M445 0 306 836q-21 126-115 126h-49l31 158h70q193 0 225-176l122-685 493 861h191L635 0l-83-426H362z" /><glyph unicode="&#x3b4;" d="M502-29q-189 0-288 98t-99 295q0 88 21 195 28 144 80.5 253T344 996q16 16 37.5 33.5T432 1067q-8 5-23 19t-27 30q-18 23-27.5 49t-9.5 57q0 11 1.5 22.5t3.5 24.5q13 69 55 124.5t107.5 94.5 152 60 188.5 21q38 0 76.5-3t62.5-9l144-36-34-173q-61 24-136 40t-156 14l-32-1q-74-1-142-45l-44-28q-23-17-33-43.5t-10-49.5q0-17 5-29 5-10 17-22t32-23q16-8 43-10.5t83-3.5q195-5 291-103.5t96-287.5q0-89-21-197-28-143-80-252.5t-127-184-171.5-113T502-29zm29 156q138 0 232 106t137 326q10 48 14.5 91t4.5 81q0 131-55 195.5T7e2 991q-144 0-236.5-112T331 559q-9-48-14-90.5t-5-80.5q0-128 54-194.5T531 127z" /><glyph unicode="&#x3b5;" d="M544-29Q435-29 350.5-8T211 59q-45 38-64.5 86T127 244q0 35 8 69.5t23 66.5 36 59.5 46 48.5l36 30q67 54 158 74-14 3-31 8.5T374 612q-16 8-35.5 23t-36 37.5-27.5 52-11 66.5q0 10 1 20t3 21q11 66 52.5 121.5t106 95 149 61.5 181.5 22q70 0 152-12t188-36l-35-179q-47 16-94.5 28T876 952.5 793.5 963t-66.5 2l-31-1q-38-2-76.5-15T553 919l-44-28q-17-14-26-30t-14-40q-3-14-3-26 0-17 11-33t43-38q38-26 79-40t98-14h127l-32-163H666q-55 0-115.5-18T442 444t-71.5-58-30.5-65q-2-6-3.5-18.5T335 278q0-53 58-99 4-2 7-5t7-5q32-23 77.5-34t99.5-11q20 0 34 1.5t30 3.5l128 29 15 3q20 4 45 9.5t50 12 46.5 12.5 35.5 12L932 26Q833-1 734-15T544-29z" /><glyph unicode="&#x3b6;" d="M595-430q8 38 15 75.5t14 75.5q34-3 63 7.5t50.5 27 35 37.5 16.5 39q3 15 3 31 0 44-24 76t-73 32Q565-29 468.5 3t-160 89T214 227t-31 169q0 115 48 244.5T373.5 899 608 1150t323 221H399l36 185h870l-36-185Q420 956 382 534q-3-35-3-65 0-342 346-342 58 0 104-16t78-44.5T956-2t17-89q0-27-6-57-12-57-41-108.5t-75.5-90-110.5-61T595-430z" /><glyph unicode="&#x3b7;" d="M890 694q6 32 9.5 60.5T903 809q0 93-43.5 135.5T729 987q-129 0-216.5-89.5T391 633L268 0H84l218 1120h164l-13-168q69 97 162 146t208 49q270 0 270-284 0-75-18-169L857-426H672z" /><glyph unicode="&#x3b8;" d="M497-29Q317-29 225.5 87T134 429q0 134 33 307 37 190 95.5 330.5T401 1304q161 196 392 196 183 0 274.5-117t91.5-343q0-135-33-304-37-190-96.5-333T890 164 711 19.5 497-29zM947 828q9 56 14 107t5 98q0 70-11.5 127.5t-36 97.5-63 62-91.5 22q-70 0-129-38t-107-106-84.5-162.5T382 828h565zM528 129q70 0 130 38.5t108 107 84.5 163T911 644H346q-9-56-14-107t-5-97q0-71 11.5-128.5t36-98T437 151t91-22z" /><glyph unicode="&#x3b9;" d="M756-5Q611-5 542.5 56T474 249q0 64 17 152l110 576H391l28 143h398L676 390q-15-77-15-125 0-33 8-55t25.5-35 45.5-18.5 68-5.5h88L866-5H756v0z" /><glyph unicode="&#x3ba;" d="M315 1120h190l-91-465 574 465h224L689 698 1063 0H838L536 578 374 449 287 0H97z" /><glyph unicode="&#x3bb;" d="M666 1074l-35 198q-22 126-177 126h-49l31 158 69-2q273-8 303-173L1056 0H861L708 828 161 0H-34z" /><glyph unicode="&#x3bc;" d="M262 1120h187L313 424q-12-62-12-105 0-91 54-139.5T512 131q138 0 219.5 82.5T846 467l127 653h186L991 258q-3-18-4.5-31t-1.5-24q0-62 49-62 7 0 25 5 14 4 47 18l-29-148q-40-22-77-33.5T930-29q-67 0-106.5 42.5T784 129Q730 47 661.5 9T494-29q-184 0-248 166L137-426H-39z" /><glyph unicode="&#x3bd;" d="M225 1120h198l106-940q72 62 139.5 132.5t122 142 92.5 139T934 717q5 17 8 42.5t3 57.5q0 61-18.5 139T856 1120h186q20-35 35.5-75.5T1104 961t16.5-86.5 5.5-83.5q0-42-6-76-11-62-44-128t-80.5-132.5T890 323 771.5 199.5 652.5 90 545 0H349z" /><glyph unicode="&#x3be;" d="M580-430q8 38 15 75.5t14 75.5q34-3 63 7.5t50.5 27 35 37.5 16.5 39q3 15 3 31 0 44-24 76t-73 32Q530-29 425-1.5T253.5 72t-97 107T126 307q0 72 32 147t88.5 141 134 119T550 796q-61 8-104.5 28.5t-72 50.5-42 67-13.5 78q0 51 20 103.5t56.5 1e2 89 86T602 1371H394l36 185h789l-36-185q-170 0-297.5-24T673 1284.5t-127.5-87T503 11e2q0-42 30.5-80.5t91-69 151-49.5T987 880l-33-170q-160-11-279-46.5t-198-85-118-108T320 355q0-45 24.5-86t73.5-72.5 122-50T710 127q58 0 104-16t78-44.5T941-2t17-89q0-27-6-57-12-57-41-108.5t-75.5-90-110.5-61T580-430z" /><glyph unicode="&#x3bf;" d="M514-29Q318-29 217.5 80T117 392q0 67 11 136.5t31 137 49.5 130T274 911q81 118 190.5 177t252.5 59q193 0 295-106.5T1114 724q0-65-10-133.5t-30-135-49-130T958 207Q878 91 768.5 31T514-29zm10 156q67 0 122.5 24.5t99.5 67 76.5 99 54.5 121T909.5 572 920 707q0 149-52.5 216.5T709 991q-67 0-122.5-24.5t-99.5-67-76.5-99-54.5-121T323.5 546 313 411q0-149 52.5-216.5T524 127z" /><glyph unicode="&#x3c0;" d="M1027-39q-114 0-160 66-23 32-34.5 90T821 268v684H393V0H213v952H70v148h1073V952h-141V248q0-35 5.5-60.5T1027 145q12-16 30-24t45-8q18 0 41 3 10 1 14.5 1.5t6.5.5h3.5t4.5 1V-14q-32-13-72-19-38-6-73-6z" /><glyph unicode="&#x3c1;" d="M185 540q31 160 85 275t127 188.5T560.5 1112t194.5 35q187 0 280-103t93-290q0-45-5.5-95T1106 555q-29-140-80.5-249t-122-183.5T746 9.5 560-29q-105 0-172.5 43T292 141L182-426H-3zM562 127q71 0 126 29t96 80q33 41 60 100.5T890.5 463 921 6e2t11 133q0 44-5.5 82T909 882q-23 56-68.5 82.5T729 991q-131 0-221.5-107T374 559q-10-50-14.5-94t-4.5-82q0-129 52-192.5T562 127z" /><glyph unicode="&#x3c2;" d="M523-430q7 38 14 75.5t15 75.5q34-3 62.5 7.5t50 27 35 37.5 17.5 39q3 18 3 36 0 40-21 68.5T623-29q-39 4-88 11.5t-1e2 23-1e2 43-87 72T187 229t-23 154q0 39 4.5 82.5T184 559q30 142 89.5 251.5T418 995t192.5 113.5T844 1147q45 0 85-5t77-15.5 72-27 70-38.5l-38-193q-57 62-124 92.5T826 991q-91 0-165-29t-130.5-84.5-94.5-136T378 559q-15-78-15-138 0-76 19.5-127.5t49.5-84 65.5-49T565 137t56.5-8 31.5-2q134-20 193-69t59-131q0-17-2.5-36t-7.5-39q-14-61-44-112.5t-76-89-109-59T523-430z" /><glyph unicode="&#x3c3;" d="M491-29q-190 0-289.5 99T102 364q0 88 21 195 55 270 202 415.5T711 1120h515l-36-184H949q72-59 103-140.5t31-173.5q0-68-15.5-137.5t-43.5-135-66-124T874 122Q721-29 491-29zm23 156q72 0 134 30.5t110 87T839 381t48 178q3 20 5 38.5t2 36.5q0 31-7 60t-23.5 57.5T819 809t-70 59q-31 22-57.5 37.5T641 935q-67-5-119-29t-91.5-70.5-67-115T318 559q-18-95-18-169 0-263 214-263z" /><glyph unicode="&#x3c4;" d="M726 0Q581 0 512.5 61.5T444 254q0 34 4.5 71.5T461 406l103 530H203l35 184h914l-35-184H752L646 395q-15-77-15-125 0-44 12-66 27-48 135-48h88L836 0H726v0z" /><glyph unicode="&#x3c5;" d="M485 0Q348 0 282 62.5T216 257q0 33 4 70t12 79l110 571H132l28 143h398L417 395q-7-36-11-66t-4-54q0-64 28.5-91.5T525 156q84 0 153.5 40T802 303t93 154.5T958 640q11 43 17.5 87.5T982 820q0 70-19 144.5T895 1120h186q36-62 58-141t22-176q0-39-4-80t-13-85q-15-74-43.5-150T1030 341t-97.5-133T809 99.5t-149.5-73T485 0z" /><glyph unicode="&#x3c6;" d="M422-25q-83 0-148.5 27t-111 79T93 209 69 384q0 78 17 175 27 147 79 250t119 169.5 144 102 153 47.5l-32-163q-72-27-133-101-36-43-64.5-98.5t-48-116.5-30-123.5T263 405q0-48 7.5-89.5T294 242q26-52 69-77.5t91-25.5l133 687q29 151 106.5 226.5T885 1128q66 0 121.5-25.5t95.5-74.5 62.5-121 22.5-166q0-42-4.5-86.5T1168 560q-27-140-81.5-248.5t-129-183T793 15 605-24l-78-402H344zM637 140q46 0 95.5 22t95.5 72 84.5 130T974 560q9 45 13 84t4 74q0 51-8.5 90.5T959 880q-21 44-49 67.5T859 971q-26 0-50.5-35.5T770 826z" /><glyph unicode="&#x3c7;" d="M524 351l-88 485q-23 126-178 126h-49l30 158h70q257 0 289-176l69-380 374 556h191L708 340l88-482q22-126 179-126h49l-30-158h-70q-258 0-290 176l-69 378-372-554H2z" /><glyph unicode="&#x3c8;" d="M413-25q-62 0-118 28t-98.5 78.5-67.5 121T104 359q0 27 2.5 55.5T115 472l126 648h185L302 479q-5-29-8-54.5t-3-48.5q0-89 45-150 23-32 53-54t56-32l190 980h183L628 140q33 11 71 34t70 52q51 46 84 107t50 146l124 641h185l-126-648q-21-108-73.5-199t-121-157-146-103.5T596-25l-78-401H335z" /><glyph unicode="&#x3c9;" d="M268-29q-88 0-144 47.5T51 156q-9 46-9 112 0 79 15 181.5t48 215T191 894t128 226h190q-54-83-92.5-157T351 821t-45.5-133T273 558q-23-110-31-185.5T234 268q0-67 28-102t66-35q32 0 66 26.5t60 82.5q9 21 20 53.5t24.5 86 30.5 131T568 699h170q-19-97-31.5-168.5t-20-123.5-10.5-87-3-58q0-6 .5-11.5t.5-10.5q4-55 28-82t56-27q37 0 77.5 34.5T904 270q12 31 32.5 100.5T977 558q12 68 18.5 130t6.5 125q0 72-9.5 147T961 1120h190q23-76 32.5-156t9.5-160q0-1e2-13-196t-34-181-48-154.5-54-116.5Q993 68 917.5 19.5T754-29q-47 0-84.5 14T606 23t-41.5 56.5T546 150q-17-36-44.5-68.5t-63-57-78.5-39T268-29z" /><glyph unicode="&#x3ca;" d="M459 1320q-15 0-22.5 9t-4.5 24l28 142q4 27 32 27h143q15 0 22.5-9t4.5-24l-28-142q-5-27-32-27H459zm391 0q-15 0-22.5 9t-4.5 24l28 142q4 27 32 27h143q15 0 22.5-9t4.5-24l-28-142q-5-27-32-27H850zM746-5Q601-5 532.5 56T464 249q0 64 17 152l110 576H381l28 143h398L666 390q-15-77-15-125 0-33 8-55t25.5-35 45.5-18.5 68-5.5h88L856-5H746z" /><glyph unicode="&#x3cb;" d="M469 1320q-15 0-22.5 9t-4.5 24l28 142q4 27 32 27h143q15 0 22.5-9t4.5-24l-28-142q-5-27-32-27H469zm391 0q-15 0-22.5 9t-4.5 24l28 142q4 27 32 27h143q15 0 22.5-9t4.5-24l-28-142q-5-27-32-27H860zM485 0Q348 0 282 62.5T216 257q0 33 4 70t12 79l110 571H132l28 143h398L417 395q-7-36-11-66t-4-54q0-64 28.5-91.5T525 156q84 0 153.5 40T802 303t93 154.5T958 640q11 43 17.5 87.5T982 820q0 70-19 144.5T895 1120h186q36-62 58-141t22-176q0-39-4-80t-13-85q-15-74-43.5-150T1030 341t-97.5-133T809 99.5t-149.5-73T485 0z" /><glyph unicode="&#x3cc;" d="M937 1673h219l-395-376H605zM514-29Q318-29 217.5 80T117 392q0 67 11 136.5t31 137 49.5 130T274 911q81 118 190.5 177t252.5 59q193 0 295-106.5T1114 724q0-65-10-133.5t-30-135-49-130T958 207Q878 91 768.5 31T514-29zm10 156q67 0 122.5 24.5t99.5 67 76.5 99 54.5 121T909.5 572 920 707q0 149-52.5 216.5T709 991q-67 0-122.5-24.5t-99.5-67-76.5-99-54.5-121T323.5 546 313 411q0-149 52.5-216.5T524 127z" /><glyph unicode="&#x3cd;" d="M907 1648h219l-395-376H575zM485 0Q348 0 282 62.5T216 257q0 33 4 70t12 79l110 571H132l28 143h398L417 395q-7-36-11-66t-4-54q0-64 28.5-91.5T525 156q84 0 153.5 40T802 303t93 154.5T958 640q11 43 17.5 87.5T982 820q0 70-19 144.5T895 1120h186q36-62 58-141t22-176q0-39-4-80t-13-85q-15-74-43.5-150T1030 341t-97.5-133T809 99.5t-149.5-73T485 0z" /><glyph unicode="&#x3ce;" d="M967 1673h219l-395-376H635zM268-29q-88 0-144 47.5T51 156q-9 46-9 112 0 79 15 181.5t48 215T191 894t128 226h190q-54-83-92.5-157T351 821t-45.5-133T273 558q-23-110-31-185.5T234 268q0-67 28-102t66-35q32 0 66 26.5t60 82.5q9 21 20 53.5t24.5 86 30.5 131T568 699h170q-19-97-31.5-168.5t-20-123.5-10.5-87-3-58q0-6 .5-11.5t.5-10.5q4-55 28-82t56-27q37 0 77.5 34.5T904 270q12 31 32.5 100.5T977 558q12 68 18.5 130t6.5 125q0 72-9.5 147T961 1120h190q23-76 32.5-156t9.5-160q0-1e2-13-196t-34-181-48-154.5-54-116.5Q993 68 917.5 19.5T754-29q-47 0-84.5 14T606 23t-41.5 56.5T546 150q-17-36-44.5-68.5t-63-57-78.5-39T268-29z" /><glyph unicode="&#x3f4;" d="M465-29Q270-29 175.5 81.5T81 420q0 140 36 325 76 391 237 583t413 192q385 0 385-452 0-140-36-323-76-390-237-582T465-29zM928 881q8 56 12.5 105.5t4.5 93.5q0 66-11 117.5t-36 86.5-65 53.5-98 18.5q-77 0-135.5-32.5t-103.5-94-78.5-149.5T357 881h571zM497 135q77 0 138 33.5t109 104T830 452t68 259H321q-17-88-24.5-161.5T289 416q0-85 15-140 40-141 193-141z" /><glyph unicode="&#x400;" d="M576 1869h182l147-264H766zM344 1493h885l-33-170H512l-86-442h653l-32-170H393L289 170h702L958 0H53z" /><glyph unicode="&#x401;" d="M556 1648q-15 0-22.5 9t-4.5 24l28 142q4 27 32 27h143q28 0 28-25 0-5-1-8l-28-142q-5-27-32-27H556zm391 0q-15 0-22.5 9t-4.5 24l28 142q4 27 32 27h143q28 0 28-25 0-5-1-8l-28-142q-5-27-32-27H947zM344 1493h885l-33-170H512l-86-442h653l-32-170H393L289 170h702L958 0H53z" /><glyph unicode="&#x402;" d="M467-470h-24t-24.5.5-20.5 1-13 .5q1 1 33 181l75-17q6-1 12-1.5t21-.5q69 0 119.5 17.5T733-230t62.5 108.5T841 46l81 416q13 65 13 117 0 94-44.5 135T753 755q-46 0-94.5-10T559 713q-28-12-45-23t-32-26q-40-40-72-109t-49-154L283 0H80l258 1325H92l33 170h894l-33-170H541L439 8e2q12 11 22 19.5t21 16 24 14.5 31 16q2 1 3.5 2t6.5 3.5 15 7 28 13.5 38.5 16 46.5 13 59.5 10.5T812 939q13 1 23.5 1.5t25.5.5q77 0 134.5-20t96.5-64q6-7 11-14t9-15q37-65 37-169 0-38-5-80.5t-14-90.5l-86-442q-28-143-73-241.5T857-355t-165-88-225-27z" /><glyph unicode="&#x403;" d="M974 1866h208l-307-264H715zM380 1493h924l-33-170H550L293 0H90z" /><glyph unicode="&#x404;" d="M589-29q-95 0-167 21T297 49.5 208.5 136t-57 107.5T121 364t-9 127q0 115 27 253 37 186 106.5 330.5T412 1318t219 150.5 263 51.5q177 0 314-82l-41-207q-128 125-315 125-95 0-167.5-33T555 1224.5t-101.5-164T372 831h627l-33-170H334q-8-44-12-90.5t-4-84.5q0-36 4.5-76t16-79 32.5-74.5 55-62.5 81.5-43T621 135q92 0 183 32.5T979 260L938 53Q770-29 589-29z" /><glyph unicode="&#x405;" d="M435-29Q325-29 225-6.5T25 61l41 209q101-72 203-103.5T469 135q88 0 158.5 23.5T747 224t75 1e2 26 128q0 40-10 69.5t-35.5 53-68 43.5T627 659l-101 33q-93 30-156.5 62T267 824.5 211.5 911 195 1022q0 109 44 200.5T361.5 1380t186 103 234.5 37q87 0 175-19t190-59l-39-205q-163 119-349 119-83 0-151-22t-117.5-60.5T414 1182t-27-116q0-38 11-66t37.5-50.5 70-42.5T614 866l121-39q86-28 146-61.5t97.5-76.5 54-96.5T1049 472q0-112-43-204T883.5 110 690.5 7.5 435-29z" /><glyph unicode="&#x406;" d="M90 170h313l224 1153H313l33 170h830l-33-170H829L606 170h314L887 0H57z" /><glyph unicode="&#x407;" d="M523 1648q-15 0-22.5 9t-4.5 24l28 142q4 27 32 27h143q28 0 28-25 0-5-1-8l-28-142q-5-27-32-27H523zm391 0q-15 0-22.5 9t-4.5 24l28 142q4 27 32 27h143q28 0 28-25 0-5-1-8l-28-142q-5-27-32-27H914zM90 170h313l224 1153H313l33 170h830l-33-170H829L606 170h314L887 0H57z" /><glyph unicode="&#x408;" d="M381-29Q271-29 173-6T-25 61l45 236q78-85 169-123.5T386 135q70 0 121 18t88 59 62 108.5T702 487l164 836H485l33 170h584L905 487q-28-141-69.5-239.5t-104-160T583-1.5 381-29z" /><glyph unicode="&#x409;" d="M-97 164q47 0 81 6t58.5 21.5T85 233t32.5 65 29 93T180 517q11 43 23 94.5T229 729t30.5 149 37.5 189l83 426h544L807 893h21q59 0 117.5-19.5t105-62.5 75.5-110 29-161q0-26-5-74.5T1124.5 358t-62-123T949 114q-73-57-150-85.5T655 0H448l257 1323H533l-49-250q-19-98-38-195.5t-39-190T364 510t-51-158-62.5-132.5T174 119q-32-31-62.5-53.5t-65-37-77-21.5-98.5-7zm784 2q45 0 88 18t79 53 62.5 85.5T955 438q5 26 7.5 55t2.5 47q0 35-9 68.5t-29.5 60T874 711t-78 16h-21L666 166h21z" /><glyph unicode="&#x40a;" d="M211 1493h186L278 881h395l119 612h186L861 893h21q90 0 152.5-24t102.5-65 58-96 18-117q0-29-4-66.5t-12-76.5q-24-113-76.5-197.5t-120-140-143.5-83T709 0H502l138 711H245L107 0H-79zM741 166q45 0 88 18t79 53 62.5 85.5T1009 438q5 26 7.5 54t2.5 46q0 34-8.5 68T982 667t-52 43.5-80 16.5h-21L720 166h21z" /><glyph unicode="&#x40b;" d="M292 1325H46l33 170h894l-33-170H495L393 8e2q14 13 26 22t23.5 16.5 23.5 14 26 13.5q17 8 32.5 16t19.5 10q38 19 90 30.5T766 939q14 1 24.5 1.5t25.5.5q76 0 133.5-20t96.5-64q6-7 11-14t9-15q37-65 37-173 0-76-18-167L990 0H787l90 462q6 33 9.5 61.5T890 578q0 91-44 134t-138 43q-49 0-98-11t-97-31q-28-12-45-23t-32-26q-41-40-72-108.5T316 401L238 0H35z" /><glyph unicode="&#x40c;" d="M1004 1852h208l-307-264H745zM366 1493h202L441 846l742 647h254L734 874 1162 0H943L583 741 390 573 278 0H75z" /><glyph unicode="&#x40d;" d="M556 1852h182l147-264H746zM285 1493h195L241 264l743 1229h256L950 0H755l239 1229L251 0H-5z" /><glyph unicode="&#x40e;" d="M814 1613q-267 0-267 205 0 9 .5 18t1.5 19h119q1-54 45-82.5t129-28.5q163 0 215 111h119q-35-120-126-181t-236-61zM92 172h109q40 0 73.5 12t62 34 54 53.5T440 342q10 16 21.5 35.5T484 416L269 1493h217l150-830 469 830h213L699 425q-46-80-92.5-150T518 156q-24-28-53.5-55.5t-67-50T313 14 207 0H59z" /><glyph unicode="&#x40f;" d="M397 0H3l290 1493h203L239 170h553l257 1323h203L962 0H568l-62-322H335z" /><glyph unicode="&#x410;" d="M644 1493h246L1056 0H855l-35 389H3e2L116 0h-217zM806 551l-66 774-364-774h430z" /><glyph unicode="&#x411;" d="M311 1493h902l-32-166H482l-88-450h235q185-8 295.5-57.5T1069 671q9-26 13.5-58.5t4.5-70.5q0-54-11-114.5T1040 308t-64.5-112-96.5-92q-75-52-180.5-78T463 0H21zM495 166q88 0 153 15t110 46.5 72.5 81.5T872 430q9 45 9 83 0 105-68.5 152.5T601 713H362L256 166h239z" /><glyph unicode="&#x412;" d="M313 1493h443q204 0 307.5-79t103.5-236q0-76-24-141t-68-114.5T968 841t-141-42q136-27 197-108t61-209q0-110-41-199T925 131 733.5 34 475 0H23zM639 877q75 0 135 18.5t102 54 64.5 85.5 22.5 113q0 94-55.5 136.5T727 1327H483l-88-450h244zM506 166q92 0 162.5 22.5t118.5 65 73 103T885 492q0 116-65 168.5T606 713H365L258 166h248z" /><glyph unicode="&#x413;" d="M380 1493h924l-33-170H550L293 0H90z" /><glyph unicode="&#x414;" d="M974 170h121l-95-492H830L892 0H65L3-322h-170l95 492H5q47 0 140 294 21 68 41.5 140.5t39.5 145 35 143 28 134.5l90 466h852zm21 1153H549l-57-297q-20-107-55.5-245.5T356 484q-43-148-68-226.5T263 188q0-18 43-18h465z" /><glyph unicode="&#x415;" d="M344 1493h885l-33-170H512l-86-442h653l-32-170H393L289 170h702L958 0H53z" /><glyph unicode="&#x416;" d="M360 891l-170 602h207l168-595 116 595h187L752 898l4e2 595h207L955 891 1086 0H889l-96 650-125-186L578 0H391l90 464-53 186L80 0h-197z" /><glyph unicode="&#x417;" d="M412-29q-95 0-199 18T12 45l38 201q91-52 185.5-78.5T426 141q93 0 168.5 24.5t129 69T806 341t29 137q0 117-71 177t-210 60H401l32 166h154q79 0 142.5 19.5T838 956t69 86.5 24 113.5q0 1e2-61.5 147T680 1350q-84 0-180-20t-210-60l37 186q124 33 220.5 48.5T723 1520q96 0 172-22t128.5-64.5 80.5-105 28-142.5q0-74-23.5-137.5t-67.5-114-107-85T792 799q112-21 177-1e2t65-219q0-113-44-206.5t-125-161T669 8 412-29z" /><glyph unicode="&#x418;" d="M285 1493h195L241 264l743 1229h256L950 0H755l239 1229L251 0H-5z" /><glyph unicode="&#x419;" d="M795 1608q-267 0-267 205 0 9 .5 18t1.5 19h119q1-54 45-82.5t129-28.5q163 0 215 111h119q-35-120-126-181t-236-61zM285 1493h195L241 264l743 1229h256L950 0H755l239 1229L251 0H-5z" /><glyph unicode="&#x41a;" d="M283 1493h202L358 846l742 647h254L651 874 1079 0H860L5e2 741 307 573 195 0H-8z" /><glyph unicode="&#x41b;" d="M-74 164q47 0 82 6t61 21.5 45 41.5 35.5 65 31.5 93 34 126q11 43 23 94.5T264 729t30.5 149 37.5 189l83 426h814L939 0H736l257 1323H585l-49-250q-33-165-61.5-312t-62-269-78-216.5T226 120q-32-30-63-52.5T94 30 8 7.5-106 0z" /><glyph unicode="&#x41c;" d="M237 1493h269l110-756 414 756h270L1009 0H823l258 1327-434-795H506l-115 795L135 0H-51z" /><glyph unicode="&#x41d;" d="M283 1493h202L367 881h553l118 612h203L950 0H748l139 711H332L195 0H-8z" /><glyph unicode="&#x41e;" d="M490-29Q92-29 92 459q0 128 23.5 263T177 975q31 97 66 170t71 127q84 125 194 186.5t253 61.5q201 0 300.5-119.5T1161 1037q0-60-6-125.5T1137.5 779 1110 645.5 1074 516q-30-94-65-168t-72-129Q852 91 741 31T490-29zm17 164q49 0 90 13.5t75 39 62.5 62T788 333t47 104 40 119.5 33 128 25 131T948.5 943t5.5 117q0 66-9.5 120.5t-33 93.5-64 60.5T744 1356q-49 0-89.5-13.5t-74-38.5-62-62-53.5-83q-38-71-68.5-162t-53-189.5-34.5-196T297 432q0-69 10-124.5t34-93.5 64.5-58.5T507 135z" /><glyph unicode="&#x41f;" d="M283 1493h959L952 0H749l257 1323H453L196 0H-7z" /><glyph unicode="&#x420;" d="M342 1493h440q205 0 313.5-91t108.5-280q0-117-41.5-213t-119-165T855 637.5 604 6e2H371L254 0H51zM637 766q82 0 149 25t114.5 70.5 73 109T999 1110q0 112-61 164.5T745 1327H512L403 766h234z" /><glyph unicode="&#x421;" d="M590-29Q475-29 385 3.5T233.5 102t-94 165T107 499q0 102 18.5 208.5t52 207T258 1105t103 161q102 128 234.5 191t288.5 63q86 0 162.5-20t157.5-62l-41-207q-126 125-287 125-97 0-178-41.5T549 1192q-51-61-93.5-141.5t-73-171-47.5-186T318 508q0-191 77.5-282T618 135q88 0 178.5 32T975 260L936 53Q769-29 590-29z" /><glyph unicode="&#x422;" d="M659 1323H190l33 170h1140l-33-170H861L605 0H401z" /><glyph unicode="&#x423;" d="M92 172h109q40 0 73.5 12t62 34 54 53.5T440 342q10 16 21.5 35.5T484 416L269 1493h217l150-830 469 830h213L699 425q-46-80-92.5-150T518 156q-24-28-53.5-55.5t-67-50T313 14 207 0H59z" /><glyph unicode="&#x424;" d="M406 152q-68 4-117.5 14T204 193.5t-58 43-39 60.5q-12 26-21.5 57.5t-16.5 66-10.5 70T55 559q0 43 5.5 95.5T76 762q24 133 68 243.5t113 191 164.5 126T643 1371l24 122h203l-24-122q88-3 148.5-22.5t1e2-50 61-69 31.5-79.5 11.5-82.5 1.5-77.5q0-107-23-228-25-132-67.5-242t-110-190.5-163.5-127T609 152L580 0H377zM612 1207q-87-14-141.5-49t-88.5-89-53.5-124.5T293 790q-11-57-17.5-94.5t-10-63.5-4.5-44.5-2-36.5q-1-16-1.5-31t-.5-29q0-31 6-58.5t25-50 54.5-39.5 95.5-27zm29-891q76 10 130 43t91.5 87 61 126.5T963 733q8 43 13.5 82.5t9 71 5.5 54 3 32.5q1 14 1.5 27.5t.5 25.5q0 37-7.5 66.5t-27.5 52-55.5 38T815 1207z" /><glyph unicode="&#x425;" d="M530 797l-288 696h2e2l224-532 440 532h231L741 774 1065 0H864L610 612 104 0h-231z" /><glyph unicode="&#x426;" d="M889 0H-34l290 1493h203L202 170h553l257 1323h203L958 170h134l-95-492H827z" /><glyph unicode="&#x427;" d="M872 658q-59-27-107-43t-91-24.5-82-11-80-2.5q-67 0-115 5t-82.5 16.5-59 30T211 675q-22 31-33 66.5T167 830q0 30 3.5 71t11.5 79l1e2 513h203l-95-487q-6-32-9-63t-3-54q0-40 8-57.5t20-28.5q26-24 69-32t118-8q46 0 83.5 3t73.5 13.5 74.5 30T911 861l123 632h203L947 0H744z" /><glyph unicode="&#x428;" d="M267 1493h186L196 170h224l257 1323h186L606 170h224l257 1323h186L983 0H-23z" /><glyph unicode="&#x429;" d="M943 0H-27l290 1493h186L192 170h224l257 1323h186L602 170h224l257 1323h186L1012 170h134l-95-492H881z" /><glyph unicode="&#x42a;" d="M414 1323H153l33 170h463L532 893h138q218 0 326-84.5T1104 563q0-54-12-117-22-112-72-196T894.5 110.5 719 27.5 497 0H157zM529 166q142 0 234 73t118 207q7 35 7 70 0 101-64.5 156T638 727H5e2L391 166h138z" /><glyph unicode="&#x42b;" d="M211 1493h202L296 893h91q87 0 156.5-22t118-65 75-105.5T763 557q0-26-2.5-54t-8.5-57q-22-111-73-194.5T556 112 396.5 28 214 0H-79zm866 0h203L990 0H787zM246 166q52 0 99 16t86 50.5 67.5 87T541 446q9 46 9 87 0 93-48.5 143.5T355 727h-91L155 166h91z" /><glyph unicode="&#x42c;" d="M342 1493h202L427 893h234q218 0 326-84.5T1095 563q0-54-12-117-22-112-72-196T885.5 110.5 710 27.5 488 0H52zM520 166q142 0 234 73t118 207q7 35 7 70 0 101-64.5 156T629 727H395L286 166h234z" /><glyph unicode="&#x42d;" d="M336-29Q158-29 21 53l41 207q63-63 142.5-94T370 135q99 0 179 39.5t141.5 110T795 451t68 210H231l33 170h627q4 48 6 98.5t2 88.5q0 39-3.5 79.5t-14 78T852 1246t-50.5 57.5T724 1342t-110 14q-186 0-364-125l41 207q168 82 348 82 94 0 166-21t125.5-58 89-87 57.5-108.5 31-122 9-127.5q0-116-27-252-36-184-105-328T819.5 173 601 22.5 336-29z" /><glyph unicode="&#x42e;" d="M661-29Q511-29 441.5 74.5T372 372q0 65 7 138t21 156H289L159 0H-44l291 1493h203L322 836h111q36 159 85.5 285.5t114.5 215 146.5 136T963 1520q106 0 171.5-50t93.5-142q13-43 19-97.5t6-117.5q0-77-8.5-162.5T1220 777t-38.5-175.5T1131 434t-60.5-149.5T1002 163Q939 72 853.5 21.5T661-29zm34 164q54 0 101 36t82 105q22 43 44.5 107.5t43 141T1004 685t31.5 166.5 21 157.5 7.5 135q0 20-1 38t-3 33q-8 66-39.5 103.5T932 1356q-51 0-97-34t-84-107q-23-45-46-111t-44-143.5-38.5-161-30.5-165-20.5-156T564 346q0-20 1-37.5t3-32.5q8-66 39.5-103.5T695 135z" /><glyph unicode="&#x42f;" d="M399 666q-1e2 39-160 114t-60 179q0 41 11 102 20 106 69.5 186.5t125.5 135 176 82.5 221 28h466L958 0H755l123 631H588L115 0H-99zM910 797l103 530H750q-145 0-233.5-68T403 1061q-4-20-6-39t-2-37q0-188 244-188h271z" /><glyph unicode="&#x430;" d="M404-29q-75 0-136.5 21.5t-105 62-67 98.5T72 283q0 94 40 172t114.5 134T407 676t238 31h246l12 61q2 9 3 19t1 20q0 94-62.5 139T665 991q-175 0-397-102l35 180q109 39 205 58.5t185 19.5q93 0 166.5-21.5t124-61 77-96.5 26.5-129q0-34-6-85.5T1063 639L938 0H774l12 166Q714 73 618 22T404-29zm57 154q67 0 130 26.5t115.5 77T798 353t58 169l8 41H692q-56 0-98.5-1.5t-75-5.5-58-10.5T414 530q-68-29-109-87t-41-136q0-84 51-133t146-49z" /><glyph unicode="&#x431;" d="M504-29Q388-29 313.5 5.5T196 96t-60 127.5T119 369q0 38 4 79.5t12 79.5q10 46 14 67t5 26l25 167q12 79 25.5 143t29.5 117 35.5 97 43.5 83q47 77 107 132t126.5 92.5 136 60 136.5 35 127.5 17.5 108.5 8q13 1 24 2t21 2.5 20.5 5 23.5 8.5l43-142q-23-8-45-12t-45-6l-244-24q-50-5-91.5-16.5T670 1354q-109-54-177-124.5T4e2 1084l-20-60q71 61 162.5 92t197.5 31q114 0 188-33.5t116.5-89 59.5-126 17-144.5q0-48-5.5-98t-14.5-98q-27-141-79-250.5t-127.5-184T721 10 504-29zm30 156q68 0 127.5 26.5t107.5 80T852 368t55 191q9 49 13.5 97.5T925 740q0 121-54 186t-164 65q-137 0-234.5-108T336 559q-8-46-13-93.5t-5-85.5q0-42 8-87t31.5-81.5 66-60.5T534 127z" /><glyph unicode="&#x432;" d="M338 1120h397q85 0 146-19t100.5-49.5 58-70T1058 901q0-12-1.5-24t-3.5-24q-20-112-83-176t-160-77q65-13 103.5-34t59-47 26.5-56.5 6-63.5q0-102-37.5-177t-102-124.5T715 24 533 0H120zM661 665q42 0 79 13t64.5 36.5T848 772t16 76q0 23-6 45t-22 39-44 27.5-72 10.5H493l-60-305h228zM572 150q34 0 68.5 9t65 28.5 54.5 51 38 76.5q12 40 12 74 0 26-7 48t-21 39q-7 8-17 15t-25.5 12.5-38 8.5-54.5 3H404l-71-365h239z" /><glyph unicode="&#x433;" d="M394 1120h752l-29-150H549L360 0H176z" /><glyph unicode="&#x434;" d="M44 150h67q18 0 38 32.5t39.5 83.5 38 114 34 124.5T288 619t18 85l81 416h748L946 150h121l-85-436H832L888 0H165l-56-286H-41zm717 0 159 820H540l-52-270q-2-10-9.5-42T460 579t-26-105-32-121q-8-31-16.5-60t-15-51.5T359 205t-6-14q-12-20-12-29 0-12 32-12h388z" /><glyph unicode="&#x435;" d="M556-29Q329-29 213.5 82T98 407q0 78 15.5 156T158 714t71 139 95 120q84 87 183.5 131.5T719 1149q92 0 167-30t128.5-84.5 82.5-132 29-171.5q0-36-5-86.5T1104 516H297q-6-32-9-58t-3-52q0-133 76-206t223-73q90 0 194 28t219 85L961 57Q855 14 755.5-7.5T556-29zM938 659q6 27 8 45t2 35q0 59-17 106t-48.5 79.5-76 49.5-99.5 17q-65 0-123.5-23.5t-107-67-85.5-105T332 659h606z" /><glyph unicode="&#x436;" d="M348 716l-160 404h199l171-432 84 432h168l-84-432 339 432h199L946 716 1066 0H887l-88 528-139-177L592 0H424l68 351-69 177L129 0H-50z" /><glyph unicode="&#x437;" d="M426-22q-94 0-181.5 14T66 34l34 173q69-34 156.5-51.5T442 138q95 0 169 16t125 46 77.5 71.5T840 364q0 76-72 122t-212 46H398l28 144h165q69 0 123 11.5t92.5 31.5 62 47 31.5 58q4 13 4 28 0 59-66.5 95.5T640 984q-71 0-160-12.5T282 932l32 167q220 48 376 48 94 0 169-16.5t127-47.5 80-76 28-102q0-22-5-50-20-97-97-160t-2e2-88q112-21 171.5-78.5T1023 379q0-12-1.5-25t-3.5-27q-13-77-59-141.5T837.5 75t-179-71.5T426-22z" /><glyph unicode="&#x438;" d="M304 1120h184L331 311l644 809h184L941 0H757l157 809L270 0H86z" /><glyph unicode="&#x439;" d="M747 1261q-134 0-206 64t-72 182q0 17 .5 25t2.5 16h120v-17q0-66 43.5-99.5T761 1398q85 0 137 37.5t81 112.5h119q-33-144-122.5-215.5T747 1261zM304 1120h184L331 311l644 809h184L941 0H757l157 809L270 0H86z" /><glyph unicode="&#x43a;" d="M325 1120h190l-91-465 574 465h224L699 698 1073 0H848L546 578 384 449 297 0H107z" /><glyph unicode="&#x43b;" d="M-39 150h35q46 0 81.5 14t63.5 45 50.5 80T235 408q12 39 22.5 81.5t19.5 84 16.5 79.5 13.5 69l78 398h785L952 0H768l189 970H540l-48-245q-15-76-33-161.5T414.5 395 351 236.5 263 106q-25-27-52.5-46.5t-60.5-33-73-20T-13 0h-55z" /><glyph unicode="&#x43c;" d="M169 1120h184l241-691 509 691h184L1069 0H885l144 741-376-481H469L279 741 135 0H-49z" /><glyph unicode="&#x43d;" d="M304 1120h184l-89-455h487l89 455h184L941 0H757l1e2 515H370L270 0H86z" /><glyph unicode="&#x43e;" d="M514-29Q318-29 217.5 80T117 392q0 67 11 136.5t31 137 49.5 130T274 911q81 118 190.5 177t252.5 59q193 0 295-106.5T1114 724q0-65-10-133.5t-30-135-49-130T958 207Q878 91 768.5 31T514-29zm10 156q67 0 122.5 24.5t99.5 67 76.5 99 54.5 121T909.5 572 920 707q0 149-52.5 216.5T709 991q-67 0-122.5-24.5t-99.5-67-76.5-99-54.5-121T323.5 546 313 411q0-149 52.5-216.5T524 127z" /><glyph unicode="&#x43f;" d="M304 1120h855L941 0H757l189 970H459L270 0H86z" /><glyph unicode="&#x440;" d="M299 1120h164l-8-143q63 84 148 127t188 43q80 0 142.5-26.5t106-78 66-127T1128 742q0-66-10-136.5t-29.5-140-47-134.5T979 211Q907 96 805.5 33.5T578-29q-1e2.0-170 41.5T293 141L182-426H-2zM568 127q86 0 149.5 44T829 302q24 45 43.5 98t33 109 21 112.5T934 730q0 134-50.5 197.5T729 991q-92 0-157-47T459 812q-24-44-43.5-95.5t-33-106-21-109T354 397q0-139 55.5-204.5T568 127z" /><glyph unicode="&#x441;" d="M586-29Q365-29 250.5 82.5T136 414q0 75 13.5 148.5t39 142.5 62 131T334 950q88 97 202 147t249 50q174 0 332-86l-37-182q-66 58-136 85t-156 27q-115 0-197-45.5T449 813q-28-41-50-88.5T361.5 626 338 522t-8-104q0-149 68.5-220T607 127q92 0 180 31t172 94L920 51Q847 12 764-8.5T586-29z" /><glyph unicode="&#x442;" d="M607 970H296l29 150h806l-29-150H791L602 0H418z" /><glyph unicode="&#x443;" d="M20-272h108q42 0 77 12t66 37.5 59.5 64.5T386-66l43 84-217 1102h183l172-862 483 862h205L816 360q-25-43-49.5-86T720 192.5l-40-70T651 72Q572-66 522.5-150T442-276q-60-79-136-114.5T139-426H-9z" /><glyph unicode="&#x444;" d="M405-29Q297-18 231.5 15.5T131 97 84.5 202.5 73 319q0 39 4 91.5T90.5 523t25 124T154 773t54.5 118.5T282 992q123 132 351 155l80 409h184l-80-409q109-11 174.5-44.5t101-81 46.5-104 11-113.5q0-38-4-90.5T1133 601t-25-125-39-128-55-120-74-101Q879 62 791 22T589-29l-78-397H327zM601 982q-68-14-116-38.5T403.5 877t-57-106T303 613q-17-82-27-157t-10-126q0-33 6-64.5t24-58.5 51.5-48 87.5-32zm18-855q66 14 113.5 38.5t82 67.5T873 342t45 163q20 93 28.5 165.5T955 786q0 33-6 63.5t-24.5 56-52 45.5-87.5 31z" /><glyph unicode="&#x445;" d="M515 596l-293 524h196l217-395 369 395h225L717 573 1035 0H838L594 444 177 0H-49z" /><glyph unicode="&#x446;" d="M887 0H43l218 1120h184L256 150h486l189 970h184L926 150h140l-85-436H831z" /><glyph unicode="&#x447;" d="M811 466q-8-3-35.5-13.5T706 431t-96.5-20-117.5-9q-85 0-144 18t-95.5 50.5-53 77.5-16.5 99q0 49 12 108l71 367h184l-71-367q-6-30-6-56 0-78 52-107.5T587 562q60 0 121.5 11T841 621l97 501h184L904 0H720z" /><glyph unicode="&#x448;" d="M234 1120h168L213 150h240l189 970h168L621 150h240l189 970h168L1e3.0H16z" /><glyph unicode="&#x449;" d="M977 0H-1l218 1120h168L196 150h240l189 970h168L604 150h240l189 970h168l-189-970h144l-85-436H921z" /><glyph unicode="&#x44a;" d="M358 970H110l29 150h432l-88-453h256q114 0 189-21.5t119.5-59 62-87.5 17.5-107q0-30-6-69t-24-81-52-83.5T955 82Q824 0 609 0H169zM631 153q259 0 293 181 2 11 3 21.5t1 18.5q0 140-227 140H453l-70-361h248z" /><glyph unicode="&#x44b;" d="M213 1120h182l-88-453h91q105 0 178.5-20t120-54.5 68-82T786 408q0-19-2-37.5t-6-38.5Q746 164 614 82T268 0H-5zm841 0h184L1020 0H836zM290 153q259 0 293 181 2 11 3 21.5t1 18.5q0 140-227 140h-83l-70-361h83z" /><glyph unicode="&#x44c;" d="M335 1120h184l-88-453h256q186 0 287-65t101-196q0-17-1.5-35.5T1068 332q-31-164-160.5-248T558 0H118zM579 153q129 0 201.5 43.5T871 332q2 11 3.5 21.5T876 375q0 74-60 106.5T650 514H402l-71-361h248z" /><glyph unicode="&#x44d;" d="M421-29q-92 0-164.5 21.5T117 57l38 191q103-121 283-121 88 0 159 27t126 77.5T816.5 354 878 516H336l28 144h537q1 10 1 19v18q0 55-13 108t-46 94.5-88.5 66.5T614 991q-91 0-174.5-30.5T275 868l38 193q42 21 82.5 37t82 27 84.5 16.5 90 5.5q124 0 209.5-36t138-95.5T1075 879t23-158q0-38-4.5-78t-12.5-84q-27-139-86.5-248.5T849 125.5t-194.5-115T421-29z" /><glyph unicode="&#x44e;" d="M7e2-29q-75 0-129 32.5T481.5 90t-52 124.5T413 362q0 29 2 59.5t6 62.5H279L185 0H1l218 1120h184l-94-486h142q33 128 83.5 224.5t113 160.5 135 96 149.5 32q76 0 131-29t90.5-80 52.5-120 17-149q0-34-3.5-82.5t-13-105.5-25.5-119-41-123.5-60-119.5-82-107Q932 44 855.5 7.5T7e2-29zm31 156q43 0 84 30.5t77 88.5 65.5 141 50.5 188q21 103 21 179 0 38-6 79.5t-20.5 76.5-38 57.5T905 990q-39 0-79.5-30t-78-86T679 736.5 627 553q-11-56-16-102.5t-5-85.5q0-32 4-73.5t17.5-78 38-61.5 65.5-25z" /><glyph unicode="&#x44f;" d="M429 479q-25 12-55 31t-55.5 47-43 65.5T258 708q0 17 2.5 40.5T268 798q18 86 60 147t100.5 1e2 129 57 143.5 18h397L880 0H696l89 455H592L245 0H64zM814 605l71 365H658q-29 0-61.5-11T535 925.5t-51.5-57T452 787q-2-14-3.5-26t-1.5-23q0-30 11.5-54.5t31-42 44.5-27 52-9.5h228z" /><glyph unicode="&#x450;" d="M453 1675h198l197-376H705zM556-29Q329-29 213.5 82T98 407q0 78 15.5 156T158 714t71 139 95 120q84 87 183.5 131.5T719 1149q92 0 167-30t128.5-84.5 82.5-132 29-171.5q0-36-5-86.5T1104 516H297q-6-32-9-58t-3-52q0-133 76-206t223-73q90 0 194 28t219 85L961 57Q855 14 755.5-7.5T556-29zM938 659q6 27 8 45t2 35q0 59-17 106t-48.5 79.5-76 49.5-99.5 17q-65 0-123.5-23.5t-107-67-85.5-105T332 659h606z" /><glyph unicode="&#x451;" d="M494 1349q-15 0-22.5 9t-4.5 24l28 142q4 27 32 27h143q28 0 28-25 0-5-1-8l-28-142q-5-27-32-27H494zm391 0q-15 0-22.5 9t-4.5 24l28 142q4 27 32 27h143q28 0 28-25 0-5-1-8l-28-142q-5-27-32-27H885zM556-29Q329-29 213.5 82T98 407q0 78 15.5 156T158 714t71 139 95 120q84 87 183.5 131.5T719 1149q92 0 167-30t128.5-84.5 82.5-132 29-171.5q0-36-5-86.5T1104 516H297q-6-32-9-58t-3-52q0-133 76-206t223-73q90 0 194 28t219 85L961 57Q855 14 755.5-7.5T556-29zM938 659q6 27 8 45t2 35q0 59-17 106t-48.5 79.5-76 49.5-99.5 17q-65 0-123.5-23.5t-107-67-85.5-105T332 659h606z" /><glyph unicode="&#x452;" d="M480-261q64 10 127.5 55T726-86.5 823.5 91 888 322q5 30 8.5 60t3.5 56q0 91-44.5 134T717 615q-141 0-227.5-92.5T370 261L319 0H135l190 977H135l28 143h190l85 436h184l-85-436h448l-28-143H509l-77-397q66 95 160.5 145T808 775q146 0 218-73t72-214q0-35-4-79t-12-87q-25-146-79.5-273.5t-135-226-186-163T448-426z" /><glyph unicode="&#x453;" d="M982 1646h219l-395-376H650zM380 1120h752l-29-150H535L346 0H162z" /><glyph unicode="&#x454;" d="M586-29Q482-29 399-1T258.5 81.5 170 216t-31 184q0 76 16 159 27 141 87.5 250.5T389 994t194.5 114 233.5 39q82 0 154.5-19t147.5-67l-38-193q-61 67-130 95t-155 28q-91 0-160-27t-119.5-72.5-85-105.5T375 659l537 1-28-144H342q-4-25-5.5-48.5T335 421q0-68 17-122t53-92.5 91.5-59T629 127q90 0 172.5 29T961 248L923 57Q840 14 759-7.5T586-29z" /><glyph unicode="&#x455;" d="M476-29q-87 0-174 17.5T115 41l37 190q187-106 353-106 67 0 122.5 16t95.5 43.5 62 64 22 76.5q0 114-196 162l-28 7-67 18q-128 34-189 96t-61 170q0 84 34 152t97.5 116.5 154 74.5 202.5 26q177 0 323-66l-35-180q-72 45-149 68.5T731 993q-66 0-118.5-14t-89-38.5-55.5-58-19-72.5q0-29 11.5-52t37.5-43 68-37 104-33q16-5 22-6l72-18q120-30 176.5-93T997 365q0-84-37.5-156t-106-125T689 1 476-29z" /><glyph unicode="&#x456;" d="M627 1323q-15 0-22.5 9t-4.5 24l34 173q4 27 32 27h124q15 0 22.5-9t4.5-24l-34-173q-5-27-32-27H627zM749-8Q575-8 492 56q-85 64-85 192 0 17 1.5 33.5T412 318t5.5 42 8.5 44l133 572H313l29 144h430L610 4e2q-4-16-6.5-35t-3.5-27q-2-16-3-25.5t-1-19.5q0-74 44-109 45-36 136-36h211L956-8H749z" /><glyph unicode="&#x457;" d="M360 1350q-15 0-22.5 9t-4.5 24l28 142q4 27 32 27h143q15 0 22.5-9t4.5-24l-28-142q-5-27-32-27H360zm391 0q-15 0-22.5 9t-4.5 24l28 142q4 27 32 27h143q15 0 22.5-9t4.5-24l-28-142q-5-27-32-27H751zM749-8Q575-8 492 56q-85 64-85 192 0 17 1.5 33.5T412 318t5.5 42 8.5 44l133 572H313l29 144h430L610 4e2q-4-16-6.5-35t-3.5-27q-2-16-3-25.5t-1-19.5q0-74 44-109 45-36 136-36h211L956-8H749z" /><glyph unicode="&#x458;" d="M823 1556h184l-45-233H778zM55-270h233q97 0 151 60.5T518-20l192 997H393l28 143h502L702-20q-21-107-56-183.5t-86.5-126-121.5-73T278-426H24z" /><glyph unicode="&#x459;" d="M-71 150h35q46 0 81.5 14t63.5 45 50.5 80T203 408q12 39 22.5 81.5t19.5 84 16.5 79.5 13.5 69l78 398h565l-88-453h21q82 0 145.5-19.5t107-55.5 65.5-87.5 22-115.5q0-25-5.5-62.5T1162 247t-52.5-85-92.5-80q-65-42-140.5-62T721 0H532l189 970H492l-48-245q-15-76-33.5-161.5t-45-169-63-159T215 105q-24-26-51.5-46T103 26 29.5 6.5-61 0h-39zm814 3q208 0 228 104 10 52 15 82.5t5 50.5q0 58-44 91t-134 33h-13l-70-361h13z" /><glyph unicode="&#x45a;" d="M217 1120h168l-89-455h364l89 455h168l-88-453h21q83 0 146.5-19.5t106-56 64.5-88 22-115.5q0-25-5.5-62t-23.5-79-52-85-92-80q-65-42-140.5-62T720 0H531l1e2 515H267L167 0H-1zM742 153q103 0 164.5 44T985 334q2 13 3.5 24.5T990 382q0 132-178 132h-13l-70-361h13z" /><glyph unicode="&#x45b;" d="M305 977H115l27 143h190l85 436h184l-85-436h448l-27-143H489l-77-397q136 195 368 195 139 0 205.5-71t66.5-216q0-41-5-80.5t-14-85.5L971 0H786l62 322q13 65 13 112 0 181-175 181-131 0-217-91.5T350 261L299 0H115z" /><glyph unicode="&#x45c;" d="M948 1646h219l-395-376H616zM328 1120h190l-91-465 574 465h224L702 698 1076 0H851L549 578 387 449 3e2.0H110z" /><glyph unicode="&#x45d;" d="M487 1646h198l197-376H739zM304 1120h184L331 311l644 809h184L941 0H757l157 809L270 0H86z" /><glyph unicode="&#x45e;" d="M777 1261q-134 0-206 64t-72 182q0 17 .5 25t2.5 16h120v-17q0-66 43.5-99.5T791 1398q85 0 137 37.5t81 112.5h119q-33-144-122.5-215.5T777 1261zM20-272h108q42 0 77 12t66 37.5 59.5 64.5T386-66l43 84-217 1102h183l172-862 483 862h205L816 360q-25-43-49.5-86T720 192.5l-40-70T651 72Q572-66 522.5-150T442-276q-60-79-136-114.5T139-426H-9z" /><glyph unicode="&#x45f;" d="M446 0H94l218 1120h184L307 150h487l189 970h184L949 0H597l-56-286H390z" /><glyph unicode="&#x462;" d="M363 1105H102l32 164h261l43 224h202l-43-224h369l-32-164H565l-42-212h138q218 0 326-84.5T1095 563q0-54-12-117-22-112-72-196T885.5 110.5 710 27.5 488 0H148zM520 166q69 0 127.5 18.5t104 54T828 326t44 120q7 34 7 69 0 103-65 157.5T629 727H491L382 166h138z" /><glyph unicode="&#x463;" d="M353 973H105l29 147h248l84 436h184l-84-436h425l-29-147H537l-59-306h256q186 0 287-65t101-196q0-17-1.5-35.5T1115 332q-32-166-164-249T604 0H164zM626 156q128 0 202 45t91 133q2 10 3 19t1 18q0 72-59 107.5T696 514H448l-70-358h248z" /><glyph unicode="&#x472;" d="M465-29Q274-29 177.5 81.5T81 421q0 139 36 324 75 385 234 580t416 195q196 0 290.5-113t94.5-339q0-140-36-323-76-390-237-582T465-29zM920 828q12 73 18.5 135t6.5 115q0 140-49 209t-161 69q-77 0-136-33t-105.5-99-82.5-165-66-231h575zM498 135q76 0 135.5 32.5T739 264t81 159 64 221H310q-11-66-16.5-124T288 412q0-135 48-206t162-71z" /><glyph unicode="&#x473;" d="M502-29Q310-29 213 71.5T116 364q0 88 21 195 28 143 79 251.5T345 996q80 79 176 115t208 36q193 0 290.5-1e2t97.5-294q0-88-21-194-56-286-207.5-437T502-29zM910 611q5 32 7.5 62t2.5 58q0 122-52.5 191T7e2 991q-70 0-126.5-26.5t-101-75.5T396 769.5 343 611h567zM532 127q70 0 125 25t96 68.5 70.5 102T873 447H316q-3-32-3-60 0-56 11-103.5t36.5-82T428 147t104-20z" /><glyph unicode="&#x490;" d="M390 1493h754l63 306h167l-93-476H560L303 0H1e2z" /><glyph unicode="&#x491;" d="M395 1120h568l61 314h185l-98-498H543L361 0H177z" /><glyph unicode="&#x492;" d="M254 830H124l33 170h130l96 493h924l-33-170H553l-63-323h547l-33-170H457L296 0H93z" /><glyph unicode="&#x493;" d="M293 5e2H163l33 170h130l88 450h752l-36-184H562l-52-266h416l-33-170H477L380 0H196z" /><glyph unicode="&#x494;" d="M402-240h62q65 0 115 16.5t87.5 56.5 64 106T776 104l56 290q12 63 12 114 0 203-198 203H376L238 0H35l290 1493h924l-33-170H495l-86-442h311q94 0 163.5-30.5T996 762q59-80 59-205 0-68-16-147l-60-306q-27-137-71.5-234t-110-159.5-153-91.5T445-410h-76z" /><glyph unicode="&#x495;" d="M378-270h172q57 0 95 12t63 41 41 77 30 120l52 264q8 42 12.5 74t4.5 58q0 38-11 60t-34 33.5-59 14.5-87 3H397L302 0H118l218 1120h752l-36-184H484l-59-305h250q102 0 171-10t111.5-34 61-64 18.5-1e2q0-36-5.5-79t-15.5-94L963-20q-21-110-57-187t-87.5-125.5-121-71T540-426H347z" /><glyph unicode="&#x496;" d="M903 0h-27l-96 650-125-186L565 0H378l90 464-53 186L67 0h-197l477 891-170 602h207l169-595 115 595h187L740 898l399 595h207L942 891l106-721h58l-96-492H840z" /><glyph unicode="&#x497;" d="M939 0h-52l-88 528-139-177L592 0H424l68 351-69 177L129 0H-50l398 716-160 404h199l171-432 84 432h168l-84-432 339 432h199L946 716l95-566h77l-85-436H883z" /><glyph unicode="&#x498;" d="M762 799q112-21 177-1e2t65-219q0-101-35.5-187T867 141.5t-160-108T495-23q32-57 45.5-97.5T554-198q0-44-18.5-80t-52-62-82-40.5T293-395q-43 0-89.5 7.5T109-365l25 129q40-19 76.5-28.5T282-274q65 0 102 30.5t37 81.5q0 26-10.5 58T378-29q-94 0-196.5 18T-18 45l38 201q91-52 185.5-78.5T396 141q93 0 168.5 24.5t129 69T776 341t29 137q0 117-71 177t-210 60H371l32 166h154q79 0 142.5 19.5T808 956t69 86.5 24 113.5q0 1e2-61.5 147T650 1350q-84 0-180-20t-210-60l37 186q124 33 220.5 48.5T693 1520q96 0 172-22t128.5-64.5 80.5-105 28-142.5q0-74-23.5-137.5t-67.5-114-107-85T762 799z" /><glyph unicode="&#x499;" d="M1089 855q-20-97-97-160t-2e2-88q112-21 171.5-78.5T1023 379q0-12-1.5-25t-3.5-27q-12-72-52.5-132.5T859 89 702 15.5 499-20q32-58 46.5-99t14.5-79q0-44-18.5-80t-52-62-82-40.5T299-395q-43 0-89.5 7.5T115-365l25 129q40-19 76.5-28.5T288-274q65 0 102 30.5t37 81.5q0 27-11.5 61T380-21q-81 3-157.5 17T66 34l34 173q69-34 156.5-51.5T442 138q95 0 169 16t125 46 77.5 71.5T840 364q0 76-72 122t-212 46H398l28 144h165q69 0 123 11.5t92.5 31.5 62 47 31.5 58q4 13 4 28 0 59-66.5 95.5T640 984q-71 0-160-12.5T282 932l32 167q220 48 376 48 94 0 169-16.5t127-47.5 80-76 28-102q0-22-5-50z" /><glyph unicode="&#x49a;" d="M868 0h-41L485 748 299 584 186 0H-17l290 1493h203L347 829l760 664h237L645 883l343-713h116l-93-482H808z" /><glyph unicode="&#x49b;" d="M885 0h-42L541 578 379 449 292 0H102l218 1120h190l-91-465 574 465h224L694 698l276-514h134l-90-460H831z" /><glyph unicode="&#x4a2;" d="M940 0H738l139 711H322L185 0H-18l291 1493h202L357 881h553l118 612h203L973 170h203l-94-482H879z" /><glyph unicode="&#x4a3;" d="M931 0H747l98 505H358L260 0H76l218 1120h184l-87-445h487l87 445h184L967 184h183l-90-460H878z" /><glyph unicode="&#x4a4;" d="M314 1493h186L381 881h364l119 612h546l-33-170h-360L760 0H574l138 711H348L210 0H24z" /><glyph unicode="&#x4a5;" d="M265 1120h168l-89-455h410l89 455h496l-29-150H982L793 0H625l1e2 515H315L215 0H47z" /><glyph unicode="&#x4aa;" d="M866 1356q-97 0-178-41.5T539 1192q-51-61-93.5-141.5t-73-171-47.5-186T308 508q0-191 77.5-282T608 135q88 0 178.5 32T965 260L926 53Q792-13 651-26q31-56 44.5-95.5T709-198q0-44-18.5-80t-52-62-82-40.5T448-395q-43 0-89.5 7.5T264-365l25 129q40-19 76.5-28.5T437-274q65 0 102 30.5t37 81.5q0 50-44 134-208 13-321.5 144.5T97 499q0 102 18.5 208.5t52 207T248 1105t103 161q102 128 234.5 191t288.5 63q86 0 162.5-20t157.5-62l-41-207q-126 125-287 125z" /><glyph unicode="&#x4ab;" d="M790 991q-115 0-197-45.5T451 813q-28-41-50-88.5T363.5 626 340 522t-8-104q0-149 68.5-220T609 127q92 0 180 31t172 94L922 51Q862 19 796-.5T656-26q30-56 43.5-96t13.5-76q0-44-18.5-80t-52-62-82-40.5T452-395q-43 0-89.5 7.5T268-365l25 129q40-19 76.5-28.5T441-274q65 0 102 30.5t37 81.5q0 50-44 135Q341-14 239.5 97T138 414q0 75 13.5 148.5t39 142.5 62 131T336 950q88 97 202 147t249 50q174 0 332-86l-37-182q-66 58-136 85t-156 27z" /><glyph unicode="&#x4ac;" d="M575 0H371l258 1323H160l33 170h1140l-33-170H831L608 170h203l-94-482H514z" /><glyph unicode="&#x4ad;" d="M591 0H407l183 942H279l35 178h806l-35-178H774L627 184h183l-90-460H538z" /><glyph unicode="&#x4ae;" d="M508 670l-313 823h202l236-651 497 651h218L713 670 584 0H377z" /><glyph unicode="&#x4af;" d="M401 18 187 1120h195l159-876 499 876h195L593 18l-86-444H315z" /><glyph unicode="&#x4b0;" d="M464 420H2e2l33 170h264l15 80-317 823h215l236-659 491 659h217L715 670l-15-80h266l-33-170H667L585 0H382z" /><glyph unicode="&#x4b1;" d="M361-185H161l29 150h2e2l10 53-213 1102h195l158-876 5e2 876h195L592 18l-10-53h2e2l-29-150H553l-47-241H314z" /><glyph unicode="&#x4b2;" d="M867 0h-14L612 643 92 0h-218l654 791-296 702h217l219-563 443 563h217L745 791l255-621h103l-93-482H807z" /><glyph unicode="&#x4b3;" d="M866 0h-30L595 449 181 0H-32l554 584-297 536h204l218-405 374 405h207L723 584l223-4e2h139l-90-460H812z" /><glyph unicode="&#x4ba;" d="M313 1495h203L384 812q22 20 45 35.5t53 30.5l52 26q20 10 46.5 18t56.5 14 61 10 59 5l48 2q158 0 232-84 7-8 12-16t8-13q17-31 26.5-74t9.5-98q0-74-18-168L978 0H775l92 474q13 64 13 117 0 91-43.5 133.5T699 767q-48 0-97.5-10.5T503 725q-52-22-76-49-88-91-121-263L226 0H23z" /><glyph unicode="&#x4bb;" d="M387 1556h184L455 952q78 1e2 164.5 147.5T809 1147q66 0 119-18.5t90.5-54 57.5-86 20-114.5q0-35-5.5-81.5T1075 694L940 0H756l135 695q2 5 3 14 15 70 15 112 0 79-46 122.5T729 987q-63 0-117.5-24t-98-69-75-111T391 633L268 0H84z" /><glyph unicode="&#x4c0;" d="M90 170h313l224 1153H313l33 170h830l-33-170H829L606 170h314L887 0H57z" /><glyph unicode="&#x4c1;" d="M782 1619q-267 0-267 205 0 9 .5 18t1.5 19h119q1-54 45-82.5t129-28.5q163 0 215 111h119q-35-120-126-181t-236-61zM347 891l-170 602h207l168-595 116 595h187L739 898l4e2 595h207L942 891 1073 0H876l-96 650-125-186L565 0H378l90 464-53 186L67 0h-197z" /><glyph unicode="&#x4c2;" d="M737 1271q-134 0-206 64t-72 182q0 17 .5 25t2.5 16h120v-17q0-66 43.5-99.5T751 1408q85 0 137 37.5t81 112.5h119q-33-144-122.5-215.5T737 1271zM348 716l-160 404h199l171-432 84 432h168l-84-432 339 432h199L946 716 1066 0H887l-88 528-139-177L592 0H424l68 351-69 177L129 0H-50z" /><glyph unicode="&#x4c3;" d="M375-240h62q69 0 119 17.5t86.5 58 62 106T749 104l57 290q12 61 12 112 0 205-199 205H468L325 584 211 0H8l290 1493h203L372 829l760 664h237L669 881h24q76 0 138-20.5T936.5 799t67-103 23.5-146q0-64-15-140l-60-306q-27-137-71.5-234t-110-159.5-153-91.5T418-410h-76z" /><glyph unicode="&#x4c4;" d="M363-270h172q57 0 95 12t63 41 41 77 30 120l52 264q8 42 12.5 74t4.5 58q0 38-11 60t-34 33.5-59 14.5-87 3H421l-47-38L287 0H97l218 1120h190l-91-465 574 465h224L602 631h58q102 0 171-10t111.5-34 61-64 18.5-1e2q0-36-5.5-79t-15.5-94L948-20q-21-110-57-187t-87.5-125.5-121-71T525-426H332z" /><glyph unicode="&#x4c7;" d="M394-240h62q70 0 120.5 18.5t87 59 61.5 106T768 104l118 607H333L195 0H-8l290 1493h203L366 881h553l119 612h203L971 104q-27-138-71.5-235.5T789.5-291t-153-90.5T437-410h-76z" /><glyph unicode="&#x4c8;" d="M352-270h172q55 0 92.5 11.5t63 40T722-142t31 122l102 525H368L270 0H86l218 1120h184l-87-445h487l87 445h184L937-20q-21-107-55.5-183.5t-86-126-121.5-73T514-426H321z" /><glyph unicode="&#x4cb;" d="M255 0H52l290 1493h924l-33-170H512L288 170h203l-94-482H194z" /><glyph unicode="&#x4cc;" d="M352 0H168l218 1120h752l-36-184H534L388 184h183l-90-460H298z" /><glyph unicode="&#x4cf;" d="M656 1567h184L535 0H351z" /><glyph unicode="&#x4d0;" d="M8e2 1613q-267 0-267 205 0 9 .5 18t1.5 19h119q1-54 45-82.5t129-28.5q163 0 215 111h119q-35-120-126-181t-236-61zM645 1493h246L1057 0H856l-35 389H301L117 0h-217zM807 551l-66 774-364-774h430z" /><glyph unicode="&#x4d1;" d="M747 1297q-134 0-206 64t-72 182q0 17 .5 25t2.5 16h120v-17q0-66 43.5-99.5T761 1434q85 0 137 37.5t81 112.5h119q-33-144-122.5-215.5T747 1297zM404-29q-75 0-136.5 21.5t-105 62-67 98.5T72 283q0 94 40 172t114.5 134T407 676t238 31h246l12 61q2 9 3 19t1 20q0 94-62.5 139T665 991q-175 0-397-102l35 180q109 39 205 58.5t185 19.5q93 0 166.5-21.5t124-61 77-96.5 26.5-129q0-34-6-85.5T1063 639L938 0H774l12 166Q714 73 618 22T404-29zm57 154q67 0 130 26.5t115.5 77T798 353t58 169l8 41H692q-56 0-98.5-1.5t-75-5.5-58-10.5T414 530q-68-29-109-87t-41-136q0-84 51-133t146-49z" /><glyph unicode="&#x4d2;" d="M506 1647q-15 0-22.5 9t-4.5 24l28 143q4 27 32 27h144q27 0 27-24 0-6-1-9l-29-143q-6-27-32-27H506zm391 0q-15 0-22.5 9t-4.5 24l28 143q4 27 32 27h143q15 0 22.5-9t4.5-24l-28-143q-5-27-32-27H897zM645 1493h246L1057 0H856l-35 389H301L117 0h-217zM807 551l-66 774-364-774h430z" /><glyph unicode="&#x4d3;" d="M473 1350q-15 0-22.5 9t-4.5 24l28 142q4 27 32 27h143q28 0 28-25 0-5-1-8l-28-142q-5-27-32-27H473zm391 0q-15 0-22.5 9t-4.5 24l28 142q4 27 32 27h143q28 0 28-25 0-5-1-8l-28-142q-5-27-32-27H864zM404-29q-75 0-136.5 21.5t-105 62-67 98.5T72 283q0 94 40 172t114.5 134T407 676t238 31h246l12 61q2 9 3 19t1 20q0 94-62.5 139T665 991q-175 0-397-102l35 180q109 39 205 58.5t185 19.5q93 0 166.5-21.5t124-61 77-96.5 26.5-129q0-34-6-85.5T1063 639L938 0H774l12 166Q714 73 618 22T404-29zm57 154q67 0 130 26.5t115.5 77T798 353t58 169l8 41H692q-56 0-98.5-1.5t-75-5.5-58-10.5T414 530q-68-29-109-87t-41-136q0-84 51-133t146-49z" /><glyph unicode="&#x4d4;" d="M555 1493h752l-33-170H936l-86-442h307l-33-170H817L711 170h356L1034 0H492l75 383H215L39 0h-184zm45-942 150 772H647L291 551h309z" /><glyph unicode="&#x4d5;" d="M233-29q-64 0-116 19T28.5 44t-56 84.5T-47 240q0 1e2 30.5 177.5t90 131 146 81T418 657h117l18 88q4 20 6 41.5t2 47.5q0 76-42 118.5T399 995q-49 0-115.5-21T141 911l35 168q159 68 273 68 82 0 141-33t90-96q51 63 120 96t150 33q60 0 109-20t83.5-57 53-89.5T1214 862q0-76-34-258l-17-90H668q-20-93-27-146-4-28-6-48.5t-2-34.5q0-78 48.5-122T815 119q70 0 141 28.5t125 79.5l-34-172Q987 13 921.5-8T784-29q-106 0-175.5 41T514 131Q420-29 233-29zm791 686 16 74q6 27 8.5 55t2.5 60q0 70-33.5 109.5T924 995q-165 0-213-256l-17-82h330zM260 123q45 0 79.5 15t61 52 47.5 98 39 154l15 72h-49q-63 0-105.5-3.5t-72-12-49.5-22-38-32.5q-30-33-47.5-82T123 262q0-30 10.5-55.5t28.5-44 43-29 55-10.5z" /><glyph unicode="&#x4d6;" d="M792 1612q-267 0-267 205 0 9 .5 18t1.5 19h119q1-54 45-82.5t129-28.5q163 0 215 111h119q-35-120-126-181t-236-61zM324 1493h885l-33-170H492l-86-442h653l-32-170H373L269 170h702L938 0H33z" /><glyph unicode="&#x4d7;" d="M761 1299q-134 0-206 64t-72 182q0 17 .5 25t2.5 16h120v-17q0-66 43.5-99.5T775 1436q85 0 137 37.5t81 112.5h119q-33-144-122.5-215.5T761 1299zM556-29Q329-29 213.5 82T98 407q0 78 15.5 156T158 714t71 139 95 120q84 87 183.5 131.5T719 1149q92 0 167-30t128.5-84.5 82.5-132 29-171.5q0-36-5-86.5T1104 516H297q-6-32-9-58t-3-52q0-133 76-206t223-73q90 0 194 28t219 85L961 57Q855 14 755.5-7.5T556-29zM938 659q6 27 8 45t2 35q0 59-17 106t-48.5 79.5-76 49.5-99.5 17q-65 0-123.5-23.5t-107-67-85.5-105T332 659h606z" /><glyph unicode="&#x4d8;" d="M465-29Q270-29 175.5 81.5T81 420q0 140 36 325l16 83h787q12 74 18.5 136.5T945 1080q0 139-49.5 207.5T730 1356q-80 0-172-32t-178-93l41 207q85 42 170.5 62t170.5 20q199 0 294.5-112t95.5-339q0-141-36-324-76-388-236-581T465-29zm33 164q76 0 135.5 32.5T739 264t81 159 64 221H310q-11-66-16.5-124T288 412q0-135 48-206t162-71z" /><glyph unicode="&#x4d9;" d="M475-29q-92 0-162.5 26T194 72t-72.5 120.5T97 355q0 37 4 76t12 81l17 90h797l2 6q5 29 8 55.5t3 50.5q0 137-78.5 207T639 991q-90 0-190.5-28T227 878l36 183q114 43 214.5 64.5T672 1147q110 0 195-29.5t143-85 88-135.5 30-180q0-37-4.5-76.5T1111 559q-27-133-85-241.5T885 132 698 13 475-29zm29 156q69 0 129.5 23t110 65.5 87.5 104T893 459l-607-1q-9-51-9-96 0-115 57.5-175T504 127z" /><glyph unicode="&#x4da;" d="M492 1647q-15 0-22.5 9t-4.5 24l28 143q4 27 32 27h144q27 0 27-24 0-6-1-9l-29-143q-6-27-32-27H492zm391 0q-15 0-22.5 9t-4.5 24l28 143q4 27 32 27h143q15 0 22.5-9t4.5-24l-28-143q-5-27-32-27H883zM465-29Q270-29 175.5 81.5T81 420q0 140 36 325l16 83h787q12 74 18.5 136.5T945 1080q0 139-49.5 207.5T730 1356q-80 0-172-32t-178-93l41 207q85 42 170.5 62t170.5 20q199 0 294.5-112t95.5-339q0-141-36-324-76-388-236-581T465-29zm33 164q76 0 135.5 32.5T739 264t81 159 64 221H310q-11-66-16.5-124T288 412q0-135 48-206t162-71z" /><glyph unicode="&#x4db;" d="M469 1350q-15 0-22.5 9t-4.5 24l28 142q4 27 32 27h143q28 0 28-25 0-5-1-8l-28-142q-5-27-32-27H469zm391 0q-15 0-22.5 9t-4.5 24l28 142q4 27 32 27h143q28 0 28-25 0-5-1-8l-28-142q-5-27-32-27H860zM475-29q-92 0-162.5 26T194 72t-72.5 120.5T97 355q0 37 4 76t12 81l17 90h797l2 6q5 29 8 55.5t3 50.5q0 137-78.5 207T639 991q-90 0-190.5-28T227 878l36 183q114 43 214.5 64.5T672 1147q110 0 195-29.5t143-85 88-135.5 30-180q0-37-4.5-76.5T1111 559q-27-133-85-241.5T885 132 698 13 475-29zm29 156q69 0 129.5 23t110 65.5 87.5 104T893 459l-607-1q-9-51-9-96 0-115 57.5-175T504 127z" /><glyph unicode="&#x4dc;" d="M526 1647q-15 0-22.5 9t-4.5 24l28 143q4 27 32 27h144q27 0 27-24 0-6-1-9l-29-143q-6-27-32-27H526zm391 0q-15 0-22.5 9t-4.5 24l28 143q4 27 32 27h143q15 0 22.5-9t4.5-24l-28-143q-5-27-32-27H917zM347 891l-170 602h207l168-595 116 595h187L739 898l4e2 595h207L942 891 1073 0H876l-96 650-125-186L565 0H378l90 464-53 186L67 0h-197z" /><glyph unicode="&#x4dd;" d="M492 1310q-15 0-22.5 9t-4.5 24l28 142q4 27 32 27h143q28 0 28-25 0-5-1-8l-28-142q-5-27-32-27H492zm391 0q-15 0-22.5 9t-4.5 24l28 142q4 27 32 27h143q28 0 28-25 0-5-1-8l-28-142q-5-27-32-27H883zM348 716l-160 404h199l171-432 84 432h168l-84-432 339 432h199L946 716 1066 0H887l-88 528-139-177L592 0H424l68 351-69 177L129 0H-50z" /><glyph unicode="&#x4de;" d="M485 1647q-15 0-22.5 9t-4.5 24l28 143q4 27 32 27h144q27 0 27-24 0-6-1-9l-29-143q-6-27-32-27H485zm391 0q-15 0-22.5 9t-4.5 24l28 143q4 27 32 27h143q15 0 22.5-9t4.5-24l-28-143q-5-27-32-27H876zM382-29q-95 0-199 18T-18 45l38 201q91-52 185.5-78.5T396 141q93 0 168.5 24.5t129 69T776 341t29 137q0 117-71 177t-210 60H371l32 166h154q79 0 142.5 19.5T808 956t69 86.5 24 113.5q0 1e2-61.5 147T650 1350q-84 0-180-20t-210-60l37 186q124 33 220.5 48.5T693 1520q96 0 172-22t128.5-64.5 80.5-105 28-142.5q0-74-23.5-137.5t-67.5-114-107-85T762 799q112-21 177-1e2t65-219q0-113-44-206.5t-125-161T639 8 382-29z" /><glyph unicode="&#x4df;" d="M457 1350q-15 0-22.5 9t-4.5 24l28 142q4 27 32 27h143q28 0 28-25 0-5-1-8l-28-142q-5-27-32-27H457zm391 0q-15 0-22.5 9t-4.5 24l28 142q4 27 32 27h143q28 0 28-25 0-5-1-8l-28-142q-5-27-32-27H848zM426-22q-94 0-181.5 14T66 34l34 173q69-34 156.5-51.5T442 138q95 0 169 16t125 46 77.5 71.5T840 364q0 76-72 122t-212 46H398l28 144h165q69 0 123 11.5t92.5 31.5 62 47 31.5 58q4 13 4 28 0 59-66.5 95.5T640 984q-71 0-160-12.5T282 932l32 167q220 48 376 48 94 0 169-16.5t127-47.5 80-76 28-102q0-22-5-50-20-97-97-160t-2e2-88q112-21 171.5-78.5T1023 379q0-12-1.5-25t-3.5-27q-13-77-59-141.5T837.5 75t-179-71.5T426-22z" /><glyph unicode="&#x4e0;" d="M474-28Q224-28 91.5 63.5T-41 331q0 25 3 50.5t8 53.5h201q-3-17-5-33.5t-2-32.5q0-109 83.5-168T502 142q93 0 169 18.5t133.5 55 94 91.5T949 435q6 31 6 61 0 106-76.5 163T653 716H479l33 166 455 441H230l33 170h969l-32-168-462-441q58 0 115-15t107.5-42.5 91-65.5 64.5-84q40-74 40-174 0-52-12.5-107.5t-39.5-109-69.5-103T932 93Q757-28 474-28z" /><glyph unicode="&#x4e1;" d="M342-436q-96 0-190.5 17T-51-362l38 195q75-49 170-74t204-25q195 0 307.5 76.5T807 27q6 31 6 61 0 91-58 146-40 38-102 56t-142 18H337l33 166 527 499H230l28 147h874l-32-168-504-476q64 0 122.5-16.5t108-45 87.5-66 60-79.5q19-36 29.5-80t10.5-94q0-52-12.5-107.5t-39.5-109-69.5-103T790-315q-91-63-204.5-92T342-436z" /><glyph unicode="&#x4e2;" d="M532 1850h598l-29-148H503zM285 1493h195L241 264l743 1229h256L950 0H755l239 1229L251 0H-5z" /><glyph unicode="&#x4e3;" d="M469 1446h598l-29-148H440zM304 1120h184L331 311l644 809h184L941 0H757l157 809L270 0H86z" /><glyph unicode="&#x4e4;" d="M513 1647q-15 0-22.5 9t-4.5 24l28 143q4 27 32 27h144q27 0 27-24 0-6-1-9l-29-143q-6-27-32-27H513zm391 0q-15 0-22.5 9t-4.5 24l28 143q4 27 32 27h143q15 0 22.5-9t4.5-24l-28-143q-5-27-32-27H904zM285 1493h195L241 264l743 1229h256L950 0H755l239 1229L251 0H-5z" /><glyph unicode="&#x4e5;" d="M469 1310q-15 0-22.5 9t-4.5 24l28 142q4 27 32 27h143q28 0 28-25 0-5-1-8l-28-142q-5-27-32-27H469zm391 0q-15 0-22.5 9t-4.5 24l28 142q4 27 32 27h143q28 0 28-25 0-5-1-8l-28-142q-5-27-32-27H860zM304 1120h184L331 311l644 809h184L941 0H757l157 809L270 0H86z" /><glyph unicode="&#x4e6;" d="M492 1647q-15 0-22.5 9t-4.5 24l28 143q4 27 32 27h144q27 0 27-24 0-6-1-9l-29-143q-6-27-32-27H492zm391 0q-15 0-22.5 9t-4.5 24l28 143q4 27 32 27h143q15 0 22.5-9t4.5-24l-28-143q-5-27-32-27H883zM480-29Q82-29 82 459q0 128 23.5 263T167 975q31 97 66 170t71 127q84 125 194 186.5t253 61.5q201 0 300.5-119.5T1151 1037q0-60-6-125.5T1127.5 779 11e2 645.5 1064 516q-30-94-65-168t-72-129Q842 91 731 31T480-29zm17 164q49 0 90 13.5t75 39 62.5 62T778 333t47 104 40 119.5 33 128 25 131T938.5 943t5.5 117q0 66-9.5 120.5t-33 93.5-64 60.5T734 1356q-49 0-89.5-13.5t-74-38.5-62-62-53.5-83q-38-71-68.5-162t-53-189.5-34.5-196T287 432q0-69 10-124.5t34-93.5 64.5-58.5T497 135z" /><glyph unicode="&#x4e7;" d="M469 1350q-15 0-22.5 9t-4.5 24l28 142q4 27 32 27h143q28 0 28-25 0-5-1-8l-28-142q-5-27-32-27H469zm391 0q-15 0-22.5 9t-4.5 24l28 142q4 27 32 27h143q28 0 28-25 0-5-1-8l-28-142q-5-27-32-27H860zM514-29Q318-29 217.5 80T117 392q0 67 11 136.5t31 137 49.5 130T274 911q81 118 190.5 177t252.5 59q193 0 295-106.5T1114 724q0-65-10-133.5t-30-135-49-130T958 207Q878 91 768.5 31T514-29zm10 156q67 0 122.5 24.5t99.5 67 76.5 99 54.5 121T909.5 572 920 707q0 149-52.5 216.5T709 991q-67 0-122.5-24.5t-99.5-67-76.5-99-54.5-121T323.5 546 313 411q0-149 52.5-216.5T524 127z" /><glyph unicode="&#x4e8;" d="M465-29Q274-29 177.5 81.5T81 421q0 139 36 324 75 385 234 580t416 195q196 0 290.5-113t94.5-339q0-140-36-323-76-390-237-582T465-29zM928 881q8 56 12.5 105.5t4.5 93.5q0 66-11 117.5t-36 86.5-65 53.5-98 18.5q-77 0-135.5-32.5t-103.5-94-78.5-149.5T357 881h571zM499 135q77 0 138 35t109 106 85 179.5T898 711H321q-17-88-24.5-162T289 415q0-84 15-139 39-141 195-141z" /><glyph unicode="&#x4e9;" d="M502-29Q310-29 213 71.5T116 364q0 88 21 195 28 143 79 251.5T345 996q80 79 176 115t208 36q193 0 290.5-1e2t97.5-294q0-88-21-194-56-286-207.5-437T502-29zM910 611q5 32 7.5 62t2.5 58q0 122-52.5 191T7e2 991q-70 0-126.5-26.5t-101-75.5T396 769.5 343 611h567zM532 127q70 0 125 25t96 68.5 70.5 102T873 447H316q-3-32-3-60 0-56 11-103.5t36.5-82T428 147t104-20z" /><glyph unicode="&#x4ea;" d="M492 1647q-15 0-22.5 9t-4.5 24l28 143q4 27 32 27h144q27 0 27-24 0-6-1-9l-29-143q-6-27-32-27H492zm391 0q-15 0-22.5 9t-4.5 24l28 143q4 27 32 27h143q15 0 22.5-9t4.5-24l-28-143q-5-27-32-27H883zM465-29Q274-29 177.5 81.5T81 421q0 139 36 324 75 385 234 580t416 195q196 0 290.5-113t94.5-339q0-140-36-323-76-390-237-582T465-29zM928 881q8 56 12.5 105.5t4.5 93.5q0 66-11 117.5t-36 86.5-65 53.5-98 18.5q-77 0-135.5-32.5t-103.5-94-78.5-149.5T357 881h571zM499 135q77 0 138 35t109 106 85 179.5T898 711H321q-17-88-24.5-162T289 415q0-84 15-139 39-141 195-141z" /><glyph unicode="&#x4eb;" d="M469 1350q-15 0-22.5 9t-4.5 24l28 142q4 27 32 27h143q28 0 28-25 0-5-1-8l-28-142q-5-27-32-27H469zm391 0q-15 0-22.5 9t-4.5 24l28 142q4 27 32 27h143q28 0 28-25 0-5-1-8l-28-142q-5-27-32-27H860zM502-29Q310-29 213 71.5T116 364q0 88 21 195 28 143 79 251.5T345 996q80 79 176 115t208 36q193 0 290.5-1e2t97.5-294q0-88-21-194-56-286-207.5-437T502-29zM910 611q5 32 7.5 62t2.5 58q0 122-52.5 191T7e2 991q-70 0-126.5-26.5t-101-75.5T396 769.5 343 611h567zM532 127q70 0 125 25t96 68.5 70.5 102T873 447H316q-3-32-3-60 0-56 11-103.5t36.5-82T428 147t104-20z" /><glyph unicode="&#x4ec;" d="M442 1647q-15 0-22.5 9t-4.5 24l28 143q4 27 32 27h144q27 0 27-24 0-6-1-9l-29-143q-6-27-32-27H442zm391 0q-15 0-22.5 9t-4.5 24l28 143q4 27 32 27h143q15 0 22.5-9t4.5-24l-28-143q-5-27-32-27H833zM319-29Q141-29 4 53l41 207q63-63 142.5-94T353 135q99 0 179 39.5t141.5 110T778 451t68 210H214l33 170h627q4 48 6 98.5t2 88.5q0 39-3.5 79.5t-14 78T835 1246t-50.5 57.5T707 1342t-110 14q-186 0-364-125l41 207q168 82 348 82 94 0 166-21t125.5-58 89-87 57.5-108.5 31-122 9-127.5q0-116-27-252-36-184-105-328T802.5 173 584 22.5 319-29z" /><glyph unicode="&#x4ed;" d="M469 1350q-15 0-22.5 9t-4.5 24l28 142q4 27 32 27h143q28 0 28-25 0-5-1-8l-28-142q-5-27-32-27H469zm391 0q-15 0-22.5 9t-4.5 24l28 142q4 27 32 27h143q28 0 28-25 0-5-1-8l-28-142q-5-27-32-27H860zM416-29q-92 0-164.5 21.5T112 57l38 191q103-121 283-121 88 0 159 27t126 77.5T811.5 354 873 516H331l28 144h537q1 10 1 19v18q0 55-13 108t-46 94.5-88.5 66.5T609 991q-91 0-174.5-30.5T270 868l38 193q42 21 82.5 37t82 27 84.5 16.5 90 5.5q124 0 209.5-36t138-95.5T1070 879t23-158q0-38-4.5-78t-12.5-84q-27-139-86.5-248.5T844 125.5t-194.5-115T416-29z" /><glyph unicode="&#x4ee;" d="M546 1850h598l-29-148H517zM87 172h109q40 0 73.5 12t62 34 54 53.5T435 342q10 16 21.5 35.5T479 416L264 1493h217l150-830 469 830h213L694 425q-46-80-92.5-150T513 156q-24-28-53.5-55.5t-67-50T308 14 202 0H54z" /><glyph unicode="&#x4ef;" d="M489 1438h598l-29-148H460zM10-272h108q42 0 77 12t66 37.5 59.5 64.5T376-66l43 84-217 1102h183l172-862 483 862h205L806 360q-25-43-49.5-86T710 192.5l-40-70T641 72Q562-66 512.5-150T432-276q-60-79-136-114.5T129-426H-19z" /><glyph unicode="&#x4f0;" d="M517 1647q-15 0-22.5 9t-4.5 24l28 143q4 27 32 27h144q27 0 27-24 0-6-1-9l-29-143q-6-27-32-27H517zm391 0q-15 0-22.5 9t-4.5 24l28 143q4 27 32 27h143q15 0 22.5-9t4.5-24l-28-143q-5-27-32-27H908zM87 172h109q40 0 73.5 12t62 34 54 53.5T435 342q10 16 21.5 35.5T479 416L264 1493h217l150-830 469 830h213L694 425q-46-80-92.5-150T513 156q-24-28-53.5-55.5t-67-50T308 14 202 0H54z" /><glyph unicode="&#x4f1;" d="M489 1320q-15 0-22.5 9t-4.5 24l28 142q4 27 32 27h143q28 0 28-25 0-5-1-8l-28-142q-5-27-32-27H489zm391 0q-15 0-22.5 9t-4.5 24l28 142q4 27 32 27h143q28 0 28-25 0-5-1-8l-28-142q-5-27-32-27H880zM10-272h108q42 0 77 12t66 37.5 59.5 64.5T376-66l43 84-217 1102h183l172-862 483 862h205L806 360q-25-43-49.5-86T710 192.5l-40-70T641 72Q562-66 512.5-150T432-276q-60-79-136-114.5T129-426H-19z" /><glyph unicode="&#x4f2;" d="M781 1852h186l-280-264H533zm319 0h186l-280-264H852zM87 172h109q40 0 73.5 12t62 34 54 53.5T435 342q10 16 21.5 35.5T479 416L264 1493h217l150-830 469 830h213L694 425q-46-80-92.5-150T513 156q-24-28-53.5-55.5t-67-50T308 14 202 0H54z" /><glyph unicode="&#x4f3;" d="M703 1648h189l-302-376H455zm340 0h197l-324-376H781zM5-272h108q42 0 77 12t66 37.5 59.5 64.5T371-66l43 84-217 1102h183l172-862 483 862h205L801 360q-25-43-49.5-86T705 192.5l-40-70T636 72Q557-66 507.5-150T427-276q-60-79-136-114.5T124-426H-24z" /><glyph unicode="&#x4f4;" d="M486 1647q-15 0-22.5 9t-4.5 24l28 143q4 27 32 27h144q27 0 27-24 0-6-1-9l-29-143q-6-27-32-27H486zm391 0q-15 0-22.5 9t-4.5 24l28 143q4 27 32 27h143q15 0 22.5-9t4.5-24l-28-143q-5-27-32-27H877zM866 658q-59-27-107-43t-91-24.5-82-11-80-2.5q-67 0-115 5t-82.5 16.5-59 30T205 675q-22 31-33 66.5T161 830q0 30 3.5 71t11.5 79l1e2 513h203l-95-487q-6-32-9-63t-3-54q0-40 8-57.5t20-28.5q26-24 69-32t118-8q46 0 83.5 3t73.5 13.5 74.5 30T905 861l123 632h203L941 0H738z" /><glyph unicode="&#x4f5;" d="M469 1322q-15 0-22.5 9t-4.5 24l28 142q4 27 32 27h143q28 0 28-25 0-5-1-8l-28-142q-5-27-32-27H469zm391 0q-15 0-22.5 9t-4.5 24l28 142q4 27 32 27h143q28 0 28-25 0-5-1-8l-28-142q-5-27-32-27H860zM829 466q-8-3-35.5-13.5T724 431t-96.5-20-117.5-9q-85 0-144 18t-95.5 50.5-53 77.5-16.5 99q0 49 12 108l71 367h184l-71-367q-6-30-6-56 0-78 52-107.5T605 562q60 0 121.5 11T859 621l97 501h184L922 0H738z" /><glyph unicode="&#x4f6;" d="M569 170h203l106 548q-20-17-43-33.5T780 652l-53-26q-35-17-93-30.5T505 579l-48-2q-160 0-232 84-7 8-12 16t-8 13q-17 31-26.5 74t-9.5 98q0 73 18 168l90 465h203l-85-439q-13-64-13-117 0-91 43.5-133.5T564 763q50 0 98 11t96 31q30 13 47 24.5t30 24.5q45 45 75 113t46 150l73 378h203L942 0H739l-61-312H475z" /><glyph unicode="&#x4f7;" d="M586 184h183l74 382q-39-52-104-87l-51-27q-95-50-209-50-138 0-204 71.5T209 686q0 74 18 169l52 267h185l-52-267q-6-32-9.5-60.5T399 740q0-93 43.5-135.5T573 562q130 0 217 90t121 264l40 206h184L917 0H733l-54-276H496z" /><glyph unicode="&#x4f8;" d="M493 1647q-15 0-22.5 9t-4.5 24l28 143q4 27 32 27h144q27 0 27-24 0-6-1-9l-29-143q-6-27-32-27H493zm391 0q-15 0-22.5 9t-4.5 24l28 143q4 27 32 27h143q15 0 22.5-9t4.5-24l-28-143q-5-27-32-27H884zM211 1493h202L296 893h91q87 0 156.5-22t118-65 75-105.5T763 557q0-26-2.5-54t-8.5-57q-22-111-73-194.5T556 112 396.5 28 214 0H-79zm866 0h203L990 0H787zM246 166q52 0 99 16t86 50.5 67.5 87T541 446q9 46 9 87 0 93-48.5 143.5T355 727h-91L155 166h91z" /><glyph unicode="&#x4f9;" d="M469 1320q-15 0-22.5 9t-4.5 24l28 142q4 27 32 27h143q28 0 28-25 0-5-1-8l-28-142q-5-27-32-27H469zm391 0q-15 0-22.5 9t-4.5 24l28 142q4 27 32 27h143q28 0 28-25 0-5-1-8l-28-142q-5-27-32-27H860zM213 1120h182l-88-453h91q105 0 178.5-20t120-54.5 68-82T786 408q0-19-2-37.5t-6-38.5Q746 164 614 82T268 0H-5zm841 0h184L1020 0H836zM290 153q259 0 293 181 2 11 3 21.5t1 18.5q0 140-227 140h-83l-70-361h83z" /><glyph unicode="&#x510;" d="M512-29Q404-29 320-6T179 61 92 168.5 62 313q0 49 10 99 29 149 125 248t253 139q-106 29-159 91.5T238 1047q0 17 1.5 35.5t5.5 37.5q17 91 66 164.5t122 126 166 81 199 28.5q78 0 168.5-16t205.5-48l-36-186q-97 41-189 60.5T778 1350q-144 0-230-63t-105-175q-4-23-4-47 0-93 66.5-138.5T693 881h154l-32-166H661q-74 0-138-18.5T409 642t-84-88.5T276 432q-8-40-8-71 0-103 74.5-161.5T566 141q96 0 2e2 25.5T982 246L943 45Q832 9 721.5-10T512-29z" /><glyph unicode="&#x511;" d="M544-29Q435-29 350.5-8T211 59q-45 38-64.5 86T127 244q0 35 8 69.5t23 66.5 36 59.5 46 48.5l36 30q67 54 158 74-14 3-31 8.5T374 612q-16 8-35.5 23t-36 37.5-27.5 52-11 66.5q0 10 1 20t3 21q11 66 52.5 121.5t106 95 149 61.5 181.5 22q70 0 152-12t188-36l-35-179q-47 16-94.5 28T876 952.5 793.5 963t-66.5 2l-31-1q-38-2-76.5-15T553 919l-44-28q-17-14-26-30t-14-40q-3-14-3-26 0-17 11-33t43-38q38-26 79-40t98-14h127l-32-163H666q-55 0-115.5-18T442 444t-71.5-58-30.5-65q-2-6-3.5-18.5T335 278q0-53 58-99 4-2 7-5t7-5q32-23 77.5-34t99.5-11q20 0 34 1.5t30 3.5l128 29 15 3q20 4 45 9.5t50 12 46.5 12.5 35.5 12L932 26Q833-1 734-15T544-29z" /><glyph unicode="&#x51a;" d="M504-27h-10Q283-27 182.5 90.5T82 457q0 130 23.5 265T167 975q30 94 65 168t72 129q85 128 196 188t251 60q202 0 301-120.5t99-359.5q0-96-15-201t-41-210q-29-114-63.5-202T962 275q-58-105-126-168T690 10l154-188-154-92zm-7 162q49 0 90 13.5t75 39 62.5 62T778 333t47 104 40 119.5 33 128 25 131T938.5 943t5.5 117q0 66-9.5 120.5t-33 93.5-64 60.5T734 1356q-49 0-89.5-13.5t-74-38.5-62-62-53.5-83q-38-71-68.5-162t-53-189.5-34.5-196T287 432q0-69 10-124.5t34-93.5 64.5-58.5T497 135z" /><glyph unicode="&#x51b;" d="M774 141Q651-29 444-29q-81 0-145.5 26.5T189.5 75t-68 126T98 374q0 66 10.5 136.5T139 651t48.5 136T252 909q74 115 176 176.5t233 61.5q108 0 174-43.5T936 977l47 143h164L848-426H664zM494 127q82 0 152.5 43.5T768 305q24 42 43.5 94.5T845 508t21.5 112.5T874 728q0 135-53.5 199T666 991q-170 0-265-174-24-45-44-99t-33.5-111.5-21-115T295 384q0-257 199-257z" /><glyph unicode="&#x51c;" d="M153 1493h191L254 283l329 8e2h211l15-802 377 1212h198L874 0H680l-31 870L278 0H90z" /><glyph unicode="&#x51d;" d="M92 1120h176l15-905 268 578h162l49-578 362 905h191L829 0H664l-60 623L307 0H141z" /><glyph unicode="&#x531;" d="M893-60q-80 40-157 99-125-68-293-68Q332-29 251 .5T121 90q-68 83-68 224 0 65 15 143l201 1036h202L258 395q-8-40-8-76 0-26 5-51t17-47q21-38 68.5-62T474 135q75 0 132 20-51 54-87.5 107T463 366l155 92q18-51 50-98t77-92q23 37 32.5 70.5T792 395l213 1098h202L1006 457q-18-93-49.5-165.5T880 162q27-18 55.5-34T993 98L893-60v0z" /><glyph unicode="&#x532;" d="M181 1036q24 125 73.5 215.5T376 1402t164.5 89 203.5 29 192-29 130-89q68-85 68-224 0-66-15-142l-31-161H886l43 223q8 40 8 77 0 26-5 50.5t-17 45.5q-22 38-70 61.5T711 1356t-142-23.5-92-61.5q-33-35-52.5-79t-29.5-94l-93-477h774l-33-170H269L182 0H-19z" /><glyph unicode="&#x533;" d="M760 451H491q-109 0-187.5 31T177 579q-32 43-49 101t-17 136q0 76 18 172 27 143 78.5 244T331 1397t164 93.5 204 29.5q111 0 192.5-29.5T1021 1397q32-42 48.5-100.5T1086 1163q0-80-19-175l-72-367h125l-33-170H962L875 0H673zm33 170 85 437q5 27 8.5 53t3.5 50q0 28-5 53t-16 48q-21 42-69 68t-136 26-142-27-91-78q-36-49-62.5-118.5T328 988q-8-42-12-81.5t-4-74.5q0-68 14-108 16-46 63-74.5T524 621h269z" /><glyph unicode="&#x534;" d="M855 1098q4 20 6 39t2 39q0 26-5 50t-17 45q-22 38-70 61.5T637 1356t-142-23.5-92-61.5q-32-34-52-78t-30-95l-43-223H76l31 161q24 125 73.5 215.5T302 1402t164.5 89 203.5 29 192-29 130-89q33-42 50.5-97.5T1060 1177q0-65-15-141l-81-415h187l-33-170H931L844 0H642z" /><glyph unicode="&#x535;" d="M449-29Q338-29 257 .5T127 90q-68 83-68 224 0 65 15 143l201 1036h202l-72-373h774l-33-170H372L264 395q-8-40-8-76 0-26 5-51t17-47q21-38 67.5-62T479 135q86 0 143.5 24t93.5 62q35 37 54 82.5t28 91.5l43 223h202l-31-161q-24-125-73.5-216T817 90 652.5.5 449-29z" /><glyph unicode="&#x536;" d="M56 331h203l-31-161h51q51 0 114 24.5T525 265t135 109.5T786 522q66 92 105 182t61 191q12 55 17.5 104t5.5 92q0 104-29 162-27 55-82.5 79T727 1356q-86 0-148-25.5T470 1253q-51-57-85.5-145T325 895l-4-20H118l4 20q32 162 91.5 283.5T364 1380q84 74 185 107t208 33q52 0 101.5-8t94.5-24.5 83-43.5 66-64q38-51 60-128t22-173q0-44-4.5-90t-15.5-95q-20-95-55.5-180T1025 552 923.5 411.5 816 298t-104-82.5-89-45.5h359L949 0H-7z" /><glyph unicode="&#x537;" d="M265 1493h203l-73-373h790l-33-170H362L210 170h651L828 0H-25z" /><glyph unicode="&#x538;" d="M181 1036q24 125 73.5 216T376 1403t164.5 89.5T744 1522t192-29.5 130-89.5q33-42 50.5-97.5T1134 1178q0-64-15-142l-31-161H886l43 223q4 20 6 39t2 38q0 26-5 50.5t-17 46.5q-20 36-66.5 61T713 1358q-87 0-143.5-24t-92.5-62q-33-35-52.5-79.5T395 1098L215 170h774L956 0H-19z" /><glyph unicode="&#x539;" d="M570-29q-71 0-126 25.5T355 76q-22 35-33.5 81.5T310 264q0 33 4 71t12 80q23 118 65 204t98 143 122 85 138 28h138l4 24q11 66 19.5 124.5T919 1133q0 34-5 63t-16 54q-26 56-80 81t-148 25q-92 0-157-24t-111-78q-43-51-75-134t-57-211L94 0h-195L79 934q29 152 86 260t135 180q80 73 181 109.5t220 36.5 206-37 138-112q68-1e2 68-261 0-42-4.5-87.5T1094 927l-10-52h131l-34-175h-131l-56-285q-20-105-60.5-187T836 87Q780 30 713 .5T570-29zm35 164q34 0 63 14t53 47q29 39 46 96t30 123l56 285H715q-35 0-62.5-12T601 642q-11-15-21-35t-21-53q-10-30-20-69.5t-17.5-81-12-80.5-4.5-69q0-49 11.5-72.5T547 147q22-12 58-12z" /><glyph unicode="&#x53a;" d="M411-29Q296-29 214 6.5T88 115q-29 49-44 117.5T29 382q0 79 15 162 25 129 82 239.5T260 971q149 149 367 149h269l72 373h202l-72-373h125l-33-170h-125l-87-446q-29-147-80.5-246.5T774 95Q7e2 30 607 .5T411-29zm30 164q149 0 233 95 36 41 56 91.5T762 433l101 517H594q-89 0-145.5-32.5T353 827q-37-54-63.5-129.5T248 543q-8-42-13.5-89t-5.5-92q0-61 12-104 17-58 63.5-90.5T441 135z" /><glyph unicode="&#x53b;" d="M292 1493h202l-84-432q68 42 138 61t151 19q103 0 184.5-29.5T1014 1022q33-42 50.5-98.5T1082 795q0-65-15-140l-32-161H833l44 223q8 38 8 77 0 26-5 50.5T863 891q-22 38-70 62t-134 24-142-24-92-62q-33-35-52.5-79.5T343 717L203 0H1z" /><glyph unicode="&#x53c;" d="M299 1493h203L244 170h721L932 0H8z" /><glyph unicode="&#x53d;" d="M658-29Q552-29 491-2.5T402 80q-26 51-26 132 0 45 7 97.5T402 425l101 520H320L136 0H-49l289 1493h186l-72-373h369L583 401q-9-45-14-80.5t-5-64.5q0-35 10-63 12-32 39.5-45t75.5-13 79.5 13.5T822 193q23 32 38 85.5T889 401l140 719h186l-135-695q-23-119-52.5-204.5T951 80Q903 23 832-3T658-29z" /><glyph unicode="&#x53e;" d="M474-29Q372-29 297.5-7T170 58q-55 45-80.5 103T55 290q-6 49-6 101 0 56 6.5 113.5T74 621q26 126 72.5 242.5T257 1081H119l80 412h183l-48-245h52q58 61 125.5 112.5T654 1448q76 37 155 54.5t170 17.5q47 0 93-4.5t85-13.5 75-22.5 78-31.5l-42-215q-93 70-180.5 97T918 1357q-94 0-173.5-29T599 1247q165-4 281.5-47t184.5-121q50-57 76-137t26-180q0-38-4-78t-12-83q-16-81-44.5-161.5T1040 291t-89.5-127T827 61 667.5-6 474-29zm38 164q84 0 144 17.5T761 202q42 30 71 71.5t50 99.5q3 8 10 28.5t15.5 50 18 67T943 6e2q8 45 13 87t5 80q0 20-1 38t-4 35q-9 57-36 99.5t-83 73.5q-59 32-150 50t-223 18h-12q-61-94-103-212.5T281 622q-9-45-16-86.5t-11-77-6-62.5-2-42q0-43 10-81t38-68q30-33 81.5-51.5T512 135z" /><glyph unicode="&#x53f;" d="M821 431q-63-38-132.5-58.5T531 352q-102 0-183.5 29.5T217 471q-68 83-68 225 0 64 15 142l128 655h202L354 776q-8-40-8-75 0-26 5-51t18-48q11-19 27.5-35t40.5-27 57-17.5 76-6.5q87 0 143.5 24t92.5 62q33 35 52.5 79.5T888 776l67 344h202L939 0H737z" /><glyph unicode="&#x540;" d="M251 266q-48 21-88.5 44T93 362q-23 22-36 47t-13 57q0 35 19.5 77.5T126 635q32 37 84 82t126 99q64 46 137.5 93.5t152 93.5 161.5 90 167 85l-119 315h238l143-375q-119-52-231-108T773 898q-95-53-183-108T433 684q-64-48-102-86-23-23-33.5-40.5T287 525q0-19 19-38 11-10 28.5-22t49.5-26l647-289-40-204z" /></font>
</defs>
</svg>
